<?xml version="1.0"?>
<Project_Data Version="8.00">
<Project_Settings>
<ProfileName>MP4 only (up to 1080p)</ProfileName>
<ProjectWidth>1360</ProjectWidth>
<ProjectHeight>720</ProjectHeight>
<IsCustomProject>1</IsCustomProject>
<SavedProjectSettings>1</SavedProjectSettings>
<LastFlashTemplate>-1</LastFlashTemplate>
</Project_Settings>


<AutoSaveFile>C:\Users\jiayue\AppData\Local\TechSmith\Camtasia Studio\8.0\Auto-Saves\初识3Done26edc696.autosave.camproj</AutoSaveFile>

<ProjectID>5CC2391C-4CDD-40D6-A0B0-83FC222750DA</ProjectID>

<PowerPointProject>0</PowerPointProject>

<PowerPointFilename></PowerPointFilename>


<Project_Notes>
</Project_Notes>

<Project_MetaData>
<Project_MetaData_Object>
<FieldArrayKey>8</FieldArrayKey>
<Value>初识3Done</Value>
</Project_MetaData_Object>
<Project_MetaData_Object>
<FieldArrayKey>13</FieldArrayKey>
<Value>2020-02-08 09:36:55 下午</Value>
</Project_MetaData_Object>
<Project_MetaData_Object>
<FieldArrayKey>16</FieldArrayKey>
<Value>ENU</Value>
</Project_MetaData_Object>
</Project_MetaData>

<CSMLData>
<GoProject id="1" version="3.0" >
 <Project id="2" editRate="30/1" version="3.0" >
  <Author></Author>
  <Comment></Comment>
  <System></System>
  <SourceBin id="3"  >
    <Source id="4" src="C:\Users\jiayue\Desktop\初识神奇的3Done\录屏\初识神奇的3Done.trec" lastMod="20200208T135340" rect="(0,0,1920,1016)" >
      <SourceTrack range="(0,22880)" type="0" editRate="30/1" trackRect="(0,0,1920,1016)" sampleRate="0/1" bitDepth="0" numChannels="0" filename="初识神奇的3Done.trec!Strack0.tsc2" metaData="初识神奇的3Done.trec;" />
      <SourceTrack range="(0,33649664)" type="2" editRate="44100/1" trackRect="(0,0,0,0)" sampleRate="44100/1" bitDepth="16" numChannels="2" filename="初识神奇的3Done.trec!Maudio1.mp4" metaData="" />
      <SourceTrack range="(0,33605632)" type="2" editRate="44100/1" trackRect="(0,0,0,0)" sampleRate="44100/1" bitDepth="16" numChannels="2" filename="初识神奇的3Done.trec!$audio2.mp4" metaData="" />
    </Source>
    <Source id="5" src="C:\Users\jiayue\Music\Music Lab Collective - Let Her Go (Passenger Cover)(1).mp3" lastMod="20200208T113506" rect="(0,0,0,0)" >
      <SourceTrack range="(0,2577000000)" type="2" editRate="10000000/1" trackRect="(0,0,0,0)" sampleRate="44100/1" bitDepth="0" numChannels="2" filename="" metaData="" />
    </Source>
    <Source id="6" src="C:\Users\jiayue\Desktop\初识神奇的3Done\片头.trec" lastMod="20200209T024352" rect="(0,0,1920,1016)" >
      <SourceTrack range="(0,1391)" type="0" editRate="30/1" trackRect="(0,0,1920,1016)" sampleRate="0/1" bitDepth="0" numChannels="0" filename="片头.trec!Strack0.tsc2" metaData="片头.trec;" />
      <SourceTrack range="(0,2052096)" type="2" editRate="44100/1" trackRect="(0,0,0,0)" sampleRate="44100/1" bitDepth="16" numChannels="2" filename="片头.trec!Maudio1.mp4" metaData="" />
      <SourceTrack range="(0,2030592)" type="2" editRate="44100/1" trackRect="(0,0,0,0)" sampleRate="44100/1" bitDepth="16" numChannels="2" filename="片头.trec!$audio2.mp4" metaData="" />
    </Source>
  </SourceBin>
  <Timeline id="7"  >
   <Attributes>
    <Attribute id="8" value="1360" name="width"/>
    <Attribute id="9" value="720" name="height"/>
    <Attribute id="10" value="(0,0,0,255)" name="backgroundColor"/>
   </Attributes>
    <GenericMixer id="11"  name="Unified Mixer">
     <MetaData>
      <entry key="MixerType" val="TimelineMixer"/>
     </MetaData>
     <Tracks>
      <GenericTrack id="12"  >
       <Attributes>
        <Attribute id="13" value="" name="ident"/>
        <Attribute id="14" value="0" name="audioMuted"/>
        <Attribute id="15" value="0" name="videoHidden"/>
       </Attributes>
       <MetaData>
        <entry key="IsLocked" val="False"/>
        <entry key="WinTrackHeight" val="62"/>
       </MetaData>
       <Medias>
        <StitchedMedia id="16" start="279" duration="12599" scalar="1/1" mediaStart="2844/1" mediaDuration="12599/1" minMediaStart="0/1" >
         <Transformer>
          <VectorParam id="17"  name="translation">
           <InterpolatingParam id="18" interp="linr"  time="0/1" value="0" leadInLength="0/1"  />
           <InterpolatingParam id="19" interp="linr"  time="0/1" value="0" leadInLength="0/1"  />
           <InterpolatingParam id="20" interp="linr"  time="0/1" value="0" leadInLength="0/1"  />
          </VectorParam>
          <VectorParam id="21"  name="rotation">
           <InterpolatingParam id="22" interp="linr"  time="0/1" value="0" leadInLength="0/1"  />
           <InterpolatingParam id="23" interp="linr"  time="0/1" value="0" leadInLength="0/1"  />
           <InterpolatingParam id="24" interp="linr"  time="0/1" value="0" leadInLength="0/1"  />
          </VectorParam>
          <VectorParam id="25"  name="shear">
           <InterpolatingParam id="26" interp="linr"  time="0/1" value="0" leadInLength="0/1"  />
           <InterpolatingParam id="27" interp="linr"  time="0/1" value="0" leadInLength="0/1"  />
           <InterpolatingParam id="28" interp="linr"  time="0/1" value="0" leadInLength="0/1"  />
          </VectorParam>
          <VectorParam id="29"  name="scale">
           <InterpolatingParam id="30" interp="linr"  time="0/1" value="1" leadInLength="0/1"  />
           <InterpolatingParam id="31" interp="linr"  time="0/1" value="1" leadInLength="0/1"  />
           <InterpolatingParam id="32" interp="linr"  time="0/1" value="1" leadInLength="0/1"  />
          </VectorParam>
          <VectorParam id="33"  name="anchor">
           <InterpolatingParam id="34" interp="linr"  time="0/1" value="0" leadInLength="0/1"  />
           <InterpolatingParam id="35" interp="linr"  time="0/1" value="0" leadInLength="0/1"  />
           <InterpolatingParam id="36" interp="linr"  time="0/1" value="0" leadInLength="0/1"  />
          </VectorParam>
         </Transformer>
         <Parameters>
          <InterpolatingParam id="37" interp="linr"  time="0/1" value="1" leadInLength="0/1"  name="cursorOpacity"/>
          <InterpolatingParam id="38" interp="linr"  time="0/1" value="1" leadInLength="0/1"  name="cursorScale"/>
          <InterpolatingParam id="39" interp="linr"  name="volume">
           <Keyframes>
           <Keyframe id="40"  time="0/1" value="0.94292803970223316" leadInLength="0/1"  />
           <Keyframe id="41"  time="7258/1" value="0.94292803970223316" leadInLength="0/1"  />
           <Keyframe id="42"  time="7259/1" value="1.8416563275434241" leadInLength="0/1"  />
           <Keyframe id="43"  time="7909/1" value="1.8416563275434241" leadInLength="0/1"  />
           <Keyframe id="44"  time="7910/1" value="0.94292803970223316" leadInLength="0/1"  />
           <Keyframe id="45"  time="7915/1" value="0.94292803970223316" leadInLength="0/1"  />
           <Keyframe id="46"  time="7916/1" value="0.21505376344085925" leadInLength="0/1"  />
           <Keyframe id="47"  time="8323/1" value="0.33085194375516974" leadInLength="0/1"  />
           <Keyframe id="48"  time="14691/1" value="0.36313513433944183" leadInLength="0/1"  />
           <Keyframe id="49"  time="14847/1" value="0.19851116625310172" leadInLength="0/1"  />
           <Keyframe id="50"  time="14848/1" value="0.94292803970223316" leadInLength="0/1"  />
           <Keyframe id="51"  time="14868/1" value="0.94292803970223316" leadInLength="0/1"  />
           <Keyframe id="52"  time="14869/1" value="1.8416563275434241" leadInLength="0/1"  />
           <Keyframe id="53"  time="15443/1" value="1.8416563275434241" leadInLength="0/1"  />
           <Keyframe id="54"  time="15444/1" value="0.94292803970223316" leadInLength="0/1"  />
           </Keyframes>
          </InterpolatingParam>
          <Parameter id="55"  name="captions"/>
         </Parameters>
         <Attributes>
          <Attribute id="56" value="" name="ident"/>
          <Attribute id="57" value="0" name="mixToMono"/>
         </Attributes>
         <MetaData>
          <entry key="WinSubProjectDisplayName" val=""/>
         </MetaData>
         <ExtraData>
          <Entry key="ZoomPanBin">
           <ZoomPanBin id="58"  >
            <ZoomPanKeyframes>
            </ZoomPanKeyframes>
           </ZoomPanBin>
          </Entry>
          <Entry key="CursorEffectBin">
           <CursorEffectBin id="59"  >
            <CursorEffectKeyframes>
            </CursorEffectKeyframes>
           </CursorEffectBin>
          </Entry>
         </ExtraData>
         <GenericTrack id="60"  >
          <Attributes>
           <Attribute id="61" value="" name="ident"/>
           <Attribute id="62" value="0" name="audioMuted"/>
           <Attribute id="63" value="0" name="videoHidden"/>
          </Attributes>
          <MetaData>
           <entry key="IsLocked" val="False"/>
           <entry key="WinTrackHeight" val="0"/>
          </MetaData>
          <Medias>
           <AMFile id="64" start="0" duration="4046" scalar="1/1" mediaStart="0/1" mediaDuration="4046/1" trackNumber="2" src="4" channelNumber="0,1" >
            <Parameters>
             <InterpolatingParam id="65" interp="linr"  time="0/1" value="1" leadInLength="0/1"  name="volume"/>
             <Parameter id="66"  name="captions"/>
            </Parameters>
            <Attributes>
             <Attribute id="67" value="" name="ident"/>
             <Attribute id="68" value="44100" name="sampleRate"/>
             <Attribute id="69" value="16" name="bitDepth"/>
             <Attribute id="70" value="1" name="gain"/>
             <Attribute id="71" value="0" name="mixToMono"/>
            </Attributes>
            <MetaData>
             <entry key="WinSubProjectDisplayName" val=""/>
            </MetaData>
           </AMFile>
           <AMFile id="72" start="4046" duration="932" scalar="1/1" mediaStart="6165/1" mediaDuration="932/1" trackNumber="2" src="4" channelNumber="0,1" >
            <Parameters>
             <InterpolatingParam id="73" interp="linr"  time="0/1" value="1" leadInLength="0/1"  name="volume"/>
             <Parameter id="74"  name="captions"/>
            </Parameters>
            <Attributes>
             <Attribute id="75" value="" name="ident"/>
             <Attribute id="76" value="44100" name="sampleRate"/>
             <Attribute id="77" value="16" name="bitDepth"/>
             <Attribute id="78" value="1" name="gain"/>
             <Attribute id="79" value="0" name="mixToMono"/>
            </Attributes>
            <MetaData>
             <entry key="WinSubProjectDisplayName" val=""/>
            </MetaData>
           </AMFile>
           <AMFile id="80" start="4978" duration="114" scalar="1/1" mediaStart="7114/1" mediaDuration="114/1" trackNumber="2" src="4" channelNumber="0,1" >
            <Parameters>
             <InterpolatingParam id="81" interp="linr"  time="0/1" value="1" leadInLength="0/1"  name="volume"/>
             <Parameter id="82"  name="captions"/>
            </Parameters>
            <Attributes>
             <Attribute id="83" value="" name="ident"/>
             <Attribute id="84" value="44100" name="sampleRate"/>
             <Attribute id="85" value="16" name="bitDepth"/>
             <Attribute id="86" value="1" name="gain"/>
             <Attribute id="87" value="0" name="mixToMono"/>
            </Attributes>
            <MetaData>
             <entry key="WinSubProjectDisplayName" val=""/>
            </MetaData>
           </AMFile>
           <AMFile id="88" start="5092" duration="1114" scalar="1/1" mediaStart="7407/1" mediaDuration="1114/1" trackNumber="2" src="4" channelNumber="0,1" >
            <Parameters>
             <InterpolatingParam id="89" interp="linr"  time="0/1" value="1" leadInLength="0/1"  name="volume"/>
             <Parameter id="90"  name="captions"/>
            </Parameters>
            <Attributes>
             <Attribute id="91" value="" name="ident"/>
             <Attribute id="92" value="44100" name="sampleRate"/>
             <Attribute id="93" value="16" name="bitDepth"/>
             <Attribute id="94" value="1" name="gain"/>
             <Attribute id="95" value="0" name="mixToMono"/>
            </Attributes>
            <MetaData>
             <entry key="WinSubProjectDisplayName" val=""/>
            </MetaData>
           </AMFile>
           <AMFile id="96" start="6206" duration="527" scalar="1/1" mediaStart="9138/1" mediaDuration="527/1" trackNumber="2" src="4" channelNumber="0,1" >
            <Parameters>
             <InterpolatingParam id="97" interp="linr"  time="0/1" value="1" leadInLength="0/1"  name="volume"/>
             <Parameter id="98"  name="captions"/>
            </Parameters>
            <Attributes>
             <Attribute id="99" value="" name="ident"/>
             <Attribute id="100" value="44100" name="sampleRate"/>
             <Attribute id="101" value="16" name="bitDepth"/>
             <Attribute id="102" value="1" name="gain"/>
             <Attribute id="103" value="0" name="mixToMono"/>
            </Attributes>
            <MetaData>
             <entry key="WinSubProjectDisplayName" val=""/>
            </MetaData>
           </AMFile>
           <AMFile id="104" start="6733" duration="534" scalar="1/1" mediaStart="9996/1" mediaDuration="534/1" trackNumber="2" src="4" channelNumber="0,1" >
            <Parameters>
             <InterpolatingParam id="105" interp="linr"  time="0/1" value="1" leadInLength="0/1"  name="volume"/>
             <Parameter id="106"  name="captions"/>
            </Parameters>
            <Attributes>
             <Attribute id="107" value="" name="ident"/>
             <Attribute id="108" value="44100" name="sampleRate"/>
             <Attribute id="109" value="16" name="bitDepth"/>
             <Attribute id="110" value="1" name="gain"/>
             <Attribute id="111" value="0" name="mixToMono"/>
            </Attributes>
            <MetaData>
             <entry key="WinSubProjectDisplayName" val=""/>
            </MetaData>
           </AMFile>
           <AMFile id="112" start="7267" duration="649" scalar="1/1" mediaStart="12732/1" mediaDuration="649/1" trackNumber="2" src="4" channelNumber="0,1" >
            <Parameters>
             <InterpolatingParam id="113" interp="linr"  time="0/1" value="1" leadInLength="0/1"  name="volume"/>
             <Parameter id="114"  name="captions"/>
            </Parameters>
            <Attributes>
             <Attribute id="115" value="" name="ident"/>
             <Attribute id="116" value="44100" name="sampleRate"/>
             <Attribute id="117" value="16" name="bitDepth"/>
             <Attribute id="118" value="1" name="gain"/>
             <Attribute id="119" value="0" name="mixToMono"/>
            </Attributes>
            <MetaData>
             <entry key="WinSubProjectDisplayName" val=""/>
            </MetaData>
           </AMFile>
           <AMFile id="120" start="7916" duration="6938" scalar="1/1" mediaStart="13462/1" mediaDuration="6938/1" trackNumber="2" src="4" channelNumber="0,1" >
            <Parameters>
             <InterpolatingParam id="121" interp="linr"  time="0/1" value="1" leadInLength="0/1"  name="volume"/>
             <Parameter id="122"  name="captions"/>
            </Parameters>
            <Attributes>
             <Attribute id="123" value="" name="ident"/>
             <Attribute id="124" value="44100" name="sampleRate"/>
             <Attribute id="125" value="16" name="bitDepth"/>
             <Attribute id="126" value="1" name="gain"/>
             <Attribute id="127" value="0" name="mixToMono"/>
            </Attributes>
            <MetaData>
             <entry key="WinSubProjectDisplayName" val=""/>
            </MetaData>
           </AMFile>
           <AMFile id="128" start="14854" duration="408" scalar="1/1" mediaStart="22157/1" mediaDuration="408/1" trackNumber="2" src="4" channelNumber="0,1" >
            <Parameters>
             <InterpolatingParam id="129" interp="linr"  time="0/1" value="1" leadInLength="0/1"  name="volume"/>
             <Parameter id="130"  name="captions"/>
            </Parameters>
            <Attributes>
             <Attribute id="131" value="" name="ident"/>
             <Attribute id="132" value="44100" name="sampleRate"/>
             <Attribute id="133" value="16" name="bitDepth"/>
             <Attribute id="134" value="1" name="gain"/>
             <Attribute id="135" value="0" name="mixToMono"/>
            </Attributes>
            <MetaData>
             <entry key="WinSubProjectDisplayName" val=""/>
            </MetaData>
           </AMFile>
           <AMFile id="136" start="15262" duration="210" scalar="1/1" mediaStart="22650/1" mediaDuration="210/1" trackNumber="2" src="4" channelNumber="0,1" >
            <Parameters>
             <InterpolatingParam id="137" interp="linr"  time="0/1" value="1" leadInLength="0/1"  name="volume"/>
             <Parameter id="138"  name="captions"/>
            </Parameters>
            <Attributes>
             <Attribute id="139" value="" name="ident"/>
             <Attribute id="140" value="44100" name="sampleRate"/>
             <Attribute id="141" value="16" name="bitDepth"/>
             <Attribute id="142" value="1" name="gain"/>
             <Attribute id="143" value="0" name="mixToMono"/>
            </Attributes>
            <MetaData>
             <entry key="WinSubProjectDisplayName" val=""/>
            </MetaData>
           </AMFile>
          </Medias>
         </GenericTrack>
        </StitchedMedia>
       </Medias>
      </GenericTrack>
      <GenericTrack id="144"  >
       <Attributes>
        <Attribute id="145" value="" name="ident"/>
        <Attribute id="146" value="0" name="audioMuted"/>
        <Attribute id="147" value="0" name="videoHidden"/>
       </Attributes>
       <MetaData>
        <entry key="IsLocked" val="False"/>
        <entry key="WinTrackHeight" val="62"/>
       </MetaData>
       <Medias>
        <StitchedMedia id="148" start="279" duration="12599" scalar="1/1" mediaStart="2844/1" mediaDuration="12599/1" minMediaStart="0/1" >
         <Transformer>
          <VectorParam id="149"  name="translation">
           <InterpolatingParam id="150" interp="linr"  time="-9999999/1" value="79.261603375436238" leadInLength="0/1"  interpolater="leadin-linr"  />
           <InterpolatingParam id="151" interp="linr"  time="-9999999/1" value="-17.447257383936751" leadInLength="0/1"  interpolater="leadin-linr"  />
           <InterpolatingParam id="152" interp="linr"  time="-9999999/1" value="0" leadInLength="0/1"  interpolater="leadin-linr"  />
          </VectorParam>
          <VectorParam id="153"  name="rotation">
           <InterpolatingParam id="154" interp="linr"  time="-9999999/1" value="0" leadInLength="0/1"  interpolater="leadin-linr"  />
           <InterpolatingParam id="155" interp="linr"  time="-9999999/1" value="0" leadInLength="0/1"  interpolater="leadin-linr"  />
           <InterpolatingParam id="156" interp="linr"  time="-9999999/1" value="0" leadInLength="0/1"  interpolater="leadin-linr"  />
          </VectorParam>
          <VectorParam id="157"  name="shear">
           <InterpolatingParam id="158" interp="linr"  time="-9999999/1" value="0" leadInLength="0/1"  interpolater="leadin-linr"  />
           <InterpolatingParam id="159" interp="linr"  time="-9999999/1" value="0" leadInLength="0/1"  interpolater="leadin-linr"  />
           <InterpolatingParam id="160" interp="linr"  time="-9999999/1" value="0" leadInLength="0/1"  interpolater="leadin-linr"  />
          </VectorParam>
          <VectorParam id="161"  name="scale">
           <InterpolatingParam id="162" interp="linr"  time="-9999999/1" value="0.70833333333333337" leadInLength="0/1"  interpolater="leadin-linr"  />
           <InterpolatingParam id="163" interp="linr"  time="-9999999/1" value="0.70833333333333337" leadInLength="0/1"  interpolater="leadin-linr"  />
           <InterpolatingParam id="164" interp="linr"  time="-9999999/1" value="1" leadInLength="0/1"  interpolater="leadin-linr"  />
          </VectorParam>
          <VectorParam id="165"  name="anchor">
           <InterpolatingParam id="166" interp="linr"  time="0/1" value="0" leadInLength="0/1"  />
           <InterpolatingParam id="167" interp="linr"  time="0/1" value="0" leadInLength="0/1"  />
           <InterpolatingParam id="168" interp="linr"  time="0/1" value="0" leadInLength="0/1"  />
          </VectorParam>
         </Transformer>
         <Parameters>
          <VectorParam id="169"  name="sourceCrop">
           <InterpolatingParam id="170" interp="linr"  time="0/1" value="0" leadInLength="0/1"  />
           <InterpolatingParam id="171" interp="linr"  time="0/1" value="0" leadInLength="0/1"  />
           <InterpolatingParam id="172" interp="linr"  time="0/1" value="0" leadInLength="0/1"  />
           <InterpolatingParam id="173" interp="linr"  time="0/1" value="0" leadInLength="0/1"  />
          </VectorParam>
          <VectorParam id="174"  name="geometryCrop">
           <InterpolatingParam id="175" interp="linr"  time="-9999999/1" value="0" leadInLength="0/1"  interpolater="leadin-linr"  />
           <InterpolatingParam id="176" interp="linr"  time="-9999999/1" value="0" leadInLength="0/1"  interpolater="leadin-linr"  />
           <InterpolatingParam id="177" interp="linr"  time="-9999999/1" value="0" leadInLength="0/1"  interpolater="leadin-linr"  />
           <InterpolatingParam id="178" interp="linr"  time="-9999999/1" value="0" leadInLength="0/1"  interpolater="leadin-linr"  />
          </VectorParam>
          <InterpolatingParam id="179" interp="linr"  time="-9999999/1" value="1" leadInLength="0/1"  interpolater="leadin-linr"  name="opacity"/>
          <InterpolatingParam id="180" interp="linr"  time="0/1" value="1" leadInLength="0/1"  name="cursorOpacity"/>
          <InterpolatingParam id="181" interp="linr"  time="0/1" value="1" leadInLength="0/1"  name="cursorScale"/>
          <InterpolatingParam id="182" interp="linr"  name="volume">
           <Keyframes>
           <Keyframe id="183"  time="0/1" value="1" leadInLength="0/1"  />
           <Keyframe id="184"  time="7258/1" value="1" leadInLength="0/1"  />
           <Keyframe id="185"  time="7259/1" value="1.559139784946233" leadInLength="0/1"  />
           <Keyframe id="186"  time="7909/1" value="1.559139784946233" leadInLength="0/1"  />
           <Keyframe id="187"  time="7910/1" value="1" leadInLength="0/1"  />
           <Keyframe id="188"  time="7915/1" value="1" leadInLength="0/1"  />
           <Keyframe id="189"  time="7916/1" value="0.3279404466501239" leadInLength="0/1"  />
           <Keyframe id="190"  time="8084/1" value="0.36393713813068651" leadInLength="0/1"  />
           <Keyframe id="191"  time="14682/1" value="0.36393713813068651" leadInLength="0/1"  />
           <Keyframe id="192"  time="14683/1" value="0.31348883374689829" leadInLength="0/1"  />
           <Keyframe id="193"  time="14847/1" value="0" leadInLength="0/1"  />
           <Keyframe id="194"  time="14848/1" value="1" leadInLength="0/1"  />
           <Keyframe id="195"  time="14868/1" value="1" leadInLength="0/1"  />
           <Keyframe id="196"  time="14869/1" value="1.953125" leadInLength="0/1"  />
           <Keyframe id="197"  time="15443/1" value="1.953125" leadInLength="0/1"  />
           <Keyframe id="198"  time="15444/1" value="1" leadInLength="0/1"  />
           </Keyframes>
          </InterpolatingParam>
          <Parameter id="199"  name="captions"/>
         </Parameters>
         <Effects>
          <GenericEffect id="200" name = "CursorBaseEffectName" >
           <Parameters>
           <InterpolatingParam id="201" interp="linr"  time="-9999999/1" value="1" leadInLength="0/1"   name="cursorSize"/>
           <InterpolatingParam id="202" interp="linr"  time="-9999999/1" value="0" leadInLength="0/1"   name="highlightBlurRadius"/>
           <InterpolatingParam id="203" interp="linr"  time="-9999999/1" value="0" leadInLength="0/1"   name="highlightColorBlue"/>
           <InterpolatingParam id="204" interp="linr"  time="-9999999/1" value="255" leadInLength="0/1"   name="highlightColorGreen"/>
           <InterpolatingParam id="205" interp="linr"  time="-9999999/1" value="255" leadInLength="0/1"   name="highlightColorRed"/>
           <InterpolatingParam id="206" interp="linr"  time="-9999999/1" value="5" leadInLength="0/1"   name="highlightFeatherSize"/>
           <InterpolatingParam id="207" interp="linr"  time="-9999999/1" value="2" leadInLength="0/1"   name="highlightMagnification"/>
           <InterpolatingParam id="208" interp="linr"  time="-9999999/1" value="1" leadInLength="0/1"   name="highlightOpacity"/>
           <InterpolatingParam id="209" interp="linr"  time="-9999999/1" value="45" leadInLength="0/1"   name="highlightSize"/>
           <Parameter id="210"   name="highlightType">
            <Keyframes>
            <Keyframe id="211"  time="-9999999/1" value="0" leadInLength="0/1"  />
            </Keyframes>
           </Parameter>
           <InterpolatingParam id="212" interp="linr"  time="-9999999/1" value="0" leadInLength="0/1"   name="leftClickColorBlue"/>
           <InterpolatingParam id="213" interp="linr"  time="-9999999/1" value="0" leadInLength="0/1"   name="leftClickColorGreen"/>
           <InterpolatingParam id="214" interp="linr"  time="-9999999/1" value="255" leadInLength="0/1"   name="leftClickColorRed"/>
           <InterpolatingParam id="215" interp="linr"  time="-9999999/1" value="0.80000000000000004" leadInLength="0/1"   name="leftClickDuration"/>
           <InterpolatingParam id="216" interp="linr"  time="-9999999/1" value="20" leadInLength="0/1"   name="leftClickSize"/>
           <Parameter id="217"   name="leftClickSoundFilename">
            <Keyframes>
            <Keyframe id="218"  time="-9999999/1" value="" leadInLength="0/1"  />
            </Keyframes>
           </Parameter>
           <InterpolatingParam id="219" interp="linr"  time="-9999999/1" value="1" leadInLength="0/1"   name="leftClickSoundVolume"/>
           <Parameter id="220"   name="leftClickType">
            <Keyframes>
            <Keyframe id="221"  time="-9999999/1" value="0" leadInLength="0/1"  />
            </Keyframes>
           </Parameter>
           <InterpolatingParam id="222" interp="linr"  time="-9999999/1" value="1" leadInLength="0/1"   name="opacity"/>
           <InterpolatingParam id="223" interp="linr"  time="-9999999/1" value="255" leadInLength="0/1"   name="rightClickColorBlue"/>
           <InterpolatingParam id="224" interp="linr"  time="-9999999/1" value="0" leadInLength="0/1"   name="rightClickColorGreen"/>
           <InterpolatingParam id="225" interp="linr"  time="-9999999/1" value="0" leadInLength="0/1"   name="rightClickColorRed"/>
           <InterpolatingParam id="226" interp="linr"  time="-9999999/1" value="0.80000000000000004" leadInLength="0/1"   name="rightClickDuration"/>
           <InterpolatingParam id="227" interp="linr"  time="-9999999/1" value="20" leadInLength="0/1"   name="rightClickSize"/>
           <Parameter id="228"   name="rightClickSoundFilename">
            <Keyframes>
            <Keyframe id="229"  time="-9999999/1" value="" leadInLength="0/1"  />
            </Keyframes>
           </Parameter>
           <InterpolatingParam id="230" interp="linr"  time="-9999999/1" value="1" leadInLength="0/1"   name="rightClickSoundVolume"/>
           <Parameter id="231"   name="rightClickType">
            <Keyframes>
            <Keyframe id="232"  time="-9999999/1" value="0" leadInLength="0/1"  />
            </Keyframes>
           </Parameter>
           </Parameters>
           <MetaData>
            <entry key="effectIndex" val="0"/>
           </MetaData>
          </GenericEffect>
         </Effects>
         <Attributes>
          <Attribute id="233" value="" name="ident"/>
          <Attribute id="234" value="0" name="mixToMono"/>
         </Attributes>
         <MetaData>
          <entry key="AutoAppliedSmartFocus" val="False"/>
          <entry key="WinSubProjectDisplayName" val=""/>
         </MetaData>
         <ExtraData>
          <Entry key="ZoomPanBin">
           <ZoomPanBin id="235"  >
            <ZoomPanKeyframes>
             <ZoomPanKeyframe id="236" timeRangeEnd="-9999999/1" timeRangeDuration="0/1" interpolaterName="linr"  />
            </ZoomPanKeyframes>
           </ZoomPanBin>
          </Entry>
          <Entry key="CursorEffectBin">
           <CursorEffectBin id="237"  >
            <CursorEffectKeyframes>
             <CursorEffectKeyframe id="238" timeRangeEnd="-9999999/1" timeRangeDuration="0/1" interpolaterName=""  />
            </CursorEffectKeyframes>
           </CursorEffectBin>
          </Entry>
         </ExtraData>
         <GenericTrack id="239"  >
          <Attributes>
           <Attribute id="240" value="" name="ident"/>
           <Attribute id="241" value="0" name="audioMuted"/>
           <Attribute id="242" value="0" name="videoHidden"/>
          </Attributes>
          <MetaData>
           <entry key="IsLocked" val="False"/>
           <entry key="WinTrackHeight" val="0"/>
          </MetaData>
          <Medias>
           <UnifiedMedia id="243"  >
            <AMFile id="244" start="0" duration="4046" scalar="1/1" mediaStart="0/1" mediaDuration="4046/1" trackNumber="1" src="4" channelNumber="0,1" >
             <Parameters>
              <InterpolatingParam id="245" interp="linr"  time="0/1" value="1" leadInLength="0/1"  name="volume"/>
              <Parameter id="246"  name="captions"/>
             </Parameters>
             <Attributes>
              <Attribute id="247" value="" name="ident"/>
              <Attribute id="248" value="44100" name="sampleRate"/>
              <Attribute id="249" value="16" name="bitDepth"/>
              <Attribute id="250" value="1" name="gain"/>
              <Attribute id="251" value="0" name="mixToMono"/>
             </Attributes>
            </AMFile>
            <ScreenVMFile id="252" start="0" duration="4046" scalar="1/1" mediaStart="0/1" mediaDuration="4046/1" trackNumber="0" src="4" >
             <Transformer>
              <VectorParam id="253"  name="translation">
               <InterpolatingParam id="254" interp="linr"  time="-9999999/1" value="0" leadInLength="0/1"  />
               <InterpolatingParam id="255" interp="linr"  time="-9999999/1" value="0" leadInLength="0/1"  />
               <InterpolatingParam id="256" interp="linr"  time="-9999999/1" value="0" leadInLength="0/1"  />
              </VectorParam>
              <VectorParam id="257"  name="rotation">
               <InterpolatingParam id="258" interp="linr"  time="-9999999/1" value="0" leadInLength="0/1"  />
               <InterpolatingParam id="259" interp="linr"  time="-9999999/1" value="0" leadInLength="0/1"  />
               <InterpolatingParam id="260" interp="linr"  time="-9999999/1" value="0" leadInLength="0/1"  />
              </VectorParam>
              <VectorParam id="261"  name="shear">
               <InterpolatingParam id="262" interp="linr"  time="-9999999/1" value="0" leadInLength="0/1"  />
               <InterpolatingParam id="263" interp="linr"  time="-9999999/1" value="0" leadInLength="0/1"  />
               <InterpolatingParam id="264" interp="linr"  time="-9999999/1" value="0" leadInLength="0/1"  />
              </VectorParam>
              <VectorParam id="265"  name="scale">
               <InterpolatingParam id="266" interp="linr"  time="-9999999/1" value="1" leadInLength="0/1"  />
               <InterpolatingParam id="267" interp="linr"  time="-9999999/1" value="1" leadInLength="0/1"  />
               <InterpolatingParam id="268" interp="linr"  time="-9999999/1" value="1" leadInLength="0/1"  />
              </VectorParam>
              <VectorParam id="269"  name="anchor">
               <InterpolatingParam id="270" interp="linr"  time="0/1" value="0" leadInLength="0/1"  />
               <InterpolatingParam id="271" interp="linr"  time="0/1" value="0" leadInLength="0/1"  />
               <InterpolatingParam id="272" interp="linr"  time="0/1" value="0" leadInLength="0/1"  />
              </VectorParam>
             </Transformer>
             <Parameters>
              <VectorParam id="273"  name="sourceCrop">
               <InterpolatingParam id="274" interp="linr"  time="0/1" value="0" leadInLength="0/1"  />
               <InterpolatingParam id="275" interp="linr"  time="0/1" value="0" leadInLength="0/1"  />
               <InterpolatingParam id="276" interp="linr"  time="0/1" value="0" leadInLength="0/1"  />
               <InterpolatingParam id="277" interp="linr"  time="0/1" value="0" leadInLength="0/1"  />
              </VectorParam>
              <VectorParam id="278"  name="geometryCrop">
               <InterpolatingParam id="279" interp="linr"  time="-9999999/1" value="0" leadInLength="0/1"  />
               <InterpolatingParam id="280" interp="linr"  time="-9999999/1" value="0" leadInLength="0/1"  />
               <InterpolatingParam id="281" interp="linr"  time="-9999999/1" value="0" leadInLength="0/1"  />
               <InterpolatingParam id="282" interp="linr"  time="-9999999/1" value="0" leadInLength="0/1"  />
              </VectorParam>
              <InterpolatingParam id="283" interp="linr"  time="-9999999/1" value="1" leadInLength="0/1"  name="opacity"/>
              <InterpolatingParam id="284" interp="linr"  time="0/1" value="0" leadInLength="0/1"  name="cursorOpacity"/>
              <InterpolatingParam id="285" interp="linr"  time="0/1" value="0" leadInLength="0/1"  name="cursorScale"/>
             </Parameters>
             <Attributes>
              <Attribute id="286" value="" name="ident"/>
             </Attributes>
             <ExtraData>
              <Entry key="ZoomPanBin">
               <ZoomPanBin id="287"  >
                <ZoomPanKeyframes>
                 <ZoomPanKeyframe id="288" timeRangeEnd="-9999999/1" timeRangeDuration="0/1" interpolaterName="linr"  />
                </ZoomPanKeyframes>
               </ZoomPanBin>
              </Entry>
              <Entry key="CursorEffectBin">
               <CursorEffectBin id="289"  >
                <CursorEffectKeyframes>
                </CursorEffectKeyframes>
               </CursorEffectBin>
              </Entry>
             </ExtraData>
            </ScreenVMFile>
            <MetaData>
             <entry key="AutoAppliedSmartFocus" val="False"/>
             <entry key="WinSubProjectDisplayName" val=""/>
            </MetaData>
           </UnifiedMedia>
           <UnifiedMedia id="290"  >
            <AMFile id="291" start="4046" duration="932" scalar="1/1" mediaStart="6165/1" mediaDuration="932/1" trackNumber="1" src="4" channelNumber="0,1" >
             <Parameters>
              <InterpolatingParam id="292" interp="linr"  time="0/1" value="1" leadInLength="0/1"  name="volume"/>
              <Parameter id="293"  name="captions"/>
             </Parameters>
             <Attributes>
              <Attribute id="294" value="" name="ident"/>
              <Attribute id="295" value="44100" name="sampleRate"/>
              <Attribute id="296" value="16" name="bitDepth"/>
              <Attribute id="297" value="1" name="gain"/>
              <Attribute id="298" value="0" name="mixToMono"/>
             </Attributes>
            </AMFile>
            <ScreenVMFile id="299" start="4046" duration="932" scalar="1/1" mediaStart="6165/1" mediaDuration="932/1" trackNumber="0" src="4" >
             <Transformer>
              <VectorParam id="300"  name="translation">
               <InterpolatingParam id="301" interp="linr"  time="-9999999/1" value="0" leadInLength="0/1"  />
               <InterpolatingParam id="302" interp="linr"  time="-9999999/1" value="0" leadInLength="0/1"  />
               <InterpolatingParam id="303" interp="linr"  time="-9999999/1" value="0" leadInLength="0/1"  />
              </VectorParam>
              <VectorParam id="304"  name="rotation">
               <InterpolatingParam id="305" interp="linr"  time="-9999999/1" value="0" leadInLength="0/1"  />
               <InterpolatingParam id="306" interp="linr"  time="-9999999/1" value="0" leadInLength="0/1"  />
               <InterpolatingParam id="307" interp="linr"  time="-9999999/1" value="0" leadInLength="0/1"  />
              </VectorParam>
              <VectorParam id="308"  name="shear">
               <InterpolatingParam id="309" interp="linr"  time="-9999999/1" value="0" leadInLength="0/1"  />
               <InterpolatingParam id="310" interp="linr"  time="-9999999/1" value="0" leadInLength="0/1"  />
               <InterpolatingParam id="311" interp="linr"  time="-9999999/1" value="0" leadInLength="0/1"  />
              </VectorParam>
              <VectorParam id="312"  name="scale">
               <InterpolatingParam id="313" interp="linr"  time="-9999999/1" value="1" leadInLength="0/1"  />
               <InterpolatingParam id="314" interp="linr"  time="-9999999/1" value="1" leadInLength="0/1"  />
               <InterpolatingParam id="315" interp="linr"  time="-9999999/1" value="1" leadInLength="0/1"  />
              </VectorParam>
              <VectorParam id="316"  name="anchor">
               <InterpolatingParam id="317" interp="linr"  time="0/1" value="0" leadInLength="0/1"  />
               <InterpolatingParam id="318" interp="linr"  time="0/1" value="0" leadInLength="0/1"  />
               <InterpolatingParam id="319" interp="linr"  time="0/1" value="0" leadInLength="0/1"  />
              </VectorParam>
             </Transformer>
             <Parameters>
              <VectorParam id="320"  name="sourceCrop">
               <InterpolatingParam id="321" interp="linr"  time="0/1" value="0" leadInLength="0/1"  />
               <InterpolatingParam id="322" interp="linr"  time="0/1" value="0" leadInLength="0/1"  />
               <InterpolatingParam id="323" interp="linr"  time="0/1" value="0" leadInLength="0/1"  />
               <InterpolatingParam id="324" interp="linr"  time="0/1" value="0" leadInLength="0/1"  />
              </VectorParam>
              <VectorParam id="325"  name="geometryCrop">
               <InterpolatingParam id="326" interp="linr"  time="-9999999/1" value="0" leadInLength="0/1"  />
               <InterpolatingParam id="327" interp="linr"  time="-9999999/1" value="0" leadInLength="0/1"  />
               <InterpolatingParam id="328" interp="linr"  time="-9999999/1" value="0" leadInLength="0/1"  />
               <InterpolatingParam id="329" interp="linr"  time="-9999999/1" value="0" leadInLength="0/1"  />
              </VectorParam>
              <InterpolatingParam id="330" interp="linr"  time="-9999999/1" value="1" leadInLength="0/1"  name="opacity"/>
              <InterpolatingParam id="331" interp="linr"  time="0/1" value="0" leadInLength="0/1"  name="cursorOpacity"/>
              <InterpolatingParam id="332" interp="linr"  time="0/1" value="0" leadInLength="0/1"  name="cursorScale"/>
             </Parameters>
             <Attributes>
              <Attribute id="333" value="" name="ident"/>
             </Attributes>
             <ExtraData>
              <Entry key="ZoomPanBin">
               <ZoomPanBin id="334"  >
                <ZoomPanKeyframes>
                 <ZoomPanKeyframe id="335" timeRangeEnd="-9999999/1" timeRangeDuration="0/1" interpolaterName="linr"  />
                </ZoomPanKeyframes>
               </ZoomPanBin>
              </Entry>
              <Entry key="CursorEffectBin">
               <CursorEffectBin id="336"  >
                <CursorEffectKeyframes>
                </CursorEffectKeyframes>
               </CursorEffectBin>
              </Entry>
             </ExtraData>
            </ScreenVMFile>
            <MetaData>
             <entry key="AutoAppliedSmartFocus" val="False"/>
             <entry key="WinSubProjectDisplayName" val=""/>
            </MetaData>
           </UnifiedMedia>
           <UnifiedMedia id="337"  >
            <AMFile id="338" start="4978" duration="114" scalar="1/1" mediaStart="7114/1" mediaDuration="114/1" trackNumber="1" src="4" channelNumber="0,1" >
             <Parameters>
              <InterpolatingParam id="339" interp="linr"  time="0/1" value="1" leadInLength="0/1"  name="volume"/>
              <Parameter id="340"  name="captions"/>
             </Parameters>
             <Attributes>
              <Attribute id="341" value="" name="ident"/>
              <Attribute id="342" value="44100" name="sampleRate"/>
              <Attribute id="343" value="16" name="bitDepth"/>
              <Attribute id="344" value="1" name="gain"/>
              <Attribute id="345" value="0" name="mixToMono"/>
             </Attributes>
            </AMFile>
            <ScreenVMFile id="346" start="4978" duration="114" scalar="1/1" mediaStart="7114/1" mediaDuration="114/1" trackNumber="0" src="4" >
             <Transformer>
              <VectorParam id="347"  name="translation">
               <InterpolatingParam id="348" interp="linr"  time="-9999999/1" value="0" leadInLength="0/1"  />
               <InterpolatingParam id="349" interp="linr"  time="-9999999/1" value="0" leadInLength="0/1"  />
               <InterpolatingParam id="350" interp="linr"  time="-9999999/1" value="0" leadInLength="0/1"  />
              </VectorParam>
              <VectorParam id="351"  name="rotation">
               <InterpolatingParam id="352" interp="linr"  time="-9999999/1" value="0" leadInLength="0/1"  />
               <InterpolatingParam id="353" interp="linr"  time="-9999999/1" value="0" leadInLength="0/1"  />
               <InterpolatingParam id="354" interp="linr"  time="-9999999/1" value="0" leadInLength="0/1"  />
              </VectorParam>
              <VectorParam id="355"  name="shear">
               <InterpolatingParam id="356" interp="linr"  time="-9999999/1" value="0" leadInLength="0/1"  />
               <InterpolatingParam id="357" interp="linr"  time="-9999999/1" value="0" leadInLength="0/1"  />
               <InterpolatingParam id="358" interp="linr"  time="-9999999/1" value="0" leadInLength="0/1"  />
              </VectorParam>
              <VectorParam id="359"  name="scale">
               <InterpolatingParam id="360" interp="linr"  time="-9999999/1" value="1" leadInLength="0/1"  />
               <InterpolatingParam id="361" interp="linr"  time="-9999999/1" value="1" leadInLength="0/1"  />
               <InterpolatingParam id="362" interp="linr"  time="-9999999/1" value="1" leadInLength="0/1"  />
              </VectorParam>
              <VectorParam id="363"  name="anchor">
               <InterpolatingParam id="364" interp="linr"  time="0/1" value="0" leadInLength="0/1"  />
               <InterpolatingParam id="365" interp="linr"  time="0/1" value="0" leadInLength="0/1"  />
               <InterpolatingParam id="366" interp="linr"  time="0/1" value="0" leadInLength="0/1"  />
              </VectorParam>
             </Transformer>
             <Parameters>
              <VectorParam id="367"  name="sourceCrop">
               <InterpolatingParam id="368" interp="linr"  time="0/1" value="0" leadInLength="0/1"  />
               <InterpolatingParam id="369" interp="linr"  time="0/1" value="0" leadInLength="0/1"  />
               <InterpolatingParam id="370" interp="linr"  time="0/1" value="0" leadInLength="0/1"  />
               <InterpolatingParam id="371" interp="linr"  time="0/1" value="0" leadInLength="0/1"  />
              </VectorParam>
              <VectorParam id="372"  name="geometryCrop">
               <InterpolatingParam id="373" interp="linr"  time="-9999999/1" value="0" leadInLength="0/1"  />
               <InterpolatingParam id="374" interp="linr"  time="-9999999/1" value="0" leadInLength="0/1"  />
               <InterpolatingParam id="375" interp="linr"  time="-9999999/1" value="0" leadInLength="0/1"  />
               <InterpolatingParam id="376" interp="linr"  time="-9999999/1" value="0" leadInLength="0/1"  />
              </VectorParam>
              <InterpolatingParam id="377" interp="linr"  time="-9999999/1" value="1" leadInLength="0/1"  name="opacity"/>
              <InterpolatingParam id="378" interp="linr"  time="0/1" value="0" leadInLength="0/1"  name="cursorOpacity"/>
              <InterpolatingParam id="379" interp="linr"  time="0/1" value="0" leadInLength="0/1"  name="cursorScale"/>
             </Parameters>
             <Attributes>
              <Attribute id="380" value="" name="ident"/>
             </Attributes>
             <ExtraData>
              <Entry key="ZoomPanBin">
               <ZoomPanBin id="381"  >
                <ZoomPanKeyframes>
                 <ZoomPanKeyframe id="382" timeRangeEnd="-9999999/1" timeRangeDuration="0/1" interpolaterName="linr"  />
                </ZoomPanKeyframes>
               </ZoomPanBin>
              </Entry>
              <Entry key="CursorEffectBin">
               <CursorEffectBin id="383"  >
                <CursorEffectKeyframes>
                </CursorEffectKeyframes>
               </CursorEffectBin>
              </Entry>
             </ExtraData>
            </ScreenVMFile>
            <MetaData>
             <entry key="AutoAppliedSmartFocus" val="False"/>
             <entry key="WinSubProjectDisplayName" val=""/>
            </MetaData>
           </UnifiedMedia>
           <UnifiedMedia id="384"  >
            <AMFile id="385" start="5092" duration="1114" scalar="1/1" mediaStart="7407/1" mediaDuration="1114/1" trackNumber="1" src="4" channelNumber="0,1" >
             <Parameters>
              <InterpolatingParam id="386" interp="linr"  time="0/1" value="1" leadInLength="0/1"  name="volume"/>
              <Parameter id="387"  name="captions"/>
             </Parameters>
             <Attributes>
              <Attribute id="388" value="" name="ident"/>
              <Attribute id="389" value="44100" name="sampleRate"/>
              <Attribute id="390" value="16" name="bitDepth"/>
              <Attribute id="391" value="1" name="gain"/>
              <Attribute id="392" value="0" name="mixToMono"/>
             </Attributes>
            </AMFile>
            <ScreenVMFile id="393" start="5092" duration="1114" scalar="1/1" mediaStart="7407/1" mediaDuration="1114/1" trackNumber="0" src="4" >
             <Transformer>
              <VectorParam id="394"  name="translation">
               <InterpolatingParam id="395" interp="linr"  time="-9999999/1" value="0" leadInLength="0/1"  />
               <InterpolatingParam id="396" interp="linr"  time="-9999999/1" value="0" leadInLength="0/1"  />
               <InterpolatingParam id="397" interp="linr"  time="-9999999/1" value="0" leadInLength="0/1"  />
              </VectorParam>
              <VectorParam id="398"  name="rotation">
               <InterpolatingParam id="399" interp="linr"  time="-9999999/1" value="0" leadInLength="0/1"  />
               <InterpolatingParam id="400" interp="linr"  time="-9999999/1" value="0" leadInLength="0/1"  />
               <InterpolatingParam id="401" interp="linr"  time="-9999999/1" value="0" leadInLength="0/1"  />
              </VectorParam>
              <VectorParam id="402"  name="shear">
               <InterpolatingParam id="403" interp="linr"  time="-9999999/1" value="0" leadInLength="0/1"  />
               <InterpolatingParam id="404" interp="linr"  time="-9999999/1" value="0" leadInLength="0/1"  />
               <InterpolatingParam id="405" interp="linr"  time="-9999999/1" value="0" leadInLength="0/1"  />
              </VectorParam>
              <VectorParam id="406"  name="scale">
               <InterpolatingParam id="407" interp="linr"  time="-9999999/1" value="1" leadInLength="0/1"  />
               <InterpolatingParam id="408" interp="linr"  time="-9999999/1" value="1" leadInLength="0/1"  />
               <InterpolatingParam id="409" interp="linr"  time="-9999999/1" value="1" leadInLength="0/1"  />
              </VectorParam>
              <VectorParam id="410"  name="anchor">
               <InterpolatingParam id="411" interp="linr"  time="0/1" value="0" leadInLength="0/1"  />
               <InterpolatingParam id="412" interp="linr"  time="0/1" value="0" leadInLength="0/1"  />
               <InterpolatingParam id="413" interp="linr"  time="0/1" value="0" leadInLength="0/1"  />
              </VectorParam>
             </Transformer>
             <Parameters>
              <VectorParam id="414"  name="sourceCrop">
               <InterpolatingParam id="415" interp="linr"  time="0/1" value="0" leadInLength="0/1"  />
               <InterpolatingParam id="416" interp="linr"  time="0/1" value="0" leadInLength="0/1"  />
               <InterpolatingParam id="417" interp="linr"  time="0/1" value="0" leadInLength="0/1"  />
               <InterpolatingParam id="418" interp="linr"  time="0/1" value="0" leadInLength="0/1"  />
              </VectorParam>
              <VectorParam id="419"  name="geometryCrop">
               <InterpolatingParam id="420" interp="linr"  time="-9999999/1" value="0" leadInLength="0/1"  />
               <InterpolatingParam id="421" interp="linr"  time="-9999999/1" value="0" leadInLength="0/1"  />
               <InterpolatingParam id="422" interp="linr"  time="-9999999/1" value="0" leadInLength="0/1"  />
               <InterpolatingParam id="423" interp="linr"  time="-9999999/1" value="0" leadInLength="0/1"  />
              </VectorParam>
              <InterpolatingParam id="424" interp="linr"  time="-9999999/1" value="1" leadInLength="0/1"  name="opacity"/>
              <InterpolatingParam id="425" interp="linr"  time="0/1" value="0" leadInLength="0/1"  name="cursorOpacity"/>
              <InterpolatingParam id="426" interp="linr"  time="0/1" value="0" leadInLength="0/1"  name="cursorScale"/>
             </Parameters>
             <Attributes>
              <Attribute id="427" value="" name="ident"/>
             </Attributes>
             <ExtraData>
              <Entry key="ZoomPanBin">
               <ZoomPanBin id="428"  >
                <ZoomPanKeyframes>
                 <ZoomPanKeyframe id="429" timeRangeEnd="-9999999/1" timeRangeDuration="0/1" interpolaterName="linr"  />
                </ZoomPanKeyframes>
               </ZoomPanBin>
              </Entry>
              <Entry key="CursorEffectBin">
               <CursorEffectBin id="430"  >
                <CursorEffectKeyframes>
                </CursorEffectKeyframes>
               </CursorEffectBin>
              </Entry>
             </ExtraData>
            </ScreenVMFile>
            <MetaData>
             <entry key="AutoAppliedSmartFocus" val="False"/>
             <entry key="WinSubProjectDisplayName" val=""/>
            </MetaData>
           </UnifiedMedia>
           <UnifiedMedia id="431"  >
            <AMFile id="432" start="6206" duration="527" scalar="1/1" mediaStart="9138/1" mediaDuration="527/1" trackNumber="1" src="4" channelNumber="0,1" >
             <Parameters>
              <InterpolatingParam id="433" interp="linr"  time="0/1" value="1" leadInLength="0/1"  name="volume"/>
              <Parameter id="434"  name="captions"/>
             </Parameters>
             <Attributes>
              <Attribute id="435" value="" name="ident"/>
              <Attribute id="436" value="44100" name="sampleRate"/>
              <Attribute id="437" value="16" name="bitDepth"/>
              <Attribute id="438" value="1" name="gain"/>
              <Attribute id="439" value="0" name="mixToMono"/>
             </Attributes>
            </AMFile>
            <ScreenVMFile id="440" start="6206" duration="527" scalar="1/1" mediaStart="9138/1" mediaDuration="527/1" trackNumber="0" src="4" >
             <Transformer>
              <VectorParam id="441"  name="translation">
               <InterpolatingParam id="442" interp="linr"  time="-9999999/1" value="0" leadInLength="0/1"  />
               <InterpolatingParam id="443" interp="linr"  time="-9999999/1" value="0" leadInLength="0/1"  />
               <InterpolatingParam id="444" interp="linr"  time="-9999999/1" value="0" leadInLength="0/1"  />
              </VectorParam>
              <VectorParam id="445"  name="rotation">
               <InterpolatingParam id="446" interp="linr"  time="-9999999/1" value="0" leadInLength="0/1"  />
               <InterpolatingParam id="447" interp="linr"  time="-9999999/1" value="0" leadInLength="0/1"  />
               <InterpolatingParam id="448" interp="linr"  time="-9999999/1" value="0" leadInLength="0/1"  />
              </VectorParam>
              <VectorParam id="449"  name="shear">
               <InterpolatingParam id="450" interp="linr"  time="-9999999/1" value="0" leadInLength="0/1"  />
               <InterpolatingParam id="451" interp="linr"  time="-9999999/1" value="0" leadInLength="0/1"  />
               <InterpolatingParam id="452" interp="linr"  time="-9999999/1" value="0" leadInLength="0/1"  />
              </VectorParam>
              <VectorParam id="453"  name="scale">
               <InterpolatingParam id="454" interp="linr"  time="-9999999/1" value="1" leadInLength="0/1"  />
               <InterpolatingParam id="455" interp="linr"  time="-9999999/1" value="1" leadInLength="0/1"  />
               <InterpolatingParam id="456" interp="linr"  time="-9999999/1" value="1" leadInLength="0/1"  />
              </VectorParam>
              <VectorParam id="457"  name="anchor">
               <InterpolatingParam id="458" interp="linr"  time="0/1" value="0" leadInLength="0/1"  />
               <InterpolatingParam id="459" interp="linr"  time="0/1" value="0" leadInLength="0/1"  />
               <InterpolatingParam id="460" interp="linr"  time="0/1" value="0" leadInLength="0/1"  />
              </VectorParam>
             </Transformer>
             <Parameters>
              <VectorParam id="461"  name="sourceCrop">
               <InterpolatingParam id="462" interp="linr"  time="0/1" value="0" leadInLength="0/1"  />
               <InterpolatingParam id="463" interp="linr"  time="0/1" value="0" leadInLength="0/1"  />
               <InterpolatingParam id="464" interp="linr"  time="0/1" value="0" leadInLength="0/1"  />
               <InterpolatingParam id="465" interp="linr"  time="0/1" value="0" leadInLength="0/1"  />
              </VectorParam>
              <VectorParam id="466"  name="geometryCrop">
               <InterpolatingParam id="467" interp="linr"  time="-9999999/1" value="0" leadInLength="0/1"  />
               <InterpolatingParam id="468" interp="linr"  time="-9999999/1" value="0" leadInLength="0/1"  />
               <InterpolatingParam id="469" interp="linr"  time="-9999999/1" value="0" leadInLength="0/1"  />
               <InterpolatingParam id="470" interp="linr"  time="-9999999/1" value="0" leadInLength="0/1"  />
              </VectorParam>
              <InterpolatingParam id="471" interp="linr"  time="-9999999/1" value="1" leadInLength="0/1"  name="opacity"/>
              <InterpolatingParam id="472" interp="linr"  time="0/1" value="0" leadInLength="0/1"  name="cursorOpacity"/>
              <InterpolatingParam id="473" interp="linr"  time="0/1" value="0" leadInLength="0/1"  name="cursorScale"/>
             </Parameters>
             <Attributes>
              <Attribute id="474" value="" name="ident"/>
             </Attributes>
             <ExtraData>
              <Entry key="ZoomPanBin">
               <ZoomPanBin id="475"  >
                <ZoomPanKeyframes>
                 <ZoomPanKeyframe id="476" timeRangeEnd="-9999999/1" timeRangeDuration="0/1" interpolaterName="linr"  />
                </ZoomPanKeyframes>
               </ZoomPanBin>
              </Entry>
              <Entry key="CursorEffectBin">
               <CursorEffectBin id="477"  >
                <CursorEffectKeyframes>
                </CursorEffectKeyframes>
               </CursorEffectBin>
              </Entry>
             </ExtraData>
            </ScreenVMFile>
            <MetaData>
             <entry key="AutoAppliedSmartFocus" val="False"/>
             <entry key="WinSubProjectDisplayName" val=""/>
            </MetaData>
           </UnifiedMedia>
           <UnifiedMedia id="478"  >
            <AMFile id="479" start="6733" duration="534" scalar="1/1" mediaStart="9996/1" mediaDuration="534/1" trackNumber="1" src="4" channelNumber="0,1" >
             <Parameters>
              <InterpolatingParam id="480" interp="linr"  time="0/1" value="1" leadInLength="0/1"  name="volume"/>
              <Parameter id="481"  name="captions"/>
             </Parameters>
             <Attributes>
              <Attribute id="482" value="" name="ident"/>
              <Attribute id="483" value="44100" name="sampleRate"/>
              <Attribute id="484" value="16" name="bitDepth"/>
              <Attribute id="485" value="1" name="gain"/>
              <Attribute id="486" value="0" name="mixToMono"/>
             </Attributes>
            </AMFile>
            <ScreenVMFile id="487" start="6733" duration="534" scalar="1/1" mediaStart="9996/1" mediaDuration="534/1" trackNumber="0" src="4" >
             <Transformer>
              <VectorParam id="488"  name="translation">
               <InterpolatingParam id="489" interp="linr"  time="-9999999/1" value="0" leadInLength="0/1"  />
               <InterpolatingParam id="490" interp="linr"  time="-9999999/1" value="0" leadInLength="0/1"  />
               <InterpolatingParam id="491" interp="linr"  time="-9999999/1" value="0" leadInLength="0/1"  />
              </VectorParam>
              <VectorParam id="492"  name="rotation">
               <InterpolatingParam id="493" interp="linr"  time="-9999999/1" value="0" leadInLength="0/1"  />
               <InterpolatingParam id="494" interp="linr"  time="-9999999/1" value="0" leadInLength="0/1"  />
               <InterpolatingParam id="495" interp="linr"  time="-9999999/1" value="0" leadInLength="0/1"  />
              </VectorParam>
              <VectorParam id="496"  name="shear">
               <InterpolatingParam id="497" interp="linr"  time="-9999999/1" value="0" leadInLength="0/1"  />
               <InterpolatingParam id="498" interp="linr"  time="-9999999/1" value="0" leadInLength="0/1"  />
               <InterpolatingParam id="499" interp="linr"  time="-9999999/1" value="0" leadInLength="0/1"  />
              </VectorParam>
              <VectorParam id="500"  name="scale">
               <InterpolatingParam id="501" interp="linr"  time="-9999999/1" value="1" leadInLength="0/1"  />
               <InterpolatingParam id="502" interp="linr"  time="-9999999/1" value="1" leadInLength="0/1"  />
               <InterpolatingParam id="503" interp="linr"  time="-9999999/1" value="1" leadInLength="0/1"  />
              </VectorParam>
              <VectorParam id="504"  name="anchor">
               <InterpolatingParam id="505" interp="linr"  time="0/1" value="0" leadInLength="0/1"  />
               <InterpolatingParam id="506" interp="linr"  time="0/1" value="0" leadInLength="0/1"  />
               <InterpolatingParam id="507" interp="linr"  time="0/1" value="0" leadInLength="0/1"  />
              </VectorParam>
             </Transformer>
             <Parameters>
              <VectorParam id="508"  name="sourceCrop">
               <InterpolatingParam id="509" interp="linr"  time="0/1" value="0" leadInLength="0/1"  />
               <InterpolatingParam id="510" interp="linr"  time="0/1" value="0" leadInLength="0/1"  />
               <InterpolatingParam id="511" interp="linr"  time="0/1" value="0" leadInLength="0/1"  />
               <InterpolatingParam id="512" interp="linr"  time="0/1" value="0" leadInLength="0/1"  />
              </VectorParam>
              <VectorParam id="513"  name="geometryCrop">
               <InterpolatingParam id="514" interp="linr"  time="-9999999/1" value="0" leadInLength="0/1"  />
               <InterpolatingParam id="515" interp="linr"  time="-9999999/1" value="0" leadInLength="0/1"  />
               <InterpolatingParam id="516" interp="linr"  time="-9999999/1" value="0" leadInLength="0/1"  />
               <InterpolatingParam id="517" interp="linr"  time="-9999999/1" value="0" leadInLength="0/1"  />
              </VectorParam>
              <InterpolatingParam id="518" interp="linr"  time="-9999999/1" value="1" leadInLength="0/1"  name="opacity"/>
              <InterpolatingParam id="519" interp="linr"  time="0/1" value="0" leadInLength="0/1"  name="cursorOpacity"/>
              <InterpolatingParam id="520" interp="linr"  time="0/1" value="0" leadInLength="0/1"  name="cursorScale"/>
             </Parameters>
             <Attributes>
              <Attribute id="521" value="" name="ident"/>
             </Attributes>
             <ExtraData>
              <Entry key="ZoomPanBin">
               <ZoomPanBin id="522"  >
                <ZoomPanKeyframes>
                 <ZoomPanKeyframe id="523" timeRangeEnd="-9999999/1" timeRangeDuration="0/1" interpolaterName="linr"  />
                </ZoomPanKeyframes>
               </ZoomPanBin>
              </Entry>
              <Entry key="CursorEffectBin">
               <CursorEffectBin id="524"  >
                <CursorEffectKeyframes>
                </CursorEffectKeyframes>
               </CursorEffectBin>
              </Entry>
             </ExtraData>
            </ScreenVMFile>
            <MetaData>
             <entry key="AutoAppliedSmartFocus" val="False"/>
             <entry key="WinSubProjectDisplayName" val=""/>
            </MetaData>
           </UnifiedMedia>
           <UnifiedMedia id="525"  >
            <AMFile id="526" start="7267" duration="649" scalar="1/1" mediaStart="12732/1" mediaDuration="649/1" trackNumber="1" src="4" channelNumber="0,1" >
             <Parameters>
              <InterpolatingParam id="527" interp="linr"  time="0/1" value="1" leadInLength="0/1"  name="volume"/>
              <Parameter id="528"  name="captions"/>
             </Parameters>
             <Attributes>
              <Attribute id="529" value="" name="ident"/>
              <Attribute id="530" value="44100" name="sampleRate"/>
              <Attribute id="531" value="16" name="bitDepth"/>
              <Attribute id="532" value="1" name="gain"/>
              <Attribute id="533" value="0" name="mixToMono"/>
             </Attributes>
            </AMFile>
            <ScreenVMFile id="534" start="7267" duration="649" scalar="1/1" mediaStart="12732/1" mediaDuration="649/1" trackNumber="0" src="4" >
             <Transformer>
              <VectorParam id="535"  name="translation">
               <InterpolatingParam id="536" interp="linr"  time="-9999999/1" value="0" leadInLength="0/1"  />
               <InterpolatingParam id="537" interp="linr"  time="-9999999/1" value="0" leadInLength="0/1"  />
               <InterpolatingParam id="538" interp="linr"  time="-9999999/1" value="0" leadInLength="0/1"  />
              </VectorParam>
              <VectorParam id="539"  name="rotation">
               <InterpolatingParam id="540" interp="linr"  time="-9999999/1" value="0" leadInLength="0/1"  />
               <InterpolatingParam id="541" interp="linr"  time="-9999999/1" value="0" leadInLength="0/1"  />
               <InterpolatingParam id="542" interp="linr"  time="-9999999/1" value="0" leadInLength="0/1"  />
              </VectorParam>
              <VectorParam id="543"  name="shear">
               <InterpolatingParam id="544" interp="linr"  time="-9999999/1" value="0" leadInLength="0/1"  />
               <InterpolatingParam id="545" interp="linr"  time="-9999999/1" value="0" leadInLength="0/1"  />
               <InterpolatingParam id="546" interp="linr"  time="-9999999/1" value="0" leadInLength="0/1"  />
              </VectorParam>
              <VectorParam id="547"  name="scale">
               <InterpolatingParam id="548" interp="linr"  time="-9999999/1" value="1" leadInLength="0/1"  />
               <InterpolatingParam id="549" interp="linr"  time="-9999999/1" value="1" leadInLength="0/1"  />
               <InterpolatingParam id="550" interp="linr"  time="-9999999/1" value="1" leadInLength="0/1"  />
              </VectorParam>
              <VectorParam id="551"  name="anchor">
               <InterpolatingParam id="552" interp="linr"  time="0/1" value="0" leadInLength="0/1"  />
               <InterpolatingParam id="553" interp="linr"  time="0/1" value="0" leadInLength="0/1"  />
               <InterpolatingParam id="554" interp="linr"  time="0/1" value="0" leadInLength="0/1"  />
              </VectorParam>
             </Transformer>
             <Parameters>
              <VectorParam id="555"  name="sourceCrop">
               <InterpolatingParam id="556" interp="linr"  time="0/1" value="0" leadInLength="0/1"  />
               <InterpolatingParam id="557" interp="linr"  time="0/1" value="0" leadInLength="0/1"  />
               <InterpolatingParam id="558" interp="linr"  time="0/1" value="0" leadInLength="0/1"  />
               <InterpolatingParam id="559" interp="linr"  time="0/1" value="0" leadInLength="0/1"  />
              </VectorParam>
              <VectorParam id="560"  name="geometryCrop">
               <InterpolatingParam id="561" interp="linr"  time="-9999999/1" value="0" leadInLength="0/1"  />
               <InterpolatingParam id="562" interp="linr"  time="-9999999/1" value="0" leadInLength="0/1"  />
               <InterpolatingParam id="563" interp="linr"  time="-9999999/1" value="0" leadInLength="0/1"  />
               <InterpolatingParam id="564" interp="linr"  time="-9999999/1" value="0" leadInLength="0/1"  />
              </VectorParam>
              <InterpolatingParam id="565" interp="linr"  time="-9999999/1" value="1" leadInLength="0/1"  name="opacity"/>
              <InterpolatingParam id="566" interp="linr"  time="0/1" value="0" leadInLength="0/1"  name="cursorOpacity"/>
              <InterpolatingParam id="567" interp="linr"  time="0/1" value="0" leadInLength="0/1"  name="cursorScale"/>
             </Parameters>
             <Attributes>
              <Attribute id="568" value="" name="ident"/>
             </Attributes>
             <ExtraData>
              <Entry key="ZoomPanBin">
               <ZoomPanBin id="569"  >
                <ZoomPanKeyframes>
                 <ZoomPanKeyframe id="570" timeRangeEnd="-9999999/1" timeRangeDuration="0/1" interpolaterName="linr"  />
                </ZoomPanKeyframes>
               </ZoomPanBin>
              </Entry>
              <Entry key="CursorEffectBin">
               <CursorEffectBin id="571"  >
                <CursorEffectKeyframes>
                </CursorEffectKeyframes>
               </CursorEffectBin>
              </Entry>
             </ExtraData>
            </ScreenVMFile>
            <MetaData>
             <entry key="AutoAppliedSmartFocus" val="False"/>
             <entry key="WinSubProjectDisplayName" val=""/>
            </MetaData>
           </UnifiedMedia>
           <UnifiedMedia id="572"  >
            <AMFile id="573" start="7916" duration="6938" scalar="1/1" mediaStart="13462/1" mediaDuration="6938/1" trackNumber="1" src="4" channelNumber="0,1" >
             <Parameters>
              <InterpolatingParam id="574" interp="linr"  time="0/1" value="1" leadInLength="0/1"  name="volume"/>
              <Parameter id="575"  name="captions"/>
             </Parameters>
             <Attributes>
              <Attribute id="576" value="" name="ident"/>
              <Attribute id="577" value="44100" name="sampleRate"/>
              <Attribute id="578" value="16" name="bitDepth"/>
              <Attribute id="579" value="1" name="gain"/>
              <Attribute id="580" value="0" name="mixToMono"/>
             </Attributes>
            </AMFile>
            <ScreenVMFile id="581" start="7916" duration="6938" scalar="1/1" mediaStart="13462/1" mediaDuration="6938/1" trackNumber="0" src="4" >
             <Transformer>
              <VectorParam id="582"  name="translation">
               <InterpolatingParam id="583" interp="linr"  time="-9999999/1" value="0" leadInLength="0/1"  />
               <InterpolatingParam id="584" interp="linr"  time="-9999999/1" value="0" leadInLength="0/1"  />
               <InterpolatingParam id="585" interp="linr"  time="-9999999/1" value="0" leadInLength="0/1"  />
              </VectorParam>
              <VectorParam id="586"  name="rotation">
               <InterpolatingParam id="587" interp="linr"  time="-9999999/1" value="0" leadInLength="0/1"  />
               <InterpolatingParam id="588" interp="linr"  time="-9999999/1" value="0" leadInLength="0/1"  />
               <InterpolatingParam id="589" interp="linr"  time="-9999999/1" value="0" leadInLength="0/1"  />
              </VectorParam>
              <VectorParam id="590"  name="shear">
               <InterpolatingParam id="591" interp="linr"  time="-9999999/1" value="0" leadInLength="0/1"  />
               <InterpolatingParam id="592" interp="linr"  time="-9999999/1" value="0" leadInLength="0/1"  />
               <InterpolatingParam id="593" interp="linr"  time="-9999999/1" value="0" leadInLength="0/1"  />
              </VectorParam>
              <VectorParam id="594"  name="scale">
               <InterpolatingParam id="595" interp="linr"  time="-9999999/1" value="1" leadInLength="0/1"  />
               <InterpolatingParam id="596" interp="linr"  time="-9999999/1" value="1" leadInLength="0/1"  />
               <InterpolatingParam id="597" interp="linr"  time="-9999999/1" value="1" leadInLength="0/1"  />
              </VectorParam>
              <VectorParam id="598"  name="anchor">
               <InterpolatingParam id="599" interp="linr"  time="0/1" value="0" leadInLength="0/1"  />
               <InterpolatingParam id="600" interp="linr"  time="0/1" value="0" leadInLength="0/1"  />
               <InterpolatingParam id="601" interp="linr"  time="0/1" value="0" leadInLength="0/1"  />
              </VectorParam>
             </Transformer>
             <Parameters>
              <VectorParam id="602"  name="sourceCrop">
               <InterpolatingParam id="603" interp="linr"  time="0/1" value="0" leadInLength="0/1"  />
               <InterpolatingParam id="604" interp="linr"  time="0/1" value="0" leadInLength="0/1"  />
               <InterpolatingParam id="605" interp="linr"  time="0/1" value="0" leadInLength="0/1"  />
               <InterpolatingParam id="606" interp="linr"  time="0/1" value="0" leadInLength="0/1"  />
              </VectorParam>
              <VectorParam id="607"  name="geometryCrop">
               <InterpolatingParam id="608" interp="linr"  time="-9999999/1" value="0" leadInLength="0/1"  />
               <InterpolatingParam id="609" interp="linr"  time="-9999999/1" value="0" leadInLength="0/1"  />
               <InterpolatingParam id="610" interp="linr"  time="-9999999/1" value="0" leadInLength="0/1"  />
               <InterpolatingParam id="611" interp="linr"  time="-9999999/1" value="0" leadInLength="0/1"  />
              </VectorParam>
              <InterpolatingParam id="612" interp="linr"  time="-9999999/1" value="1" leadInLength="0/1"  name="opacity"/>
              <InterpolatingParam id="613" interp="linr"  time="0/1" value="0" leadInLength="0/1"  name="cursorOpacity"/>
              <InterpolatingParam id="614" interp="linr"  time="0/1" value="0" leadInLength="0/1"  name="cursorScale"/>
             </Parameters>
             <Attributes>
              <Attribute id="615" value="" name="ident"/>
             </Attributes>
             <ExtraData>
              <Entry key="ZoomPanBin">
               <ZoomPanBin id="616"  >
                <ZoomPanKeyframes>
                 <ZoomPanKeyframe id="617" timeRangeEnd="-9999999/1" timeRangeDuration="0/1" interpolaterName="linr"  />
                </ZoomPanKeyframes>
               </ZoomPanBin>
              </Entry>
              <Entry key="CursorEffectBin">
               <CursorEffectBin id="618"  >
                <CursorEffectKeyframes>
                </CursorEffectKeyframes>
               </CursorEffectBin>
              </Entry>
             </ExtraData>
            </ScreenVMFile>
            <MetaData>
             <entry key="AutoAppliedSmartFocus" val="False"/>
             <entry key="WinSubProjectDisplayName" val=""/>
            </MetaData>
           </UnifiedMedia>
           <UnifiedMedia id="619"  >
            <AMFile id="620" start="14854" duration="408" scalar="1/1" mediaStart="22157/1" mediaDuration="408/1" trackNumber="1" src="4" channelNumber="0,1" >
             <Parameters>
              <InterpolatingParam id="621" interp="linr"  time="0/1" value="1" leadInLength="0/1"  name="volume"/>
              <Parameter id="622"  name="captions"/>
             </Parameters>
             <Attributes>
              <Attribute id="623" value="" name="ident"/>
              <Attribute id="624" value="44100" name="sampleRate"/>
              <Attribute id="625" value="16" name="bitDepth"/>
              <Attribute id="626" value="1" name="gain"/>
              <Attribute id="627" value="0" name="mixToMono"/>
             </Attributes>
            </AMFile>
            <ScreenVMFile id="628" start="14854" duration="408" scalar="1/1" mediaStart="22157/1" mediaDuration="408/1" trackNumber="0" src="4" >
             <Transformer>
              <VectorParam id="629"  name="translation">
               <InterpolatingParam id="630" interp="linr"  time="-9999999/1" value="0" leadInLength="0/1"  />
               <InterpolatingParam id="631" interp="linr"  time="-9999999/1" value="0" leadInLength="0/1"  />
               <InterpolatingParam id="632" interp="linr"  time="-9999999/1" value="0" leadInLength="0/1"  />
              </VectorParam>
              <VectorParam id="633"  name="rotation">
               <InterpolatingParam id="634" interp="linr"  time="-9999999/1" value="0" leadInLength="0/1"  />
               <InterpolatingParam id="635" interp="linr"  time="-9999999/1" value="0" leadInLength="0/1"  />
               <InterpolatingParam id="636" interp="linr"  time="-9999999/1" value="0" leadInLength="0/1"  />
              </VectorParam>
              <VectorParam id="637"  name="shear">
               <InterpolatingParam id="638" interp="linr"  time="-9999999/1" value="0" leadInLength="0/1"  />
               <InterpolatingParam id="639" interp="linr"  time="-9999999/1" value="0" leadInLength="0/1"  />
               <InterpolatingParam id="640" interp="linr"  time="-9999999/1" value="0" leadInLength="0/1"  />
              </VectorParam>
              <VectorParam id="641"  name="scale">
               <InterpolatingParam id="642" interp="linr"  time="-9999999/1" value="1" leadInLength="0/1"  />
               <InterpolatingParam id="643" interp="linr"  time="-9999999/1" value="1" leadInLength="0/1"  />
               <InterpolatingParam id="644" interp="linr"  time="-9999999/1" value="1" leadInLength="0/1"  />
              </VectorParam>
              <VectorParam id="645"  name="anchor">
               <InterpolatingParam id="646" interp="linr"  time="0/1" value="0" leadInLength="0/1"  />
               <InterpolatingParam id="647" interp="linr"  time="0/1" value="0" leadInLength="0/1"  />
               <InterpolatingParam id="648" interp="linr"  time="0/1" value="0" leadInLength="0/1"  />
              </VectorParam>
             </Transformer>
             <Parameters>
              <VectorParam id="649"  name="sourceCrop">
               <InterpolatingParam id="650" interp="linr"  time="0/1" value="0" leadInLength="0/1"  />
               <InterpolatingParam id="651" interp="linr"  time="0/1" value="0" leadInLength="0/1"  />
               <InterpolatingParam id="652" interp="linr"  time="0/1" value="0" leadInLength="0/1"  />
               <InterpolatingParam id="653" interp="linr"  time="0/1" value="0" leadInLength="0/1"  />
              </VectorParam>
              <VectorParam id="654"  name="geometryCrop">
               <InterpolatingParam id="655" interp="linr"  time="-9999999/1" value="0" leadInLength="0/1"  />
               <InterpolatingParam id="656" interp="linr"  time="-9999999/1" value="0" leadInLength="0/1"  />
               <InterpolatingParam id="657" interp="linr"  time="-9999999/1" value="0" leadInLength="0/1"  />
               <InterpolatingParam id="658" interp="linr"  time="-9999999/1" value="0" leadInLength="0/1"  />
              </VectorParam>
              <InterpolatingParam id="659" interp="linr"  time="-9999999/1" value="1" leadInLength="0/1"  name="opacity"/>
              <InterpolatingParam id="660" interp="linr"  time="0/1" value="0" leadInLength="0/1"  name="cursorOpacity"/>
              <InterpolatingParam id="661" interp="linr"  time="0/1" value="0" leadInLength="0/1"  name="cursorScale"/>
             </Parameters>
             <Attributes>
              <Attribute id="662" value="" name="ident"/>
             </Attributes>
             <ExtraData>
              <Entry key="ZoomPanBin">
               <ZoomPanBin id="663"  >
                <ZoomPanKeyframes>
                 <ZoomPanKeyframe id="664" timeRangeEnd="-9999999/1" timeRangeDuration="0/1" interpolaterName="linr"  />
                </ZoomPanKeyframes>
               </ZoomPanBin>
              </Entry>
              <Entry key="CursorEffectBin">
               <CursorEffectBin id="665"  >
                <CursorEffectKeyframes>
                </CursorEffectKeyframes>
               </CursorEffectBin>
              </Entry>
             </ExtraData>
            </ScreenVMFile>
            <MetaData>
             <entry key="AutoAppliedSmartFocus" val="False"/>
             <entry key="WinSubProjectDisplayName" val=""/>
            </MetaData>
           </UnifiedMedia>
           <UnifiedMedia id="666"  >
            <AMFile id="667" start="15262" duration="230" scalar="1/1" mediaStart="22650/1" mediaDuration="230/1" trackNumber="1" src="4" channelNumber="0,1" >
             <Parameters>
              <InterpolatingParam id="668" interp="linr"  time="0/1" value="1" leadInLength="0/1"  name="volume"/>
              <Parameter id="669"  name="captions"/>
             </Parameters>
             <Attributes>
              <Attribute id="670" value="" name="ident"/>
              <Attribute id="671" value="44100" name="sampleRate"/>
              <Attribute id="672" value="16" name="bitDepth"/>
              <Attribute id="673" value="1" name="gain"/>
              <Attribute id="674" value="0" name="mixToMono"/>
             </Attributes>
            </AMFile>
            <ScreenVMFile id="675" start="15262" duration="230" scalar="1/1" mediaStart="22650/1" mediaDuration="230/1" trackNumber="0" src="4" >
             <Transformer>
              <VectorParam id="676"  name="translation">
               <InterpolatingParam id="677" interp="linr"  time="-9999999/1" value="0" leadInLength="0/1"  />
               <InterpolatingParam id="678" interp="linr"  time="-9999999/1" value="0" leadInLength="0/1"  />
               <InterpolatingParam id="679" interp="linr"  time="-9999999/1" value="0" leadInLength="0/1"  />
              </VectorParam>
              <VectorParam id="680"  name="rotation">
               <InterpolatingParam id="681" interp="linr"  time="-9999999/1" value="0" leadInLength="0/1"  />
               <InterpolatingParam id="682" interp="linr"  time="-9999999/1" value="0" leadInLength="0/1"  />
               <InterpolatingParam id="683" interp="linr"  time="-9999999/1" value="0" leadInLength="0/1"  />
              </VectorParam>
              <VectorParam id="684"  name="shear">
               <InterpolatingParam id="685" interp="linr"  time="-9999999/1" value="0" leadInLength="0/1"  />
               <InterpolatingParam id="686" interp="linr"  time="-9999999/1" value="0" leadInLength="0/1"  />
               <InterpolatingParam id="687" interp="linr"  time="-9999999/1" value="0" leadInLength="0/1"  />
              </VectorParam>
              <VectorParam id="688"  name="scale">
               <InterpolatingParam id="689" interp="linr"  time="-9999999/1" value="1" leadInLength="0/1"  />
               <InterpolatingParam id="690" interp="linr"  time="-9999999/1" value="1" leadInLength="0/1"  />
               <InterpolatingParam id="691" interp="linr"  time="-9999999/1" value="1" leadInLength="0/1"  />
              </VectorParam>
              <VectorParam id="692"  name="anchor">
               <InterpolatingParam id="693" interp="linr"  time="0/1" value="0" leadInLength="0/1"  />
               <InterpolatingParam id="694" interp="linr"  time="0/1" value="0" leadInLength="0/1"  />
               <InterpolatingParam id="695" interp="linr"  time="0/1" value="0" leadInLength="0/1"  />
              </VectorParam>
             </Transformer>
             <Parameters>
              <VectorParam id="696"  name="sourceCrop">
               <InterpolatingParam id="697" interp="linr"  time="0/1" value="0" leadInLength="0/1"  />
               <InterpolatingParam id="698" interp="linr"  time="0/1" value="0" leadInLength="0/1"  />
               <InterpolatingParam id="699" interp="linr"  time="0/1" value="0" leadInLength="0/1"  />
               <InterpolatingParam id="700" interp="linr"  time="0/1" value="0" leadInLength="0/1"  />
              </VectorParam>
              <VectorParam id="701"  name="geometryCrop">
               <InterpolatingParam id="702" interp="linr"  time="-9999999/1" value="0" leadInLength="0/1"  />
               <InterpolatingParam id="703" interp="linr"  time="-9999999/1" value="0" leadInLength="0/1"  />
               <InterpolatingParam id="704" interp="linr"  time="-9999999/1" value="0" leadInLength="0/1"  />
               <InterpolatingParam id="705" interp="linr"  time="-9999999/1" value="0" leadInLength="0/1"  />
              </VectorParam>
              <InterpolatingParam id="706" interp="linr"  time="-9999999/1" value="1" leadInLength="0/1"  name="opacity"/>
              <InterpolatingParam id="707" interp="linr"  time="0/1" value="0" leadInLength="0/1"  name="cursorOpacity"/>
              <InterpolatingParam id="708" interp="linr"  time="0/1" value="0" leadInLength="0/1"  name="cursorScale"/>
             </Parameters>
             <Attributes>
              <Attribute id="709" value="" name="ident"/>
             </Attributes>
             <ExtraData>
              <Entry key="ZoomPanBin">
               <ZoomPanBin id="710"  >
                <ZoomPanKeyframes>
                 <ZoomPanKeyframe id="711" timeRangeEnd="-9999999/1" timeRangeDuration="0/1" interpolaterName="linr"  />
                </ZoomPanKeyframes>
               </ZoomPanBin>
              </Entry>
              <Entry key="CursorEffectBin">
               <CursorEffectBin id="712"  >
                <CursorEffectKeyframes>
                </CursorEffectKeyframes>
               </CursorEffectBin>
              </Entry>
             </ExtraData>
            </ScreenVMFile>
            <MetaData>
             <entry key="AutoAppliedSmartFocus" val="False"/>
             <entry key="WinSubProjectDisplayName" val=""/>
            </MetaData>
           </UnifiedMedia>
          </Medias>
         </GenericTrack>
        </StitchedMedia>
       </Medias>
      </GenericTrack>
      <GenericTrack id="713"  >
       <Attributes>
        <Attribute id="714" value="" name="ident"/>
        <Attribute id="715" value="0" name="audioMuted"/>
        <Attribute id="716" value="0" name="videoHidden"/>
       </Attributes>
       <MetaData>
        <entry key="IsLocked" val="False"/>
        <entry key="WinTrackHeight" val="62"/>
       </MetaData>
       <Medias>
        <AMFile id="717" start="0" duration="6266" scalar="1/1" mediaStart="1238/1" mediaDuration="6266/1" trackNumber="0" src="5" channelNumber="0,1" >
         <Parameters>
          <InterpolatingParam id="718" interp="linr"  name="volume">
           <Keyframes>
           <Keyframe id="719"  time="-1/1" value="0.08589934592000005" leadInLength="0/1"  />
           <Keyframe id="720"  time="0/1" value="0.049627791563275084" leadInLength="0/1"  />
           <Keyframe id="721"  time="5313/1" value="0.049627791563275084" leadInLength="0/1"  />
           <Keyframe id="722"  time="5314/1" value="0.033085194375517185" leadInLength="0/1"  />
           <Keyframe id="723"  time="5482/1" value="0.049627791563275264" leadInLength="0/1"  />
           <Keyframe id="724"  time="5931/1" value="0.049627791563275264" leadInLength="0/1"  />
           <Keyframe id="725"  time="5932/1" value="0.049627791563275223" leadInLength="0/1"  />
           <Keyframe id="726"  time="6582/1" value="0.049627791563275223" leadInLength="0/1"  />
           <Keyframe id="727"  time="6583/1" value="0.049627791563275264" leadInLength="0/1"  />
           <Keyframe id="728"  time="7731/1" value="0.049627791563275264" leadInLength="0/1"  />
           <Keyframe id="729"  time="7732/1" value="0.08589934592000005" leadInLength="0/1"  />
           </Keyframes>
          </InterpolatingParam>
          <Parameter id="730"  name="captions"/>
         </Parameters>
         <Attributes>
          <Attribute id="731" value="" name="ident"/>
          <Attribute id="732" value="44100" name="sampleRate"/>
          <Attribute id="733" value="0" name="bitDepth"/>
          <Attribute id="734" value="1" name="gain"/>
          <Attribute id="735" value="0" name="mixToMono"/>
         </Attributes>
         <MetaData>
          <entry key="WinSubProjectDisplayName" val=""/>
         </MetaData>
        </AMFile>
        <AMFile id="736" start="6266" duration="5337" scalar="1/1" mediaStart="0/1" mediaDuration="5337/1" trackNumber="0" src="5" channelNumber="0,1" >
         <Parameters>
          <InterpolatingParam id="737" interp="linr"  name="volume">
           <Keyframes>
           <Keyframe id="738"  time="0/1" value="0.049627791563275077" leadInLength="0/1"  />
           <Keyframe id="739"  time="4762/1" value="0.049627791563275077" leadInLength="0/1"  />
           <Keyframe id="740"  time="4763/1" value="0.049627791563275167" leadInLength="0/1"  />
           <Keyframe id="741"  time="5337/1" value="0.049627791563275167" leadInLength="0/1"  />
           <Keyframe id="742"  time="5338/1" value="0.049627791563275077" leadInLength="0/1"  />
           </Keyframes>
          </InterpolatingParam>
          <Parameter id="743"  name="captions"/>
         </Parameters>
         <Attributes>
          <Attribute id="744" value="" name="ident"/>
          <Attribute id="745" value="44100" name="sampleRate"/>
          <Attribute id="746" value="0" name="bitDepth"/>
          <Attribute id="747" value="1" name="gain"/>
          <Attribute id="748" value="0" name="mixToMono"/>
         </Attributes>
         <MetaData>
          <entry key="WinSubProjectDisplayName" val=""/>
         </MetaData>
        </AMFile>
       </Medias>
      </GenericTrack>
      <GenericTrack id="749"  >
       <Attributes>
        <Attribute id="750" value="" name="ident"/>
        <Attribute id="751" value="0" name="audioMuted"/>
        <Attribute id="752" value="0" name="videoHidden"/>
       </Attributes>
       <MetaData>
        <entry key="IsLocked" val="False"/>
        <entry key="WinTrackHeight" val="62"/>
       </MetaData>
       <Medias>
        <AMFile id="753" start="0" duration="385" scalar="1/1" mediaStart="996/1" mediaDuration="385/1" trackNumber="2" src="6" channelNumber="0,1" >
         <Parameters>
          <InterpolatingParam id="754" interp="linr"  time="0/1" value="1" leadInLength="0/1"  name="volume"/>
          <Parameter id="755"  name="captions"/>
         </Parameters>
         <Attributes>
          <Attribute id="756" value="" name="ident"/>
          <Attribute id="757" value="44100" name="sampleRate"/>
          <Attribute id="758" value="16" name="bitDepth"/>
          <Attribute id="759" value="1" name="gain"/>
          <Attribute id="760" value="0" name="mixToMono"/>
         </Attributes>
         <MetaData>
          <entry key="WinSubProjectDisplayName" val=""/>
         </MetaData>
        </AMFile>
       </Medias>
      </GenericTrack>
      <GenericTrack id="761"  >
       <Attributes>
        <Attribute id="762" value="" name="ident"/>
        <Attribute id="763" value="0" name="audioMuted"/>
        <Attribute id="764" value="0" name="videoHidden"/>
       </Attributes>
       <MetaData>
        <entry key="IsLocked" val="False"/>
        <entry key="WinTrackHeight" val="62"/>
       </MetaData>
       <Medias>
        <UnifiedMedia id="765"  >
         <AMFile id="766" start="0" duration="395" scalar="1/1" mediaStart="996/1" mediaDuration="395/1" trackNumber="1" src="6" channelNumber="0,1" >
          <Parameters>
           <InterpolatingParam id="767" interp="linr"  time="0/1" value="1" leadInLength="0/1"  name="volume"/>
           <Parameter id="768"  name="captions"/>
          </Parameters>
          <Attributes>
           <Attribute id="769" value="" name="ident"/>
           <Attribute id="770" value="44100" name="sampleRate"/>
           <Attribute id="771" value="16" name="bitDepth"/>
           <Attribute id="772" value="1" name="gain"/>
           <Attribute id="773" value="0" name="mixToMono"/>
          </Attributes>
         </AMFile>
         <ScreenVMFile id="774" start="0" duration="395" scalar="1/1" mediaStart="996/1" mediaDuration="395/1" trackNumber="0" src="6" >
          <Transformer>
           <VectorParam id="775"  name="translation">
            <InterpolatingParam id="776" interp="linr"  time="-9999999/1" value="0" leadInLength="0/1"  />
            <InterpolatingParam id="777" interp="linr"  time="-9999999/1" value="0" leadInLength="0/1"  />
            <InterpolatingParam id="778" interp="linr"  time="-9999999/1" value="0" leadInLength="0/1"  />
           </VectorParam>
           <VectorParam id="779"  name="rotation">
            <InterpolatingParam id="780" interp="linr"  time="-9999999/1" value="0" leadInLength="0/1"  />
            <InterpolatingParam id="781" interp="linr"  time="-9999999/1" value="0" leadInLength="0/1"  />
            <InterpolatingParam id="782" interp="linr"  time="-9999999/1" value="0" leadInLength="0/1"  />
           </VectorParam>
           <VectorParam id="783"  name="shear">
            <InterpolatingParam id="784" interp="linr"  time="-9999999/1" value="0" leadInLength="0/1"  />
            <InterpolatingParam id="785" interp="linr"  time="-9999999/1" value="0" leadInLength="0/1"  />
            <InterpolatingParam id="786" interp="linr"  time="-9999999/1" value="0" leadInLength="0/1"  />
           </VectorParam>
           <VectorParam id="787"  name="scale">
            <InterpolatingParam id="788" interp="linr"  time="-9999999/1" value="0.70833333333333337" leadInLength="0/1"  />
            <InterpolatingParam id="789" interp="linr"  time="-9999999/1" value="0.70833333333333337" leadInLength="0/1"  />
            <InterpolatingParam id="790" interp="linr"  time="-9999999/1" value="1" leadInLength="0/1"  />
           </VectorParam>
           <VectorParam id="791"  name="anchor">
            <InterpolatingParam id="792" interp="linr"  time="0/1" value="0" leadInLength="0/1"  />
            <InterpolatingParam id="793" interp="linr"  time="0/1" value="0" leadInLength="0/1"  />
            <InterpolatingParam id="794" interp="linr"  time="0/1" value="0" leadInLength="0/1"  />
           </VectorParam>
          </Transformer>
          <Parameters>
           <VectorParam id="795"  name="sourceCrop">
            <InterpolatingParam id="796" interp="linr"  time="0/1" value="0" leadInLength="0/1"  />
            <InterpolatingParam id="797" interp="linr"  time="0/1" value="0" leadInLength="0/1"  />
            <InterpolatingParam id="798" interp="linr"  time="0/1" value="0" leadInLength="0/1"  />
            <InterpolatingParam id="799" interp="linr"  time="0/1" value="0" leadInLength="0/1"  />
           </VectorParam>
           <VectorParam id="800"  name="geometryCrop">
            <InterpolatingParam id="801" interp="linr"  time="-9999999/1" value="0" leadInLength="0/1"  />
            <InterpolatingParam id="802" interp="linr"  time="-9999999/1" value="0" leadInLength="0/1"  />
            <InterpolatingParam id="803" interp="linr"  time="-9999999/1" value="0" leadInLength="0/1"  />
            <InterpolatingParam id="804" interp="linr"  time="-9999999/1" value="0" leadInLength="0/1"  />
           </VectorParam>
           <InterpolatingParam id="805" interp="linr"  time="-9999999/1" value="1" leadInLength="0/1"  name="opacity"/>
           <InterpolatingParam id="806" interp="linr"  time="0/1" value="1" leadInLength="0/1"  name="cursorOpacity"/>
           <InterpolatingParam id="807" interp="linr"  time="0/1" value="1" leadInLength="0/1"  name="cursorScale"/>
          </Parameters>
          <Effects>
           <GenericEffect id="808" name = "CursorBaseEffectName" >
            <Parameters>
            <InterpolatingParam id="809" interp="linr"  time="-9999999/1" value="1" leadInLength="0/1"   name="cursorSize"/>
            <InterpolatingParam id="810" interp="linr"  time="-9999999/1" value="0" leadInLength="0/1"   name="highlightBlurRadius"/>
            <InterpolatingParam id="811" interp="linr"  time="-9999999/1" value="0" leadInLength="0/1"   name="highlightColorBlue"/>
            <InterpolatingParam id="812" interp="linr"  time="-9999999/1" value="255" leadInLength="0/1"   name="highlightColorGreen"/>
            <InterpolatingParam id="813" interp="linr"  time="-9999999/1" value="255" leadInLength="0/1"   name="highlightColorRed"/>
            <InterpolatingParam id="814" interp="linr"  time="-9999999/1" value="5" leadInLength="0/1"   name="highlightFeatherSize"/>
            <InterpolatingParam id="815" interp="linr"  time="-9999999/1" value="2" leadInLength="0/1"   name="highlightMagnification"/>
            <InterpolatingParam id="816" interp="linr"  time="-9999999/1" value="1" leadInLength="0/1"   name="highlightOpacity"/>
            <InterpolatingParam id="817" interp="linr"  time="-9999999/1" value="45" leadInLength="0/1"   name="highlightSize"/>
            <Parameter id="818"   name="highlightType">
             <Keyframes>
             <Keyframe id="819"  time="-9999999/1" value="0" leadInLength="0/1"  />
             </Keyframes>
            </Parameter>
            <InterpolatingParam id="820" interp="linr"  time="-9999999/1" value="0" leadInLength="0/1"   name="leftClickColorBlue"/>
            <InterpolatingParam id="821" interp="linr"  time="-9999999/1" value="0" leadInLength="0/1"   name="leftClickColorGreen"/>
            <InterpolatingParam id="822" interp="linr"  time="-9999999/1" value="255" leadInLength="0/1"   name="leftClickColorRed"/>
            <InterpolatingParam id="823" interp="linr"  time="-9999999/1" value="0.80000000000000004" leadInLength="0/1"   name="leftClickDuration"/>
            <InterpolatingParam id="824" interp="linr"  time="-9999999/1" value="20" leadInLength="0/1"   name="leftClickSize"/>
            <Parameter id="825"   name="leftClickSoundFilename">
             <Keyframes>
             <Keyframe id="826"  time="-9999999/1" value="" leadInLength="0/1"  />
             </Keyframes>
            </Parameter>
            <InterpolatingParam id="827" interp="linr"  time="-9999999/1" value="1" leadInLength="0/1"   name="leftClickSoundVolume"/>
            <Parameter id="828"   name="leftClickType">
             <Keyframes>
             <Keyframe id="829"  time="-9999999/1" value="0" leadInLength="0/1"  />
             </Keyframes>
            </Parameter>
            <InterpolatingParam id="830" interp="linr"  time="-9999999/1" value="1" leadInLength="0/1"   name="opacity"/>
            <InterpolatingParam id="831" interp="linr"  time="-9999999/1" value="255" leadInLength="0/1"   name="rightClickColorBlue"/>
            <InterpolatingParam id="832" interp="linr"  time="-9999999/1" value="0" leadInLength="0/1"   name="rightClickColorGreen"/>
            <InterpolatingParam id="833" interp="linr"  time="-9999999/1" value="0" leadInLength="0/1"   name="rightClickColorRed"/>
            <InterpolatingParam id="834" interp="linr"  time="-9999999/1" value="0.80000000000000004" leadInLength="0/1"   name="rightClickDuration"/>
            <InterpolatingParam id="835" interp="linr"  time="-9999999/1" value="20" leadInLength="0/1"   name="rightClickSize"/>
            <Parameter id="836"   name="rightClickSoundFilename">
             <Keyframes>
             <Keyframe id="837"  time="-9999999/1" value="" leadInLength="0/1"  />
             </Keyframes>
            </Parameter>
            <InterpolatingParam id="838" interp="linr"  time="-9999999/1" value="1" leadInLength="0/1"   name="rightClickSoundVolume"/>
            <Parameter id="839"   name="rightClickType">
             <Keyframes>
             <Keyframe id="840"  time="-9999999/1" value="0" leadInLength="0/1"  />
             </Keyframes>
            </Parameter>
            </Parameters>
            <MetaData>
             <entry key="effectIndex" val="0"/>
            </MetaData>
           </GenericEffect>
          </Effects>
          <Attributes>
           <Attribute id="841" value="" name="ident"/>
          </Attributes>
          <ExtraData>
           <Entry key="ZoomPanBin">
            <ZoomPanBin id="842"  >
             <ZoomPanKeyframes>
              <ZoomPanKeyframe id="843" timeRangeEnd="-9999999/1" timeRangeDuration="0/1" interpolaterName="linr"  />
             </ZoomPanKeyframes>
            </ZoomPanBin>
           </Entry>
           <Entry key="CursorEffectBin">
            <CursorEffectBin id="844"  >
             <CursorEffectKeyframes>
              <CursorEffectKeyframe id="845" timeRangeEnd="-9999999/1" timeRangeDuration="0/1" interpolaterName=""  />
             </CursorEffectKeyframes>
            </CursorEffectBin>
           </Entry>
          </ExtraData>
         </ScreenVMFile>
         <MetaData>
          <entry key="AutoAppliedSmartFocus" val="False"/>
          <entry key="WinSubProjectDisplayName" val=""/>
         </MetaData>
        </UnifiedMedia>
       </Medias>
      </GenericTrack>
      <GenericTrack id="846"  >
       <Attributes>
        <Attribute id="847" value="" name="ident"/>
        <Attribute id="848" value="0" name="audioMuted"/>
        <Attribute id="849" value="0" name="videoHidden"/>
       </Attributes>
       <MetaData>
        <entry key="IsLocked" val="False"/>
        <entry key="WinTrackHeight" val="62"/>
       </MetaData>
       <Medias>
        <AMFile id="850" start="0" duration="385" scalar="1/1" mediaStart="996/1" mediaDuration="385/1" trackNumber="2" src="6" channelNumber="0,1" >
         <Parameters>
          <InterpolatingParam id="851" interp="linr"  time="0/1" value="1" leadInLength="0/1"  name="volume"/>
          <Parameter id="852"  name="captions"/>
         </Parameters>
         <Attributes>
          <Attribute id="853" value="" name="ident"/>
          <Attribute id="854" value="44100" name="sampleRate"/>
          <Attribute id="855" value="16" name="bitDepth"/>
          <Attribute id="856" value="1" name="gain"/>
          <Attribute id="857" value="0" name="mixToMono"/>
         </Attributes>
         <MetaData>
          <entry key="WinSubProjectDisplayName" val=""/>
         </MetaData>
        </AMFile>
       </Medias>
      </GenericTrack>
      <GenericTrack id="858"  >
       <Attributes>
        <Attribute id="859" value="" name="ident"/>
        <Attribute id="860" value="0" name="audioMuted"/>
        <Attribute id="861" value="0" name="videoHidden"/>
       </Attributes>
       <MetaData>
        <entry key="IsLocked" val="False"/>
        <entry key="WinTrackHeight" val="62"/>
       </MetaData>
       <Medias>
        <UnifiedMedia id="862"  >
         <AMFile id="863" start="0" duration="395" scalar="1/1" mediaStart="996/1" mediaDuration="395/1" trackNumber="1" src="6" channelNumber="0,1" >
          <Parameters>
           <InterpolatingParam id="864" interp="linr"  time="0/1" value="1" leadInLength="0/1"  name="volume"/>
           <Parameter id="865"  name="captions"/>
          </Parameters>
          <Attributes>
           <Attribute id="866" value="" name="ident"/>
           <Attribute id="867" value="44100" name="sampleRate"/>
           <Attribute id="868" value="16" name="bitDepth"/>
           <Attribute id="869" value="1" name="gain"/>
           <Attribute id="870" value="0" name="mixToMono"/>
          </Attributes>
         </AMFile>
         <ScreenVMFile id="871" start="0" duration="395" scalar="1/1" mediaStart="996/1" mediaDuration="395/1" trackNumber="0" src="6" >
          <Transformer>
           <VectorParam id="872"  name="translation">
            <InterpolatingParam id="873" interp="linr"  time="-9999999/1" value="0" leadInLength="0/1"  />
            <InterpolatingParam id="874" interp="linr"  time="-9999999/1" value="0" leadInLength="0/1"  />
            <InterpolatingParam id="875" interp="linr"  time="-9999999/1" value="0" leadInLength="0/1"  />
           </VectorParam>
           <VectorParam id="876"  name="rotation">
            <InterpolatingParam id="877" interp="linr"  time="-9999999/1" value="0" leadInLength="0/1"  />
            <InterpolatingParam id="878" interp="linr"  time="-9999999/1" value="0" leadInLength="0/1"  />
            <InterpolatingParam id="879" interp="linr"  time="-9999999/1" value="0" leadInLength="0/1"  />
           </VectorParam>
           <VectorParam id="880"  name="shear">
            <InterpolatingParam id="881" interp="linr"  time="-9999999/1" value="0" leadInLength="0/1"  />
            <InterpolatingParam id="882" interp="linr"  time="-9999999/1" value="0" leadInLength="0/1"  />
            <InterpolatingParam id="883" interp="linr"  time="-9999999/1" value="0" leadInLength="0/1"  />
           </VectorParam>
           <VectorParam id="884"  name="scale">
            <InterpolatingParam id="885" interp="linr"  time="-9999999/1" value="0.70833333333333337" leadInLength="0/1"  />
            <InterpolatingParam id="886" interp="linr"  time="-9999999/1" value="0.70833333333333337" leadInLength="0/1"  />
            <InterpolatingParam id="887" interp="linr"  time="-9999999/1" value="1" leadInLength="0/1"  />
           </VectorParam>
           <VectorParam id="888"  name="anchor">
            <InterpolatingParam id="889" interp="linr"  time="0/1" value="0" leadInLength="0/1"  />
            <InterpolatingParam id="890" interp="linr"  time="0/1" value="0" leadInLength="0/1"  />
            <InterpolatingParam id="891" interp="linr"  time="0/1" value="0" leadInLength="0/1"  />
           </VectorParam>
          </Transformer>
          <Parameters>
           <VectorParam id="892"  name="sourceCrop">
            <InterpolatingParam id="893" interp="linr"  time="0/1" value="0" leadInLength="0/1"  />
            <InterpolatingParam id="894" interp="linr"  time="0/1" value="0" leadInLength="0/1"  />
            <InterpolatingParam id="895" interp="linr"  time="0/1" value="0" leadInLength="0/1"  />
            <InterpolatingParam id="896" interp="linr"  time="0/1" value="0" leadInLength="0/1"  />
           </VectorParam>
           <VectorParam id="897"  name="geometryCrop">
            <InterpolatingParam id="898" interp="linr"  time="-9999999/1" value="0" leadInLength="0/1"  />
            <InterpolatingParam id="899" interp="linr"  time="-9999999/1" value="0" leadInLength="0/1"  />
            <InterpolatingParam id="900" interp="linr"  time="-9999999/1" value="0" leadInLength="0/1"  />
            <InterpolatingParam id="901" interp="linr"  time="-9999999/1" value="0" leadInLength="0/1"  />
           </VectorParam>
           <InterpolatingParam id="902" interp="linr"  time="-9999999/1" value="1" leadInLength="0/1"  name="opacity"/>
           <InterpolatingParam id="903" interp="linr"  time="0/1" value="1" leadInLength="0/1"  name="cursorOpacity"/>
           <InterpolatingParam id="904" interp="linr"  time="0/1" value="1" leadInLength="0/1"  name="cursorScale"/>
          </Parameters>
          <Effects>
           <GenericEffect id="905" name = "CursorBaseEffectName" >
            <Parameters>
            <InterpolatingParam id="906" interp="linr"  time="-9999999/1" value="1" leadInLength="0/1"   name="cursorSize"/>
            <InterpolatingParam id="907" interp="linr"  time="-9999999/1" value="0" leadInLength="0/1"   name="highlightBlurRadius"/>
            <InterpolatingParam id="908" interp="linr"  time="-9999999/1" value="0" leadInLength="0/1"   name="highlightColorBlue"/>
            <InterpolatingParam id="909" interp="linr"  time="-9999999/1" value="255" leadInLength="0/1"   name="highlightColorGreen"/>
            <InterpolatingParam id="910" interp="linr"  time="-9999999/1" value="255" leadInLength="0/1"   name="highlightColorRed"/>
            <InterpolatingParam id="911" interp="linr"  time="-9999999/1" value="5" leadInLength="0/1"   name="highlightFeatherSize"/>
            <InterpolatingParam id="912" interp="linr"  time="-9999999/1" value="2" leadInLength="0/1"   name="highlightMagnification"/>
            <InterpolatingParam id="913" interp="linr"  time="-9999999/1" value="1" leadInLength="0/1"   name="highlightOpacity"/>
            <InterpolatingParam id="914" interp="linr"  time="-9999999/1" value="45" leadInLength="0/1"   name="highlightSize"/>
            <Parameter id="915"   name="highlightType">
             <Keyframes>
             <Keyframe id="916"  time="-9999999/1" value="0" leadInLength="0/1"  />
             </Keyframes>
            </Parameter>
            <InterpolatingParam id="917" interp="linr"  time="-9999999/1" value="0" leadInLength="0/1"   name="leftClickColorBlue"/>
            <InterpolatingParam id="918" interp="linr"  time="-9999999/1" value="0" leadInLength="0/1"   name="leftClickColorGreen"/>
            <InterpolatingParam id="919" interp="linr"  time="-9999999/1" value="255" leadInLength="0/1"   name="leftClickColorRed"/>
            <InterpolatingParam id="920" interp="linr"  time="-9999999/1" value="0.80000000000000004" leadInLength="0/1"   name="leftClickDuration"/>
            <InterpolatingParam id="921" interp="linr"  time="-9999999/1" value="20" leadInLength="0/1"   name="leftClickSize"/>
            <Parameter id="922"   name="leftClickSoundFilename">
             <Keyframes>
             <Keyframe id="923"  time="-9999999/1" value="" leadInLength="0/1"  />
             </Keyframes>
            </Parameter>
            <InterpolatingParam id="924" interp="linr"  time="-9999999/1" value="1" leadInLength="0/1"   name="leftClickSoundVolume"/>
            <Parameter id="925"   name="leftClickType">
             <Keyframes>
             <Keyframe id="926"  time="-9999999/1" value="0" leadInLength="0/1"  />
             </Keyframes>
            </Parameter>
            <InterpolatingParam id="927" interp="linr"  time="-9999999/1" value="1" leadInLength="0/1"   name="opacity"/>
            <InterpolatingParam id="928" interp="linr"  time="-9999999/1" value="255" leadInLength="0/1"   name="rightClickColorBlue"/>
            <InterpolatingParam id="929" interp="linr"  time="-9999999/1" value="0" leadInLength="0/1"   name="rightClickColorGreen"/>
            <InterpolatingParam id="930" interp="linr"  time="-9999999/1" value="0" leadInLength="0/1"   name="rightClickColorRed"/>
            <InterpolatingParam id="931" interp="linr"  time="-9999999/1" value="0.80000000000000004" leadInLength="0/1"   name="rightClickDuration"/>
            <InterpolatingParam id="932" interp="linr"  time="-9999999/1" value="20" leadInLength="0/1"   name="rightClickSize"/>
            <Parameter id="933"   name="rightClickSoundFilename">
             <Keyframes>
             <Keyframe id="934"  time="-9999999/1" value="" leadInLength="0/1"  />
             </Keyframes>
            </Parameter>
            <InterpolatingParam id="935" interp="linr"  time="-9999999/1" value="1" leadInLength="0/1"   name="rightClickSoundVolume"/>
            <Parameter id="936"   name="rightClickType">
             <Keyframes>
             <Keyframe id="937"  time="-9999999/1" value="0" leadInLength="0/1"  />
             </Keyframes>
            </Parameter>
            </Parameters>
            <MetaData>
             <entry key="effectIndex" val="0"/>
            </MetaData>
           </GenericEffect>
          </Effects>
          <Attributes>
           <Attribute id="938" value="" name="ident"/>
          </Attributes>
          <ExtraData>
           <Entry key="ZoomPanBin">
            <ZoomPanBin id="939"  >
             <ZoomPanKeyframes>
              <ZoomPanKeyframe id="940" timeRangeEnd="-9999999/1" timeRangeDuration="0/1" interpolaterName="linr"  />
             </ZoomPanKeyframes>
            </ZoomPanBin>
           </Entry>
           <Entry key="CursorEffectBin">
            <CursorEffectBin id="941"  >
             <CursorEffectKeyframes>
              <CursorEffectKeyframe id="942" timeRangeEnd="-9999999/1" timeRangeDuration="0/1" interpolaterName=""  />
             </CursorEffectKeyframes>
            </CursorEffectBin>
           </Entry>
          </ExtraData>
         </ScreenVMFile>
         <MetaData>
          <entry key="AutoAppliedSmartFocus" val="False"/>
          <entry key="WinSubProjectDisplayName" val=""/>
         </MetaData>
        </UnifiedMedia>
       </Medias>
      </GenericTrack>
      <GenericTrack id="943"  >
       <Attributes>
        <Attribute id="944" value="" name="ident"/>
        <Attribute id="945" value="0" name="audioMuted"/>
        <Attribute id="946" value="0" name="videoHidden"/>
       </Attributes>
       <MetaData>
        <entry key="IsLocked" val="False"/>
        <entry key="WinTrackHeight" val="62"/>
       </MetaData>
       <Medias>
       </Medias>
      </GenericTrack>
     </Tracks>
    </GenericMixer>
   <CaptionAttributes id="947"  >
    <Attribute id="948" value="1" name="captionsEnabled"/>
    <Attribute id="949" value="Arial" name="captionsFontName"/>
    <Attribute id="950" value="18" name="captionsFontSize"/>
    <Attribute id="951" value="(0,0,0,255)" name="captionsBackgroundColor"/>
    <Attribute id="952" value="(255,255,255,255)" name="captionsForegroundColor"/>
    <Attribute id="953" value="en" name="lang"/>
    <Attribute id="954" value="0" name="captionsAlignment"/>
    <Attribute id="955" value="1" name="captionsDefaultFontSize"/>
    <Attribute id="956" value="0.5" name="captionsOpacity"/>
    <Attribute id="957" value="1" name="captionsBackgroundEnabled"/>
    <Attribute id="958" value="1" name="captionsBackgroundOnlyAroundText"/>
   </CaptionAttributes>
   <Parameters>
    <VectorParam id="959"  name="eyePosition">
     <InterpolatingParam id="960" interp="linr"  time="0/1" value="0" leadInLength="0/1"  />
     <InterpolatingParam id="961" interp="linr"  time="0/1" value="0" leadInLength="0/1"  />
     <InterpolatingParam id="962" interp="linr"  time="0/1" value="3000" leadInLength="0/1"  />
    </VectorParam>
    <VectorParam id="963"  name="eyeLookAtPosition">
     <InterpolatingParam id="964" interp="linr"  time="0/1" value="0" leadInLength="0/1"  />
     <InterpolatingParam id="965" interp="linr"  time="0/1" value="0" leadInLength="0/1"  />
     <InterpolatingParam id="966" interp="linr"  time="0/1" value="0" leadInLength="0/1"  />
    </VectorParam>
    <VectorParam id="967"  name="eyeUpVector">
     <InterpolatingParam id="968" interp="linr"  time="0/1" value="0" leadInLength="0/1"  />
     <InterpolatingParam id="969" interp="linr"  time="0/1" value="1" leadInLength="0/1"  />
     <InterpolatingParam id="970" interp="linr"  time="0/1" value="0" leadInLength="0/1"  />
    </VectorParam>
    <InterpolatingParam id="971" interp="linr"  time="0/1" value="0.23885785" leadInLength="0/1"  name="fov"/>
    <InterpolatingParam id="972" interp="linr"  time="0/1" value="1.5" leadInLength="0/1"  name="nearClipDistance"/>
    <InterpolatingParam id="973" interp="linr"  time="0/1" value="6000" leadInLength="0/1"  name="farClipDistance"/>
   </Parameters>
  </Timeline>
 </Project>
</GoProject>
</CSMLData>

</Project_Data>
