<?xml version="1.0"?>
<Project_Data Version="8.00">
<Project_Settings>
<ProfileName>MP4 only (up to 1080p)</ProfileName>
<ProjectWidth>1360</ProjectWidth>
<ProjectHeight>720</ProjectHeight>
<IsCustomProject>1</IsCustomProject>
<SavedProjectSettings>1</SavedProjectSettings>
<LastFlashTemplate>-1</LastFlashTemplate>
</Project_Settings>


<AutoSaveFile>C:\Users\jiayue\AppData\Local\TechSmith\Camtasia Studio\8.0\Auto-Saves\布尔运算助我献爱心4b361e33.autosave.camproj</AutoSaveFile>

<ProjectID>1618B1D5-70CB-4C3D-AB43-624EE8942398</ProjectID>

<PowerPointProject>0</PowerPointProject>

<PowerPointFilename></PowerPointFilename>


<Project_Notes>
</Project_Notes>

<Project_MetaData>
<Project_MetaData_Object>
<FieldArrayKey>8</FieldArrayKey>
<Value>布尔运算助我献爱心</Value>
</Project_MetaData_Object>
<Project_MetaData_Object>
<FieldArrayKey>13</FieldArrayKey>
<Value>2020-02-15 05:10:10 下午</Value>
</Project_MetaData_Object>
<Project_MetaData_Object>
<FieldArrayKey>16</FieldArrayKey>
<Value>ENU</Value>
</Project_MetaData_Object>
</Project_MetaData>

<CSMLData>
<GoProject id="1" version="3.0" >
 <Project id="2" editRate="30/1" version="3.0" >
  <Author></Author>
  <Comment></Comment>
  <System></System>
  <SourceBin id="3"  >
    <Source id="4" src="C:\Users\jiayue\Desktop\毕业设计微课\布尔运算助我献爱心\录屏\布尔运算1.trec" lastMod="20200215T114511" rect="(0,0,1920,1016)" >
      <SourceTrack range="(0,4691)" type="0" editRate="30/1" trackRect="(0,0,1920,1016)" sampleRate="0/1" bitDepth="0" numChannels="0" filename="布尔运算1.trec!Strack0.tsc2" metaData="布尔运算1.trec;" />
      <SourceTrack range="(0,6925312)" type="2" editRate="44100/1" trackRect="(0,0,0,0)" sampleRate="44100/1" bitDepth="16" numChannels="2" filename="布尔运算1.trec!Maudio1.mp4" metaData="" />
      <SourceTrack range="(0,6881280)" type="2" editRate="44100/1" trackRect="(0,0,0,0)" sampleRate="44100/1" bitDepth="16" numChannels="2" filename="布尔运算1.trec!$audio2.mp4" metaData="" />
    </Source>
    <Source id="5" src="C:\Users\jiayue\Desktop\毕业设计微课\布尔运算助我献爱心\录屏\心形2.trec" lastMod="20200215T122816" rect="(0,0,1920,1016)" >
      <SourceTrack range="(0,9312)" type="0" editRate="30/1" trackRect="(0,0,1920,1016)" sampleRate="0/1" bitDepth="0" numChannels="0" filename="心形2.trec!Strack0.tsc2" metaData="心形2.trec;" />
      <SourceTrack range="(0,13716480)" type="2" editRate="44100/1" trackRect="(0,0,0,0)" sampleRate="44100/1" bitDepth="16" numChannels="2" filename="心形2.trec!Maudio1.mp4" metaData="" />
      <SourceTrack range="(0,13716480)" type="2" editRate="44100/1" trackRect="(0,0,0,0)" sampleRate="44100/1" bitDepth="16" numChannels="2" filename="心形2.trec!$audio2.mp4" metaData="" />
    </Source>
    <Source id="6" src="C:\Users\jiayue\Desktop\毕业设计微课\布尔运算助我献爱心\布尔运算素材\心形.png" lastMod="20200214T125118" rect="(0,0,338,301)" >
      <SourceTrack range="(0,1)" type="1" editRate="10000000/1" trackRect="(0,0,338,301)" sampleRate="0/1" bitDepth="32" numChannels="0" filename="" metaData="" />
    </Source>
    <Source id="7" src="C:\Users\jiayue\Desktop\毕业设计微课\布尔运算助我献爱心\录屏\底座1.trec" lastMod="20200215T130931" rect="(0,0,1920,1016)" >
      <SourceTrack range="(0,14369)" type="0" editRate="30/1" trackRect="(0,0,1920,1016)" sampleRate="0/1" bitDepth="0" numChannels="0" filename="底座1.trec!Strack0.tsc2" metaData="底座1.trec;" />
      <SourceTrack range="(0,21147648)" type="2" editRate="44100/1" trackRect="(0,0,0,0)" sampleRate="44100/1" bitDepth="16" numChannels="2" filename="底座1.trec!Maudio1.mp4" metaData="" />
      <SourceTrack range="(0,21125120)" type="2" editRate="44100/1" trackRect="(0,0,0,0)" sampleRate="44100/1" bitDepth="16" numChannels="2" filename="底座1.trec!$audio2.mp4" metaData="" />
    </Source>
    <Source id="8" src="C:\Users\jiayue\Desktop\毕业设计微课\布尔运算助我献爱心\布尔运算素材\底座.png" lastMod="20200214T125153" rect="(0,0,339,389)" >
      <SourceTrack range="(0,1)" type="1" editRate="10000000/1" trackRect="(0,0,339,389)" sampleRate="0/1" bitDepth="32" numChannels="0" filename="" metaData="" />
    </Source>
    <Source id="9" src="C:\Users\jiayue\Desktop\毕业设计微课\布尔运算助我献爱心\录屏\文字1.trec" lastMod="20200215T135358" rect="(0,0,1920,1016)" >
      <SourceTrack range="(0,11939)" type="0" editRate="30/1" trackRect="(0,0,1920,1016)" sampleRate="0/1" bitDepth="0" numChannels="0" filename="文字1.trec!Strack0.tsc2" metaData="文字1.trec;" />
      <SourceTrack range="(0,17574912)" type="2" editRate="44100/1" trackRect="(0,0,0,0)" sampleRate="44100/1" bitDepth="16" numChannels="2" filename="文字1.trec!Maudio1.mp4" metaData="" />
      <SourceTrack range="(0,17553408)" type="2" editRate="44100/1" trackRect="(0,0,0,0)" sampleRate="44100/1" bitDepth="16" numChannels="2" filename="文字1.trec!$audio2.mp4" metaData="" />
    </Source>
    <Source id="10" src="C:\Users\jiayue\Desktop\毕业设计微课\布尔运算助我献爱心\录屏\文字2.trec" lastMod="20200215T144008" rect="(0,0,1920,1016)" >
      <SourceTrack range="(0,5261)" type="0" editRate="30/1" trackRect="(0,0,1920,1016)" sampleRate="0/1" bitDepth="0" numChannels="0" filename="文字2.trec!Strack0.tsc2" metaData="文字2.trec;" />
      <SourceTrack range="(0,7741440)" type="2" editRate="44100/1" trackRect="(0,0,0,0)" sampleRate="44100/1" bitDepth="16" numChannels="2" filename="文字2.trec!Maudio1.mp4" metaData="" />
      <SourceTrack range="(0,7718912)" type="2" editRate="44100/1" trackRect="(0,0,0,0)" sampleRate="44100/1" bitDepth="16" numChannels="2" filename="文字2.trec!$audio2.mp4" metaData="" />
    </Source>
    <Source id="11" src="C:\Users\jiayue\Music\Music Lab Collective - Let Her Go (Passenger Cover)(1).mp3" lastMod="20200208T113506" rect="(0,0,0,0)" >
      <SourceTrack range="(0,2577000000)" type="2" editRate="10000000/1" trackRect="(0,0,0,0)" sampleRate="44100/1" bitDepth="0" numChannels="2" filename="" metaData="" />
    </Source>
    <Source id="12" src="C:\Users\jiayue\Desktop\毕业设计微课\布尔运算助我献爱心\录屏\结尾2.trec" lastMod="20200215T152917" rect="(0,0,1920,1016)" >
      <SourceTrack range="(0,479)" type="0" editRate="30/1" trackRect="(0,0,1920,1016)" sampleRate="0/1" bitDepth="0" numChannels="0" filename="结尾2.trec!Strack0.tsc2" metaData="结尾2.trec;" />
      <SourceTrack range="(0,729088)" type="2" editRate="44100/1" trackRect="(0,0,0,0)" sampleRate="44100/1" bitDepth="16" numChannels="2" filename="结尾2.trec!Maudio1.mp4" metaData="" />
      <SourceTrack range="(0,707584)" type="2" editRate="44100/1" trackRect="(0,0,0,0)" sampleRate="44100/1" bitDepth="16" numChannels="2" filename="结尾2.trec!$audio2.mp4" metaData="" />
    </Source>
  </SourceBin>
  <Timeline id="13"  >
   <Attributes>
    <Attribute id="14" value="1360" name="width"/>
    <Attribute id="15" value="720" name="height"/>
    <Attribute id="16" value="(0,0,0,255)" name="backgroundColor"/>
   </Attributes>
    <GenericMixer id="17"  name="Unified Mixer">
     <MetaData>
      <entry key="MixerType" val="TimelineMixer"/>
     </MetaData>
     <Tracks>
      <GenericTrack id="18"  >
       <Attributes>
        <Attribute id="19" value="" name="ident"/>
        <Attribute id="20" value="0" name="audioMuted"/>
        <Attribute id="21" value="0" name="videoHidden"/>
       </Attributes>
       <MetaData>
        <entry key="IsLocked" val="False"/>
        <entry key="WinTrackHeight" val="62"/>
       </MetaData>
       <Medias>
        <StitchedMedia id="22" start="0" duration="2487" scalar="1/1" mediaStart="165/1" mediaDuration="2487/1" minMediaStart="0/1" >
         <Transformer>
          <VectorParam id="23"  name="translation">
           <InterpolatingParam id="24" interp="linr"  time="0/1" value="0" leadInLength="0/1"  />
           <InterpolatingParam id="25" interp="linr"  time="0/1" value="0" leadInLength="0/1"  />
           <InterpolatingParam id="26" interp="linr"  time="0/1" value="0" leadInLength="0/1"  />
          </VectorParam>
          <VectorParam id="27"  name="rotation">
           <InterpolatingParam id="28" interp="linr"  time="0/1" value="0" leadInLength="0/1"  />
           <InterpolatingParam id="29" interp="linr"  time="0/1" value="0" leadInLength="0/1"  />
           <InterpolatingParam id="30" interp="linr"  time="0/1" value="0" leadInLength="0/1"  />
          </VectorParam>
          <VectorParam id="31"  name="shear">
           <InterpolatingParam id="32" interp="linr"  time="0/1" value="0" leadInLength="0/1"  />
           <InterpolatingParam id="33" interp="linr"  time="0/1" value="0" leadInLength="0/1"  />
           <InterpolatingParam id="34" interp="linr"  time="0/1" value="0" leadInLength="0/1"  />
          </VectorParam>
          <VectorParam id="35"  name="scale">
           <InterpolatingParam id="36" interp="linr"  time="0/1" value="1" leadInLength="0/1"  />
           <InterpolatingParam id="37" interp="linr"  time="0/1" value="1" leadInLength="0/1"  />
           <InterpolatingParam id="38" interp="linr"  time="0/1" value="1" leadInLength="0/1"  />
          </VectorParam>
          <VectorParam id="39"  name="anchor">
           <InterpolatingParam id="40" interp="linr"  time="0/1" value="0" leadInLength="0/1"  />
           <InterpolatingParam id="41" interp="linr"  time="0/1" value="0" leadInLength="0/1"  />
           <InterpolatingParam id="42" interp="linr"  time="0/1" value="0" leadInLength="0/1"  />
          </VectorParam>
         </Transformer>
         <Parameters>
          <InterpolatingParam id="43" interp="linr"  time="0/1" value="1" leadInLength="0/1"  name="cursorOpacity"/>
          <InterpolatingParam id="44" interp="linr"  time="0/1" value="1" leadInLength="0/1"  name="cursorScale"/>
          <InterpolatingParam id="45" interp="linr"  time="0/1" value="1" leadInLength="0/1"  name="volume"/>
          <Parameter id="46"  name="captions"/>
         </Parameters>
         <Attributes>
          <Attribute id="47" value="" name="ident"/>
          <Attribute id="48" value="0" name="mixToMono"/>
         </Attributes>
         <MetaData>
          <entry key="WinSubProjectDisplayName" val=""/>
         </MetaData>
         <ExtraData>
          <Entry key="ZoomPanBin">
           <ZoomPanBin id="49"  >
            <ZoomPanKeyframes>
            </ZoomPanKeyframes>
           </ZoomPanBin>
          </Entry>
          <Entry key="CursorEffectBin">
           <CursorEffectBin id="50"  >
            <CursorEffectKeyframes>
            </CursorEffectKeyframes>
           </CursorEffectBin>
          </Entry>
         </ExtraData>
         <GenericTrack id="51"  >
          <Attributes>
           <Attribute id="52" value="" name="ident"/>
           <Attribute id="53" value="0" name="audioMuted"/>
           <Attribute id="54" value="0" name="videoHidden"/>
          </Attributes>
          <MetaData>
           <entry key="IsLocked" val="False"/>
           <entry key="WinTrackHeight" val="0"/>
          </MetaData>
          <Medias>
           <AMFile id="55" start="0" duration="2038" scalar="1/1" mediaStart="0/1" mediaDuration="2038/1" trackNumber="2" src="4" channelNumber="0,1" >
            <Parameters>
             <InterpolatingParam id="56" interp="linr"  time="0/1" value="1" leadInLength="0/1"  name="volume"/>
             <Parameter id="57"  name="captions"/>
            </Parameters>
            <Attributes>
             <Attribute id="58" value="" name="ident"/>
             <Attribute id="59" value="44100" name="sampleRate"/>
             <Attribute id="60" value="16" name="bitDepth"/>
             <Attribute id="61" value="1" name="gain"/>
             <Attribute id="62" value="0" name="mixToMono"/>
            </Attributes>
            <MetaData>
             <entry key="WinSubProjectDisplayName" val=""/>
            </MetaData>
           </AMFile>
           <AMFile id="63" start="2038" duration="192" scalar="1/1" mediaStart="2067/1" mediaDuration="192/1" trackNumber="2" src="4" channelNumber="0,1" >
            <Parameters>
             <InterpolatingParam id="64" interp="linr"  time="0/1" value="1" leadInLength="0/1"  name="volume"/>
             <Parameter id="65"  name="captions"/>
            </Parameters>
            <Attributes>
             <Attribute id="66" value="" name="ident"/>
             <Attribute id="67" value="44100" name="sampleRate"/>
             <Attribute id="68" value="16" name="bitDepth"/>
             <Attribute id="69" value="1" name="gain"/>
             <Attribute id="70" value="0" name="mixToMono"/>
            </Attributes>
            <MetaData>
             <entry key="WinSubProjectDisplayName" val=""/>
            </MetaData>
           </AMFile>
           <AMFile id="71" start="2230" duration="376" scalar="1/1" mediaStart="2676/1" mediaDuration="376/1" trackNumber="2" src="4" channelNumber="0,1" >
            <Parameters>
             <InterpolatingParam id="72" interp="linr"  time="0/1" value="1" leadInLength="0/1"  name="volume"/>
             <Parameter id="73"  name="captions"/>
            </Parameters>
            <Attributes>
             <Attribute id="74" value="" name="ident"/>
             <Attribute id="75" value="44100" name="sampleRate"/>
             <Attribute id="76" value="16" name="bitDepth"/>
             <Attribute id="77" value="1" name="gain"/>
             <Attribute id="78" value="0" name="mixToMono"/>
            </Attributes>
            <MetaData>
             <entry key="WinSubProjectDisplayName" val=""/>
            </MetaData>
           </AMFile>
           <AMFile id="79" start="2606" duration="48" scalar="1/1" mediaStart="3065/1" mediaDuration="48/1" trackNumber="2" src="4" channelNumber="0,1" >
            <Parameters>
             <InterpolatingParam id="80" interp="linr"  time="0/1" value="1" leadInLength="0/1"  name="volume"/>
             <Parameter id="81"  name="captions"/>
            </Parameters>
            <Attributes>
             <Attribute id="82" value="" name="ident"/>
             <Attribute id="83" value="44100" name="sampleRate"/>
             <Attribute id="84" value="16" name="bitDepth"/>
             <Attribute id="85" value="1" name="gain"/>
             <Attribute id="86" value="0" name="mixToMono"/>
            </Attributes>
            <MetaData>
             <entry key="WinSubProjectDisplayName" val=""/>
            </MetaData>
           </AMFile>
           <AMFile id="87" start="2654" duration="381" scalar="1/1" mediaStart="3116/1" mediaDuration="381/1" trackNumber="2" src="4" channelNumber="0,1" >
            <Parameters>
             <InterpolatingParam id="88" interp="linr"  time="0/1" value="1" leadInLength="0/1"  name="volume"/>
             <Parameter id="89"  name="captions"/>
            </Parameters>
            <Attributes>
             <Attribute id="90" value="" name="ident"/>
             <Attribute id="91" value="44100" name="sampleRate"/>
             <Attribute id="92" value="16" name="bitDepth"/>
             <Attribute id="93" value="1" name="gain"/>
             <Attribute id="94" value="0" name="mixToMono"/>
            </Attributes>
            <MetaData>
             <entry key="WinSubProjectDisplayName" val=""/>
            </MetaData>
           </AMFile>
           <AMFile id="95" start="3035" duration="693" scalar="1/1" mediaStart="3523/1" mediaDuration="693/1" trackNumber="2" src="4" channelNumber="0,1" >
            <Parameters>
             <InterpolatingParam id="96" interp="linr"  time="0/1" value="1" leadInLength="0/1"  name="volume"/>
             <Parameter id="97"  name="captions"/>
            </Parameters>
            <Attributes>
             <Attribute id="98" value="" name="ident"/>
             <Attribute id="99" value="44100" name="sampleRate"/>
             <Attribute id="100" value="16" name="bitDepth"/>
             <Attribute id="101" value="1" name="gain"/>
             <Attribute id="102" value="0" name="mixToMono"/>
            </Attributes>
            <MetaData>
             <entry key="WinSubProjectDisplayName" val=""/>
            </MetaData>
           </AMFile>
           <AMFile id="103" start="3728" duration="390" scalar="1/1" mediaStart="4291/1" mediaDuration="390/1" trackNumber="2" src="4" channelNumber="0,1" >
            <Parameters>
             <InterpolatingParam id="104" interp="linr"  time="0/1" value="1" leadInLength="0/1"  name="volume"/>
             <Parameter id="105"  name="captions"/>
            </Parameters>
            <Attributes>
             <Attribute id="106" value="" name="ident"/>
             <Attribute id="107" value="44100" name="sampleRate"/>
             <Attribute id="108" value="16" name="bitDepth"/>
             <Attribute id="109" value="1" name="gain"/>
             <Attribute id="110" value="0" name="mixToMono"/>
            </Attributes>
            <MetaData>
             <entry key="WinSubProjectDisplayName" val=""/>
            </MetaData>
           </AMFile>
          </Medias>
         </GenericTrack>
        </StitchedMedia>
        <StitchedMedia id="111" start="2487" duration="1409" scalar="1/1" mediaStart="2656/1" mediaDuration="1409/1" minMediaStart="0/1" >
         <Transformer>
          <VectorParam id="112"  name="translation">
           <InterpolatingParam id="113" interp="linr"  time="0/1" value="0" leadInLength="0/1"  />
           <InterpolatingParam id="114" interp="linr"  time="0/1" value="0" leadInLength="0/1"  />
           <InterpolatingParam id="115" interp="linr"  time="0/1" value="0" leadInLength="0/1"  />
          </VectorParam>
          <VectorParam id="116"  name="rotation">
           <InterpolatingParam id="117" interp="linr"  time="0/1" value="0" leadInLength="0/1"  />
           <InterpolatingParam id="118" interp="linr"  time="0/1" value="0" leadInLength="0/1"  />
           <InterpolatingParam id="119" interp="linr"  time="0/1" value="0" leadInLength="0/1"  />
          </VectorParam>
          <VectorParam id="120"  name="shear">
           <InterpolatingParam id="121" interp="linr"  time="0/1" value="0" leadInLength="0/1"  />
           <InterpolatingParam id="122" interp="linr"  time="0/1" value="0" leadInLength="0/1"  />
           <InterpolatingParam id="123" interp="linr"  time="0/1" value="0" leadInLength="0/1"  />
          </VectorParam>
          <VectorParam id="124"  name="scale">
           <InterpolatingParam id="125" interp="linr"  time="0/1" value="1" leadInLength="0/1"  />
           <InterpolatingParam id="126" interp="linr"  time="0/1" value="1" leadInLength="0/1"  />
           <InterpolatingParam id="127" interp="linr"  time="0/1" value="1" leadInLength="0/1"  />
          </VectorParam>
          <VectorParam id="128"  name="anchor">
           <InterpolatingParam id="129" interp="linr"  time="0/1" value="0" leadInLength="0/1"  />
           <InterpolatingParam id="130" interp="linr"  time="0/1" value="0" leadInLength="0/1"  />
           <InterpolatingParam id="131" interp="linr"  time="0/1" value="0" leadInLength="0/1"  />
          </VectorParam>
         </Transformer>
         <Parameters>
          <InterpolatingParam id="132" interp="linr"  time="0/1" value="1" leadInLength="0/1"  name="cursorOpacity"/>
          <InterpolatingParam id="133" interp="linr"  time="0/1" value="1" leadInLength="0/1"  name="cursorScale"/>
          <InterpolatingParam id="134" interp="linr"  time="0/1" value="1" leadInLength="0/1"  name="volume"/>
          <Parameter id="135"  name="captions"/>
         </Parameters>
         <Attributes>
          <Attribute id="136" value="" name="ident"/>
          <Attribute id="137" value="0" name="mixToMono"/>
         </Attributes>
         <MetaData>
          <entry key="WinSubProjectDisplayName" val=""/>
         </MetaData>
         <ExtraData>
          <Entry key="ZoomPanBin">
           <ZoomPanBin id="138"  >
            <ZoomPanKeyframes>
            </ZoomPanKeyframes>
           </ZoomPanBin>
          </Entry>
          <Entry key="CursorEffectBin">
           <CursorEffectBin id="139"  >
            <CursorEffectKeyframes>
            </CursorEffectKeyframes>
           </CursorEffectBin>
          </Entry>
         </ExtraData>
         <GenericTrack id="140"  >
          <Attributes>
           <Attribute id="141" value="" name="ident"/>
           <Attribute id="142" value="0" name="audioMuted"/>
           <Attribute id="143" value="0" name="videoHidden"/>
          </Attributes>
          <MetaData>
           <entry key="IsLocked" val="False"/>
           <entry key="WinTrackHeight" val="0"/>
          </MetaData>
          <Medias>
           <AMFile id="144" start="0" duration="2038" scalar="1/1" mediaStart="0/1" mediaDuration="2038/1" trackNumber="2" src="4" channelNumber="0,1" >
            <Parameters>
             <InterpolatingParam id="145" interp="linr"  time="0/1" value="1" leadInLength="0/1"  name="volume"/>
             <Parameter id="146"  name="captions"/>
            </Parameters>
            <Attributes>
             <Attribute id="147" value="" name="ident"/>
             <Attribute id="148" value="44100" name="sampleRate"/>
             <Attribute id="149" value="16" name="bitDepth"/>
             <Attribute id="150" value="1" name="gain"/>
             <Attribute id="151" value="0" name="mixToMono"/>
            </Attributes>
            <MetaData>
             <entry key="WinSubProjectDisplayName" val=""/>
            </MetaData>
           </AMFile>
           <AMFile id="152" start="2038" duration="192" scalar="1/1" mediaStart="2067/1" mediaDuration="192/1" trackNumber="2" src="4" channelNumber="0,1" >
            <Parameters>
             <InterpolatingParam id="153" interp="linr"  time="0/1" value="1" leadInLength="0/1"  name="volume"/>
             <Parameter id="154"  name="captions"/>
            </Parameters>
            <Attributes>
             <Attribute id="155" value="" name="ident"/>
             <Attribute id="156" value="44100" name="sampleRate"/>
             <Attribute id="157" value="16" name="bitDepth"/>
             <Attribute id="158" value="1" name="gain"/>
             <Attribute id="159" value="0" name="mixToMono"/>
            </Attributes>
            <MetaData>
             <entry key="WinSubProjectDisplayName" val=""/>
            </MetaData>
           </AMFile>
           <AMFile id="160" start="2230" duration="376" scalar="1/1" mediaStart="2676/1" mediaDuration="376/1" trackNumber="2" src="4" channelNumber="0,1" >
            <Parameters>
             <InterpolatingParam id="161" interp="linr"  time="0/1" value="1" leadInLength="0/1"  name="volume"/>
             <Parameter id="162"  name="captions"/>
            </Parameters>
            <Attributes>
             <Attribute id="163" value="" name="ident"/>
             <Attribute id="164" value="44100" name="sampleRate"/>
             <Attribute id="165" value="16" name="bitDepth"/>
             <Attribute id="166" value="1" name="gain"/>
             <Attribute id="167" value="0" name="mixToMono"/>
            </Attributes>
            <MetaData>
             <entry key="WinSubProjectDisplayName" val=""/>
            </MetaData>
           </AMFile>
           <AMFile id="168" start="2606" duration="48" scalar="1/1" mediaStart="3065/1" mediaDuration="48/1" trackNumber="2" src="4" channelNumber="0,1" >
            <Parameters>
             <InterpolatingParam id="169" interp="linr"  time="0/1" value="1" leadInLength="0/1"  name="volume"/>
             <Parameter id="170"  name="captions"/>
            </Parameters>
            <Attributes>
             <Attribute id="171" value="" name="ident"/>
             <Attribute id="172" value="44100" name="sampleRate"/>
             <Attribute id="173" value="16" name="bitDepth"/>
             <Attribute id="174" value="1" name="gain"/>
             <Attribute id="175" value="0" name="mixToMono"/>
            </Attributes>
            <MetaData>
             <entry key="WinSubProjectDisplayName" val=""/>
            </MetaData>
           </AMFile>
           <AMFile id="176" start="2654" duration="381" scalar="1/1" mediaStart="3116/1" mediaDuration="381/1" trackNumber="2" src="4" channelNumber="0,1" >
            <Parameters>
             <InterpolatingParam id="177" interp="linr"  time="0/1" value="1" leadInLength="0/1"  name="volume"/>
             <Parameter id="178"  name="captions"/>
            </Parameters>
            <Attributes>
             <Attribute id="179" value="" name="ident"/>
             <Attribute id="180" value="44100" name="sampleRate"/>
             <Attribute id="181" value="16" name="bitDepth"/>
             <Attribute id="182" value="1" name="gain"/>
             <Attribute id="183" value="0" name="mixToMono"/>
            </Attributes>
            <MetaData>
             <entry key="WinSubProjectDisplayName" val=""/>
            </MetaData>
           </AMFile>
           <AMFile id="184" start="3035" duration="693" scalar="1/1" mediaStart="3523/1" mediaDuration="693/1" trackNumber="2" src="4" channelNumber="0,1" >
            <Parameters>
             <InterpolatingParam id="185" interp="linr"  time="0/1" value="1" leadInLength="0/1"  name="volume"/>
             <Parameter id="186"  name="captions"/>
            </Parameters>
            <Attributes>
             <Attribute id="187" value="" name="ident"/>
             <Attribute id="188" value="44100" name="sampleRate"/>
             <Attribute id="189" value="16" name="bitDepth"/>
             <Attribute id="190" value="1" name="gain"/>
             <Attribute id="191" value="0" name="mixToMono"/>
            </Attributes>
            <MetaData>
             <entry key="WinSubProjectDisplayName" val=""/>
            </MetaData>
           </AMFile>
           <AMFile id="192" start="3728" duration="390" scalar="1/1" mediaStart="4291/1" mediaDuration="390/1" trackNumber="2" src="4" channelNumber="0,1" >
            <Parameters>
             <InterpolatingParam id="193" interp="linr"  time="0/1" value="1" leadInLength="0/1"  name="volume"/>
             <Parameter id="194"  name="captions"/>
            </Parameters>
            <Attributes>
             <Attribute id="195" value="" name="ident"/>
             <Attribute id="196" value="44100" name="sampleRate"/>
             <Attribute id="197" value="16" name="bitDepth"/>
             <Attribute id="198" value="1" name="gain"/>
             <Attribute id="199" value="0" name="mixToMono"/>
            </Attributes>
            <MetaData>
             <entry key="WinSubProjectDisplayName" val=""/>
            </MetaData>
           </AMFile>
          </Medias>
         </GenericTrack>
        </StitchedMedia>
        <StitchedMedia id="200" start="3896" duration="4033" scalar="1/1" mediaStart="103/1" mediaDuration="4033/1" minMediaStart="0/1" >
         <Transformer>
          <VectorParam id="201"  name="translation">
           <InterpolatingParam id="202" interp="linr"  time="0/1" value="0" leadInLength="0/1"  />
           <InterpolatingParam id="203" interp="linr"  time="0/1" value="0" leadInLength="0/1"  />
           <InterpolatingParam id="204" interp="linr"  time="0/1" value="0" leadInLength="0/1"  />
          </VectorParam>
          <VectorParam id="205"  name="rotation">
           <InterpolatingParam id="206" interp="linr"  time="0/1" value="0" leadInLength="0/1"  />
           <InterpolatingParam id="207" interp="linr"  time="0/1" value="0" leadInLength="0/1"  />
           <InterpolatingParam id="208" interp="linr"  time="0/1" value="0" leadInLength="0/1"  />
          </VectorParam>
          <VectorParam id="209"  name="shear">
           <InterpolatingParam id="210" interp="linr"  time="0/1" value="0" leadInLength="0/1"  />
           <InterpolatingParam id="211" interp="linr"  time="0/1" value="0" leadInLength="0/1"  />
           <InterpolatingParam id="212" interp="linr"  time="0/1" value="0" leadInLength="0/1"  />
          </VectorParam>
          <VectorParam id="213"  name="scale">
           <InterpolatingParam id="214" interp="linr"  time="0/1" value="1" leadInLength="0/1"  />
           <InterpolatingParam id="215" interp="linr"  time="0/1" value="1" leadInLength="0/1"  />
           <InterpolatingParam id="216" interp="linr"  time="0/1" value="1" leadInLength="0/1"  />
          </VectorParam>
          <VectorParam id="217"  name="anchor">
           <InterpolatingParam id="218" interp="linr"  time="0/1" value="0" leadInLength="0/1"  />
           <InterpolatingParam id="219" interp="linr"  time="0/1" value="0" leadInLength="0/1"  />
           <InterpolatingParam id="220" interp="linr"  time="0/1" value="0" leadInLength="0/1"  />
          </VectorParam>
         </Transformer>
         <Parameters>
          <InterpolatingParam id="221" interp="linr"  time="0/1" value="1" leadInLength="0/1"  name="cursorOpacity"/>
          <InterpolatingParam id="222" interp="linr"  time="0/1" value="1" leadInLength="0/1"  name="cursorScale"/>
          <InterpolatingParam id="223" interp="linr"  time="0/1" value="1" leadInLength="0/1"  name="volume"/>
          <Parameter id="224"  name="captions"/>
         </Parameters>
         <Attributes>
          <Attribute id="225" value="" name="ident"/>
          <Attribute id="226" value="0" name="mixToMono"/>
         </Attributes>
         <MetaData>
          <entry key="WinSubProjectDisplayName" val=""/>
         </MetaData>
         <ExtraData>
          <Entry key="ZoomPanBin">
           <ZoomPanBin id="227"  >
            <ZoomPanKeyframes>
            </ZoomPanKeyframes>
           </ZoomPanBin>
          </Entry>
          <Entry key="CursorEffectBin">
           <CursorEffectBin id="228"  >
            <CursorEffectKeyframes>
            </CursorEffectKeyframes>
           </CursorEffectBin>
          </Entry>
         </ExtraData>
         <GenericTrack id="229"  >
          <Attributes>
           <Attribute id="230" value="" name="ident"/>
           <Attribute id="231" value="0" name="audioMuted"/>
           <Attribute id="232" value="0" name="videoHidden"/>
          </Attributes>
          <MetaData>
           <entry key="IsLocked" val="False"/>
           <entry key="WinTrackHeight" val="0"/>
          </MetaData>
          <Medias>
           <AMFile id="233" start="0" duration="966" scalar="1/1" mediaStart="0/1" mediaDuration="966/1" trackNumber="2" src="5" channelNumber="0,1" >
            <Parameters>
             <InterpolatingParam id="234" interp="linr"  time="0/1" value="1" leadInLength="0/1"  name="volume"/>
             <Parameter id="235"  name="captions"/>
            </Parameters>
            <Attributes>
             <Attribute id="236" value="" name="ident"/>
             <Attribute id="237" value="44100" name="sampleRate"/>
             <Attribute id="238" value="16" name="bitDepth"/>
             <Attribute id="239" value="1" name="gain"/>
             <Attribute id="240" value="0" name="mixToMono"/>
            </Attributes>
            <MetaData>
             <entry key="WinSubProjectDisplayName" val=""/>
            </MetaData>
           </AMFile>
           <AMFile id="241" start="966" duration="124" scalar="1/1" mediaStart="988/1" mediaDuration="124/1" trackNumber="2" src="5" channelNumber="0,1" >
            <Parameters>
             <InterpolatingParam id="242" interp="linr"  time="0/1" value="1" leadInLength="0/1"  name="volume"/>
             <Parameter id="243"  name="captions"/>
            </Parameters>
            <Attributes>
             <Attribute id="244" value="" name="ident"/>
             <Attribute id="245" value="44100" name="sampleRate"/>
             <Attribute id="246" value="16" name="bitDepth"/>
             <Attribute id="247" value="1" name="gain"/>
             <Attribute id="248" value="0" name="mixToMono"/>
            </Attributes>
            <MetaData>
             <entry key="WinSubProjectDisplayName" val=""/>
            </MetaData>
           </AMFile>
           <AMFile id="249" start="1090" duration="334" scalar="1/1" mediaStart="1240/1" mediaDuration="334/1" trackNumber="2" src="5" channelNumber="0,1" >
            <Parameters>
             <InterpolatingParam id="250" interp="linr"  time="0/1" value="1" leadInLength="0/1"  name="volume"/>
             <Parameter id="251"  name="captions"/>
            </Parameters>
            <Attributes>
             <Attribute id="252" value="" name="ident"/>
             <Attribute id="253" value="44100" name="sampleRate"/>
             <Attribute id="254" value="16" name="bitDepth"/>
             <Attribute id="255" value="1" name="gain"/>
             <Attribute id="256" value="0" name="mixToMono"/>
            </Attributes>
            <MetaData>
             <entry key="WinSubProjectDisplayName" val=""/>
            </MetaData>
           </AMFile>
           <AMFile id="257" start="1424" duration="72" scalar="1/1" mediaStart="1585/1" mediaDuration="72/1" trackNumber="2" src="5" channelNumber="0,1" >
            <Parameters>
             <InterpolatingParam id="258" interp="linr"  time="0/1" value="1" leadInLength="0/1"  name="volume"/>
             <Parameter id="259"  name="captions"/>
            </Parameters>
            <Attributes>
             <Attribute id="260" value="" name="ident"/>
             <Attribute id="261" value="44100" name="sampleRate"/>
             <Attribute id="262" value="16" name="bitDepth"/>
             <Attribute id="263" value="1" name="gain"/>
             <Attribute id="264" value="0" name="mixToMono"/>
            </Attributes>
            <MetaData>
             <entry key="WinSubProjectDisplayName" val=""/>
            </MetaData>
           </AMFile>
           <AMFile id="265" start="1496" duration="50" scalar="1/1" mediaStart="1800/1" mediaDuration="50/1" trackNumber="2" src="5" channelNumber="0,1" >
            <Parameters>
             <InterpolatingParam id="266" interp="linr"  time="0/1" value="1" leadInLength="0/1"  name="volume"/>
             <Parameter id="267"  name="captions"/>
            </Parameters>
            <Attributes>
             <Attribute id="268" value="" name="ident"/>
             <Attribute id="269" value="44100" name="sampleRate"/>
             <Attribute id="270" value="16" name="bitDepth"/>
             <Attribute id="271" value="1" name="gain"/>
             <Attribute id="272" value="0" name="mixToMono"/>
            </Attributes>
            <MetaData>
             <entry key="WinSubProjectDisplayName" val=""/>
            </MetaData>
           </AMFile>
           <AMFile id="273" start="1546" duration="10" scalar="1/1" mediaStart="1947/1" mediaDuration="10/1" trackNumber="2" src="5" channelNumber="0,1" >
            <Parameters>
             <InterpolatingParam id="274" interp="linr"  time="0/1" value="1" leadInLength="0/1"  name="volume"/>
             <Parameter id="275"  name="captions"/>
            </Parameters>
            <Attributes>
             <Attribute id="276" value="" name="ident"/>
             <Attribute id="277" value="44100" name="sampleRate"/>
             <Attribute id="278" value="16" name="bitDepth"/>
             <Attribute id="279" value="1" name="gain"/>
             <Attribute id="280" value="0" name="mixToMono"/>
            </Attributes>
            <MetaData>
             <entry key="WinSubProjectDisplayName" val=""/>
            </MetaData>
           </AMFile>
           <AMFile id="281" start="1556" duration="724" scalar="1/1" mediaStart="2026/1" mediaDuration="724/1" trackNumber="2" src="5" channelNumber="0,1" >
            <Parameters>
             <InterpolatingParam id="282" interp="linr"  time="0/1" value="1" leadInLength="0/1"  name="volume"/>
             <Parameter id="283"  name="captions"/>
            </Parameters>
            <Attributes>
             <Attribute id="284" value="" name="ident"/>
             <Attribute id="285" value="44100" name="sampleRate"/>
             <Attribute id="286" value="16" name="bitDepth"/>
             <Attribute id="287" value="1" name="gain"/>
             <Attribute id="288" value="0" name="mixToMono"/>
            </Attributes>
            <MetaData>
             <entry key="WinSubProjectDisplayName" val=""/>
            </MetaData>
           </AMFile>
           <AMFile id="289" start="2280" duration="122" scalar="1/1" mediaStart="2770/1" mediaDuration="122/1" trackNumber="2" src="5" channelNumber="0,1" >
            <Parameters>
             <InterpolatingParam id="290" interp="linr"  time="0/1" value="1" leadInLength="0/1"  name="volume"/>
             <Parameter id="291"  name="captions"/>
            </Parameters>
            <Attributes>
             <Attribute id="292" value="" name="ident"/>
             <Attribute id="293" value="44100" name="sampleRate"/>
             <Attribute id="294" value="16" name="bitDepth"/>
             <Attribute id="295" value="1" name="gain"/>
             <Attribute id="296" value="0" name="mixToMono"/>
            </Attributes>
            <MetaData>
             <entry key="WinSubProjectDisplayName" val=""/>
            </MetaData>
           </AMFile>
           <AMFile id="297" start="2402" duration="97" scalar="1/1" mediaStart="3293/1" mediaDuration="97/1" trackNumber="2" src="5" channelNumber="0,1" >
            <Parameters>
             <InterpolatingParam id="298" interp="linr"  time="0/1" value="1" leadInLength="0/1"  name="volume"/>
             <Parameter id="299"  name="captions"/>
            </Parameters>
            <Attributes>
             <Attribute id="300" value="" name="ident"/>
             <Attribute id="301" value="44100" name="sampleRate"/>
             <Attribute id="302" value="16" name="bitDepth"/>
             <Attribute id="303" value="1" name="gain"/>
             <Attribute id="304" value="0" name="mixToMono"/>
            </Attributes>
            <MetaData>
             <entry key="WinSubProjectDisplayName" val=""/>
            </MetaData>
           </AMFile>
           <AMFile id="305" start="2499" duration="4" scalar="1/1" mediaStart="4305/1" mediaDuration="4/1" trackNumber="2" src="5" channelNumber="0,1" >
            <Parameters>
             <InterpolatingParam id="306" interp="linr"  time="0/1" value="1" leadInLength="0/1"  name="volume"/>
             <Parameter id="307"  name="captions"/>
            </Parameters>
            <Attributes>
             <Attribute id="308" value="" name="ident"/>
             <Attribute id="309" value="44100" name="sampleRate"/>
             <Attribute id="310" value="16" name="bitDepth"/>
             <Attribute id="311" value="1" name="gain"/>
             <Attribute id="312" value="0" name="mixToMono"/>
            </Attributes>
            <MetaData>
             <entry key="WinSubProjectDisplayName" val=""/>
            </MetaData>
           </AMFile>
           <AMFile id="313" start="2503" duration="149" scalar="1/1" mediaStart="4432/1" mediaDuration="149/1" trackNumber="2" src="5" channelNumber="0,1" >
            <Parameters>
             <InterpolatingParam id="314" interp="linr"  time="0/1" value="1" leadInLength="0/1"  name="volume"/>
             <Parameter id="315"  name="captions"/>
            </Parameters>
            <Attributes>
             <Attribute id="316" value="" name="ident"/>
             <Attribute id="317" value="44100" name="sampleRate"/>
             <Attribute id="318" value="16" name="bitDepth"/>
             <Attribute id="319" value="1" name="gain"/>
             <Attribute id="320" value="0" name="mixToMono"/>
            </Attributes>
            <MetaData>
             <entry key="WinSubProjectDisplayName" val=""/>
            </MetaData>
           </AMFile>
           <AMFile id="321" start="2652" duration="28" scalar="1/1" mediaStart="4588/1" mediaDuration="28/1" trackNumber="2" src="5" channelNumber="0,1" >
            <Parameters>
             <InterpolatingParam id="322" interp="linr"  time="0/1" value="1" leadInLength="0/1"  name="volume"/>
             <Parameter id="323"  name="captions"/>
            </Parameters>
            <Attributes>
             <Attribute id="324" value="" name="ident"/>
             <Attribute id="325" value="44100" name="sampleRate"/>
             <Attribute id="326" value="16" name="bitDepth"/>
             <Attribute id="327" value="1" name="gain"/>
             <Attribute id="328" value="0" name="mixToMono"/>
            </Attributes>
            <MetaData>
             <entry key="WinSubProjectDisplayName" val=""/>
            </MetaData>
           </AMFile>
           <AMFile id="329" start="2680" duration="208" scalar="1/1" mediaStart="4713/1" mediaDuration="208/1" trackNumber="2" src="5" channelNumber="0,1" >
            <Parameters>
             <InterpolatingParam id="330" interp="linr"  time="0/1" value="1" leadInLength="0/1"  name="volume"/>
             <Parameter id="331"  name="captions"/>
            </Parameters>
            <Attributes>
             <Attribute id="332" value="" name="ident"/>
             <Attribute id="333" value="44100" name="sampleRate"/>
             <Attribute id="334" value="16" name="bitDepth"/>
             <Attribute id="335" value="1" name="gain"/>
             <Attribute id="336" value="0" name="mixToMono"/>
            </Attributes>
            <MetaData>
             <entry key="WinSubProjectDisplayName" val=""/>
            </MetaData>
           </AMFile>
           <AMFile id="337" start="2888" duration="87" scalar="1/1" mediaStart="5531/1" mediaDuration="87/1" trackNumber="2" src="5" channelNumber="0,1" >
            <Parameters>
             <InterpolatingParam id="338" interp="linr"  time="0/1" value="1" leadInLength="0/1"  name="volume"/>
             <Parameter id="339"  name="captions"/>
            </Parameters>
            <Attributes>
             <Attribute id="340" value="" name="ident"/>
             <Attribute id="341" value="44100" name="sampleRate"/>
             <Attribute id="342" value="16" name="bitDepth"/>
             <Attribute id="343" value="1" name="gain"/>
             <Attribute id="344" value="0" name="mixToMono"/>
            </Attributes>
            <MetaData>
             <entry key="WinSubProjectDisplayName" val=""/>
            </MetaData>
           </AMFile>
           <AMFile id="345" start="2975" duration="448" scalar="1/1" mediaStart="5674/1" mediaDuration="448/1" trackNumber="2" src="5" channelNumber="0,1" >
            <Parameters>
             <InterpolatingParam id="346" interp="linr"  time="0/1" value="1" leadInLength="0/1"  name="volume"/>
             <Parameter id="347"  name="captions"/>
            </Parameters>
            <Attributes>
             <Attribute id="348" value="" name="ident"/>
             <Attribute id="349" value="44100" name="sampleRate"/>
             <Attribute id="350" value="16" name="bitDepth"/>
             <Attribute id="351" value="1" name="gain"/>
             <Attribute id="352" value="0" name="mixToMono"/>
            </Attributes>
            <MetaData>
             <entry key="WinSubProjectDisplayName" val=""/>
            </MetaData>
           </AMFile>
           <AMFile id="353" start="3423" duration="77" scalar="1/1" mediaStart="6209/1" mediaDuration="77/1" trackNumber="2" src="5" channelNumber="0,1" >
            <Parameters>
             <InterpolatingParam id="354" interp="linr"  time="0/1" value="1" leadInLength="0/1"  name="volume"/>
             <Parameter id="355"  name="captions"/>
            </Parameters>
            <Attributes>
             <Attribute id="356" value="" name="ident"/>
             <Attribute id="357" value="44100" name="sampleRate"/>
             <Attribute id="358" value="16" name="bitDepth"/>
             <Attribute id="359" value="1" name="gain"/>
             <Attribute id="360" value="0" name="mixToMono"/>
            </Attributes>
            <MetaData>
             <entry key="WinSubProjectDisplayName" val=""/>
            </MetaData>
           </AMFile>
           <AMFile id="361" start="3500" duration="3" scalar="1/1" mediaStart="6297/1" mediaDuration="3/1" trackNumber="2" src="5" channelNumber="0,1" >
            <Parameters>
             <InterpolatingParam id="362" interp="linr"  time="0/1" value="1" leadInLength="0/1"  name="volume"/>
             <Parameter id="363"  name="captions"/>
            </Parameters>
            <Attributes>
             <Attribute id="364" value="" name="ident"/>
             <Attribute id="365" value="44100" name="sampleRate"/>
             <Attribute id="366" value="16" name="bitDepth"/>
             <Attribute id="367" value="1" name="gain"/>
             <Attribute id="368" value="0" name="mixToMono"/>
            </Attributes>
            <MetaData>
             <entry key="WinSubProjectDisplayName" val=""/>
            </MetaData>
           </AMFile>
           <AMFile id="369" start="3503" duration="60" scalar="1/1" mediaStart="7131/1" mediaDuration="60/1" trackNumber="2" src="5" channelNumber="0,1" >
            <Parameters>
             <InterpolatingParam id="370" interp="linr"  time="0/1" value="1" leadInLength="0/1"  name="volume"/>
             <Parameter id="371"  name="captions"/>
            </Parameters>
            <Attributes>
             <Attribute id="372" value="" name="ident"/>
             <Attribute id="373" value="44100" name="sampleRate"/>
             <Attribute id="374" value="16" name="bitDepth"/>
             <Attribute id="375" value="1" name="gain"/>
             <Attribute id="376" value="0" name="mixToMono"/>
            </Attributes>
            <MetaData>
             <entry key="WinSubProjectDisplayName" val=""/>
            </MetaData>
           </AMFile>
           <AMFile id="377" start="3563" duration="147" scalar="1/1" mediaStart="7204/1" mediaDuration="147/1" trackNumber="2" src="5" channelNumber="0,1" >
            <Parameters>
             <InterpolatingParam id="378" interp="linr"  time="0/1" value="1" leadInLength="0/1"  name="volume"/>
             <Parameter id="379"  name="captions"/>
            </Parameters>
            <Attributes>
             <Attribute id="380" value="" name="ident"/>
             <Attribute id="381" value="44100" name="sampleRate"/>
             <Attribute id="382" value="16" name="bitDepth"/>
             <Attribute id="383" value="1" name="gain"/>
             <Attribute id="384" value="0" name="mixToMono"/>
            </Attributes>
            <MetaData>
             <entry key="WinSubProjectDisplayName" val=""/>
            </MetaData>
           </AMFile>
           <AMFile id="385" start="3710" duration="198" scalar="1/1" mediaStart="7663/1" mediaDuration="198/1" trackNumber="2" src="5" channelNumber="0,1" >
            <Parameters>
             <InterpolatingParam id="386" interp="linr"  time="0/1" value="1" leadInLength="0/1"  name="volume"/>
             <Parameter id="387"  name="captions"/>
            </Parameters>
            <Attributes>
             <Attribute id="388" value="" name="ident"/>
             <Attribute id="389" value="44100" name="sampleRate"/>
             <Attribute id="390" value="16" name="bitDepth"/>
             <Attribute id="391" value="1" name="gain"/>
             <Attribute id="392" value="0" name="mixToMono"/>
            </Attributes>
            <MetaData>
             <entry key="WinSubProjectDisplayName" val=""/>
            </MetaData>
           </AMFile>
           <AMFile id="393" start="3908" duration="150" scalar="1/1" mediaStart="8769/1" mediaDuration="150/1" trackNumber="2" src="5" channelNumber="0,1" >
            <Parameters>
             <InterpolatingParam id="394" interp="linr"  time="0/1" value="1" leadInLength="0/1"  name="volume"/>
             <Parameter id="395"  name="captions"/>
            </Parameters>
            <Attributes>
             <Attribute id="396" value="" name="ident"/>
             <Attribute id="397" value="44100" name="sampleRate"/>
             <Attribute id="398" value="16" name="bitDepth"/>
             <Attribute id="399" value="1" name="gain"/>
             <Attribute id="400" value="0" name="mixToMono"/>
            </Attributes>
            <MetaData>
             <entry key="WinSubProjectDisplayName" val=""/>
            </MetaData>
           </AMFile>
           <AMFile id="401" start="4058" duration="350" scalar="1/1" mediaStart="8980/1" mediaDuration="350/1" trackNumber="2" src="5" channelNumber="0,1" >
            <Parameters>
             <InterpolatingParam id="402" interp="linr"  time="0/1" value="1" leadInLength="0/1"  name="volume"/>
             <Parameter id="403"  name="captions"/>
            </Parameters>
            <Attributes>
             <Attribute id="404" value="" name="ident"/>
             <Attribute id="405" value="44100" name="sampleRate"/>
             <Attribute id="406" value="16" name="bitDepth"/>
             <Attribute id="407" value="1" name="gain"/>
             <Attribute id="408" value="0" name="mixToMono"/>
            </Attributes>
            <MetaData>
             <entry key="WinSubProjectDisplayName" val=""/>
            </MetaData>
           </AMFile>
          </Medias>
         </GenericTrack>
        </StitchedMedia>
        <StitchedMedia id="409" start="7929" duration="3402" scalar="1/1" mediaStart="0/1" mediaDuration="3402/1" minMediaStart="0/1" >
         <Transformer>
          <VectorParam id="410"  name="translation">
           <InterpolatingParam id="411" interp="linr"  time="0/1" value="0" leadInLength="0/1"  />
           <InterpolatingParam id="412" interp="linr"  time="0/1" value="0" leadInLength="0/1"  />
           <InterpolatingParam id="413" interp="linr"  time="0/1" value="0" leadInLength="0/1"  />
          </VectorParam>
          <VectorParam id="414"  name="rotation">
           <InterpolatingParam id="415" interp="linr"  time="0/1" value="0" leadInLength="0/1"  />
           <InterpolatingParam id="416" interp="linr"  time="0/1" value="0" leadInLength="0/1"  />
           <InterpolatingParam id="417" interp="linr"  time="0/1" value="0" leadInLength="0/1"  />
          </VectorParam>
          <VectorParam id="418"  name="shear">
           <InterpolatingParam id="419" interp="linr"  time="0/1" value="0" leadInLength="0/1"  />
           <InterpolatingParam id="420" interp="linr"  time="0/1" value="0" leadInLength="0/1"  />
           <InterpolatingParam id="421" interp="linr"  time="0/1" value="0" leadInLength="0/1"  />
          </VectorParam>
          <VectorParam id="422"  name="scale">
           <InterpolatingParam id="423" interp="linr"  time="0/1" value="1" leadInLength="0/1"  />
           <InterpolatingParam id="424" interp="linr"  time="0/1" value="1" leadInLength="0/1"  />
           <InterpolatingParam id="425" interp="linr"  time="0/1" value="1" leadInLength="0/1"  />
          </VectorParam>
          <VectorParam id="426"  name="anchor">
           <InterpolatingParam id="427" interp="linr"  time="0/1" value="0" leadInLength="0/1"  />
           <InterpolatingParam id="428" interp="linr"  time="0/1" value="0" leadInLength="0/1"  />
           <InterpolatingParam id="429" interp="linr"  time="0/1" value="0" leadInLength="0/1"  />
          </VectorParam>
         </Transformer>
         <Parameters>
          <InterpolatingParam id="430" interp="linr"  time="0/1" value="1" leadInLength="0/1"  name="cursorOpacity"/>
          <InterpolatingParam id="431" interp="linr"  time="0/1" value="1" leadInLength="0/1"  name="cursorScale"/>
          <InterpolatingParam id="432" interp="linr"  time="0/1" value="1" leadInLength="0/1"  name="volume"/>
          <Parameter id="433"  name="captions"/>
         </Parameters>
         <Attributes>
          <Attribute id="434" value="" name="ident"/>
          <Attribute id="435" value="0" name="mixToMono"/>
         </Attributes>
         <MetaData>
          <entry key="WinSubProjectDisplayName" val=""/>
         </MetaData>
         <ExtraData>
          <Entry key="ZoomPanBin">
           <ZoomPanBin id="436"  >
            <ZoomPanKeyframes>
            </ZoomPanKeyframes>
           </ZoomPanBin>
          </Entry>
          <Entry key="CursorEffectBin">
           <CursorEffectBin id="437"  >
            <CursorEffectKeyframes>
            </CursorEffectKeyframes>
           </CursorEffectBin>
          </Entry>
         </ExtraData>
         <GenericTrack id="438"  >
          <Attributes>
           <Attribute id="439" value="" name="ident"/>
           <Attribute id="440" value="0" name="audioMuted"/>
           <Attribute id="441" value="0" name="videoHidden"/>
          </Attributes>
          <MetaData>
           <entry key="IsLocked" val="False"/>
           <entry key="WinTrackHeight" val="0"/>
          </MetaData>
          <Medias>
           <AMFile id="442" start="0" duration="353" scalar="1/1" mediaStart="0/1" mediaDuration="353/1" trackNumber="2" src="7" channelNumber="0,1" >
            <Parameters>
             <InterpolatingParam id="443" interp="linr"  time="0/1" value="1" leadInLength="0/1"  name="volume"/>
             <Parameter id="444"  name="captions"/>
            </Parameters>
            <Attributes>
             <Attribute id="445" value="" name="ident"/>
             <Attribute id="446" value="44100" name="sampleRate"/>
             <Attribute id="447" value="16" name="bitDepth"/>
             <Attribute id="448" value="1" name="gain"/>
             <Attribute id="449" value="0" name="mixToMono"/>
            </Attributes>
            <MetaData>
             <entry key="WinSubProjectDisplayName" val=""/>
            </MetaData>
           </AMFile>
           <AMFile id="450" start="353" duration="82" scalar="1/1" mediaStart="485/1" mediaDuration="82/1" trackNumber="2" src="7" channelNumber="0,1" >
            <Parameters>
             <InterpolatingParam id="451" interp="linr"  time="0/1" value="1" leadInLength="0/1"  name="volume"/>
             <Parameter id="452"  name="captions"/>
            </Parameters>
            <Attributes>
             <Attribute id="453" value="" name="ident"/>
             <Attribute id="454" value="44100" name="sampleRate"/>
             <Attribute id="455" value="16" name="bitDepth"/>
             <Attribute id="456" value="1" name="gain"/>
             <Attribute id="457" value="0" name="mixToMono"/>
            </Attributes>
            <MetaData>
             <entry key="WinSubProjectDisplayName" val=""/>
            </MetaData>
           </AMFile>
           <AMFile id="458" start="435" duration="589" scalar="1/1" mediaStart="1698/1" mediaDuration="589/1" trackNumber="2" src="7" channelNumber="0,1" >
            <Parameters>
             <InterpolatingParam id="459" interp="linr"  time="0/1" value="1" leadInLength="0/1"  name="volume"/>
             <Parameter id="460"  name="captions"/>
            </Parameters>
            <Attributes>
             <Attribute id="461" value="" name="ident"/>
             <Attribute id="462" value="44100" name="sampleRate"/>
             <Attribute id="463" value="16" name="bitDepth"/>
             <Attribute id="464" value="1" name="gain"/>
             <Attribute id="465" value="0" name="mixToMono"/>
            </Attributes>
            <MetaData>
             <entry key="WinSubProjectDisplayName" val=""/>
            </MetaData>
           </AMFile>
           <AMFile id="466" start="1024" duration="22" scalar="1/1" mediaStart="2336/1" mediaDuration="22/1" trackNumber="2" src="7" channelNumber="0,1" >
            <Parameters>
             <InterpolatingParam id="467" interp="linr"  time="0/1" value="1" leadInLength="0/1"  name="volume"/>
             <Parameter id="468"  name="captions"/>
            </Parameters>
            <Attributes>
             <Attribute id="469" value="" name="ident"/>
             <Attribute id="470" value="44100" name="sampleRate"/>
             <Attribute id="471" value="16" name="bitDepth"/>
             <Attribute id="472" value="1" name="gain"/>
             <Attribute id="473" value="0" name="mixToMono"/>
            </Attributes>
            <MetaData>
             <entry key="WinSubProjectDisplayName" val=""/>
            </MetaData>
           </AMFile>
           <AMFile id="474" start="1046" duration="288" scalar="1/1" mediaStart="2413/1" mediaDuration="288/1" trackNumber="2" src="7" channelNumber="0,1" >
            <Parameters>
             <InterpolatingParam id="475" interp="linr"  time="0/1" value="1" leadInLength="0/1"  name="volume"/>
             <Parameter id="476"  name="captions"/>
            </Parameters>
            <Attributes>
             <Attribute id="477" value="" name="ident"/>
             <Attribute id="478" value="44100" name="sampleRate"/>
             <Attribute id="479" value="16" name="bitDepth"/>
             <Attribute id="480" value="1" name="gain"/>
             <Attribute id="481" value="0" name="mixToMono"/>
            </Attributes>
            <MetaData>
             <entry key="WinSubProjectDisplayName" val=""/>
            </MetaData>
           </AMFile>
           <AMFile id="482" start="1334" duration="211" scalar="1/1" mediaStart="2958/1" mediaDuration="211/1" trackNumber="2" src="7" channelNumber="0,1" >
            <Parameters>
             <InterpolatingParam id="483" interp="linr"  time="0/1" value="1" leadInLength="0/1"  name="volume"/>
             <Parameter id="484"  name="captions"/>
            </Parameters>
            <Attributes>
             <Attribute id="485" value="" name="ident"/>
             <Attribute id="486" value="44100" name="sampleRate"/>
             <Attribute id="487" value="16" name="bitDepth"/>
             <Attribute id="488" value="1" name="gain"/>
             <Attribute id="489" value="0" name="mixToMono"/>
            </Attributes>
            <MetaData>
             <entry key="WinSubProjectDisplayName" val=""/>
            </MetaData>
           </AMFile>
           <AMFile id="490" start="1545" duration="116" scalar="1/1" mediaStart="3429/1" mediaDuration="116/1" trackNumber="2" src="7" channelNumber="0,1" >
            <Parameters>
             <InterpolatingParam id="491" interp="linr"  time="0/1" value="1" leadInLength="0/1"  name="volume"/>
             <Parameter id="492"  name="captions"/>
            </Parameters>
            <Attributes>
             <Attribute id="493" value="" name="ident"/>
             <Attribute id="494" value="44100" name="sampleRate"/>
             <Attribute id="495" value="16" name="bitDepth"/>
             <Attribute id="496" value="1" name="gain"/>
             <Attribute id="497" value="0" name="mixToMono"/>
            </Attributes>
            <MetaData>
             <entry key="WinSubProjectDisplayName" val=""/>
            </MetaData>
           </AMFile>
           <AMFile id="498" start="1661" duration="255" scalar="1/1" mediaStart="3934/1" mediaDuration="255/1" trackNumber="2" src="7" channelNumber="0,1" >
            <Parameters>
             <InterpolatingParam id="499" interp="linr"  time="0/1" value="1" leadInLength="0/1"  name="volume"/>
             <Parameter id="500"  name="captions"/>
            </Parameters>
            <Attributes>
             <Attribute id="501" value="" name="ident"/>
             <Attribute id="502" value="44100" name="sampleRate"/>
             <Attribute id="503" value="16" name="bitDepth"/>
             <Attribute id="504" value="1" name="gain"/>
             <Attribute id="505" value="0" name="mixToMono"/>
            </Attributes>
            <MetaData>
             <entry key="WinSubProjectDisplayName" val=""/>
            </MetaData>
           </AMFile>
           <AMFile id="506" start="1916" duration="51" scalar="1/1" mediaStart="4243/1" mediaDuration="51/1" trackNumber="2" src="7" channelNumber="0,1" >
            <Parameters>
             <InterpolatingParam id="507" interp="linr"  time="0/1" value="1" leadInLength="0/1"  name="volume"/>
             <Parameter id="508"  name="captions"/>
            </Parameters>
            <Attributes>
             <Attribute id="509" value="" name="ident"/>
             <Attribute id="510" value="44100" name="sampleRate"/>
             <Attribute id="511" value="16" name="bitDepth"/>
             <Attribute id="512" value="1" name="gain"/>
             <Attribute id="513" value="0" name="mixToMono"/>
            </Attributes>
            <MetaData>
             <entry key="WinSubProjectDisplayName" val=""/>
            </MetaData>
           </AMFile>
           <AMFile id="514" start="1967" duration="256" scalar="1/1" mediaStart="11824/1" mediaDuration="256/1" trackNumber="2" src="7" channelNumber="0,1" >
            <Parameters>
             <InterpolatingParam id="515" interp="linr"  time="0/1" value="1" leadInLength="0/1"  name="volume"/>
             <Parameter id="516"  name="captions"/>
            </Parameters>
            <Attributes>
             <Attribute id="517" value="" name="ident"/>
             <Attribute id="518" value="44100" name="sampleRate"/>
             <Attribute id="519" value="16" name="bitDepth"/>
             <Attribute id="520" value="1" name="gain"/>
             <Attribute id="521" value="0" name="mixToMono"/>
            </Attributes>
            <MetaData>
             <entry key="WinSubProjectDisplayName" val=""/>
            </MetaData>
           </AMFile>
           <AMFile id="522" start="2223" duration="140" scalar="1/1" mediaStart="12352/1" mediaDuration="140/1" trackNumber="2" src="7" channelNumber="0,1" >
            <Parameters>
             <InterpolatingParam id="523" interp="linr"  time="0/1" value="1" leadInLength="0/1"  name="volume"/>
             <Parameter id="524"  name="captions"/>
            </Parameters>
            <Attributes>
             <Attribute id="525" value="" name="ident"/>
             <Attribute id="526" value="44100" name="sampleRate"/>
             <Attribute id="527" value="16" name="bitDepth"/>
             <Attribute id="528" value="1" name="gain"/>
             <Attribute id="529" value="0" name="mixToMono"/>
            </Attributes>
            <MetaData>
             <entry key="WinSubProjectDisplayName" val=""/>
            </MetaData>
           </AMFile>
           <AMFile id="530" start="2363" duration="489" scalar="1/1" mediaStart="12918/1" mediaDuration="489/1" trackNumber="2" src="7" channelNumber="0,1" >
            <Parameters>
             <InterpolatingParam id="531" interp="linr"  time="0/1" value="1" leadInLength="0/1"  name="volume"/>
             <Parameter id="532"  name="captions"/>
            </Parameters>
            <Attributes>
             <Attribute id="533" value="" name="ident"/>
             <Attribute id="534" value="44100" name="sampleRate"/>
             <Attribute id="535" value="16" name="bitDepth"/>
             <Attribute id="536" value="1" name="gain"/>
             <Attribute id="537" value="0" name="mixToMono"/>
            </Attributes>
            <MetaData>
             <entry key="WinSubProjectDisplayName" val=""/>
            </MetaData>
           </AMFile>
           <AMFile id="538" start="2852" duration="169" scalar="1/1" mediaStart="13458/1" mediaDuration="169/1" trackNumber="2" src="7" channelNumber="0,1" >
            <Parameters>
             <InterpolatingParam id="539" interp="linr"  time="0/1" value="1" leadInLength="0/1"  name="volume"/>
             <Parameter id="540"  name="captions"/>
            </Parameters>
            <Attributes>
             <Attribute id="541" value="" name="ident"/>
             <Attribute id="542" value="44100" name="sampleRate"/>
             <Attribute id="543" value="16" name="bitDepth"/>
             <Attribute id="544" value="1" name="gain"/>
             <Attribute id="545" value="0" name="mixToMono"/>
            </Attributes>
            <MetaData>
             <entry key="WinSubProjectDisplayName" val=""/>
            </MetaData>
           </AMFile>
           <AMFile id="546" start="3021" duration="142" scalar="1/1" mediaStart="13648/1" mediaDuration="142/1" trackNumber="2" src="7" channelNumber="0,1" >
            <Parameters>
             <InterpolatingParam id="547" interp="linr"  time="0/1" value="1" leadInLength="0/1"  name="volume"/>
             <Parameter id="548"  name="captions"/>
            </Parameters>
            <Attributes>
             <Attribute id="549" value="" name="ident"/>
             <Attribute id="550" value="44100" name="sampleRate"/>
             <Attribute id="551" value="16" name="bitDepth"/>
             <Attribute id="552" value="1" name="gain"/>
             <Attribute id="553" value="0" name="mixToMono"/>
            </Attributes>
            <MetaData>
             <entry key="WinSubProjectDisplayName" val=""/>
            </MetaData>
           </AMFile>
           <AMFile id="554" start="3163" duration="122" scalar="1/1" mediaStart="13955/1" mediaDuration="122/1" trackNumber="2" src="7" channelNumber="0,1" >
            <Parameters>
             <InterpolatingParam id="555" interp="linr"  time="0/1" value="1" leadInLength="0/1"  name="volume"/>
             <Parameter id="556"  name="captions"/>
            </Parameters>
            <Attributes>
             <Attribute id="557" value="" name="ident"/>
             <Attribute id="558" value="44100" name="sampleRate"/>
             <Attribute id="559" value="16" name="bitDepth"/>
             <Attribute id="560" value="1" name="gain"/>
             <Attribute id="561" value="0" name="mixToMono"/>
            </Attributes>
            <MetaData>
             <entry key="WinSubProjectDisplayName" val=""/>
            </MetaData>
           </AMFile>
           <AMFile id="562" start="3285" duration="116" scalar="1/1" mediaStart="14168/1" mediaDuration="116/1" trackNumber="2" src="7" channelNumber="0,1" >
            <Parameters>
             <InterpolatingParam id="563" interp="linr"  time="0/1" value="1" leadInLength="0/1"  name="volume"/>
             <Parameter id="564"  name="captions"/>
            </Parameters>
            <Attributes>
             <Attribute id="565" value="" name="ident"/>
             <Attribute id="566" value="44100" name="sampleRate"/>
             <Attribute id="567" value="16" name="bitDepth"/>
             <Attribute id="568" value="1" name="gain"/>
             <Attribute id="569" value="0" name="mixToMono"/>
            </Attributes>
            <MetaData>
             <entry key="WinSubProjectDisplayName" val=""/>
            </MetaData>
           </AMFile>
           <AMFile id="570" start="3401" duration="1" scalar="1/1" mediaStart="14369/1" mediaDuration="1/1" trackNumber="2" src="7" channelNumber="0,1" >
            <Parameters>
             <InterpolatingParam id="571" interp="linr"  time="0/1" value="1" leadInLength="0/1"  name="volume"/>
             <Parameter id="572"  name="captions"/>
            </Parameters>
            <Attributes>
             <Attribute id="573" value="" name="ident"/>
             <Attribute id="574" value="44100" name="sampleRate"/>
             <Attribute id="575" value="16" name="bitDepth"/>
             <Attribute id="576" value="1" name="gain"/>
             <Attribute id="577" value="0" name="mixToMono"/>
            </Attributes>
            <MetaData>
             <entry key="WinSubProjectDisplayName" val=""/>
            </MetaData>
           </AMFile>
          </Medias>
         </GenericTrack>
        </StitchedMedia>
        <StitchedMedia id="578" start="11331" duration="2010" scalar="1/1" mediaStart="0/1" mediaDuration="2010/1" minMediaStart="0/1" >
         <Transformer>
          <VectorParam id="579"  name="translation">
           <InterpolatingParam id="580" interp="linr"  time="0/1" value="0" leadInLength="0/1"  />
           <InterpolatingParam id="581" interp="linr"  time="0/1" value="0" leadInLength="0/1"  />
           <InterpolatingParam id="582" interp="linr"  time="0/1" value="0" leadInLength="0/1"  />
          </VectorParam>
          <VectorParam id="583"  name="rotation">
           <InterpolatingParam id="584" interp="linr"  time="0/1" value="0" leadInLength="0/1"  />
           <InterpolatingParam id="585" interp="linr"  time="0/1" value="0" leadInLength="0/1"  />
           <InterpolatingParam id="586" interp="linr"  time="0/1" value="0" leadInLength="0/1"  />
          </VectorParam>
          <VectorParam id="587"  name="shear">
           <InterpolatingParam id="588" interp="linr"  time="0/1" value="0" leadInLength="0/1"  />
           <InterpolatingParam id="589" interp="linr"  time="0/1" value="0" leadInLength="0/1"  />
           <InterpolatingParam id="590" interp="linr"  time="0/1" value="0" leadInLength="0/1"  />
          </VectorParam>
          <VectorParam id="591"  name="scale">
           <InterpolatingParam id="592" interp="linr"  time="0/1" value="1" leadInLength="0/1"  />
           <InterpolatingParam id="593" interp="linr"  time="0/1" value="1" leadInLength="0/1"  />
           <InterpolatingParam id="594" interp="linr"  time="0/1" value="1" leadInLength="0/1"  />
          </VectorParam>
          <VectorParam id="595"  name="anchor">
           <InterpolatingParam id="596" interp="linr"  time="0/1" value="0" leadInLength="0/1"  />
           <InterpolatingParam id="597" interp="linr"  time="0/1" value="0" leadInLength="0/1"  />
           <InterpolatingParam id="598" interp="linr"  time="0/1" value="0" leadInLength="0/1"  />
          </VectorParam>
         </Transformer>
         <Parameters>
          <InterpolatingParam id="599" interp="linr"  time="0/1" value="1" leadInLength="0/1"  name="cursorOpacity"/>
          <InterpolatingParam id="600" interp="linr"  time="0/1" value="1" leadInLength="0/1"  name="cursorScale"/>
          <InterpolatingParam id="601" interp="linr"  time="0/1" value="1" leadInLength="0/1"  name="volume"/>
          <Parameter id="602"  name="captions"/>
         </Parameters>
         <Attributes>
          <Attribute id="603" value="" name="ident"/>
          <Attribute id="604" value="0" name="mixToMono"/>
         </Attributes>
         <MetaData>
          <entry key="WinSubProjectDisplayName" val=""/>
         </MetaData>
         <ExtraData>
          <Entry key="ZoomPanBin">
           <ZoomPanBin id="605"  >
            <ZoomPanKeyframes>
            </ZoomPanKeyframes>
           </ZoomPanBin>
          </Entry>
          <Entry key="CursorEffectBin">
           <CursorEffectBin id="606"  >
            <CursorEffectKeyframes>
            </CursorEffectKeyframes>
           </CursorEffectBin>
          </Entry>
         </ExtraData>
         <GenericTrack id="607"  >
          <Attributes>
           <Attribute id="608" value="" name="ident"/>
           <Attribute id="609" value="0" name="audioMuted"/>
           <Attribute id="610" value="0" name="videoHidden"/>
          </Attributes>
          <MetaData>
           <entry key="IsLocked" val="False"/>
           <entry key="WinTrackHeight" val="0"/>
          </MetaData>
          <Medias>
           <AMFile id="611" start="0" duration="301" scalar="1/1" mediaStart="0/1" mediaDuration="301/1" trackNumber="2" src="9" channelNumber="0,1" >
            <Parameters>
             <InterpolatingParam id="612" interp="linr"  time="0/1" value="1" leadInLength="0/1"  name="volume"/>
             <Parameter id="613"  name="captions"/>
            </Parameters>
            <Attributes>
             <Attribute id="614" value="" name="ident"/>
             <Attribute id="615" value="44100" name="sampleRate"/>
             <Attribute id="616" value="16" name="bitDepth"/>
             <Attribute id="617" value="1" name="gain"/>
             <Attribute id="618" value="0" name="mixToMono"/>
            </Attributes>
            <MetaData>
             <entry key="WinSubProjectDisplayName" val=""/>
            </MetaData>
           </AMFile>
           <AMFile id="619" start="301" duration="154" scalar="1/1" mediaStart="3058/1" mediaDuration="154/1" trackNumber="2" src="9" channelNumber="0,1" >
            <Parameters>
             <InterpolatingParam id="620" interp="linr"  time="0/1" value="1" leadInLength="0/1"  name="volume"/>
             <Parameter id="621"  name="captions"/>
            </Parameters>
            <Attributes>
             <Attribute id="622" value="" name="ident"/>
             <Attribute id="623" value="44100" name="sampleRate"/>
             <Attribute id="624" value="16" name="bitDepth"/>
             <Attribute id="625" value="1" name="gain"/>
             <Attribute id="626" value="0" name="mixToMono"/>
            </Attributes>
            <MetaData>
             <entry key="WinSubProjectDisplayName" val=""/>
            </MetaData>
           </AMFile>
           <AMFile id="627" start="455" duration="118" scalar="1/1" mediaStart="3455/1" mediaDuration="118/1" trackNumber="2" src="9" channelNumber="0,1" >
            <Parameters>
             <InterpolatingParam id="628" interp="linr"  time="0/1" value="1" leadInLength="0/1"  name="volume"/>
             <Parameter id="629"  name="captions"/>
            </Parameters>
            <Attributes>
             <Attribute id="630" value="" name="ident"/>
             <Attribute id="631" value="44100" name="sampleRate"/>
             <Attribute id="632" value="16" name="bitDepth"/>
             <Attribute id="633" value="1" name="gain"/>
             <Attribute id="634" value="0" name="mixToMono"/>
            </Attributes>
            <MetaData>
             <entry key="WinSubProjectDisplayName" val=""/>
            </MetaData>
           </AMFile>
           <AMFile id="635" start="573" duration="35" scalar="1/1" mediaStart="3664/1" mediaDuration="35/1" trackNumber="2" src="9" channelNumber="0,1" >
            <Parameters>
             <InterpolatingParam id="636" interp="linr"  time="0/1" value="1" leadInLength="0/1"  name="volume"/>
             <Parameter id="637"  name="captions"/>
            </Parameters>
            <Attributes>
             <Attribute id="638" value="" name="ident"/>
             <Attribute id="639" value="44100" name="sampleRate"/>
             <Attribute id="640" value="16" name="bitDepth"/>
             <Attribute id="641" value="1" name="gain"/>
             <Attribute id="642" value="0" name="mixToMono"/>
            </Attributes>
            <MetaData>
             <entry key="WinSubProjectDisplayName" val=""/>
            </MetaData>
           </AMFile>
           <AMFile id="643" start="608" duration="10" scalar="1/1" mediaStart="4470/1" mediaDuration="10/1" trackNumber="2" src="9" channelNumber="0,1" >
            <Parameters>
             <InterpolatingParam id="644" interp="linr"  time="0/1" value="1" leadInLength="0/1"  name="volume"/>
             <Parameter id="645"  name="captions"/>
            </Parameters>
            <Attributes>
             <Attribute id="646" value="" name="ident"/>
             <Attribute id="647" value="44100" name="sampleRate"/>
             <Attribute id="648" value="16" name="bitDepth"/>
             <Attribute id="649" value="1" name="gain"/>
             <Attribute id="650" value="0" name="mixToMono"/>
            </Attributes>
            <MetaData>
             <entry key="WinSubProjectDisplayName" val=""/>
            </MetaData>
           </AMFile>
           <AMFile id="651" start="618" duration="55" scalar="1/1" mediaStart="4688/1" mediaDuration="55/1" trackNumber="2" src="9" channelNumber="0,1" >
            <Parameters>
             <InterpolatingParam id="652" interp="linr"  time="0/1" value="1" leadInLength="0/1"  name="volume"/>
             <Parameter id="653"  name="captions"/>
            </Parameters>
            <Attributes>
             <Attribute id="654" value="" name="ident"/>
             <Attribute id="655" value="44100" name="sampleRate"/>
             <Attribute id="656" value="16" name="bitDepth"/>
             <Attribute id="657" value="1" name="gain"/>
             <Attribute id="658" value="0" name="mixToMono"/>
            </Attributes>
            <MetaData>
             <entry key="WinSubProjectDisplayName" val=""/>
            </MetaData>
           </AMFile>
           <AMFile id="659" start="673" duration="108" scalar="1/1" mediaStart="5385/1" mediaDuration="108/1" trackNumber="2" src="9" channelNumber="0,1" >
            <Parameters>
             <InterpolatingParam id="660" interp="linr"  time="0/1" value="1" leadInLength="0/1"  name="volume"/>
             <Parameter id="661"  name="captions"/>
            </Parameters>
            <Attributes>
             <Attribute id="662" value="" name="ident"/>
             <Attribute id="663" value="44100" name="sampleRate"/>
             <Attribute id="664" value="16" name="bitDepth"/>
             <Attribute id="665" value="1" name="gain"/>
             <Attribute id="666" value="0" name="mixToMono"/>
            </Attributes>
            <MetaData>
             <entry key="WinSubProjectDisplayName" val=""/>
            </MetaData>
           </AMFile>
           <AMFile id="667" start="781" duration="102" scalar="1/1" mediaStart="5804/1" mediaDuration="102/1" trackNumber="2" src="9" channelNumber="0,1" >
            <Parameters>
             <InterpolatingParam id="668" interp="linr"  time="0/1" value="1" leadInLength="0/1"  name="volume"/>
             <Parameter id="669"  name="captions"/>
            </Parameters>
            <Attributes>
             <Attribute id="670" value="" name="ident"/>
             <Attribute id="671" value="44100" name="sampleRate"/>
             <Attribute id="672" value="16" name="bitDepth"/>
             <Attribute id="673" value="1" name="gain"/>
             <Attribute id="674" value="0" name="mixToMono"/>
            </Attributes>
            <MetaData>
             <entry key="WinSubProjectDisplayName" val=""/>
            </MetaData>
           </AMFile>
           <AMFile id="675" start="883" duration="182" scalar="1/1" mediaStart="7155/1" mediaDuration="182/1" trackNumber="2" src="9" channelNumber="0,1" >
            <Parameters>
             <InterpolatingParam id="676" interp="linr"  time="0/1" value="1" leadInLength="0/1"  name="volume"/>
             <Parameter id="677"  name="captions"/>
            </Parameters>
            <Attributes>
             <Attribute id="678" value="" name="ident"/>
             <Attribute id="679" value="44100" name="sampleRate"/>
             <Attribute id="680" value="16" name="bitDepth"/>
             <Attribute id="681" value="1" name="gain"/>
             <Attribute id="682" value="0" name="mixToMono"/>
            </Attributes>
            <MetaData>
             <entry key="WinSubProjectDisplayName" val=""/>
            </MetaData>
           </AMFile>
           <AMFile id="683" start="1065" duration="118" scalar="1/1" mediaStart="7473/1" mediaDuration="118/1" trackNumber="2" src="9" channelNumber="0,1" >
            <Parameters>
             <InterpolatingParam id="684" interp="linr"  time="0/1" value="1" leadInLength="0/1"  name="volume"/>
             <Parameter id="685"  name="captions"/>
            </Parameters>
            <Attributes>
             <Attribute id="686" value="" name="ident"/>
             <Attribute id="687" value="44100" name="sampleRate"/>
             <Attribute id="688" value="16" name="bitDepth"/>
             <Attribute id="689" value="1" name="gain"/>
             <Attribute id="690" value="0" name="mixToMono"/>
            </Attributes>
            <MetaData>
             <entry key="WinSubProjectDisplayName" val=""/>
            </MetaData>
           </AMFile>
           <AMFile id="691" start="1183" duration="113" scalar="1/1" mediaStart="8304/1" mediaDuration="113/1" trackNumber="2" src="9" channelNumber="0,1" >
            <Parameters>
             <InterpolatingParam id="692" interp="linr"  time="0/1" value="1" leadInLength="0/1"  name="volume"/>
             <Parameter id="693"  name="captions"/>
            </Parameters>
            <Attributes>
             <Attribute id="694" value="" name="ident"/>
             <Attribute id="695" value="44100" name="sampleRate"/>
             <Attribute id="696" value="16" name="bitDepth"/>
             <Attribute id="697" value="1" name="gain"/>
             <Attribute id="698" value="0" name="mixToMono"/>
            </Attributes>
            <MetaData>
             <entry key="WinSubProjectDisplayName" val=""/>
            </MetaData>
           </AMFile>
           <AMFile id="699" start="1296" duration="127" scalar="1/1" mediaStart="9217/1" mediaDuration="127/1" trackNumber="2" src="9" channelNumber="0,1" >
            <Parameters>
             <InterpolatingParam id="700" interp="linr"  time="0/1" value="1" leadInLength="0/1"  name="volume"/>
             <Parameter id="701"  name="captions"/>
            </Parameters>
            <Attributes>
             <Attribute id="702" value="" name="ident"/>
             <Attribute id="703" value="44100" name="sampleRate"/>
             <Attribute id="704" value="16" name="bitDepth"/>
             <Attribute id="705" value="1" name="gain"/>
             <Attribute id="706" value="0" name="mixToMono"/>
            </Attributes>
            <MetaData>
             <entry key="WinSubProjectDisplayName" val=""/>
            </MetaData>
           </AMFile>
           <AMFile id="707" start="1423" duration="53" scalar="1/1" mediaStart="9500/1" mediaDuration="53/1" trackNumber="2" src="9" channelNumber="0,1" >
            <Parameters>
             <InterpolatingParam id="708" interp="linr"  time="0/1" value="1" leadInLength="0/1"  name="volume"/>
             <Parameter id="709"  name="captions"/>
            </Parameters>
            <Attributes>
             <Attribute id="710" value="" name="ident"/>
             <Attribute id="711" value="44100" name="sampleRate"/>
             <Attribute id="712" value="16" name="bitDepth"/>
             <Attribute id="713" value="1" name="gain"/>
             <Attribute id="714" value="0" name="mixToMono"/>
            </Attributes>
            <MetaData>
             <entry key="WinSubProjectDisplayName" val=""/>
            </MetaData>
           </AMFile>
           <AMFile id="715" start="1476" duration="131" scalar="1/1" mediaStart="9613/1" mediaDuration="131/1" trackNumber="2" src="9" channelNumber="0,1" >
            <Parameters>
             <InterpolatingParam id="716" interp="linr"  time="0/1" value="1" leadInLength="0/1"  name="volume"/>
             <Parameter id="717"  name="captions"/>
            </Parameters>
            <Attributes>
             <Attribute id="718" value="" name="ident"/>
             <Attribute id="719" value="44100" name="sampleRate"/>
             <Attribute id="720" value="16" name="bitDepth"/>
             <Attribute id="721" value="1" name="gain"/>
             <Attribute id="722" value="0" name="mixToMono"/>
            </Attributes>
            <MetaData>
             <entry key="WinSubProjectDisplayName" val=""/>
            </MetaData>
           </AMFile>
           <AMFile id="723" start="1607" duration="42" scalar="1/1" mediaStart="9963/1" mediaDuration="42/1" trackNumber="2" src="9" channelNumber="0,1" >
            <Parameters>
             <InterpolatingParam id="724" interp="linr"  time="0/1" value="1" leadInLength="0/1"  name="volume"/>
             <Parameter id="725"  name="captions"/>
            </Parameters>
            <Attributes>
             <Attribute id="726" value="" name="ident"/>
             <Attribute id="727" value="44100" name="sampleRate"/>
             <Attribute id="728" value="16" name="bitDepth"/>
             <Attribute id="729" value="1" name="gain"/>
             <Attribute id="730" value="0" name="mixToMono"/>
            </Attributes>
            <MetaData>
             <entry key="WinSubProjectDisplayName" val=""/>
            </MetaData>
           </AMFile>
           <AMFile id="731" start="1649" duration="123" scalar="1/1" mediaStart="10268/1" mediaDuration="123/1" trackNumber="2" src="9" channelNumber="0,1" >
            <Parameters>
             <InterpolatingParam id="732" interp="linr"  time="0/1" value="1" leadInLength="0/1"  name="volume"/>
             <Parameter id="733"  name="captions"/>
            </Parameters>
            <Attributes>
             <Attribute id="734" value="" name="ident"/>
             <Attribute id="735" value="44100" name="sampleRate"/>
             <Attribute id="736" value="16" name="bitDepth"/>
             <Attribute id="737" value="1" name="gain"/>
             <Attribute id="738" value="0" name="mixToMono"/>
            </Attributes>
            <MetaData>
             <entry key="WinSubProjectDisplayName" val=""/>
            </MetaData>
           </AMFile>
           <AMFile id="739" start="1772" duration="114" scalar="1/1" mediaStart="11013/1" mediaDuration="114/1" trackNumber="2" src="9" channelNumber="0,1" >
            <Parameters>
             <InterpolatingParam id="740" interp="linr"  time="0/1" value="1" leadInLength="0/1"  name="volume"/>
             <Parameter id="741"  name="captions"/>
            </Parameters>
            <Attributes>
             <Attribute id="742" value="" name="ident"/>
             <Attribute id="743" value="44100" name="sampleRate"/>
             <Attribute id="744" value="16" name="bitDepth"/>
             <Attribute id="745" value="1" name="gain"/>
             <Attribute id="746" value="0" name="mixToMono"/>
            </Attributes>
            <MetaData>
             <entry key="WinSubProjectDisplayName" val=""/>
            </MetaData>
           </AMFile>
           <AMFile id="747" start="1886" duration="124" scalar="1/1" mediaStart="11817/1" mediaDuration="124/1" trackNumber="2" src="9" channelNumber="0,1" >
            <Parameters>
             <InterpolatingParam id="748" interp="linr"  time="0/1" value="1" leadInLength="0/1"  name="volume"/>
             <Parameter id="749"  name="captions"/>
            </Parameters>
            <Attributes>
             <Attribute id="750" value="" name="ident"/>
             <Attribute id="751" value="44100" name="sampleRate"/>
             <Attribute id="752" value="16" name="bitDepth"/>
             <Attribute id="753" value="1" name="gain"/>
             <Attribute id="754" value="0" name="mixToMono"/>
            </Attributes>
            <MetaData>
             <entry key="WinSubProjectDisplayName" val=""/>
            </MetaData>
           </AMFile>
          </Medias>
         </GenericTrack>
        </StitchedMedia>
        <StitchedMedia id="755" start="13341" duration="1167" scalar="1/1" mediaStart="141/1" mediaDuration="1167/1" minMediaStart="0/1" >
         <Transformer>
          <VectorParam id="756"  name="translation">
           <InterpolatingParam id="757" interp="linr"  time="0/1" value="0" leadInLength="0/1"  />
           <InterpolatingParam id="758" interp="linr"  time="0/1" value="0" leadInLength="0/1"  />
           <InterpolatingParam id="759" interp="linr"  time="0/1" value="0" leadInLength="0/1"  />
          </VectorParam>
          <VectorParam id="760"  name="rotation">
           <InterpolatingParam id="761" interp="linr"  time="0/1" value="0" leadInLength="0/1"  />
           <InterpolatingParam id="762" interp="linr"  time="0/1" value="0" leadInLength="0/1"  />
           <InterpolatingParam id="763" interp="linr"  time="0/1" value="0" leadInLength="0/1"  />
          </VectorParam>
          <VectorParam id="764"  name="shear">
           <InterpolatingParam id="765" interp="linr"  time="0/1" value="0" leadInLength="0/1"  />
           <InterpolatingParam id="766" interp="linr"  time="0/1" value="0" leadInLength="0/1"  />
           <InterpolatingParam id="767" interp="linr"  time="0/1" value="0" leadInLength="0/1"  />
          </VectorParam>
          <VectorParam id="768"  name="scale">
           <InterpolatingParam id="769" interp="linr"  time="0/1" value="1" leadInLength="0/1"  />
           <InterpolatingParam id="770" interp="linr"  time="0/1" value="1" leadInLength="0/1"  />
           <InterpolatingParam id="771" interp="linr"  time="0/1" value="1" leadInLength="0/1"  />
          </VectorParam>
          <VectorParam id="772"  name="anchor">
           <InterpolatingParam id="773" interp="linr"  time="0/1" value="0" leadInLength="0/1"  />
           <InterpolatingParam id="774" interp="linr"  time="0/1" value="0" leadInLength="0/1"  />
           <InterpolatingParam id="775" interp="linr"  time="0/1" value="0" leadInLength="0/1"  />
          </VectorParam>
         </Transformer>
         <Parameters>
          <InterpolatingParam id="776" interp="linr"  time="0/1" value="1" leadInLength="0/1"  name="cursorOpacity"/>
          <InterpolatingParam id="777" interp="linr"  time="0/1" value="1" leadInLength="0/1"  name="cursorScale"/>
          <InterpolatingParam id="778" interp="linr"  time="0/1" value="1" leadInLength="0/1"  name="volume"/>
          <Parameter id="779"  name="captions"/>
         </Parameters>
         <Attributes>
          <Attribute id="780" value="" name="ident"/>
          <Attribute id="781" value="0" name="mixToMono"/>
         </Attributes>
         <MetaData>
          <entry key="WinSubProjectDisplayName" val=""/>
         </MetaData>
         <ExtraData>
          <Entry key="ZoomPanBin">
           <ZoomPanBin id="782"  >
            <ZoomPanKeyframes>
            </ZoomPanKeyframes>
           </ZoomPanBin>
          </Entry>
          <Entry key="CursorEffectBin">
           <CursorEffectBin id="783"  >
            <CursorEffectKeyframes>
            </CursorEffectKeyframes>
           </CursorEffectBin>
          </Entry>
         </ExtraData>
         <GenericTrack id="784"  >
          <Attributes>
           <Attribute id="785" value="" name="ident"/>
           <Attribute id="786" value="0" name="audioMuted"/>
           <Attribute id="787" value="0" name="videoHidden"/>
          </Attributes>
          <MetaData>
           <entry key="IsLocked" val="False"/>
           <entry key="WinTrackHeight" val="0"/>
          </MetaData>
          <Medias>
           <AMFile id="788" start="0" duration="267" scalar="1/1" mediaStart="0/1" mediaDuration="267/1" trackNumber="2" src="10" channelNumber="0,1" >
            <Parameters>
             <InterpolatingParam id="789" interp="linr"  time="0/1" value="1" leadInLength="0/1"  name="volume"/>
             <Parameter id="790"  name="captions"/>
            </Parameters>
            <Attributes>
             <Attribute id="791" value="" name="ident"/>
             <Attribute id="792" value="44100" name="sampleRate"/>
             <Attribute id="793" value="16" name="bitDepth"/>
             <Attribute id="794" value="1" name="gain"/>
             <Attribute id="795" value="0" name="mixToMono"/>
            </Attributes>
            <MetaData>
             <entry key="WinSubProjectDisplayName" val=""/>
            </MetaData>
           </AMFile>
           <AMFile id="796" start="267" duration="128" scalar="1/1" mediaStart="512/1" mediaDuration="128/1" trackNumber="2" src="10" channelNumber="0,1" >
            <Parameters>
             <InterpolatingParam id="797" interp="linr"  time="0/1" value="1" leadInLength="0/1"  name="volume"/>
             <Parameter id="798"  name="captions"/>
            </Parameters>
            <Attributes>
             <Attribute id="799" value="" name="ident"/>
             <Attribute id="800" value="44100" name="sampleRate"/>
             <Attribute id="801" value="16" name="bitDepth"/>
             <Attribute id="802" value="1" name="gain"/>
             <Attribute id="803" value="0" name="mixToMono"/>
            </Attributes>
            <MetaData>
             <entry key="WinSubProjectDisplayName" val=""/>
            </MetaData>
           </AMFile>
           <AMFile id="804" start="395" duration="150" scalar="1/1" mediaStart="835/1" mediaDuration="150/1" trackNumber="2" src="10" channelNumber="0,1" >
            <Parameters>
             <InterpolatingParam id="805" interp="linr"  time="0/1" value="1" leadInLength="0/1"  name="volume"/>
             <Parameter id="806"  name="captions"/>
            </Parameters>
            <Attributes>
             <Attribute id="807" value="" name="ident"/>
             <Attribute id="808" value="44100" name="sampleRate"/>
             <Attribute id="809" value="16" name="bitDepth"/>
             <Attribute id="810" value="1" name="gain"/>
             <Attribute id="811" value="0" name="mixToMono"/>
            </Attributes>
            <MetaData>
             <entry key="WinSubProjectDisplayName" val=""/>
            </MetaData>
           </AMFile>
           <AMFile id="812" start="545" duration="113" scalar="1/1" mediaStart="2203/1" mediaDuration="113/1" trackNumber="2" src="10" channelNumber="0,1" >
            <Parameters>
             <InterpolatingParam id="813" interp="linr"  time="0/1" value="1" leadInLength="0/1"  name="volume"/>
             <Parameter id="814"  name="captions"/>
            </Parameters>
            <Attributes>
             <Attribute id="815" value="" name="ident"/>
             <Attribute id="816" value="44100" name="sampleRate"/>
             <Attribute id="817" value="16" name="bitDepth"/>
             <Attribute id="818" value="1" name="gain"/>
             <Attribute id="819" value="0" name="mixToMono"/>
            </Attributes>
            <MetaData>
             <entry key="WinSubProjectDisplayName" val=""/>
            </MetaData>
           </AMFile>
           <AMFile id="820" start="658" duration="168" scalar="1/1" mediaStart="3095/1" mediaDuration="168/1" trackNumber="2" src="10" channelNumber="0,1" >
            <Parameters>
             <InterpolatingParam id="821" interp="linr"  time="0/1" value="1" leadInLength="0/1"  name="volume"/>
             <Parameter id="822"  name="captions"/>
            </Parameters>
            <Attributes>
             <Attribute id="823" value="" name="ident"/>
             <Attribute id="824" value="44100" name="sampleRate"/>
             <Attribute id="825" value="16" name="bitDepth"/>
             <Attribute id="826" value="1" name="gain"/>
             <Attribute id="827" value="0" name="mixToMono"/>
            </Attributes>
            <MetaData>
             <entry key="WinSubProjectDisplayName" val=""/>
            </MetaData>
           </AMFile>
           <AMFile id="828" start="826" duration="172" scalar="1/1" mediaStart="3805/1" mediaDuration="172/1" trackNumber="2" src="10" channelNumber="0,1" >
            <Parameters>
             <InterpolatingParam id="829" interp="linr"  time="0/1" value="1" leadInLength="0/1"  name="volume"/>
             <Parameter id="830"  name="captions"/>
            </Parameters>
            <Attributes>
             <Attribute id="831" value="" name="ident"/>
             <Attribute id="832" value="44100" name="sampleRate"/>
             <Attribute id="833" value="16" name="bitDepth"/>
             <Attribute id="834" value="1" name="gain"/>
             <Attribute id="835" value="0" name="mixToMono"/>
            </Attributes>
            <MetaData>
             <entry key="WinSubProjectDisplayName" val=""/>
            </MetaData>
           </AMFile>
           <AMFile id="836" start="998" duration="21" scalar="1/1" mediaStart="4305/1" mediaDuration="21/1" trackNumber="2" src="10" channelNumber="0,1" >
            <Parameters>
             <InterpolatingParam id="837" interp="linr"  time="0/1" value="1" leadInLength="0/1"  name="volume"/>
             <Parameter id="838"  name="captions"/>
            </Parameters>
            <Attributes>
             <Attribute id="839" value="" name="ident"/>
             <Attribute id="840" value="44100" name="sampleRate"/>
             <Attribute id="841" value="16" name="bitDepth"/>
             <Attribute id="842" value="1" name="gain"/>
             <Attribute id="843" value="0" name="mixToMono"/>
            </Attributes>
            <MetaData>
             <entry key="WinSubProjectDisplayName" val=""/>
            </MetaData>
           </AMFile>
           <AMFile id="844" start="1019" duration="3" scalar="1/1" mediaStart="4787/1" mediaDuration="3/1" trackNumber="2" src="10" channelNumber="0,1" >
            <Parameters>
             <InterpolatingParam id="845" interp="linr"  time="0/1" value="1" leadInLength="0/1"  name="volume"/>
             <Parameter id="846"  name="captions"/>
            </Parameters>
            <Attributes>
             <Attribute id="847" value="" name="ident"/>
             <Attribute id="848" value="44100" name="sampleRate"/>
             <Attribute id="849" value="16" name="bitDepth"/>
             <Attribute id="850" value="1" name="gain"/>
             <Attribute id="851" value="0" name="mixToMono"/>
            </Attributes>
            <MetaData>
             <entry key="WinSubProjectDisplayName" val=""/>
            </MetaData>
           </AMFile>
           <AMFile id="852" start="1022" duration="337" scalar="1/1" mediaStart="4913/1" mediaDuration="337/1" trackNumber="2" src="10" channelNumber="0,1" >
            <Parameters>
             <InterpolatingParam id="853" interp="linr"  time="0/1" value="1" leadInLength="0/1"  name="volume"/>
             <Parameter id="854"  name="captions"/>
            </Parameters>
            <Attributes>
             <Attribute id="855" value="" name="ident"/>
             <Attribute id="856" value="44100" name="sampleRate"/>
             <Attribute id="857" value="16" name="bitDepth"/>
             <Attribute id="858" value="1" name="gain"/>
             <Attribute id="859" value="0" name="mixToMono"/>
            </Attributes>
            <MetaData>
             <entry key="WinSubProjectDisplayName" val=""/>
            </MetaData>
           </AMFile>
          </Medias>
         </GenericTrack>
        </StitchedMedia>
        <AMFile id="860" start="14508" duration="115" scalar="1/1" mediaStart="366/1" mediaDuration="115/1" trackNumber="2" src="12" channelNumber="0,1" >
         <Parameters>
          <InterpolatingParam id="861" interp="linr"  time="0/1" value="1" leadInLength="0/1"  name="volume"/>
          <Parameter id="862"  name="captions"/>
         </Parameters>
         <Attributes>
          <Attribute id="863" value="" name="ident"/>
          <Attribute id="864" value="44100" name="sampleRate"/>
          <Attribute id="865" value="16" name="bitDepth"/>
          <Attribute id="866" value="1" name="gain"/>
          <Attribute id="867" value="0" name="mixToMono"/>
         </Attributes>
         <MetaData>
          <entry key="WinSubProjectDisplayName" val=""/>
         </MetaData>
        </AMFile>
       </Medias>
      </GenericTrack>
      <GenericTrack id="868"  >
       <Attributes>
        <Attribute id="869" value="" name="ident"/>
        <Attribute id="870" value="0" name="audioMuted"/>
        <Attribute id="871" value="0" name="videoHidden"/>
       </Attributes>
       <MetaData>
        <entry key="IsLocked" val="False"/>
        <entry key="WinTrackHeight" val="62"/>
       </MetaData>
       <Medias>
        <StitchedMedia id="872" start="0" duration="2487" scalar="1/1" mediaStart="165/1" mediaDuration="2487/1" minMediaStart="0/1" >
         <Transformer>
          <VectorParam id="873"  name="translation">
           <InterpolatingParam id="874" interp="linr"  time="-9999999/1" value="0" leadInLength="0/1"  interpolater="leadin-linr"  />
           <InterpolatingParam id="875" interp="linr"  time="-9999999/1" value="0" leadInLength="0/1"  interpolater="leadin-linr"  />
           <InterpolatingParam id="876" interp="linr"  time="-9999999/1" value="0" leadInLength="0/1"  interpolater="leadin-linr"  />
          </VectorParam>
          <VectorParam id="877"  name="rotation">
           <InterpolatingParam id="878" interp="linr"  time="-9999999/1" value="0" leadInLength="0/1"  interpolater="leadin-linr"  />
           <InterpolatingParam id="879" interp="linr"  time="-9999999/1" value="0" leadInLength="0/1"  interpolater="leadin-linr"  />
           <InterpolatingParam id="880" interp="linr"  time="-9999999/1" value="0" leadInLength="0/1"  interpolater="leadin-linr"  />
          </VectorParam>
          <VectorParam id="881"  name="shear">
           <InterpolatingParam id="882" interp="linr"  time="-9999999/1" value="0" leadInLength="0/1"  interpolater="leadin-linr"  />
           <InterpolatingParam id="883" interp="linr"  time="-9999999/1" value="0" leadInLength="0/1"  interpolater="leadin-linr"  />
           <InterpolatingParam id="884" interp="linr"  time="-9999999/1" value="0" leadInLength="0/1"  interpolater="leadin-linr"  />
          </VectorParam>
          <VectorParam id="885"  name="scale">
           <InterpolatingParam id="886" interp="linr"  time="-9999999/1" value="0.70833333333333337" leadInLength="0/1"  interpolater="leadin-linr"  />
           <InterpolatingParam id="887" interp="linr"  time="-9999999/1" value="0.70833333333333337" leadInLength="0/1"  interpolater="leadin-linr"  />
           <InterpolatingParam id="888" interp="linr"  time="-9999999/1" value="1" leadInLength="0/1"  interpolater="leadin-linr"  />
          </VectorParam>
          <VectorParam id="889"  name="anchor">
           <InterpolatingParam id="890" interp="linr"  time="0/1" value="0" leadInLength="0/1"  />
           <InterpolatingParam id="891" interp="linr"  time="0/1" value="0" leadInLength="0/1"  />
           <InterpolatingParam id="892" interp="linr"  time="0/1" value="0" leadInLength="0/1"  />
          </VectorParam>
         </Transformer>
         <Parameters>
          <VectorParam id="893"  name="sourceCrop">
           <InterpolatingParam id="894" interp="linr"  time="0/1" value="0" leadInLength="0/1"  />
           <InterpolatingParam id="895" interp="linr"  time="0/1" value="0" leadInLength="0/1"  />
           <InterpolatingParam id="896" interp="linr"  time="0/1" value="0" leadInLength="0/1"  />
           <InterpolatingParam id="897" interp="linr"  time="0/1" value="0" leadInLength="0/1"  />
          </VectorParam>
          <VectorParam id="898"  name="geometryCrop">
           <InterpolatingParam id="899" interp="linr"  time="-9999999/1" value="0" leadInLength="0/1"  interpolater="leadin-linr"  />
           <InterpolatingParam id="900" interp="linr"  time="-9999999/1" value="0" leadInLength="0/1"  interpolater="leadin-linr"  />
           <InterpolatingParam id="901" interp="linr"  time="-9999999/1" value="0" leadInLength="0/1"  interpolater="leadin-linr"  />
           <InterpolatingParam id="902" interp="linr"  time="-9999999/1" value="0" leadInLength="0/1"  interpolater="leadin-linr"  />
          </VectorParam>
          <InterpolatingParam id="903" interp="linr"  time="-9999999/1" value="1" leadInLength="0/1"  interpolater="leadin-linr"  name="opacity"/>
          <InterpolatingParam id="904" interp="linr"  time="0/1" value="1" leadInLength="0/1"  name="cursorOpacity"/>
          <InterpolatingParam id="905" interp="linr"  time="0/1" value="1" leadInLength="0/1"  name="cursorScale"/>
          <InterpolatingParam id="906" interp="linr"  time="0/1" value="0.97601323407774965" leadInLength="0/1"  name="volume"/>
          <Parameter id="907"  name="captions"/>
         </Parameters>
         <Effects>
          <GenericEffect id="908" name = "CursorBaseEffectName" >
           <Parameters>
           <InterpolatingParam id="909" interp="linr"  time="-9999999/1" value="1" leadInLength="0/1"   name="cursorSize"/>
           <InterpolatingParam id="910" interp="linr"  time="-9999999/1" value="0" leadInLength="0/1"   name="highlightBlurRadius"/>
           <InterpolatingParam id="911" interp="linr"  time="-9999999/1" value="0" leadInLength="0/1"   name="highlightColorBlue"/>
           <InterpolatingParam id="912" interp="linr"  time="-9999999/1" value="255" leadInLength="0/1"   name="highlightColorGreen"/>
           <InterpolatingParam id="913" interp="linr"  time="-9999999/1" value="255" leadInLength="0/1"   name="highlightColorRed"/>
           <InterpolatingParam id="914" interp="linr"  time="-9999999/1" value="5" leadInLength="0/1"   name="highlightFeatherSize"/>
           <InterpolatingParam id="915" interp="linr"  time="-9999999/1" value="2" leadInLength="0/1"   name="highlightMagnification"/>
           <InterpolatingParam id="916" interp="linr"  time="-9999999/1" value="1" leadInLength="0/1"   name="highlightOpacity"/>
           <InterpolatingParam id="917" interp="linr"  time="-9999999/1" value="45" leadInLength="0/1"   name="highlightSize"/>
           <Parameter id="918"   name="highlightType">
            <Keyframes>
            <Keyframe id="919"  time="-9999999/1" value="0" leadInLength="0/1"  />
            </Keyframes>
           </Parameter>
           <InterpolatingParam id="920" interp="linr"  time="-9999999/1" value="0" leadInLength="0/1"   name="leftClickColorBlue"/>
           <InterpolatingParam id="921" interp="linr"  time="-9999999/1" value="0" leadInLength="0/1"   name="leftClickColorGreen"/>
           <InterpolatingParam id="922" interp="linr"  time="-9999999/1" value="255" leadInLength="0/1"   name="leftClickColorRed"/>
           <InterpolatingParam id="923" interp="linr"  time="-9999999/1" value="0.80000000000000004" leadInLength="0/1"   name="leftClickDuration"/>
           <InterpolatingParam id="924" interp="linr"  time="-9999999/1" value="20" leadInLength="0/1"   name="leftClickSize"/>
           <Parameter id="925"   name="leftClickSoundFilename">
            <Keyframes>
            <Keyframe id="926"  time="-9999999/1" value="" leadInLength="0/1"  />
            </Keyframes>
           </Parameter>
           <InterpolatingParam id="927" interp="linr"  time="-9999999/1" value="1" leadInLength="0/1"   name="leftClickSoundVolume"/>
           <Parameter id="928"   name="leftClickType">
            <Keyframes>
            <Keyframe id="929"  time="-9999999/1" value="0" leadInLength="0/1"  />
            </Keyframes>
           </Parameter>
           <InterpolatingParam id="930" interp="linr"  time="-9999999/1" value="1" leadInLength="0/1"   name="opacity"/>
           <InterpolatingParam id="931" interp="linr"  time="-9999999/1" value="255" leadInLength="0/1"   name="rightClickColorBlue"/>
           <InterpolatingParam id="932" interp="linr"  time="-9999999/1" value="0" leadInLength="0/1"   name="rightClickColorGreen"/>
           <InterpolatingParam id="933" interp="linr"  time="-9999999/1" value="0" leadInLength="0/1"   name="rightClickColorRed"/>
           <InterpolatingParam id="934" interp="linr"  time="-9999999/1" value="0.80000000000000004" leadInLength="0/1"   name="rightClickDuration"/>
           <InterpolatingParam id="935" interp="linr"  time="-9999999/1" value="20" leadInLength="0/1"   name="rightClickSize"/>
           <Parameter id="936"   name="rightClickSoundFilename">
            <Keyframes>
            <Keyframe id="937"  time="-9999999/1" value="" leadInLength="0/1"  />
            </Keyframes>
           </Parameter>
           <InterpolatingParam id="938" interp="linr"  time="-9999999/1" value="1" leadInLength="0/1"   name="rightClickSoundVolume"/>
           <Parameter id="939"   name="rightClickType">
            <Keyframes>
            <Keyframe id="940"  time="-9999999/1" value="0" leadInLength="0/1"  />
            </Keyframes>
           </Parameter>
           </Parameters>
           <MetaData>
            <entry key="effectIndex" val="0"/>
           </MetaData>
          </GenericEffect>
         </Effects>
         <Attributes>
          <Attribute id="941" value="" name="ident"/>
          <Attribute id="942" value="0" name="mixToMono"/>
         </Attributes>
         <MetaData>
          <entry key="AutoAppliedSmartFocus" val="False"/>
          <entry key="WinSubProjectDisplayName" val=""/>
         </MetaData>
         <ExtraData>
          <Entry key="ZoomPanBin">
           <ZoomPanBin id="943"  >
            <ZoomPanKeyframes>
             <ZoomPanKeyframe id="944" timeRangeEnd="-9999999/1" timeRangeDuration="0/1" interpolaterName="linr"  />
            </ZoomPanKeyframes>
           </ZoomPanBin>
          </Entry>
          <Entry key="CursorEffectBin">
           <CursorEffectBin id="945"  >
            <CursorEffectKeyframes>
             <CursorEffectKeyframe id="946" timeRangeEnd="-9999999/1" timeRangeDuration="0/1" interpolaterName=""  />
            </CursorEffectKeyframes>
           </CursorEffectBin>
          </Entry>
         </ExtraData>
         <GenericTrack id="947"  >
          <Attributes>
           <Attribute id="948" value="" name="ident"/>
           <Attribute id="949" value="0" name="audioMuted"/>
           <Attribute id="950" value="0" name="videoHidden"/>
          </Attributes>
          <MetaData>
           <entry key="IsLocked" val="False"/>
           <entry key="WinTrackHeight" val="0"/>
          </MetaData>
          <Medias>
           <UnifiedMedia id="951"  >
            <AMFile id="952" start="0" duration="2038" scalar="1/1" mediaStart="0/1" mediaDuration="2038/1" trackNumber="1" src="4" channelNumber="0,1" >
             <Parameters>
              <InterpolatingParam id="953" interp="linr"  time="0/1" value="1" leadInLength="0/1"  name="volume"/>
              <Parameter id="954"  name="captions"/>
             </Parameters>
             <Attributes>
              <Attribute id="955" value="" name="ident"/>
              <Attribute id="956" value="44100" name="sampleRate"/>
              <Attribute id="957" value="16" name="bitDepth"/>
              <Attribute id="958" value="1" name="gain"/>
              <Attribute id="959" value="0" name="mixToMono"/>
             </Attributes>
            </AMFile>
            <ScreenVMFile id="960" start="0" duration="2038" scalar="1/1" mediaStart="0/1" mediaDuration="2038/1" trackNumber="0" src="4" >
             <Transformer>
              <VectorParam id="961"  name="translation">
               <InterpolatingParam id="962" interp="linr"  time="-9999999/1" value="0" leadInLength="0/1"  />
               <InterpolatingParam id="963" interp="linr"  time="-9999999/1" value="0" leadInLength="0/1"  />
               <InterpolatingParam id="964" interp="linr"  time="-9999999/1" value="0" leadInLength="0/1"  />
              </VectorParam>
              <VectorParam id="965"  name="rotation">
               <InterpolatingParam id="966" interp="linr"  time="-9999999/1" value="0" leadInLength="0/1"  />
               <InterpolatingParam id="967" interp="linr"  time="-9999999/1" value="0" leadInLength="0/1"  />
               <InterpolatingParam id="968" interp="linr"  time="-9999999/1" value="0" leadInLength="0/1"  />
              </VectorParam>
              <VectorParam id="969"  name="shear">
               <InterpolatingParam id="970" interp="linr"  time="-9999999/1" value="0" leadInLength="0/1"  />
               <InterpolatingParam id="971" interp="linr"  time="-9999999/1" value="0" leadInLength="0/1"  />
               <InterpolatingParam id="972" interp="linr"  time="-9999999/1" value="0" leadInLength="0/1"  />
              </VectorParam>
              <VectorParam id="973"  name="scale">
               <InterpolatingParam id="974" interp="linr"  time="-9999999/1" value="1" leadInLength="0/1"  />
               <InterpolatingParam id="975" interp="linr"  time="-9999999/1" value="1" leadInLength="0/1"  />
               <InterpolatingParam id="976" interp="linr"  time="-9999999/1" value="1" leadInLength="0/1"  />
              </VectorParam>
              <VectorParam id="977"  name="anchor">
               <InterpolatingParam id="978" interp="linr"  time="0/1" value="0" leadInLength="0/1"  />
               <InterpolatingParam id="979" interp="linr"  time="0/1" value="0" leadInLength="0/1"  />
               <InterpolatingParam id="980" interp="linr"  time="0/1" value="0" leadInLength="0/1"  />
              </VectorParam>
             </Transformer>
             <Parameters>
              <VectorParam id="981"  name="sourceCrop">
               <InterpolatingParam id="982" interp="linr"  time="0/1" value="0" leadInLength="0/1"  />
               <InterpolatingParam id="983" interp="linr"  time="0/1" value="0" leadInLength="0/1"  />
               <InterpolatingParam id="984" interp="linr"  time="0/1" value="0" leadInLength="0/1"  />
               <InterpolatingParam id="985" interp="linr"  time="0/1" value="0" leadInLength="0/1"  />
              </VectorParam>
              <VectorParam id="986"  name="geometryCrop">
               <InterpolatingParam id="987" interp="linr"  time="-9999999/1" value="0" leadInLength="0/1"  />
               <InterpolatingParam id="988" interp="linr"  time="-9999999/1" value="0" leadInLength="0/1"  />
               <InterpolatingParam id="989" interp="linr"  time="-9999999/1" value="0" leadInLength="0/1"  />
               <InterpolatingParam id="990" interp="linr"  time="-9999999/1" value="0" leadInLength="0/1"  />
              </VectorParam>
              <InterpolatingParam id="991" interp="linr"  time="-9999999/1" value="1" leadInLength="0/1"  name="opacity"/>
              <InterpolatingParam id="992" interp="linr"  time="0/1" value="0" leadInLength="0/1"  name="cursorOpacity"/>
              <InterpolatingParam id="993" interp="linr"  time="0/1" value="0" leadInLength="0/1"  name="cursorScale"/>
             </Parameters>
             <Attributes>
              <Attribute id="994" value="" name="ident"/>
             </Attributes>
             <ExtraData>
              <Entry key="ZoomPanBin">
               <ZoomPanBin id="995"  >
                <ZoomPanKeyframes>
                 <ZoomPanKeyframe id="996" timeRangeEnd="-9999999/1" timeRangeDuration="0/1" interpolaterName="linr"  />
                </ZoomPanKeyframes>
               </ZoomPanBin>
              </Entry>
              <Entry key="CursorEffectBin">
               <CursorEffectBin id="997"  >
                <CursorEffectKeyframes>
                </CursorEffectKeyframes>
               </CursorEffectBin>
              </Entry>
             </ExtraData>
            </ScreenVMFile>
            <MetaData>
             <entry key="AutoAppliedSmartFocus" val="False"/>
             <entry key="WinSubProjectDisplayName" val=""/>
            </MetaData>
           </UnifiedMedia>
           <UnifiedMedia id="998"  >
            <AMFile id="999" start="2038" duration="192" scalar="1/1" mediaStart="2067/1" mediaDuration="192/1" trackNumber="1" src="4" channelNumber="0,1" >
             <Parameters>
              <InterpolatingParam id="1000" interp="linr"  time="0/1" value="1" leadInLength="0/1"  name="volume"/>
              <Parameter id="1001"  name="captions"/>
             </Parameters>
             <Attributes>
              <Attribute id="1002" value="" name="ident"/>
              <Attribute id="1003" value="44100" name="sampleRate"/>
              <Attribute id="1004" value="16" name="bitDepth"/>
              <Attribute id="1005" value="1" name="gain"/>
              <Attribute id="1006" value="0" name="mixToMono"/>
             </Attributes>
            </AMFile>
            <ScreenVMFile id="1007" start="2038" duration="192" scalar="1/1" mediaStart="2067/1" mediaDuration="192/1" trackNumber="0" src="4" >
             <Transformer>
              <VectorParam id="1008"  name="translation">
               <InterpolatingParam id="1009" interp="linr"  time="-9999999/1" value="0" leadInLength="0/1"  />
               <InterpolatingParam id="1010" interp="linr"  time="-9999999/1" value="0" leadInLength="0/1"  />
               <InterpolatingParam id="1011" interp="linr"  time="-9999999/1" value="0" leadInLength="0/1"  />
              </VectorParam>
              <VectorParam id="1012"  name="rotation">
               <InterpolatingParam id="1013" interp="linr"  time="-9999999/1" value="0" leadInLength="0/1"  />
               <InterpolatingParam id="1014" interp="linr"  time="-9999999/1" value="0" leadInLength="0/1"  />
               <InterpolatingParam id="1015" interp="linr"  time="-9999999/1" value="0" leadInLength="0/1"  />
              </VectorParam>
              <VectorParam id="1016"  name="shear">
               <InterpolatingParam id="1017" interp="linr"  time="-9999999/1" value="0" leadInLength="0/1"  />
               <InterpolatingParam id="1018" interp="linr"  time="-9999999/1" value="0" leadInLength="0/1"  />
               <InterpolatingParam id="1019" interp="linr"  time="-9999999/1" value="0" leadInLength="0/1"  />
              </VectorParam>
              <VectorParam id="1020"  name="scale">
               <InterpolatingParam id="1021" interp="linr"  time="-9999999/1" value="1" leadInLength="0/1"  />
               <InterpolatingParam id="1022" interp="linr"  time="-9999999/1" value="1" leadInLength="0/1"  />
               <InterpolatingParam id="1023" interp="linr"  time="-9999999/1" value="1" leadInLength="0/1"  />
              </VectorParam>
              <VectorParam id="1024"  name="anchor">
               <InterpolatingParam id="1025" interp="linr"  time="0/1" value="0" leadInLength="0/1"  />
               <InterpolatingParam id="1026" interp="linr"  time="0/1" value="0" leadInLength="0/1"  />
               <InterpolatingParam id="1027" interp="linr"  time="0/1" value="0" leadInLength="0/1"  />
              </VectorParam>
             </Transformer>
             <Parameters>
              <VectorParam id="1028"  name="sourceCrop">
               <InterpolatingParam id="1029" interp="linr"  time="0/1" value="0" leadInLength="0/1"  />
               <InterpolatingParam id="1030" interp="linr"  time="0/1" value="0" leadInLength="0/1"  />
               <InterpolatingParam id="1031" interp="linr"  time="0/1" value="0" leadInLength="0/1"  />
               <InterpolatingParam id="1032" interp="linr"  time="0/1" value="0" leadInLength="0/1"  />
              </VectorParam>
              <VectorParam id="1033"  name="geometryCrop">
               <InterpolatingParam id="1034" interp="linr"  time="-9999999/1" value="0" leadInLength="0/1"  />
               <InterpolatingParam id="1035" interp="linr"  time="-9999999/1" value="0" leadInLength="0/1"  />
               <InterpolatingParam id="1036" interp="linr"  time="-9999999/1" value="0" leadInLength="0/1"  />
               <InterpolatingParam id="1037" interp="linr"  time="-9999999/1" value="0" leadInLength="0/1"  />
              </VectorParam>
              <InterpolatingParam id="1038" interp="linr"  time="-9999999/1" value="1" leadInLength="0/1"  name="opacity"/>
              <InterpolatingParam id="1039" interp="linr"  time="0/1" value="0" leadInLength="0/1"  name="cursorOpacity"/>
              <InterpolatingParam id="1040" interp="linr"  time="0/1" value="0" leadInLength="0/1"  name="cursorScale"/>
             </Parameters>
             <Attributes>
              <Attribute id="1041" value="" name="ident"/>
             </Attributes>
             <ExtraData>
              <Entry key="ZoomPanBin">
               <ZoomPanBin id="1042"  >
                <ZoomPanKeyframes>
                 <ZoomPanKeyframe id="1043" timeRangeEnd="-9999999/1" timeRangeDuration="0/1" interpolaterName="linr"  />
                </ZoomPanKeyframes>
               </ZoomPanBin>
              </Entry>
              <Entry key="CursorEffectBin">
               <CursorEffectBin id="1044"  >
                <CursorEffectKeyframes>
                </CursorEffectKeyframes>
               </CursorEffectBin>
              </Entry>
             </ExtraData>
            </ScreenVMFile>
            <MetaData>
             <entry key="AutoAppliedSmartFocus" val="False"/>
             <entry key="WinSubProjectDisplayName" val=""/>
            </MetaData>
           </UnifiedMedia>
           <UnifiedMedia id="1045"  >
            <AMFile id="1046" start="2230" duration="376" scalar="1/1" mediaStart="2676/1" mediaDuration="376/1" trackNumber="1" src="4" channelNumber="0,1" >
             <Parameters>
              <InterpolatingParam id="1047" interp="linr"  time="0/1" value="1" leadInLength="0/1"  name="volume"/>
              <Parameter id="1048"  name="captions"/>
             </Parameters>
             <Attributes>
              <Attribute id="1049" value="" name="ident"/>
              <Attribute id="1050" value="44100" name="sampleRate"/>
              <Attribute id="1051" value="16" name="bitDepth"/>
              <Attribute id="1052" value="1" name="gain"/>
              <Attribute id="1053" value="0" name="mixToMono"/>
             </Attributes>
            </AMFile>
            <ScreenVMFile id="1054" start="2230" duration="376" scalar="1/1" mediaStart="2676/1" mediaDuration="376/1" trackNumber="0" src="4" >
             <Transformer>
              <VectorParam id="1055"  name="translation">
               <InterpolatingParam id="1056" interp="linr"  time="-9999999/1" value="0" leadInLength="0/1"  />
               <InterpolatingParam id="1057" interp="linr"  time="-9999999/1" value="0" leadInLength="0/1"  />
               <InterpolatingParam id="1058" interp="linr"  time="-9999999/1" value="0" leadInLength="0/1"  />
              </VectorParam>
              <VectorParam id="1059"  name="rotation">
               <InterpolatingParam id="1060" interp="linr"  time="-9999999/1" value="0" leadInLength="0/1"  />
               <InterpolatingParam id="1061" interp="linr"  time="-9999999/1" value="0" leadInLength="0/1"  />
               <InterpolatingParam id="1062" interp="linr"  time="-9999999/1" value="0" leadInLength="0/1"  />
              </VectorParam>
              <VectorParam id="1063"  name="shear">
               <InterpolatingParam id="1064" interp="linr"  time="-9999999/1" value="0" leadInLength="0/1"  />
               <InterpolatingParam id="1065" interp="linr"  time="-9999999/1" value="0" leadInLength="0/1"  />
               <InterpolatingParam id="1066" interp="linr"  time="-9999999/1" value="0" leadInLength="0/1"  />
              </VectorParam>
              <VectorParam id="1067"  name="scale">
               <InterpolatingParam id="1068" interp="linr"  time="-9999999/1" value="1" leadInLength="0/1"  />
               <InterpolatingParam id="1069" interp="linr"  time="-9999999/1" value="1" leadInLength="0/1"  />
               <InterpolatingParam id="1070" interp="linr"  time="-9999999/1" value="1" leadInLength="0/1"  />
              </VectorParam>
              <VectorParam id="1071"  name="anchor">
               <InterpolatingParam id="1072" interp="linr"  time="0/1" value="0" leadInLength="0/1"  />
               <InterpolatingParam id="1073" interp="linr"  time="0/1" value="0" leadInLength="0/1"  />
               <InterpolatingParam id="1074" interp="linr"  time="0/1" value="0" leadInLength="0/1"  />
              </VectorParam>
             </Transformer>
             <Parameters>
              <VectorParam id="1075"  name="sourceCrop">
               <InterpolatingParam id="1076" interp="linr"  time="0/1" value="0" leadInLength="0/1"  />
               <InterpolatingParam id="1077" interp="linr"  time="0/1" value="0" leadInLength="0/1"  />
               <InterpolatingParam id="1078" interp="linr"  time="0/1" value="0" leadInLength="0/1"  />
               <InterpolatingParam id="1079" interp="linr"  time="0/1" value="0" leadInLength="0/1"  />
              </VectorParam>
              <VectorParam id="1080"  name="geometryCrop">
               <InterpolatingParam id="1081" interp="linr"  time="-9999999/1" value="0" leadInLength="0/1"  />
               <InterpolatingParam id="1082" interp="linr"  time="-9999999/1" value="0" leadInLength="0/1"  />
               <InterpolatingParam id="1083" interp="linr"  time="-9999999/1" value="0" leadInLength="0/1"  />
               <InterpolatingParam id="1084" interp="linr"  time="-9999999/1" value="0" leadInLength="0/1"  />
              </VectorParam>
              <InterpolatingParam id="1085" interp="linr"  time="-9999999/1" value="1" leadInLength="0/1"  name="opacity"/>
              <InterpolatingParam id="1086" interp="linr"  time="0/1" value="0" leadInLength="0/1"  name="cursorOpacity"/>
              <InterpolatingParam id="1087" interp="linr"  time="0/1" value="0" leadInLength="0/1"  name="cursorScale"/>
             </Parameters>
             <Attributes>
              <Attribute id="1088" value="" name="ident"/>
             </Attributes>
             <ExtraData>
              <Entry key="ZoomPanBin">
               <ZoomPanBin id="1089"  >
                <ZoomPanKeyframes>
                 <ZoomPanKeyframe id="1090" timeRangeEnd="-9999999/1" timeRangeDuration="0/1" interpolaterName="linr"  />
                </ZoomPanKeyframes>
               </ZoomPanBin>
              </Entry>
              <Entry key="CursorEffectBin">
               <CursorEffectBin id="1091"  >
                <CursorEffectKeyframes>
                </CursorEffectKeyframes>
               </CursorEffectBin>
              </Entry>
             </ExtraData>
            </ScreenVMFile>
            <MetaData>
             <entry key="AutoAppliedSmartFocus" val="False"/>
             <entry key="WinSubProjectDisplayName" val=""/>
            </MetaData>
           </UnifiedMedia>
           <UnifiedMedia id="1092"  >
            <AMFile id="1093" start="2606" duration="48" scalar="1/1" mediaStart="3065/1" mediaDuration="48/1" trackNumber="1" src="4" channelNumber="0,1" >
             <Parameters>
              <InterpolatingParam id="1094" interp="linr"  time="0/1" value="1" leadInLength="0/1"  name="volume"/>
              <Parameter id="1095"  name="captions"/>
             </Parameters>
             <Attributes>
              <Attribute id="1096" value="" name="ident"/>
              <Attribute id="1097" value="44100" name="sampleRate"/>
              <Attribute id="1098" value="16" name="bitDepth"/>
              <Attribute id="1099" value="1" name="gain"/>
              <Attribute id="1100" value="0" name="mixToMono"/>
             </Attributes>
            </AMFile>
            <ScreenVMFile id="1101" start="2606" duration="48" scalar="1/1" mediaStart="3065/1" mediaDuration="48/1" trackNumber="0" src="4" >
             <Transformer>
              <VectorParam id="1102"  name="translation">
               <InterpolatingParam id="1103" interp="linr"  time="-9999999/1" value="0" leadInLength="0/1"  />
               <InterpolatingParam id="1104" interp="linr"  time="-9999999/1" value="0" leadInLength="0/1"  />
               <InterpolatingParam id="1105" interp="linr"  time="-9999999/1" value="0" leadInLength="0/1"  />
              </VectorParam>
              <VectorParam id="1106"  name="rotation">
               <InterpolatingParam id="1107" interp="linr"  time="-9999999/1" value="0" leadInLength="0/1"  />
               <InterpolatingParam id="1108" interp="linr"  time="-9999999/1" value="0" leadInLength="0/1"  />
               <InterpolatingParam id="1109" interp="linr"  time="-9999999/1" value="0" leadInLength="0/1"  />
              </VectorParam>
              <VectorParam id="1110"  name="shear">
               <InterpolatingParam id="1111" interp="linr"  time="-9999999/1" value="0" leadInLength="0/1"  />
               <InterpolatingParam id="1112" interp="linr"  time="-9999999/1" value="0" leadInLength="0/1"  />
               <InterpolatingParam id="1113" interp="linr"  time="-9999999/1" value="0" leadInLength="0/1"  />
              </VectorParam>
              <VectorParam id="1114"  name="scale">
               <InterpolatingParam id="1115" interp="linr"  time="-9999999/1" value="1" leadInLength="0/1"  />
               <InterpolatingParam id="1116" interp="linr"  time="-9999999/1" value="1" leadInLength="0/1"  />
               <InterpolatingParam id="1117" interp="linr"  time="-9999999/1" value="1" leadInLength="0/1"  />
              </VectorParam>
              <VectorParam id="1118"  name="anchor">
               <InterpolatingParam id="1119" interp="linr"  time="0/1" value="0" leadInLength="0/1"  />
               <InterpolatingParam id="1120" interp="linr"  time="0/1" value="0" leadInLength="0/1"  />
               <InterpolatingParam id="1121" interp="linr"  time="0/1" value="0" leadInLength="0/1"  />
              </VectorParam>
             </Transformer>
             <Parameters>
              <VectorParam id="1122"  name="sourceCrop">
               <InterpolatingParam id="1123" interp="linr"  time="0/1" value="0" leadInLength="0/1"  />
               <InterpolatingParam id="1124" interp="linr"  time="0/1" value="0" leadInLength="0/1"  />
               <InterpolatingParam id="1125" interp="linr"  time="0/1" value="0" leadInLength="0/1"  />
               <InterpolatingParam id="1126" interp="linr"  time="0/1" value="0" leadInLength="0/1"  />
              </VectorParam>
              <VectorParam id="1127"  name="geometryCrop">
               <InterpolatingParam id="1128" interp="linr"  time="-9999999/1" value="0" leadInLength="0/1"  />
               <InterpolatingParam id="1129" interp="linr"  time="-9999999/1" value="0" leadInLength="0/1"  />
               <InterpolatingParam id="1130" interp="linr"  time="-9999999/1" value="0" leadInLength="0/1"  />
               <InterpolatingParam id="1131" interp="linr"  time="-9999999/1" value="0" leadInLength="0/1"  />
              </VectorParam>
              <InterpolatingParam id="1132" interp="linr"  time="-9999999/1" value="1" leadInLength="0/1"  name="opacity"/>
              <InterpolatingParam id="1133" interp="linr"  time="0/1" value="0" leadInLength="0/1"  name="cursorOpacity"/>
              <InterpolatingParam id="1134" interp="linr"  time="0/1" value="0" leadInLength="0/1"  name="cursorScale"/>
             </Parameters>
             <Attributes>
              <Attribute id="1135" value="" name="ident"/>
             </Attributes>
             <ExtraData>
              <Entry key="ZoomPanBin">
               <ZoomPanBin id="1136"  >
                <ZoomPanKeyframes>
                 <ZoomPanKeyframe id="1137" timeRangeEnd="-9999999/1" timeRangeDuration="0/1" interpolaterName="linr"  />
                </ZoomPanKeyframes>
               </ZoomPanBin>
              </Entry>
              <Entry key="CursorEffectBin">
               <CursorEffectBin id="1138"  >
                <CursorEffectKeyframes>
                </CursorEffectKeyframes>
               </CursorEffectBin>
              </Entry>
             </ExtraData>
            </ScreenVMFile>
            <MetaData>
             <entry key="AutoAppliedSmartFocus" val="False"/>
             <entry key="WinSubProjectDisplayName" val=""/>
            </MetaData>
           </UnifiedMedia>
           <UnifiedMedia id="1139"  >
            <AMFile id="1140" start="2654" duration="381" scalar="1/1" mediaStart="3116/1" mediaDuration="381/1" trackNumber="1" src="4" channelNumber="0,1" >
             <Parameters>
              <InterpolatingParam id="1141" interp="linr"  time="0/1" value="1" leadInLength="0/1"  name="volume"/>
              <Parameter id="1142"  name="captions"/>
             </Parameters>
             <Attributes>
              <Attribute id="1143" value="" name="ident"/>
              <Attribute id="1144" value="44100" name="sampleRate"/>
              <Attribute id="1145" value="16" name="bitDepth"/>
              <Attribute id="1146" value="1" name="gain"/>
              <Attribute id="1147" value="0" name="mixToMono"/>
             </Attributes>
            </AMFile>
            <ScreenVMFile id="1148" start="2654" duration="381" scalar="1/1" mediaStart="3116/1" mediaDuration="381/1" trackNumber="0" src="4" >
             <Transformer>
              <VectorParam id="1149"  name="translation">
               <InterpolatingParam id="1150" interp="linr"  time="-9999999/1" value="0" leadInLength="0/1"  />
               <InterpolatingParam id="1151" interp="linr"  time="-9999999/1" value="0" leadInLength="0/1"  />
               <InterpolatingParam id="1152" interp="linr"  time="-9999999/1" value="0" leadInLength="0/1"  />
              </VectorParam>
              <VectorParam id="1153"  name="rotation">
               <InterpolatingParam id="1154" interp="linr"  time="-9999999/1" value="0" leadInLength="0/1"  />
               <InterpolatingParam id="1155" interp="linr"  time="-9999999/1" value="0" leadInLength="0/1"  />
               <InterpolatingParam id="1156" interp="linr"  time="-9999999/1" value="0" leadInLength="0/1"  />
              </VectorParam>
              <VectorParam id="1157"  name="shear">
               <InterpolatingParam id="1158" interp="linr"  time="-9999999/1" value="0" leadInLength="0/1"  />
               <InterpolatingParam id="1159" interp="linr"  time="-9999999/1" value="0" leadInLength="0/1"  />
               <InterpolatingParam id="1160" interp="linr"  time="-9999999/1" value="0" leadInLength="0/1"  />
              </VectorParam>
              <VectorParam id="1161"  name="scale">
               <InterpolatingParam id="1162" interp="linr"  time="-9999999/1" value="1" leadInLength="0/1"  />
               <InterpolatingParam id="1163" interp="linr"  time="-9999999/1" value="1" leadInLength="0/1"  />
               <InterpolatingParam id="1164" interp="linr"  time="-9999999/1" value="1" leadInLength="0/1"  />
              </VectorParam>
              <VectorParam id="1165"  name="anchor">
               <InterpolatingParam id="1166" interp="linr"  time="0/1" value="0" leadInLength="0/1"  />
               <InterpolatingParam id="1167" interp="linr"  time="0/1" value="0" leadInLength="0/1"  />
               <InterpolatingParam id="1168" interp="linr"  time="0/1" value="0" leadInLength="0/1"  />
              </VectorParam>
             </Transformer>
             <Parameters>
              <VectorParam id="1169"  name="sourceCrop">
               <InterpolatingParam id="1170" interp="linr"  time="0/1" value="0" leadInLength="0/1"  />
               <InterpolatingParam id="1171" interp="linr"  time="0/1" value="0" leadInLength="0/1"  />
               <InterpolatingParam id="1172" interp="linr"  time="0/1" value="0" leadInLength="0/1"  />
               <InterpolatingParam id="1173" interp="linr"  time="0/1" value="0" leadInLength="0/1"  />
              </VectorParam>
              <VectorParam id="1174"  name="geometryCrop">
               <InterpolatingParam id="1175" interp="linr"  time="-9999999/1" value="0" leadInLength="0/1"  />
               <InterpolatingParam id="1176" interp="linr"  time="-9999999/1" value="0" leadInLength="0/1"  />
               <InterpolatingParam id="1177" interp="linr"  time="-9999999/1" value="0" leadInLength="0/1"  />
               <InterpolatingParam id="1178" interp="linr"  time="-9999999/1" value="0" leadInLength="0/1"  />
              </VectorParam>
              <InterpolatingParam id="1179" interp="linr"  time="-9999999/1" value="1" leadInLength="0/1"  name="opacity"/>
              <InterpolatingParam id="1180" interp="linr"  time="0/1" value="0" leadInLength="0/1"  name="cursorOpacity"/>
              <InterpolatingParam id="1181" interp="linr"  time="0/1" value="0" leadInLength="0/1"  name="cursorScale"/>
             </Parameters>
             <Attributes>
              <Attribute id="1182" value="" name="ident"/>
             </Attributes>
             <ExtraData>
              <Entry key="ZoomPanBin">
               <ZoomPanBin id="1183"  >
                <ZoomPanKeyframes>
                 <ZoomPanKeyframe id="1184" timeRangeEnd="-9999999/1" timeRangeDuration="0/1" interpolaterName="linr"  />
                </ZoomPanKeyframes>
               </ZoomPanBin>
              </Entry>
              <Entry key="CursorEffectBin">
               <CursorEffectBin id="1185"  >
                <CursorEffectKeyframes>
                </CursorEffectKeyframes>
               </CursorEffectBin>
              </Entry>
             </ExtraData>
            </ScreenVMFile>
            <MetaData>
             <entry key="AutoAppliedSmartFocus" val="False"/>
             <entry key="WinSubProjectDisplayName" val=""/>
            </MetaData>
           </UnifiedMedia>
           <UnifiedMedia id="1186"  >
            <AMFile id="1187" start="3035" duration="693" scalar="1/1" mediaStart="3523/1" mediaDuration="693/1" trackNumber="1" src="4" channelNumber="0,1" >
             <Parameters>
              <InterpolatingParam id="1188" interp="linr"  time="0/1" value="1" leadInLength="0/1"  name="volume"/>
              <Parameter id="1189"  name="captions"/>
             </Parameters>
             <Attributes>
              <Attribute id="1190" value="" name="ident"/>
              <Attribute id="1191" value="44100" name="sampleRate"/>
              <Attribute id="1192" value="16" name="bitDepth"/>
              <Attribute id="1193" value="1" name="gain"/>
              <Attribute id="1194" value="0" name="mixToMono"/>
             </Attributes>
            </AMFile>
            <ScreenVMFile id="1195" start="3035" duration="693" scalar="1/1" mediaStart="3523/1" mediaDuration="693/1" trackNumber="0" src="4" >
             <Transformer>
              <VectorParam id="1196"  name="translation">
               <InterpolatingParam id="1197" interp="linr"  time="-9999999/1" value="0" leadInLength="0/1"  />
               <InterpolatingParam id="1198" interp="linr"  time="-9999999/1" value="0" leadInLength="0/1"  />
               <InterpolatingParam id="1199" interp="linr"  time="-9999999/1" value="0" leadInLength="0/1"  />
              </VectorParam>
              <VectorParam id="1200"  name="rotation">
               <InterpolatingParam id="1201" interp="linr"  time="-9999999/1" value="0" leadInLength="0/1"  />
               <InterpolatingParam id="1202" interp="linr"  time="-9999999/1" value="0" leadInLength="0/1"  />
               <InterpolatingParam id="1203" interp="linr"  time="-9999999/1" value="0" leadInLength="0/1"  />
              </VectorParam>
              <VectorParam id="1204"  name="shear">
               <InterpolatingParam id="1205" interp="linr"  time="-9999999/1" value="0" leadInLength="0/1"  />
               <InterpolatingParam id="1206" interp="linr"  time="-9999999/1" value="0" leadInLength="0/1"  />
               <InterpolatingParam id="1207" interp="linr"  time="-9999999/1" value="0" leadInLength="0/1"  />
              </VectorParam>
              <VectorParam id="1208"  name="scale">
               <InterpolatingParam id="1209" interp="linr"  time="-9999999/1" value="1" leadInLength="0/1"  />
               <InterpolatingParam id="1210" interp="linr"  time="-9999999/1" value="1" leadInLength="0/1"  />
               <InterpolatingParam id="1211" interp="linr"  time="-9999999/1" value="1" leadInLength="0/1"  />
              </VectorParam>
              <VectorParam id="1212"  name="anchor">
               <InterpolatingParam id="1213" interp="linr"  time="0/1" value="0" leadInLength="0/1"  />
               <InterpolatingParam id="1214" interp="linr"  time="0/1" value="0" leadInLength="0/1"  />
               <InterpolatingParam id="1215" interp="linr"  time="0/1" value="0" leadInLength="0/1"  />
              </VectorParam>
             </Transformer>
             <Parameters>
              <VectorParam id="1216"  name="sourceCrop">
               <InterpolatingParam id="1217" interp="linr"  time="0/1" value="0" leadInLength="0/1"  />
               <InterpolatingParam id="1218" interp="linr"  time="0/1" value="0" leadInLength="0/1"  />
               <InterpolatingParam id="1219" interp="linr"  time="0/1" value="0" leadInLength="0/1"  />
               <InterpolatingParam id="1220" interp="linr"  time="0/1" value="0" leadInLength="0/1"  />
              </VectorParam>
              <VectorParam id="1221"  name="geometryCrop">
               <InterpolatingParam id="1222" interp="linr"  time="-9999999/1" value="0" leadInLength="0/1"  />
               <InterpolatingParam id="1223" interp="linr"  time="-9999999/1" value="0" leadInLength="0/1"  />
               <InterpolatingParam id="1224" interp="linr"  time="-9999999/1" value="0" leadInLength="0/1"  />
               <InterpolatingParam id="1225" interp="linr"  time="-9999999/1" value="0" leadInLength="0/1"  />
              </VectorParam>
              <InterpolatingParam id="1226" interp="linr"  time="-9999999/1" value="1" leadInLength="0/1"  name="opacity"/>
              <InterpolatingParam id="1227" interp="linr"  time="0/1" value="0" leadInLength="0/1"  name="cursorOpacity"/>
              <InterpolatingParam id="1228" interp="linr"  time="0/1" value="0" leadInLength="0/1"  name="cursorScale"/>
             </Parameters>
             <Attributes>
              <Attribute id="1229" value="" name="ident"/>
             </Attributes>
             <ExtraData>
              <Entry key="ZoomPanBin">
               <ZoomPanBin id="1230"  >
                <ZoomPanKeyframes>
                 <ZoomPanKeyframe id="1231" timeRangeEnd="-9999999/1" timeRangeDuration="0/1" interpolaterName="linr"  />
                </ZoomPanKeyframes>
               </ZoomPanBin>
              </Entry>
              <Entry key="CursorEffectBin">
               <CursorEffectBin id="1232"  >
                <CursorEffectKeyframes>
                </CursorEffectKeyframes>
               </CursorEffectBin>
              </Entry>
             </ExtraData>
            </ScreenVMFile>
            <MetaData>
             <entry key="AutoAppliedSmartFocus" val="False"/>
             <entry key="WinSubProjectDisplayName" val=""/>
            </MetaData>
           </UnifiedMedia>
           <UnifiedMedia id="1233"  >
            <AMFile id="1234" start="3728" duration="400" scalar="1/1" mediaStart="4291/1" mediaDuration="400/1" trackNumber="1" src="4" channelNumber="0,1" >
             <Parameters>
              <InterpolatingParam id="1235" interp="linr"  time="0/1" value="1" leadInLength="0/1"  name="volume"/>
              <Parameter id="1236"  name="captions"/>
             </Parameters>
             <Attributes>
              <Attribute id="1237" value="" name="ident"/>
              <Attribute id="1238" value="44100" name="sampleRate"/>
              <Attribute id="1239" value="16" name="bitDepth"/>
              <Attribute id="1240" value="1" name="gain"/>
              <Attribute id="1241" value="0" name="mixToMono"/>
             </Attributes>
            </AMFile>
            <ScreenVMFile id="1242" start="3728" duration="400" scalar="1/1" mediaStart="4291/1" mediaDuration="400/1" trackNumber="0" src="4" >
             <Transformer>
              <VectorParam id="1243"  name="translation">
               <InterpolatingParam id="1244" interp="linr"  time="-9999999/1" value="0" leadInLength="0/1"  />
               <InterpolatingParam id="1245" interp="linr"  time="-9999999/1" value="0" leadInLength="0/1"  />
               <InterpolatingParam id="1246" interp="linr"  time="-9999999/1" value="0" leadInLength="0/1"  />
              </VectorParam>
              <VectorParam id="1247"  name="rotation">
               <InterpolatingParam id="1248" interp="linr"  time="-9999999/1" value="0" leadInLength="0/1"  />
               <InterpolatingParam id="1249" interp="linr"  time="-9999999/1" value="0" leadInLength="0/1"  />
               <InterpolatingParam id="1250" interp="linr"  time="-9999999/1" value="0" leadInLength="0/1"  />
              </VectorParam>
              <VectorParam id="1251"  name="shear">
               <InterpolatingParam id="1252" interp="linr"  time="-9999999/1" value="0" leadInLength="0/1"  />
               <InterpolatingParam id="1253" interp="linr"  time="-9999999/1" value="0" leadInLength="0/1"  />
               <InterpolatingParam id="1254" interp="linr"  time="-9999999/1" value="0" leadInLength="0/1"  />
              </VectorParam>
              <VectorParam id="1255"  name="scale">
               <InterpolatingParam id="1256" interp="linr"  time="-9999999/1" value="1" leadInLength="0/1"  />
               <InterpolatingParam id="1257" interp="linr"  time="-9999999/1" value="1" leadInLength="0/1"  />
               <InterpolatingParam id="1258" interp="linr"  time="-9999999/1" value="1" leadInLength="0/1"  />
              </VectorParam>
              <VectorParam id="1259"  name="anchor">
               <InterpolatingParam id="1260" interp="linr"  time="0/1" value="0" leadInLength="0/1"  />
               <InterpolatingParam id="1261" interp="linr"  time="0/1" value="0" leadInLength="0/1"  />
               <InterpolatingParam id="1262" interp="linr"  time="0/1" value="0" leadInLength="0/1"  />
              </VectorParam>
             </Transformer>
             <Parameters>
              <VectorParam id="1263"  name="sourceCrop">
               <InterpolatingParam id="1264" interp="linr"  time="0/1" value="0" leadInLength="0/1"  />
               <InterpolatingParam id="1265" interp="linr"  time="0/1" value="0" leadInLength="0/1"  />
               <InterpolatingParam id="1266" interp="linr"  time="0/1" value="0" leadInLength="0/1"  />
               <InterpolatingParam id="1267" interp="linr"  time="0/1" value="0" leadInLength="0/1"  />
              </VectorParam>
              <VectorParam id="1268"  name="geometryCrop">
               <InterpolatingParam id="1269" interp="linr"  time="-9999999/1" value="0" leadInLength="0/1"  />
               <InterpolatingParam id="1270" interp="linr"  time="-9999999/1" value="0" leadInLength="0/1"  />
               <InterpolatingParam id="1271" interp="linr"  time="-9999999/1" value="0" leadInLength="0/1"  />
               <InterpolatingParam id="1272" interp="linr"  time="-9999999/1" value="0" leadInLength="0/1"  />
              </VectorParam>
              <InterpolatingParam id="1273" interp="linr"  time="-9999999/1" value="1" leadInLength="0/1"  name="opacity"/>
              <InterpolatingParam id="1274" interp="linr"  time="0/1" value="0" leadInLength="0/1"  name="cursorOpacity"/>
              <InterpolatingParam id="1275" interp="linr"  time="0/1" value="0" leadInLength="0/1"  name="cursorScale"/>
             </Parameters>
             <Attributes>
              <Attribute id="1276" value="" name="ident"/>
             </Attributes>
             <ExtraData>
              <Entry key="ZoomPanBin">
               <ZoomPanBin id="1277"  >
                <ZoomPanKeyframes>
                 <ZoomPanKeyframe id="1278" timeRangeEnd="-9999999/1" timeRangeDuration="0/1" interpolaterName="linr"  />
                </ZoomPanKeyframes>
               </ZoomPanBin>
              </Entry>
              <Entry key="CursorEffectBin">
               <CursorEffectBin id="1279"  >
                <CursorEffectKeyframes>
                </CursorEffectKeyframes>
               </CursorEffectBin>
              </Entry>
             </ExtraData>
            </ScreenVMFile>
            <MetaData>
             <entry key="AutoAppliedSmartFocus" val="False"/>
             <entry key="WinSubProjectDisplayName" val=""/>
            </MetaData>
           </UnifiedMedia>
          </Medias>
         </GenericTrack>
        </StitchedMedia>
        <StitchedMedia id="1280" start="2487" duration="1409" scalar="1/1" mediaStart="2656/1" mediaDuration="1409/1" minMediaStart="0/1" >
         <Transformer>
          <VectorParam id="1281"  name="translation">
           <InterpolatingParam id="1282" interp="linr"  time="-9999999/1" value="4.3409720262848312e-011" leadInLength="0/1"  interpolater="leadin-linr"  />
           <InterpolatingParam id="1283" interp="linr"  time="-9999999/1" value="-1.3689790042311264e-011" leadInLength="0/1"  interpolater="leadin-linr"  />
           <InterpolatingParam id="1284" interp="linr"  time="-9999999/1" value="0" leadInLength="0/1"  interpolater="leadin-linr"  />
          </VectorParam>
          <VectorParam id="1285"  name="rotation">
           <InterpolatingParam id="1286" interp="linr"  time="-9999999/1" value="0" leadInLength="0/1"  interpolater="leadin-linr"  />
           <InterpolatingParam id="1287" interp="linr"  time="-9999999/1" value="0" leadInLength="0/1"  interpolater="leadin-linr"  />
           <InterpolatingParam id="1288" interp="linr"  time="-9999999/1" value="0" leadInLength="0/1"  interpolater="leadin-linr"  />
          </VectorParam>
          <VectorParam id="1289"  name="shear">
           <InterpolatingParam id="1290" interp="linr"  time="-9999999/1" value="0" leadInLength="0/1"  interpolater="leadin-linr"  />
           <InterpolatingParam id="1291" interp="linr"  time="-9999999/1" value="0" leadInLength="0/1"  interpolater="leadin-linr"  />
           <InterpolatingParam id="1292" interp="linr"  time="-9999999/1" value="0" leadInLength="0/1"  interpolater="leadin-linr"  />
          </VectorParam>
          <VectorParam id="1293"  name="scale">
           <InterpolatingParam id="1294" interp="linr"  time="-9999999/1" value="0.70833333333333337" leadInLength="0/1"  interpolater="leadin-linr"  />
           <InterpolatingParam id="1295" interp="linr"  time="-9999999/1" value="0.70833333333333337" leadInLength="0/1"  interpolater="leadin-linr"  />
           <InterpolatingParam id="1296" interp="linr"  time="-9999999/1" value="1" leadInLength="0/1"  interpolater="leadin-linr"  />
          </VectorParam>
          <VectorParam id="1297"  name="anchor">
           <InterpolatingParam id="1298" interp="linr"  time="0/1" value="0" leadInLength="0/1"  />
           <InterpolatingParam id="1299" interp="linr"  time="0/1" value="0" leadInLength="0/1"  />
           <InterpolatingParam id="1300" interp="linr"  time="0/1" value="0" leadInLength="0/1"  />
          </VectorParam>
         </Transformer>
         <Parameters>
          <VectorParam id="1301"  name="sourceCrop">
           <InterpolatingParam id="1302" interp="linr"  time="0/1" value="0" leadInLength="0/1"  />
           <InterpolatingParam id="1303" interp="linr"  time="0/1" value="0" leadInLength="0/1"  />
           <InterpolatingParam id="1304" interp="linr"  time="0/1" value="0" leadInLength="0/1"  />
           <InterpolatingParam id="1305" interp="linr"  time="0/1" value="0" leadInLength="0/1"  />
          </VectorParam>
          <VectorParam id="1306"  name="geometryCrop">
           <InterpolatingParam id="1307" interp="linr"  time="-9999999/1" value="0" leadInLength="0/1"  interpolater="leadin-linr"  />
           <InterpolatingParam id="1308" interp="linr"  time="-9999999/1" value="0" leadInLength="0/1"  interpolater="leadin-linr"  />
           <InterpolatingParam id="1309" interp="linr"  time="-9999999/1" value="0" leadInLength="0/1"  interpolater="leadin-linr"  />
           <InterpolatingParam id="1310" interp="linr"  time="-9999999/1" value="0" leadInLength="0/1"  interpolater="leadin-linr"  />
          </VectorParam>
          <InterpolatingParam id="1311" interp="linr"  time="-9999999/1" value="1" leadInLength="0/1"  interpolater="leadin-linr"  name="opacity"/>
          <InterpolatingParam id="1312" interp="linr"  time="0/1" value="1" leadInLength="0/1"  name="cursorOpacity"/>
          <InterpolatingParam id="1313" interp="linr"  time="0/1" value="1" leadInLength="0/1"  name="cursorScale"/>
          <InterpolatingParam id="1314" interp="linr"  time="0/1" value="1" leadInLength="0/1"  name="volume"/>
          <Parameter id="1315"  name="captions"/>
         </Parameters>
         <Effects>
          <GenericEffect id="1316" name = "CursorBaseEffectName" >
           <Parameters>
           <InterpolatingParam id="1317" interp="linr"  time="-9999999/1" value="1" leadInLength="0/1"   name="cursorSize"/>
           <InterpolatingParam id="1318" interp="linr"  time="-9999999/1" value="0" leadInLength="0/1"   name="highlightBlurRadius"/>
           <InterpolatingParam id="1319" interp="linr"  time="-9999999/1" value="0" leadInLength="0/1"   name="highlightColorBlue"/>
           <InterpolatingParam id="1320" interp="linr"  time="-9999999/1" value="255" leadInLength="0/1"   name="highlightColorGreen"/>
           <InterpolatingParam id="1321" interp="linr"  time="-9999999/1" value="255" leadInLength="0/1"   name="highlightColorRed"/>
           <InterpolatingParam id="1322" interp="linr"  time="-9999999/1" value="5" leadInLength="0/1"   name="highlightFeatherSize"/>
           <InterpolatingParam id="1323" interp="linr"  time="-9999999/1" value="2" leadInLength="0/1"   name="highlightMagnification"/>
           <InterpolatingParam id="1324" interp="linr"  time="-9999999/1" value="1" leadInLength="0/1"   name="highlightOpacity"/>
           <InterpolatingParam id="1325" interp="linr"  time="-9999999/1" value="45" leadInLength="0/1"   name="highlightSize"/>
           <Parameter id="1326"   name="highlightType">
            <Keyframes>
            <Keyframe id="1327"  time="-9999999/1" value="0" leadInLength="0/1"  />
            </Keyframes>
           </Parameter>
           <InterpolatingParam id="1328" interp="linr"  time="-9999999/1" value="0" leadInLength="0/1"   name="leftClickColorBlue"/>
           <InterpolatingParam id="1329" interp="linr"  time="-9999999/1" value="0" leadInLength="0/1"   name="leftClickColorGreen"/>
           <InterpolatingParam id="1330" interp="linr"  time="-9999999/1" value="255" leadInLength="0/1"   name="leftClickColorRed"/>
           <InterpolatingParam id="1331" interp="linr"  time="-9999999/1" value="0.80000000000000004" leadInLength="0/1"   name="leftClickDuration"/>
           <InterpolatingParam id="1332" interp="linr"  time="-9999999/1" value="20" leadInLength="0/1"   name="leftClickSize"/>
           <Parameter id="1333"   name="leftClickSoundFilename">
            <Keyframes>
            <Keyframe id="1334"  time="-9999999/1" value="" leadInLength="0/1"  />
            </Keyframes>
           </Parameter>
           <InterpolatingParam id="1335" interp="linr"  time="-9999999/1" value="1" leadInLength="0/1"   name="leftClickSoundVolume"/>
           <Parameter id="1336"   name="leftClickType">
            <Keyframes>
            <Keyframe id="1337"  time="-9999999/1" value="0" leadInLength="0/1"  />
            </Keyframes>
           </Parameter>
           <InterpolatingParam id="1338" interp="linr"  time="-9999999/1" value="1" leadInLength="0/1"   name="opacity"/>
           <InterpolatingParam id="1339" interp="linr"  time="-9999999/1" value="255" leadInLength="0/1"   name="rightClickColorBlue"/>
           <InterpolatingParam id="1340" interp="linr"  time="-9999999/1" value="0" leadInLength="0/1"   name="rightClickColorGreen"/>
           <InterpolatingParam id="1341" interp="linr"  time="-9999999/1" value="0" leadInLength="0/1"   name="rightClickColorRed"/>
           <InterpolatingParam id="1342" interp="linr"  time="-9999999/1" value="0.80000000000000004" leadInLength="0/1"   name="rightClickDuration"/>
           <InterpolatingParam id="1343" interp="linr"  time="-9999999/1" value="20" leadInLength="0/1"   name="rightClickSize"/>
           <Parameter id="1344"   name="rightClickSoundFilename">
            <Keyframes>
            <Keyframe id="1345"  time="-9999999/1" value="" leadInLength="0/1"  />
            </Keyframes>
           </Parameter>
           <InterpolatingParam id="1346" interp="linr"  time="-9999999/1" value="1" leadInLength="0/1"   name="rightClickSoundVolume"/>
           <Parameter id="1347"   name="rightClickType">
            <Keyframes>
            <Keyframe id="1348"  time="-9999999/1" value="0" leadInLength="0/1"  />
            </Keyframes>
           </Parameter>
           </Parameters>
           <MetaData>
            <entry key="effectIndex" val="0"/>
           </MetaData>
          </GenericEffect>
         </Effects>
         <Attributes>
          <Attribute id="1349" value="" name="ident"/>
          <Attribute id="1350" value="0" name="mixToMono"/>
         </Attributes>
         <MetaData>
          <entry key="AutoAppliedSmartFocus" val="False"/>
          <entry key="WinSubProjectDisplayName" val=""/>
         </MetaData>
         <ExtraData>
          <Entry key="ZoomPanBin">
           <ZoomPanBin id="1351"  >
            <ZoomPanKeyframes>
             <ZoomPanKeyframe id="1352" timeRangeEnd="-9999999/1" timeRangeDuration="0/1" interpolaterName="linr"  />
            </ZoomPanKeyframes>
           </ZoomPanBin>
          </Entry>
          <Entry key="CursorEffectBin">
           <CursorEffectBin id="1353"  >
            <CursorEffectKeyframes>
             <CursorEffectKeyframe id="1354" timeRangeEnd="-9999999/1" timeRangeDuration="0/1" interpolaterName=""  />
            </CursorEffectKeyframes>
           </CursorEffectBin>
          </Entry>
         </ExtraData>
         <GenericTrack id="1355"  >
          <Attributes>
           <Attribute id="1356" value="" name="ident"/>
           <Attribute id="1357" value="0" name="audioMuted"/>
           <Attribute id="1358" value="0" name="videoHidden"/>
          </Attributes>
          <MetaData>
           <entry key="IsLocked" val="False"/>
           <entry key="WinTrackHeight" val="0"/>
          </MetaData>
          <Medias>
           <UnifiedMedia id="1359"  >
            <AMFile id="1360" start="0" duration="2038" scalar="1/1" mediaStart="0/1" mediaDuration="2038/1" trackNumber="1" src="4" channelNumber="0,1" >
             <Parameters>
              <InterpolatingParam id="1361" interp="linr"  time="0/1" value="1" leadInLength="0/1"  name="volume"/>
              <Parameter id="1362"  name="captions"/>
             </Parameters>
             <Attributes>
              <Attribute id="1363" value="" name="ident"/>
              <Attribute id="1364" value="44100" name="sampleRate"/>
              <Attribute id="1365" value="16" name="bitDepth"/>
              <Attribute id="1366" value="1" name="gain"/>
              <Attribute id="1367" value="0" name="mixToMono"/>
             </Attributes>
            </AMFile>
            <ScreenVMFile id="1368" start="0" duration="2038" scalar="1/1" mediaStart="0/1" mediaDuration="2038/1" trackNumber="0" src="4" >
             <Transformer>
              <VectorParam id="1369"  name="translation">
               <InterpolatingParam id="1370" interp="linr"  time="-9999999/1" value="0" leadInLength="0/1"  />
               <InterpolatingParam id="1371" interp="linr"  time="-9999999/1" value="0" leadInLength="0/1"  />
               <InterpolatingParam id="1372" interp="linr"  time="-9999999/1" value="0" leadInLength="0/1"  />
              </VectorParam>
              <VectorParam id="1373"  name="rotation">
               <InterpolatingParam id="1374" interp="linr"  time="-9999999/1" value="0" leadInLength="0/1"  />
               <InterpolatingParam id="1375" interp="linr"  time="-9999999/1" value="0" leadInLength="0/1"  />
               <InterpolatingParam id="1376" interp="linr"  time="-9999999/1" value="0" leadInLength="0/1"  />
              </VectorParam>
              <VectorParam id="1377"  name="shear">
               <InterpolatingParam id="1378" interp="linr"  time="-9999999/1" value="0" leadInLength="0/1"  />
               <InterpolatingParam id="1379" interp="linr"  time="-9999999/1" value="0" leadInLength="0/1"  />
               <InterpolatingParam id="1380" interp="linr"  time="-9999999/1" value="0" leadInLength="0/1"  />
              </VectorParam>
              <VectorParam id="1381"  name="scale">
               <InterpolatingParam id="1382" interp="linr"  time="-9999999/1" value="1" leadInLength="0/1"  />
               <InterpolatingParam id="1383" interp="linr"  time="-9999999/1" value="1" leadInLength="0/1"  />
               <InterpolatingParam id="1384" interp="linr"  time="-9999999/1" value="1" leadInLength="0/1"  />
              </VectorParam>
              <VectorParam id="1385"  name="anchor">
               <InterpolatingParam id="1386" interp="linr"  time="0/1" value="0" leadInLength="0/1"  />
               <InterpolatingParam id="1387" interp="linr"  time="0/1" value="0" leadInLength="0/1"  />
               <InterpolatingParam id="1388" interp="linr"  time="0/1" value="0" leadInLength="0/1"  />
              </VectorParam>
             </Transformer>
             <Parameters>
              <VectorParam id="1389"  name="sourceCrop">
               <InterpolatingParam id="1390" interp="linr"  time="0/1" value="0" leadInLength="0/1"  />
               <InterpolatingParam id="1391" interp="linr"  time="0/1" value="0" leadInLength="0/1"  />
               <InterpolatingParam id="1392" interp="linr"  time="0/1" value="0" leadInLength="0/1"  />
               <InterpolatingParam id="1393" interp="linr"  time="0/1" value="0" leadInLength="0/1"  />
              </VectorParam>
              <VectorParam id="1394"  name="geometryCrop">
               <InterpolatingParam id="1395" interp="linr"  time="-9999999/1" value="0" leadInLength="0/1"  />
               <InterpolatingParam id="1396" interp="linr"  time="-9999999/1" value="0" leadInLength="0/1"  />
               <InterpolatingParam id="1397" interp="linr"  time="-9999999/1" value="0" leadInLength="0/1"  />
               <InterpolatingParam id="1398" interp="linr"  time="-9999999/1" value="0" leadInLength="0/1"  />
              </VectorParam>
              <InterpolatingParam id="1399" interp="linr"  time="-9999999/1" value="1" leadInLength="0/1"  name="opacity"/>
              <InterpolatingParam id="1400" interp="linr"  time="0/1" value="0" leadInLength="0/1"  name="cursorOpacity"/>
              <InterpolatingParam id="1401" interp="linr"  time="0/1" value="0" leadInLength="0/1"  name="cursorScale"/>
             </Parameters>
             <Attributes>
              <Attribute id="1402" value="" name="ident"/>
             </Attributes>
             <ExtraData>
              <Entry key="ZoomPanBin">
               <ZoomPanBin id="1403"  >
                <ZoomPanKeyframes>
                 <ZoomPanKeyframe id="1404" timeRangeEnd="-9999999/1" timeRangeDuration="0/1" interpolaterName="linr"  />
                </ZoomPanKeyframes>
               </ZoomPanBin>
              </Entry>
              <Entry key="CursorEffectBin">
               <CursorEffectBin id="1405"  >
                <CursorEffectKeyframes>
                </CursorEffectKeyframes>
               </CursorEffectBin>
              </Entry>
             </ExtraData>
            </ScreenVMFile>
            <MetaData>
             <entry key="AutoAppliedSmartFocus" val="False"/>
             <entry key="WinSubProjectDisplayName" val=""/>
            </MetaData>
           </UnifiedMedia>
           <UnifiedMedia id="1406"  >
            <AMFile id="1407" start="2038" duration="192" scalar="1/1" mediaStart="2067/1" mediaDuration="192/1" trackNumber="1" src="4" channelNumber="0,1" >
             <Parameters>
              <InterpolatingParam id="1408" interp="linr"  time="0/1" value="1" leadInLength="0/1"  name="volume"/>
              <Parameter id="1409"  name="captions"/>
             </Parameters>
             <Attributes>
              <Attribute id="1410" value="" name="ident"/>
              <Attribute id="1411" value="44100" name="sampleRate"/>
              <Attribute id="1412" value="16" name="bitDepth"/>
              <Attribute id="1413" value="1" name="gain"/>
              <Attribute id="1414" value="0" name="mixToMono"/>
             </Attributes>
            </AMFile>
            <ScreenVMFile id="1415" start="2038" duration="192" scalar="1/1" mediaStart="2067/1" mediaDuration="192/1" trackNumber="0" src="4" >
             <Transformer>
              <VectorParam id="1416"  name="translation">
               <InterpolatingParam id="1417" interp="linr"  time="-9999999/1" value="0" leadInLength="0/1"  />
               <InterpolatingParam id="1418" interp="linr"  time="-9999999/1" value="0" leadInLength="0/1"  />
               <InterpolatingParam id="1419" interp="linr"  time="-9999999/1" value="0" leadInLength="0/1"  />
              </VectorParam>
              <VectorParam id="1420"  name="rotation">
               <InterpolatingParam id="1421" interp="linr"  time="-9999999/1" value="0" leadInLength="0/1"  />
               <InterpolatingParam id="1422" interp="linr"  time="-9999999/1" value="0" leadInLength="0/1"  />
               <InterpolatingParam id="1423" interp="linr"  time="-9999999/1" value="0" leadInLength="0/1"  />
              </VectorParam>
              <VectorParam id="1424"  name="shear">
               <InterpolatingParam id="1425" interp="linr"  time="-9999999/1" value="0" leadInLength="0/1"  />
               <InterpolatingParam id="1426" interp="linr"  time="-9999999/1" value="0" leadInLength="0/1"  />
               <InterpolatingParam id="1427" interp="linr"  time="-9999999/1" value="0" leadInLength="0/1"  />
              </VectorParam>
              <VectorParam id="1428"  name="scale">
               <InterpolatingParam id="1429" interp="linr"  time="-9999999/1" value="1" leadInLength="0/1"  />
               <InterpolatingParam id="1430" interp="linr"  time="-9999999/1" value="1" leadInLength="0/1"  />
               <InterpolatingParam id="1431" interp="linr"  time="-9999999/1" value="1" leadInLength="0/1"  />
              </VectorParam>
              <VectorParam id="1432"  name="anchor">
               <InterpolatingParam id="1433" interp="linr"  time="0/1" value="0" leadInLength="0/1"  />
               <InterpolatingParam id="1434" interp="linr"  time="0/1" value="0" leadInLength="0/1"  />
               <InterpolatingParam id="1435" interp="linr"  time="0/1" value="0" leadInLength="0/1"  />
              </VectorParam>
             </Transformer>
             <Parameters>
              <VectorParam id="1436"  name="sourceCrop">
               <InterpolatingParam id="1437" interp="linr"  time="0/1" value="0" leadInLength="0/1"  />
               <InterpolatingParam id="1438" interp="linr"  time="0/1" value="0" leadInLength="0/1"  />
               <InterpolatingParam id="1439" interp="linr"  time="0/1" value="0" leadInLength="0/1"  />
               <InterpolatingParam id="1440" interp="linr"  time="0/1" value="0" leadInLength="0/1"  />
              </VectorParam>
              <VectorParam id="1441"  name="geometryCrop">
               <InterpolatingParam id="1442" interp="linr"  time="-9999999/1" value="0" leadInLength="0/1"  />
               <InterpolatingParam id="1443" interp="linr"  time="-9999999/1" value="0" leadInLength="0/1"  />
               <InterpolatingParam id="1444" interp="linr"  time="-9999999/1" value="0" leadInLength="0/1"  />
               <InterpolatingParam id="1445" interp="linr"  time="-9999999/1" value="0" leadInLength="0/1"  />
              </VectorParam>
              <InterpolatingParam id="1446" interp="linr"  time="-9999999/1" value="1" leadInLength="0/1"  name="opacity"/>
              <InterpolatingParam id="1447" interp="linr"  time="0/1" value="0" leadInLength="0/1"  name="cursorOpacity"/>
              <InterpolatingParam id="1448" interp="linr"  time="0/1" value="0" leadInLength="0/1"  name="cursorScale"/>
             </Parameters>
             <Attributes>
              <Attribute id="1449" value="" name="ident"/>
             </Attributes>
             <ExtraData>
              <Entry key="ZoomPanBin">
               <ZoomPanBin id="1450"  >
                <ZoomPanKeyframes>
                 <ZoomPanKeyframe id="1451" timeRangeEnd="-9999999/1" timeRangeDuration="0/1" interpolaterName="linr"  />
                </ZoomPanKeyframes>
               </ZoomPanBin>
              </Entry>
              <Entry key="CursorEffectBin">
               <CursorEffectBin id="1452"  >
                <CursorEffectKeyframes>
                </CursorEffectKeyframes>
               </CursorEffectBin>
              </Entry>
             </ExtraData>
            </ScreenVMFile>
            <MetaData>
             <entry key="AutoAppliedSmartFocus" val="False"/>
             <entry key="WinSubProjectDisplayName" val=""/>
            </MetaData>
           </UnifiedMedia>
           <UnifiedMedia id="1453"  >
            <AMFile id="1454" start="2230" duration="376" scalar="1/1" mediaStart="2676/1" mediaDuration="376/1" trackNumber="1" src="4" channelNumber="0,1" >
             <Parameters>
              <InterpolatingParam id="1455" interp="linr"  time="0/1" value="1" leadInLength="0/1"  name="volume"/>
              <Parameter id="1456"  name="captions"/>
             </Parameters>
             <Attributes>
              <Attribute id="1457" value="" name="ident"/>
              <Attribute id="1458" value="44100" name="sampleRate"/>
              <Attribute id="1459" value="16" name="bitDepth"/>
              <Attribute id="1460" value="1" name="gain"/>
              <Attribute id="1461" value="0" name="mixToMono"/>
             </Attributes>
            </AMFile>
            <ScreenVMFile id="1462" start="2230" duration="376" scalar="1/1" mediaStart="2676/1" mediaDuration="376/1" trackNumber="0" src="4" >
             <Transformer>
              <VectorParam id="1463"  name="translation">
               <InterpolatingParam id="1464" interp="linr"  time="-9999999/1" value="0" leadInLength="0/1"  />
               <InterpolatingParam id="1465" interp="linr"  time="-9999999/1" value="0" leadInLength="0/1"  />
               <InterpolatingParam id="1466" interp="linr"  time="-9999999/1" value="0" leadInLength="0/1"  />
              </VectorParam>
              <VectorParam id="1467"  name="rotation">
               <InterpolatingParam id="1468" interp="linr"  time="-9999999/1" value="0" leadInLength="0/1"  />
               <InterpolatingParam id="1469" interp="linr"  time="-9999999/1" value="0" leadInLength="0/1"  />
               <InterpolatingParam id="1470" interp="linr"  time="-9999999/1" value="0" leadInLength="0/1"  />
              </VectorParam>
              <VectorParam id="1471"  name="shear">
               <InterpolatingParam id="1472" interp="linr"  time="-9999999/1" value="0" leadInLength="0/1"  />
               <InterpolatingParam id="1473" interp="linr"  time="-9999999/1" value="0" leadInLength="0/1"  />
               <InterpolatingParam id="1474" interp="linr"  time="-9999999/1" value="0" leadInLength="0/1"  />
              </VectorParam>
              <VectorParam id="1475"  name="scale">
               <InterpolatingParam id="1476" interp="linr"  time="-9999999/1" value="1" leadInLength="0/1"  />
               <InterpolatingParam id="1477" interp="linr"  time="-9999999/1" value="1" leadInLength="0/1"  />
               <InterpolatingParam id="1478" interp="linr"  time="-9999999/1" value="1" leadInLength="0/1"  />
              </VectorParam>
              <VectorParam id="1479"  name="anchor">
               <InterpolatingParam id="1480" interp="linr"  time="0/1" value="0" leadInLength="0/1"  />
               <InterpolatingParam id="1481" interp="linr"  time="0/1" value="0" leadInLength="0/1"  />
               <InterpolatingParam id="1482" interp="linr"  time="0/1" value="0" leadInLength="0/1"  />
              </VectorParam>
             </Transformer>
             <Parameters>
              <VectorParam id="1483"  name="sourceCrop">
               <InterpolatingParam id="1484" interp="linr"  time="0/1" value="0" leadInLength="0/1"  />
               <InterpolatingParam id="1485" interp="linr"  time="0/1" value="0" leadInLength="0/1"  />
               <InterpolatingParam id="1486" interp="linr"  time="0/1" value="0" leadInLength="0/1"  />
               <InterpolatingParam id="1487" interp="linr"  time="0/1" value="0" leadInLength="0/1"  />
              </VectorParam>
              <VectorParam id="1488"  name="geometryCrop">
               <InterpolatingParam id="1489" interp="linr"  time="-9999999/1" value="0" leadInLength="0/1"  />
               <InterpolatingParam id="1490" interp="linr"  time="-9999999/1" value="0" leadInLength="0/1"  />
               <InterpolatingParam id="1491" interp="linr"  time="-9999999/1" value="0" leadInLength="0/1"  />
               <InterpolatingParam id="1492" interp="linr"  time="-9999999/1" value="0" leadInLength="0/1"  />
              </VectorParam>
              <InterpolatingParam id="1493" interp="linr"  time="-9999999/1" value="1" leadInLength="0/1"  name="opacity"/>
              <InterpolatingParam id="1494" interp="linr"  time="0/1" value="0" leadInLength="0/1"  name="cursorOpacity"/>
              <InterpolatingParam id="1495" interp="linr"  time="0/1" value="0" leadInLength="0/1"  name="cursorScale"/>
             </Parameters>
             <Attributes>
              <Attribute id="1496" value="" name="ident"/>
             </Attributes>
             <ExtraData>
              <Entry key="ZoomPanBin">
               <ZoomPanBin id="1497"  >
                <ZoomPanKeyframes>
                 <ZoomPanKeyframe id="1498" timeRangeEnd="-9999999/1" timeRangeDuration="0/1" interpolaterName="linr"  />
                </ZoomPanKeyframes>
               </ZoomPanBin>
              </Entry>
              <Entry key="CursorEffectBin">
               <CursorEffectBin id="1499"  >
                <CursorEffectKeyframes>
                </CursorEffectKeyframes>
               </CursorEffectBin>
              </Entry>
             </ExtraData>
            </ScreenVMFile>
            <MetaData>
             <entry key="AutoAppliedSmartFocus" val="False"/>
             <entry key="WinSubProjectDisplayName" val=""/>
            </MetaData>
           </UnifiedMedia>
           <UnifiedMedia id="1500"  >
            <AMFile id="1501" start="2606" duration="48" scalar="1/1" mediaStart="3065/1" mediaDuration="48/1" trackNumber="1" src="4" channelNumber="0,1" >
             <Parameters>
              <InterpolatingParam id="1502" interp="linr"  time="0/1" value="1" leadInLength="0/1"  name="volume"/>
              <Parameter id="1503"  name="captions"/>
             </Parameters>
             <Attributes>
              <Attribute id="1504" value="" name="ident"/>
              <Attribute id="1505" value="44100" name="sampleRate"/>
              <Attribute id="1506" value="16" name="bitDepth"/>
              <Attribute id="1507" value="1" name="gain"/>
              <Attribute id="1508" value="0" name="mixToMono"/>
             </Attributes>
            </AMFile>
            <ScreenVMFile id="1509" start="2606" duration="48" scalar="1/1" mediaStart="3065/1" mediaDuration="48/1" trackNumber="0" src="4" >
             <Transformer>
              <VectorParam id="1510"  name="translation">
               <InterpolatingParam id="1511" interp="linr"  time="-9999999/1" value="0" leadInLength="0/1"  />
               <InterpolatingParam id="1512" interp="linr"  time="-9999999/1" value="0" leadInLength="0/1"  />
               <InterpolatingParam id="1513" interp="linr"  time="-9999999/1" value="0" leadInLength="0/1"  />
              </VectorParam>
              <VectorParam id="1514"  name="rotation">
               <InterpolatingParam id="1515" interp="linr"  time="-9999999/1" value="0" leadInLength="0/1"  />
               <InterpolatingParam id="1516" interp="linr"  time="-9999999/1" value="0" leadInLength="0/1"  />
               <InterpolatingParam id="1517" interp="linr"  time="-9999999/1" value="0" leadInLength="0/1"  />
              </VectorParam>
              <VectorParam id="1518"  name="shear">
               <InterpolatingParam id="1519" interp="linr"  time="-9999999/1" value="0" leadInLength="0/1"  />
               <InterpolatingParam id="1520" interp="linr"  time="-9999999/1" value="0" leadInLength="0/1"  />
               <InterpolatingParam id="1521" interp="linr"  time="-9999999/1" value="0" leadInLength="0/1"  />
              </VectorParam>
              <VectorParam id="1522"  name="scale">
               <InterpolatingParam id="1523" interp="linr"  time="-9999999/1" value="1" leadInLength="0/1"  />
               <InterpolatingParam id="1524" interp="linr"  time="-9999999/1" value="1" leadInLength="0/1"  />
               <InterpolatingParam id="1525" interp="linr"  time="-9999999/1" value="1" leadInLength="0/1"  />
              </VectorParam>
              <VectorParam id="1526"  name="anchor">
               <InterpolatingParam id="1527" interp="linr"  time="0/1" value="0" leadInLength="0/1"  />
               <InterpolatingParam id="1528" interp="linr"  time="0/1" value="0" leadInLength="0/1"  />
               <InterpolatingParam id="1529" interp="linr"  time="0/1" value="0" leadInLength="0/1"  />
              </VectorParam>
             </Transformer>
             <Parameters>
              <VectorParam id="1530"  name="sourceCrop">
               <InterpolatingParam id="1531" interp="linr"  time="0/1" value="0" leadInLength="0/1"  />
               <InterpolatingParam id="1532" interp="linr"  time="0/1" value="0" leadInLength="0/1"  />
               <InterpolatingParam id="1533" interp="linr"  time="0/1" value="0" leadInLength="0/1"  />
               <InterpolatingParam id="1534" interp="linr"  time="0/1" value="0" leadInLength="0/1"  />
              </VectorParam>
              <VectorParam id="1535"  name="geometryCrop">
               <InterpolatingParam id="1536" interp="linr"  time="-9999999/1" value="0" leadInLength="0/1"  />
               <InterpolatingParam id="1537" interp="linr"  time="-9999999/1" value="0" leadInLength="0/1"  />
               <InterpolatingParam id="1538" interp="linr"  time="-9999999/1" value="0" leadInLength="0/1"  />
               <InterpolatingParam id="1539" interp="linr"  time="-9999999/1" value="0" leadInLength="0/1"  />
              </VectorParam>
              <InterpolatingParam id="1540" interp="linr"  time="-9999999/1" value="1" leadInLength="0/1"  name="opacity"/>
              <InterpolatingParam id="1541" interp="linr"  time="0/1" value="0" leadInLength="0/1"  name="cursorOpacity"/>
              <InterpolatingParam id="1542" interp="linr"  time="0/1" value="0" leadInLength="0/1"  name="cursorScale"/>
             </Parameters>
             <Attributes>
              <Attribute id="1543" value="" name="ident"/>
             </Attributes>
             <ExtraData>
              <Entry key="ZoomPanBin">
               <ZoomPanBin id="1544"  >
                <ZoomPanKeyframes>
                 <ZoomPanKeyframe id="1545" timeRangeEnd="-9999999/1" timeRangeDuration="0/1" interpolaterName="linr"  />
                </ZoomPanKeyframes>
               </ZoomPanBin>
              </Entry>
              <Entry key="CursorEffectBin">
               <CursorEffectBin id="1546"  >
                <CursorEffectKeyframes>
                </CursorEffectKeyframes>
               </CursorEffectBin>
              </Entry>
             </ExtraData>
            </ScreenVMFile>
            <MetaData>
             <entry key="AutoAppliedSmartFocus" val="False"/>
             <entry key="WinSubProjectDisplayName" val=""/>
            </MetaData>
           </UnifiedMedia>
           <UnifiedMedia id="1547"  >
            <AMFile id="1548" start="2654" duration="381" scalar="1/1" mediaStart="3116/1" mediaDuration="381/1" trackNumber="1" src="4" channelNumber="0,1" >
             <Parameters>
              <InterpolatingParam id="1549" interp="linr"  time="0/1" value="1" leadInLength="0/1"  name="volume"/>
              <Parameter id="1550"  name="captions"/>
             </Parameters>
             <Attributes>
              <Attribute id="1551" value="" name="ident"/>
              <Attribute id="1552" value="44100" name="sampleRate"/>
              <Attribute id="1553" value="16" name="bitDepth"/>
              <Attribute id="1554" value="1" name="gain"/>
              <Attribute id="1555" value="0" name="mixToMono"/>
             </Attributes>
            </AMFile>
            <ScreenVMFile id="1556" start="2654" duration="381" scalar="1/1" mediaStart="3116/1" mediaDuration="381/1" trackNumber="0" src="4" >
             <Transformer>
              <VectorParam id="1557"  name="translation">
               <InterpolatingParam id="1558" interp="linr"  time="-9999999/1" value="0" leadInLength="0/1"  />
               <InterpolatingParam id="1559" interp="linr"  time="-9999999/1" value="0" leadInLength="0/1"  />
               <InterpolatingParam id="1560" interp="linr"  time="-9999999/1" value="0" leadInLength="0/1"  />
              </VectorParam>
              <VectorParam id="1561"  name="rotation">
               <InterpolatingParam id="1562" interp="linr"  time="-9999999/1" value="0" leadInLength="0/1"  />
               <InterpolatingParam id="1563" interp="linr"  time="-9999999/1" value="0" leadInLength="0/1"  />
               <InterpolatingParam id="1564" interp="linr"  time="-9999999/1" value="0" leadInLength="0/1"  />
              </VectorParam>
              <VectorParam id="1565"  name="shear">
               <InterpolatingParam id="1566" interp="linr"  time="-9999999/1" value="0" leadInLength="0/1"  />
               <InterpolatingParam id="1567" interp="linr"  time="-9999999/1" value="0" leadInLength="0/1"  />
               <InterpolatingParam id="1568" interp="linr"  time="-9999999/1" value="0" leadInLength="0/1"  />
              </VectorParam>
              <VectorParam id="1569"  name="scale">
               <InterpolatingParam id="1570" interp="linr"  time="-9999999/1" value="1" leadInLength="0/1"  />
               <InterpolatingParam id="1571" interp="linr"  time="-9999999/1" value="1" leadInLength="0/1"  />
               <InterpolatingParam id="1572" interp="linr"  time="-9999999/1" value="1" leadInLength="0/1"  />
              </VectorParam>
              <VectorParam id="1573"  name="anchor">
               <InterpolatingParam id="1574" interp="linr"  time="0/1" value="0" leadInLength="0/1"  />
               <InterpolatingParam id="1575" interp="linr"  time="0/1" value="0" leadInLength="0/1"  />
               <InterpolatingParam id="1576" interp="linr"  time="0/1" value="0" leadInLength="0/1"  />
              </VectorParam>
             </Transformer>
             <Parameters>
              <VectorParam id="1577"  name="sourceCrop">
               <InterpolatingParam id="1578" interp="linr"  time="0/1" value="0" leadInLength="0/1"  />
               <InterpolatingParam id="1579" interp="linr"  time="0/1" value="0" leadInLength="0/1"  />
               <InterpolatingParam id="1580" interp="linr"  time="0/1" value="0" leadInLength="0/1"  />
               <InterpolatingParam id="1581" interp="linr"  time="0/1" value="0" leadInLength="0/1"  />
              </VectorParam>
              <VectorParam id="1582"  name="geometryCrop">
               <InterpolatingParam id="1583" interp="linr"  time="-9999999/1" value="0" leadInLength="0/1"  />
               <InterpolatingParam id="1584" interp="linr"  time="-9999999/1" value="0" leadInLength="0/1"  />
               <InterpolatingParam id="1585" interp="linr"  time="-9999999/1" value="0" leadInLength="0/1"  />
               <InterpolatingParam id="1586" interp="linr"  time="-9999999/1" value="0" leadInLength="0/1"  />
              </VectorParam>
              <InterpolatingParam id="1587" interp="linr"  time="-9999999/1" value="1" leadInLength="0/1"  name="opacity"/>
              <InterpolatingParam id="1588" interp="linr"  time="0/1" value="0" leadInLength="0/1"  name="cursorOpacity"/>
              <InterpolatingParam id="1589" interp="linr"  time="0/1" value="0" leadInLength="0/1"  name="cursorScale"/>
             </Parameters>
             <Attributes>
              <Attribute id="1590" value="" name="ident"/>
             </Attributes>
             <ExtraData>
              <Entry key="ZoomPanBin">
               <ZoomPanBin id="1591"  >
                <ZoomPanKeyframes>
                 <ZoomPanKeyframe id="1592" timeRangeEnd="-9999999/1" timeRangeDuration="0/1" interpolaterName="linr"  />
                </ZoomPanKeyframes>
               </ZoomPanBin>
              </Entry>
              <Entry key="CursorEffectBin">
               <CursorEffectBin id="1593"  >
                <CursorEffectKeyframes>
                </CursorEffectKeyframes>
               </CursorEffectBin>
              </Entry>
             </ExtraData>
            </ScreenVMFile>
            <MetaData>
             <entry key="AutoAppliedSmartFocus" val="False"/>
             <entry key="WinSubProjectDisplayName" val=""/>
            </MetaData>
           </UnifiedMedia>
           <UnifiedMedia id="1594"  >
            <AMFile id="1595" start="3035" duration="693" scalar="1/1" mediaStart="3523/1" mediaDuration="693/1" trackNumber="1" src="4" channelNumber="0,1" >
             <Parameters>
              <InterpolatingParam id="1596" interp="linr"  time="0/1" value="1" leadInLength="0/1"  name="volume"/>
              <Parameter id="1597"  name="captions"/>
             </Parameters>
             <Attributes>
              <Attribute id="1598" value="" name="ident"/>
              <Attribute id="1599" value="44100" name="sampleRate"/>
              <Attribute id="1600" value="16" name="bitDepth"/>
              <Attribute id="1601" value="1" name="gain"/>
              <Attribute id="1602" value="0" name="mixToMono"/>
             </Attributes>
            </AMFile>
            <ScreenVMFile id="1603" start="3035" duration="693" scalar="1/1" mediaStart="3523/1" mediaDuration="693/1" trackNumber="0" src="4" >
             <Transformer>
              <VectorParam id="1604"  name="translation">
               <InterpolatingParam id="1605" interp="linr"  time="-9999999/1" value="0" leadInLength="0/1"  />
               <InterpolatingParam id="1606" interp="linr"  time="-9999999/1" value="0" leadInLength="0/1"  />
               <InterpolatingParam id="1607" interp="linr"  time="-9999999/1" value="0" leadInLength="0/1"  />
              </VectorParam>
              <VectorParam id="1608"  name="rotation">
               <InterpolatingParam id="1609" interp="linr"  time="-9999999/1" value="0" leadInLength="0/1"  />
               <InterpolatingParam id="1610" interp="linr"  time="-9999999/1" value="0" leadInLength="0/1"  />
               <InterpolatingParam id="1611" interp="linr"  time="-9999999/1" value="0" leadInLength="0/1"  />
              </VectorParam>
              <VectorParam id="1612"  name="shear">
               <InterpolatingParam id="1613" interp="linr"  time="-9999999/1" value="0" leadInLength="0/1"  />
               <InterpolatingParam id="1614" interp="linr"  time="-9999999/1" value="0" leadInLength="0/1"  />
               <InterpolatingParam id="1615" interp="linr"  time="-9999999/1" value="0" leadInLength="0/1"  />
              </VectorParam>
              <VectorParam id="1616"  name="scale">
               <InterpolatingParam id="1617" interp="linr"  time="-9999999/1" value="1" leadInLength="0/1"  />
               <InterpolatingParam id="1618" interp="linr"  time="-9999999/1" value="1" leadInLength="0/1"  />
               <InterpolatingParam id="1619" interp="linr"  time="-9999999/1" value="1" leadInLength="0/1"  />
              </VectorParam>
              <VectorParam id="1620"  name="anchor">
               <InterpolatingParam id="1621" interp="linr"  time="0/1" value="0" leadInLength="0/1"  />
               <InterpolatingParam id="1622" interp="linr"  time="0/1" value="0" leadInLength="0/1"  />
               <InterpolatingParam id="1623" interp="linr"  time="0/1" value="0" leadInLength="0/1"  />
              </VectorParam>
             </Transformer>
             <Parameters>
              <VectorParam id="1624"  name="sourceCrop">
               <InterpolatingParam id="1625" interp="linr"  time="0/1" value="0" leadInLength="0/1"  />
               <InterpolatingParam id="1626" interp="linr"  time="0/1" value="0" leadInLength="0/1"  />
               <InterpolatingParam id="1627" interp="linr"  time="0/1" value="0" leadInLength="0/1"  />
               <InterpolatingParam id="1628" interp="linr"  time="0/1" value="0" leadInLength="0/1"  />
              </VectorParam>
              <VectorParam id="1629"  name="geometryCrop">
               <InterpolatingParam id="1630" interp="linr"  time="-9999999/1" value="0" leadInLength="0/1"  />
               <InterpolatingParam id="1631" interp="linr"  time="-9999999/1" value="0" leadInLength="0/1"  />
               <InterpolatingParam id="1632" interp="linr"  time="-9999999/1" value="0" leadInLength="0/1"  />
               <InterpolatingParam id="1633" interp="linr"  time="-9999999/1" value="0" leadInLength="0/1"  />
              </VectorParam>
              <InterpolatingParam id="1634" interp="linr"  time="-9999999/1" value="1" leadInLength="0/1"  name="opacity"/>
              <InterpolatingParam id="1635" interp="linr"  time="0/1" value="0" leadInLength="0/1"  name="cursorOpacity"/>
              <InterpolatingParam id="1636" interp="linr"  time="0/1" value="0" leadInLength="0/1"  name="cursorScale"/>
             </Parameters>
             <Attributes>
              <Attribute id="1637" value="" name="ident"/>
             </Attributes>
             <ExtraData>
              <Entry key="ZoomPanBin">
               <ZoomPanBin id="1638"  >
                <ZoomPanKeyframes>
                 <ZoomPanKeyframe id="1639" timeRangeEnd="-9999999/1" timeRangeDuration="0/1" interpolaterName="linr"  />
                </ZoomPanKeyframes>
               </ZoomPanBin>
              </Entry>
              <Entry key="CursorEffectBin">
               <CursorEffectBin id="1640"  >
                <CursorEffectKeyframes>
                </CursorEffectKeyframes>
               </CursorEffectBin>
              </Entry>
             </ExtraData>
            </ScreenVMFile>
            <MetaData>
             <entry key="AutoAppliedSmartFocus" val="False"/>
             <entry key="WinSubProjectDisplayName" val=""/>
            </MetaData>
           </UnifiedMedia>
           <UnifiedMedia id="1641"  >
            <AMFile id="1642" start="3728" duration="400" scalar="1/1" mediaStart="4291/1" mediaDuration="400/1" trackNumber="1" src="4" channelNumber="0,1" >
             <Parameters>
              <InterpolatingParam id="1643" interp="linr"  time="0/1" value="1" leadInLength="0/1"  name="volume"/>
              <Parameter id="1644"  name="captions"/>
             </Parameters>
             <Attributes>
              <Attribute id="1645" value="" name="ident"/>
              <Attribute id="1646" value="44100" name="sampleRate"/>
              <Attribute id="1647" value="16" name="bitDepth"/>
              <Attribute id="1648" value="1" name="gain"/>
              <Attribute id="1649" value="0" name="mixToMono"/>
             </Attributes>
            </AMFile>
            <ScreenVMFile id="1650" start="3728" duration="400" scalar="1/1" mediaStart="4291/1" mediaDuration="400/1" trackNumber="0" src="4" >
             <Transformer>
              <VectorParam id="1651"  name="translation">
               <InterpolatingParam id="1652" interp="linr"  time="-9999999/1" value="0" leadInLength="0/1"  />
               <InterpolatingParam id="1653" interp="linr"  time="-9999999/1" value="0" leadInLength="0/1"  />
               <InterpolatingParam id="1654" interp="linr"  time="-9999999/1" value="0" leadInLength="0/1"  />
              </VectorParam>
              <VectorParam id="1655"  name="rotation">
               <InterpolatingParam id="1656" interp="linr"  time="-9999999/1" value="0" leadInLength="0/1"  />
               <InterpolatingParam id="1657" interp="linr"  time="-9999999/1" value="0" leadInLength="0/1"  />
               <InterpolatingParam id="1658" interp="linr"  time="-9999999/1" value="0" leadInLength="0/1"  />
              </VectorParam>
              <VectorParam id="1659"  name="shear">
               <InterpolatingParam id="1660" interp="linr"  time="-9999999/1" value="0" leadInLength="0/1"  />
               <InterpolatingParam id="1661" interp="linr"  time="-9999999/1" value="0" leadInLength="0/1"  />
               <InterpolatingParam id="1662" interp="linr"  time="-9999999/1" value="0" leadInLength="0/1"  />
              </VectorParam>
              <VectorParam id="1663"  name="scale">
               <InterpolatingParam id="1664" interp="linr"  time="-9999999/1" value="1" leadInLength="0/1"  />
               <InterpolatingParam id="1665" interp="linr"  time="-9999999/1" value="1" leadInLength="0/1"  />
               <InterpolatingParam id="1666" interp="linr"  time="-9999999/1" value="1" leadInLength="0/1"  />
              </VectorParam>
              <VectorParam id="1667"  name="anchor">
               <InterpolatingParam id="1668" interp="linr"  time="0/1" value="0" leadInLength="0/1"  />
               <InterpolatingParam id="1669" interp="linr"  time="0/1" value="0" leadInLength="0/1"  />
               <InterpolatingParam id="1670" interp="linr"  time="0/1" value="0" leadInLength="0/1"  />
              </VectorParam>
             </Transformer>
             <Parameters>
              <VectorParam id="1671"  name="sourceCrop">
               <InterpolatingParam id="1672" interp="linr"  time="0/1" value="0" leadInLength="0/1"  />
               <InterpolatingParam id="1673" interp="linr"  time="0/1" value="0" leadInLength="0/1"  />
               <InterpolatingParam id="1674" interp="linr"  time="0/1" value="0" leadInLength="0/1"  />
               <InterpolatingParam id="1675" interp="linr"  time="0/1" value="0" leadInLength="0/1"  />
              </VectorParam>
              <VectorParam id="1676"  name="geometryCrop">
               <InterpolatingParam id="1677" interp="linr"  time="-9999999/1" value="0" leadInLength="0/1"  />
               <InterpolatingParam id="1678" interp="linr"  time="-9999999/1" value="0" leadInLength="0/1"  />
               <InterpolatingParam id="1679" interp="linr"  time="-9999999/1" value="0" leadInLength="0/1"  />
               <InterpolatingParam id="1680" interp="linr"  time="-9999999/1" value="0" leadInLength="0/1"  />
              </VectorParam>
              <InterpolatingParam id="1681" interp="linr"  time="-9999999/1" value="1" leadInLength="0/1"  name="opacity"/>
              <InterpolatingParam id="1682" interp="linr"  time="0/1" value="0" leadInLength="0/1"  name="cursorOpacity"/>
              <InterpolatingParam id="1683" interp="linr"  time="0/1" value="0" leadInLength="0/1"  name="cursorScale"/>
             </Parameters>
             <Attributes>
              <Attribute id="1684" value="" name="ident"/>
             </Attributes>
             <ExtraData>
              <Entry key="ZoomPanBin">
               <ZoomPanBin id="1685"  >
                <ZoomPanKeyframes>
                 <ZoomPanKeyframe id="1686" timeRangeEnd="-9999999/1" timeRangeDuration="0/1" interpolaterName="linr"  />
                </ZoomPanKeyframes>
               </ZoomPanBin>
              </Entry>
              <Entry key="CursorEffectBin">
               <CursorEffectBin id="1687"  >
                <CursorEffectKeyframes>
                </CursorEffectKeyframes>
               </CursorEffectBin>
              </Entry>
             </ExtraData>
            </ScreenVMFile>
            <MetaData>
             <entry key="AutoAppliedSmartFocus" val="False"/>
             <entry key="WinSubProjectDisplayName" val=""/>
            </MetaData>
           </UnifiedMedia>
          </Medias>
         </GenericTrack>
        </StitchedMedia>
        <StitchedMedia id="1688" start="3896" duration="4033" scalar="1/1" mediaStart="103/1" mediaDuration="4033/1" minMediaStart="0/1" >
         <Transformer>
          <VectorParam id="1689"  name="translation">
           <InterpolatingParam id="1690" interp="linr"  time="-9999999/1" value="-1.2012557157213005e-011" leadInLength="0/1"  />
           <InterpolatingParam id="1691" interp="linr"  time="-9999999/1" value="-0.16666666673854658" leadInLength="0/1"  />
           <InterpolatingParam id="1692" interp="linr"  time="-9999999/1" value="0" leadInLength="0/1"  />
          </VectorParam>
          <VectorParam id="1693"  name="rotation">
           <InterpolatingParam id="1694" interp="linr"  time="-9999999/1" value="0" leadInLength="0/1"  />
           <InterpolatingParam id="1695" interp="linr"  time="-9999999/1" value="0" leadInLength="0/1"  />
           <InterpolatingParam id="1696" interp="linr"  time="-9999999/1" value="0" leadInLength="0/1"  />
          </VectorParam>
          <VectorParam id="1697"  name="shear">
           <InterpolatingParam id="1698" interp="linr"  time="-9999999/1" value="0" leadInLength="0/1"  />
           <InterpolatingParam id="1699" interp="linr"  time="-9999999/1" value="0" leadInLength="0/1"  />
           <InterpolatingParam id="1700" interp="linr"  time="-9999999/1" value="0" leadInLength="0/1"  />
          </VectorParam>
          <VectorParam id="1701"  name="scale">
           <InterpolatingParam id="1702" interp="linr"  time="-9999999/1" value="0.70833333333333337" leadInLength="0/1"  />
           <InterpolatingParam id="1703" interp="linr"  time="-9999999/1" value="0.70833333333333337" leadInLength="0/1"  />
           <InterpolatingParam id="1704" interp="linr"  time="-9999999/1" value="1" leadInLength="0/1"  />
          </VectorParam>
          <VectorParam id="1705"  name="anchor">
           <InterpolatingParam id="1706" interp="linr"  time="0/1" value="0" leadInLength="0/1"  />
           <InterpolatingParam id="1707" interp="linr"  time="0/1" value="0" leadInLength="0/1"  />
           <InterpolatingParam id="1708" interp="linr"  time="0/1" value="0" leadInLength="0/1"  />
          </VectorParam>
         </Transformer>
         <Parameters>
          <VectorParam id="1709"  name="sourceCrop">
           <InterpolatingParam id="1710" interp="linr"  time="0/1" value="0" leadInLength="0/1"  />
           <InterpolatingParam id="1711" interp="linr"  time="0/1" value="0" leadInLength="0/1"  />
           <InterpolatingParam id="1712" interp="linr"  time="0/1" value="0" leadInLength="0/1"  />
           <InterpolatingParam id="1713" interp="linr"  time="0/1" value="0" leadInLength="0/1"  />
          </VectorParam>
          <VectorParam id="1714"  name="geometryCrop">
           <InterpolatingParam id="1715" interp="linr"  time="-9999999/1" value="0" leadInLength="0/1"  />
           <InterpolatingParam id="1716" interp="linr"  time="-9999999/1" value="0" leadInLength="0/1"  />
           <InterpolatingParam id="1717" interp="linr"  time="-9999999/1" value="0" leadInLength="0/1"  />
           <InterpolatingParam id="1718" interp="linr"  time="-9999999/1" value="0" leadInLength="0/1"  />
          </VectorParam>
          <InterpolatingParam id="1719" interp="linr"  time="-9999999/1" value="1" leadInLength="0/1"  name="opacity"/>
          <InterpolatingParam id="1720" interp="linr"  time="0/1" value="1" leadInLength="0/1"  name="cursorOpacity"/>
          <InterpolatingParam id="1721" interp="linr"  time="0/1" value="1" leadInLength="0/1"  name="cursorScale"/>
          <InterpolatingParam id="1722" interp="linr"  time="0/1" value="2.0499373309585094" leadInLength="0/1"  name="volume"/>
          <Parameter id="1723"  name="captions"/>
         </Parameters>
         <Effects>
          <GenericEffect id="1724" name = "CursorBaseEffectName" >
           <Parameters>
           <InterpolatingParam id="1725" interp="linr"  time="-9999999/1" value="1" leadInLength="0/1"   name="cursorSize"/>
           <InterpolatingParam id="1726" interp="linr"  time="-9999999/1" value="0" leadInLength="0/1"   name="highlightBlurRadius"/>
           <InterpolatingParam id="1727" interp="linr"  time="-9999999/1" value="0" leadInLength="0/1"   name="highlightColorBlue"/>
           <InterpolatingParam id="1728" interp="linr"  time="-9999999/1" value="255" leadInLength="0/1"   name="highlightColorGreen"/>
           <InterpolatingParam id="1729" interp="linr"  time="-9999999/1" value="255" leadInLength="0/1"   name="highlightColorRed"/>
           <InterpolatingParam id="1730" interp="linr"  time="-9999999/1" value="5" leadInLength="0/1"   name="highlightFeatherSize"/>
           <InterpolatingParam id="1731" interp="linr"  time="-9999999/1" value="2" leadInLength="0/1"   name="highlightMagnification"/>
           <InterpolatingParam id="1732" interp="linr"  time="-9999999/1" value="60" leadInLength="0/1"   name="highlightOpacity"/>
           <InterpolatingParam id="1733" interp="linr"  time="-9999999/1" value="45" leadInLength="0/1"   name="highlightSize"/>
           <Parameter id="1734"   name="highlightType">
            <Keyframes>
            <Keyframe id="1735"  time="-9999999/1" value="4" leadInLength="0/1"  />
            </Keyframes>
           </Parameter>
           <InterpolatingParam id="1736" interp="linr"  time="-9999999/1" value="0" leadInLength="0/1"   name="leftClickColorBlue"/>
           <InterpolatingParam id="1737" interp="linr"  time="-9999999/1" value="0" leadInLength="0/1"   name="leftClickColorGreen"/>
           <InterpolatingParam id="1738" interp="linr"  time="-9999999/1" value="255" leadInLength="0/1"   name="leftClickColorRed"/>
           <InterpolatingParam id="1739" interp="linr"  time="-9999999/1" value="0.80000000000000004" leadInLength="0/1"   name="leftClickDuration"/>
           <InterpolatingParam id="1740" interp="linr"  time="-9999999/1" value="20" leadInLength="0/1"   name="leftClickSize"/>
           <Parameter id="1741"   name="leftClickSoundFilename">
            <Keyframes>
            <Keyframe id="1742"  time="-9999999/1" value="" leadInLength="0/1"  />
            </Keyframes>
           </Parameter>
           <InterpolatingParam id="1743" interp="linr"  time="-9999999/1" value="1" leadInLength="0/1"   name="leftClickSoundVolume"/>
           <Parameter id="1744"   name="leftClickType">
            <Keyframes>
            <Keyframe id="1745"  time="-9999999/1" value="0" leadInLength="0/1"  />
            </Keyframes>
           </Parameter>
           <InterpolatingParam id="1746" interp="linr"  time="-9999999/1" value="1" leadInLength="0/1"   name="opacity"/>
           <InterpolatingParam id="1747" interp="linr"  time="-9999999/1" value="255" leadInLength="0/1"   name="rightClickColorBlue"/>
           <InterpolatingParam id="1748" interp="linr"  time="-9999999/1" value="0" leadInLength="0/1"   name="rightClickColorGreen"/>
           <InterpolatingParam id="1749" interp="linr"  time="-9999999/1" value="0" leadInLength="0/1"   name="rightClickColorRed"/>
           <InterpolatingParam id="1750" interp="linr"  time="-9999999/1" value="0.80000000000000004" leadInLength="0/1"   name="rightClickDuration"/>
           <InterpolatingParam id="1751" interp="linr"  time="-9999999/1" value="20" leadInLength="0/1"   name="rightClickSize"/>
           <Parameter id="1752"   name="rightClickSoundFilename">
            <Keyframes>
            <Keyframe id="1753"  time="-9999999/1" value="" leadInLength="0/1"  />
            </Keyframes>
           </Parameter>
           <InterpolatingParam id="1754" interp="linr"  time="-9999999/1" value="1" leadInLength="0/1"   name="rightClickSoundVolume"/>
           <Parameter id="1755"   name="rightClickType">
            <Keyframes>
            <Keyframe id="1756"  time="-9999999/1" value="0" leadInLength="0/1"  />
            </Keyframes>
           </Parameter>
           </Parameters>
           <MetaData>
            <entry key="effectIndex" val="0"/>
           </MetaData>
          </GenericEffect>
         </Effects>
         <Attributes>
          <Attribute id="1757" value="" name="ident"/>
          <Attribute id="1758" value="0" name="mixToMono"/>
         </Attributes>
         <MetaData>
          <entry key="AutoAppliedSmartFocus" val="False"/>
          <entry key="WinSubProjectDisplayName" val=""/>
         </MetaData>
         <ExtraData>
          <Entry key="ZoomPanBin">
           <ZoomPanBin id="1759"  >
            <ZoomPanKeyframes>
             <ZoomPanKeyframe id="1760" timeRangeEnd="-9999999/1" timeRangeDuration="0/1" interpolaterName="linr"  />
            </ZoomPanKeyframes>
           </ZoomPanBin>
          </Entry>
          <Entry key="CursorEffectBin">
           <CursorEffectBin id="1761"  >
            <CursorEffectKeyframes>
             <CursorEffectKeyframe id="1762" timeRangeEnd="-9999999/1" timeRangeDuration="0/1" interpolaterName=""  />
            </CursorEffectKeyframes>
           </CursorEffectBin>
          </Entry>
         </ExtraData>
         <GenericTrack id="1763"  >
          <Attributes>
           <Attribute id="1764" value="" name="ident"/>
           <Attribute id="1765" value="0" name="audioMuted"/>
           <Attribute id="1766" value="0" name="videoHidden"/>
          </Attributes>
          <MetaData>
           <entry key="IsLocked" val="False"/>
           <entry key="WinTrackHeight" val="0"/>
          </MetaData>
          <Medias>
           <UnifiedMedia id="1767"  >
            <AMFile id="1768" start="0" duration="966" scalar="1/1" mediaStart="0/1" mediaDuration="966/1" trackNumber="1" src="5" channelNumber="0,1" >
             <Parameters>
              <InterpolatingParam id="1769" interp="linr"  time="0/1" value="1" leadInLength="0/1"  name="volume"/>
              <Parameter id="1770"  name="captions"/>
             </Parameters>
             <Attributes>
              <Attribute id="1771" value="" name="ident"/>
              <Attribute id="1772" value="44100" name="sampleRate"/>
              <Attribute id="1773" value="16" name="bitDepth"/>
              <Attribute id="1774" value="1" name="gain"/>
              <Attribute id="1775" value="0" name="mixToMono"/>
             </Attributes>
            </AMFile>
            <ScreenVMFile id="1776" start="0" duration="966" scalar="1/1" mediaStart="0/1" mediaDuration="966/1" trackNumber="0" src="5" >
             <Transformer>
              <VectorParam id="1777"  name="translation">
               <InterpolatingParam id="1778" interp="linr"  time="-9999999/1" value="0" leadInLength="0/1"  />
               <InterpolatingParam id="1779" interp="linr"  time="-9999999/1" value="0" leadInLength="0/1"  />
               <InterpolatingParam id="1780" interp="linr"  time="-9999999/1" value="0" leadInLength="0/1"  />
              </VectorParam>
              <VectorParam id="1781"  name="rotation">
               <InterpolatingParam id="1782" interp="linr"  time="-9999999/1" value="0" leadInLength="0/1"  />
               <InterpolatingParam id="1783" interp="linr"  time="-9999999/1" value="0" leadInLength="0/1"  />
               <InterpolatingParam id="1784" interp="linr"  time="-9999999/1" value="0" leadInLength="0/1"  />
              </VectorParam>
              <VectorParam id="1785"  name="shear">
               <InterpolatingParam id="1786" interp="linr"  time="-9999999/1" value="0" leadInLength="0/1"  />
               <InterpolatingParam id="1787" interp="linr"  time="-9999999/1" value="0" leadInLength="0/1"  />
               <InterpolatingParam id="1788" interp="linr"  time="-9999999/1" value="0" leadInLength="0/1"  />
              </VectorParam>
              <VectorParam id="1789"  name="scale">
               <InterpolatingParam id="1790" interp="linr"  time="-9999999/1" value="1" leadInLength="0/1"  />
               <InterpolatingParam id="1791" interp="linr"  time="-9999999/1" value="1" leadInLength="0/1"  />
               <InterpolatingParam id="1792" interp="linr"  time="-9999999/1" value="1" leadInLength="0/1"  />
              </VectorParam>
              <VectorParam id="1793"  name="anchor">
               <InterpolatingParam id="1794" interp="linr"  time="0/1" value="0" leadInLength="0/1"  />
               <InterpolatingParam id="1795" interp="linr"  time="0/1" value="0" leadInLength="0/1"  />
               <InterpolatingParam id="1796" interp="linr"  time="0/1" value="0" leadInLength="0/1"  />
              </VectorParam>
             </Transformer>
             <Parameters>
              <VectorParam id="1797"  name="sourceCrop">
               <InterpolatingParam id="1798" interp="linr"  time="0/1" value="0" leadInLength="0/1"  />
               <InterpolatingParam id="1799" interp="linr"  time="0/1" value="0" leadInLength="0/1"  />
               <InterpolatingParam id="1800" interp="linr"  time="0/1" value="0" leadInLength="0/1"  />
               <InterpolatingParam id="1801" interp="linr"  time="0/1" value="0" leadInLength="0/1"  />
              </VectorParam>
              <VectorParam id="1802"  name="geometryCrop">
               <InterpolatingParam id="1803" interp="linr"  time="-9999999/1" value="0" leadInLength="0/1"  />
               <InterpolatingParam id="1804" interp="linr"  time="-9999999/1" value="0" leadInLength="0/1"  />
               <InterpolatingParam id="1805" interp="linr"  time="-9999999/1" value="0" leadInLength="0/1"  />
               <InterpolatingParam id="1806" interp="linr"  time="-9999999/1" value="0" leadInLength="0/1"  />
              </VectorParam>
              <InterpolatingParam id="1807" interp="linr"  time="-9999999/1" value="1" leadInLength="0/1"  name="opacity"/>
              <InterpolatingParam id="1808" interp="linr"  time="0/1" value="0" leadInLength="0/1"  name="cursorOpacity"/>
              <InterpolatingParam id="1809" interp="linr"  time="0/1" value="0" leadInLength="0/1"  name="cursorScale"/>
             </Parameters>
             <Attributes>
              <Attribute id="1810" value="" name="ident"/>
             </Attributes>
             <ExtraData>
              <Entry key="ZoomPanBin">
               <ZoomPanBin id="1811"  >
                <ZoomPanKeyframes>
                 <ZoomPanKeyframe id="1812" timeRangeEnd="-9999999/1" timeRangeDuration="0/1" interpolaterName="linr"  />
                </ZoomPanKeyframes>
               </ZoomPanBin>
              </Entry>
              <Entry key="CursorEffectBin">
               <CursorEffectBin id="1813"  >
                <CursorEffectKeyframes>
                </CursorEffectKeyframes>
               </CursorEffectBin>
              </Entry>
             </ExtraData>
            </ScreenVMFile>
            <MetaData>
             <entry key="AutoAppliedSmartFocus" val="False"/>
             <entry key="WinSubProjectDisplayName" val=""/>
            </MetaData>
           </UnifiedMedia>
           <UnifiedMedia id="1814"  >
            <AMFile id="1815" start="966" duration="124" scalar="1/1" mediaStart="988/1" mediaDuration="124/1" trackNumber="1" src="5" channelNumber="0,1" >
             <Parameters>
              <InterpolatingParam id="1816" interp="linr"  time="0/1" value="1" leadInLength="0/1"  name="volume"/>
              <Parameter id="1817"  name="captions"/>
             </Parameters>
             <Attributes>
              <Attribute id="1818" value="" name="ident"/>
              <Attribute id="1819" value="44100" name="sampleRate"/>
              <Attribute id="1820" value="16" name="bitDepth"/>
              <Attribute id="1821" value="1" name="gain"/>
              <Attribute id="1822" value="0" name="mixToMono"/>
             </Attributes>
            </AMFile>
            <ScreenVMFile id="1823" start="966" duration="124" scalar="1/1" mediaStart="988/1" mediaDuration="124/1" trackNumber="0" src="5" >
             <Transformer>
              <VectorParam id="1824"  name="translation">
               <InterpolatingParam id="1825" interp="linr"  time="-9999999/1" value="0" leadInLength="0/1"  />
               <InterpolatingParam id="1826" interp="linr"  time="-9999999/1" value="0" leadInLength="0/1"  />
               <InterpolatingParam id="1827" interp="linr"  time="-9999999/1" value="0" leadInLength="0/1"  />
              </VectorParam>
              <VectorParam id="1828"  name="rotation">
               <InterpolatingParam id="1829" interp="linr"  time="-9999999/1" value="0" leadInLength="0/1"  />
               <InterpolatingParam id="1830" interp="linr"  time="-9999999/1" value="0" leadInLength="0/1"  />
               <InterpolatingParam id="1831" interp="linr"  time="-9999999/1" value="0" leadInLength="0/1"  />
              </VectorParam>
              <VectorParam id="1832"  name="shear">
               <InterpolatingParam id="1833" interp="linr"  time="-9999999/1" value="0" leadInLength="0/1"  />
               <InterpolatingParam id="1834" interp="linr"  time="-9999999/1" value="0" leadInLength="0/1"  />
               <InterpolatingParam id="1835" interp="linr"  time="-9999999/1" value="0" leadInLength="0/1"  />
              </VectorParam>
              <VectorParam id="1836"  name="scale">
               <InterpolatingParam id="1837" interp="linr"  time="-9999999/1" value="1" leadInLength="0/1"  />
               <InterpolatingParam id="1838" interp="linr"  time="-9999999/1" value="1" leadInLength="0/1"  />
               <InterpolatingParam id="1839" interp="linr"  time="-9999999/1" value="1" leadInLength="0/1"  />
              </VectorParam>
              <VectorParam id="1840"  name="anchor">
               <InterpolatingParam id="1841" interp="linr"  time="0/1" value="0" leadInLength="0/1"  />
               <InterpolatingParam id="1842" interp="linr"  time="0/1" value="0" leadInLength="0/1"  />
               <InterpolatingParam id="1843" interp="linr"  time="0/1" value="0" leadInLength="0/1"  />
              </VectorParam>
             </Transformer>
             <Parameters>
              <VectorParam id="1844"  name="sourceCrop">
               <InterpolatingParam id="1845" interp="linr"  time="0/1" value="0" leadInLength="0/1"  />
               <InterpolatingParam id="1846" interp="linr"  time="0/1" value="0" leadInLength="0/1"  />
               <InterpolatingParam id="1847" interp="linr"  time="0/1" value="0" leadInLength="0/1"  />
               <InterpolatingParam id="1848" interp="linr"  time="0/1" value="0" leadInLength="0/1"  />
              </VectorParam>
              <VectorParam id="1849"  name="geometryCrop">
               <InterpolatingParam id="1850" interp="linr"  time="-9999999/1" value="0" leadInLength="0/1"  />
               <InterpolatingParam id="1851" interp="linr"  time="-9999999/1" value="0" leadInLength="0/1"  />
               <InterpolatingParam id="1852" interp="linr"  time="-9999999/1" value="0" leadInLength="0/1"  />
               <InterpolatingParam id="1853" interp="linr"  time="-9999999/1" value="0" leadInLength="0/1"  />
              </VectorParam>
              <InterpolatingParam id="1854" interp="linr"  time="-9999999/1" value="1" leadInLength="0/1"  name="opacity"/>
              <InterpolatingParam id="1855" interp="linr"  time="0/1" value="0" leadInLength="0/1"  name="cursorOpacity"/>
              <InterpolatingParam id="1856" interp="linr"  time="0/1" value="0" leadInLength="0/1"  name="cursorScale"/>
             </Parameters>
             <Attributes>
              <Attribute id="1857" value="" name="ident"/>
             </Attributes>
             <ExtraData>
              <Entry key="ZoomPanBin">
               <ZoomPanBin id="1858"  >
                <ZoomPanKeyframes>
                 <ZoomPanKeyframe id="1859" timeRangeEnd="-9999999/1" timeRangeDuration="0/1" interpolaterName="linr"  />
                </ZoomPanKeyframes>
               </ZoomPanBin>
              </Entry>
              <Entry key="CursorEffectBin">
               <CursorEffectBin id="1860"  >
                <CursorEffectKeyframes>
                </CursorEffectKeyframes>
               </CursorEffectBin>
              </Entry>
             </ExtraData>
            </ScreenVMFile>
            <MetaData>
             <entry key="AutoAppliedSmartFocus" val="False"/>
             <entry key="WinSubProjectDisplayName" val=""/>
            </MetaData>
           </UnifiedMedia>
           <UnifiedMedia id="1861"  >
            <AMFile id="1862" start="1090" duration="334" scalar="1/1" mediaStart="1240/1" mediaDuration="334/1" trackNumber="1" src="5" channelNumber="0,1" >
             <Parameters>
              <InterpolatingParam id="1863" interp="linr"  time="0/1" value="1" leadInLength="0/1"  name="volume"/>
              <Parameter id="1864"  name="captions"/>
             </Parameters>
             <Attributes>
              <Attribute id="1865" value="" name="ident"/>
              <Attribute id="1866" value="44100" name="sampleRate"/>
              <Attribute id="1867" value="16" name="bitDepth"/>
              <Attribute id="1868" value="1" name="gain"/>
              <Attribute id="1869" value="0" name="mixToMono"/>
             </Attributes>
            </AMFile>
            <ScreenVMFile id="1870" start="1090" duration="334" scalar="1/1" mediaStart="1240/1" mediaDuration="334/1" trackNumber="0" src="5" >
             <Transformer>
              <VectorParam id="1871"  name="translation">
               <InterpolatingParam id="1872" interp="linr"  time="-9999999/1" value="0" leadInLength="0/1"  />
               <InterpolatingParam id="1873" interp="linr"  time="-9999999/1" value="0" leadInLength="0/1"  />
               <InterpolatingParam id="1874" interp="linr"  time="-9999999/1" value="0" leadInLength="0/1"  />
              </VectorParam>
              <VectorParam id="1875"  name="rotation">
               <InterpolatingParam id="1876" interp="linr"  time="-9999999/1" value="0" leadInLength="0/1"  />
               <InterpolatingParam id="1877" interp="linr"  time="-9999999/1" value="0" leadInLength="0/1"  />
               <InterpolatingParam id="1878" interp="linr"  time="-9999999/1" value="0" leadInLength="0/1"  />
              </VectorParam>
              <VectorParam id="1879"  name="shear">
               <InterpolatingParam id="1880" interp="linr"  time="-9999999/1" value="0" leadInLength="0/1"  />
               <InterpolatingParam id="1881" interp="linr"  time="-9999999/1" value="0" leadInLength="0/1"  />
               <InterpolatingParam id="1882" interp="linr"  time="-9999999/1" value="0" leadInLength="0/1"  />
              </VectorParam>
              <VectorParam id="1883"  name="scale">
               <InterpolatingParam id="1884" interp="linr"  time="-9999999/1" value="1" leadInLength="0/1"  />
               <InterpolatingParam id="1885" interp="linr"  time="-9999999/1" value="1" leadInLength="0/1"  />
               <InterpolatingParam id="1886" interp="linr"  time="-9999999/1" value="1" leadInLength="0/1"  />
              </VectorParam>
              <VectorParam id="1887"  name="anchor">
               <InterpolatingParam id="1888" interp="linr"  time="0/1" value="0" leadInLength="0/1"  />
               <InterpolatingParam id="1889" interp="linr"  time="0/1" value="0" leadInLength="0/1"  />
               <InterpolatingParam id="1890" interp="linr"  time="0/1" value="0" leadInLength="0/1"  />
              </VectorParam>
             </Transformer>
             <Parameters>
              <VectorParam id="1891"  name="sourceCrop">
               <InterpolatingParam id="1892" interp="linr"  time="0/1" value="0" leadInLength="0/1"  />
               <InterpolatingParam id="1893" interp="linr"  time="0/1" value="0" leadInLength="0/1"  />
               <InterpolatingParam id="1894" interp="linr"  time="0/1" value="0" leadInLength="0/1"  />
               <InterpolatingParam id="1895" interp="linr"  time="0/1" value="0" leadInLength="0/1"  />
              </VectorParam>
              <VectorParam id="1896"  name="geometryCrop">
               <InterpolatingParam id="1897" interp="linr"  time="-9999999/1" value="0" leadInLength="0/1"  />
               <InterpolatingParam id="1898" interp="linr"  time="-9999999/1" value="0" leadInLength="0/1"  />
               <InterpolatingParam id="1899" interp="linr"  time="-9999999/1" value="0" leadInLength="0/1"  />
               <InterpolatingParam id="1900" interp="linr"  time="-9999999/1" value="0" leadInLength="0/1"  />
              </VectorParam>
              <InterpolatingParam id="1901" interp="linr"  time="-9999999/1" value="1" leadInLength="0/1"  name="opacity"/>
              <InterpolatingParam id="1902" interp="linr"  time="0/1" value="0" leadInLength="0/1"  name="cursorOpacity"/>
              <InterpolatingParam id="1903" interp="linr"  time="0/1" value="0" leadInLength="0/1"  name="cursorScale"/>
             </Parameters>
             <Attributes>
              <Attribute id="1904" value="" name="ident"/>
             </Attributes>
             <ExtraData>
              <Entry key="ZoomPanBin">
               <ZoomPanBin id="1905"  >
                <ZoomPanKeyframes>
                 <ZoomPanKeyframe id="1906" timeRangeEnd="-9999999/1" timeRangeDuration="0/1" interpolaterName="linr"  />
                </ZoomPanKeyframes>
               </ZoomPanBin>
              </Entry>
              <Entry key="CursorEffectBin">
               <CursorEffectBin id="1907"  >
                <CursorEffectKeyframes>
                </CursorEffectKeyframes>
               </CursorEffectBin>
              </Entry>
             </ExtraData>
            </ScreenVMFile>
            <MetaData>
             <entry key="AutoAppliedSmartFocus" val="False"/>
             <entry key="WinSubProjectDisplayName" val=""/>
            </MetaData>
           </UnifiedMedia>
           <UnifiedMedia id="1908"  >
            <AMFile id="1909" start="1424" duration="72" scalar="1/1" mediaStart="1585/1" mediaDuration="72/1" trackNumber="1" src="5" channelNumber="0,1" >
             <Parameters>
              <InterpolatingParam id="1910" interp="linr"  time="0/1" value="1" leadInLength="0/1"  name="volume"/>
              <Parameter id="1911"  name="captions"/>
             </Parameters>
             <Attributes>
              <Attribute id="1912" value="" name="ident"/>
              <Attribute id="1913" value="44100" name="sampleRate"/>
              <Attribute id="1914" value="16" name="bitDepth"/>
              <Attribute id="1915" value="1" name="gain"/>
              <Attribute id="1916" value="0" name="mixToMono"/>
             </Attributes>
            </AMFile>
            <ScreenVMFile id="1917" start="1424" duration="72" scalar="1/1" mediaStart="1585/1" mediaDuration="72/1" trackNumber="0" src="5" >
             <Transformer>
              <VectorParam id="1918"  name="translation">
               <InterpolatingParam id="1919" interp="linr"  time="-9999999/1" value="0" leadInLength="0/1"  />
               <InterpolatingParam id="1920" interp="linr"  time="-9999999/1" value="0" leadInLength="0/1"  />
               <InterpolatingParam id="1921" interp="linr"  time="-9999999/1" value="0" leadInLength="0/1"  />
              </VectorParam>
              <VectorParam id="1922"  name="rotation">
               <InterpolatingParam id="1923" interp="linr"  time="-9999999/1" value="0" leadInLength="0/1"  />
               <InterpolatingParam id="1924" interp="linr"  time="-9999999/1" value="0" leadInLength="0/1"  />
               <InterpolatingParam id="1925" interp="linr"  time="-9999999/1" value="0" leadInLength="0/1"  />
              </VectorParam>
              <VectorParam id="1926"  name="shear">
               <InterpolatingParam id="1927" interp="linr"  time="-9999999/1" value="0" leadInLength="0/1"  />
               <InterpolatingParam id="1928" interp="linr"  time="-9999999/1" value="0" leadInLength="0/1"  />
               <InterpolatingParam id="1929" interp="linr"  time="-9999999/1" value="0" leadInLength="0/1"  />
              </VectorParam>
              <VectorParam id="1930"  name="scale">
               <InterpolatingParam id="1931" interp="linr"  time="-9999999/1" value="1" leadInLength="0/1"  />
               <InterpolatingParam id="1932" interp="linr"  time="-9999999/1" value="1" leadInLength="0/1"  />
               <InterpolatingParam id="1933" interp="linr"  time="-9999999/1" value="1" leadInLength="0/1"  />
              </VectorParam>
              <VectorParam id="1934"  name="anchor">
               <InterpolatingParam id="1935" interp="linr"  time="0/1" value="0" leadInLength="0/1"  />
               <InterpolatingParam id="1936" interp="linr"  time="0/1" value="0" leadInLength="0/1"  />
               <InterpolatingParam id="1937" interp="linr"  time="0/1" value="0" leadInLength="0/1"  />
              </VectorParam>
             </Transformer>
             <Parameters>
              <VectorParam id="1938"  name="sourceCrop">
               <InterpolatingParam id="1939" interp="linr"  time="0/1" value="0" leadInLength="0/1"  />
               <InterpolatingParam id="1940" interp="linr"  time="0/1" value="0" leadInLength="0/1"  />
               <InterpolatingParam id="1941" interp="linr"  time="0/1" value="0" leadInLength="0/1"  />
               <InterpolatingParam id="1942" interp="linr"  time="0/1" value="0" leadInLength="0/1"  />
              </VectorParam>
              <VectorParam id="1943"  name="geometryCrop">
               <InterpolatingParam id="1944" interp="linr"  time="-9999999/1" value="0" leadInLength="0/1"  />
               <InterpolatingParam id="1945" interp="linr"  time="-9999999/1" value="0" leadInLength="0/1"  />
               <InterpolatingParam id="1946" interp="linr"  time="-9999999/1" value="0" leadInLength="0/1"  />
               <InterpolatingParam id="1947" interp="linr"  time="-9999999/1" value="0" leadInLength="0/1"  />
              </VectorParam>
              <InterpolatingParam id="1948" interp="linr"  time="-9999999/1" value="1" leadInLength="0/1"  name="opacity"/>
              <InterpolatingParam id="1949" interp="linr"  time="0/1" value="0" leadInLength="0/1"  name="cursorOpacity"/>
              <InterpolatingParam id="1950" interp="linr"  time="0/1" value="0" leadInLength="0/1"  name="cursorScale"/>
             </Parameters>
             <Attributes>
              <Attribute id="1951" value="" name="ident"/>
             </Attributes>
             <ExtraData>
              <Entry key="ZoomPanBin">
               <ZoomPanBin id="1952"  >
                <ZoomPanKeyframes>
                 <ZoomPanKeyframe id="1953" timeRangeEnd="-9999999/1" timeRangeDuration="0/1" interpolaterName="linr"  />
                </ZoomPanKeyframes>
               </ZoomPanBin>
              </Entry>
              <Entry key="CursorEffectBin">
               <CursorEffectBin id="1954"  >
                <CursorEffectKeyframes>
                </CursorEffectKeyframes>
               </CursorEffectBin>
              </Entry>
             </ExtraData>
            </ScreenVMFile>
            <MetaData>
             <entry key="AutoAppliedSmartFocus" val="False"/>
             <entry key="WinSubProjectDisplayName" val=""/>
            </MetaData>
           </UnifiedMedia>
           <UnifiedMedia id="1955"  >
            <AMFile id="1956" start="1496" duration="50" scalar="1/1" mediaStart="1800/1" mediaDuration="50/1" trackNumber="1" src="5" channelNumber="0,1" >
             <Parameters>
              <InterpolatingParam id="1957" interp="linr"  time="0/1" value="1" leadInLength="0/1"  name="volume"/>
              <Parameter id="1958"  name="captions"/>
             </Parameters>
             <Attributes>
              <Attribute id="1959" value="" name="ident"/>
              <Attribute id="1960" value="44100" name="sampleRate"/>
              <Attribute id="1961" value="16" name="bitDepth"/>
              <Attribute id="1962" value="1" name="gain"/>
              <Attribute id="1963" value="0" name="mixToMono"/>
             </Attributes>
            </AMFile>
            <ScreenVMFile id="1964" start="1496" duration="50" scalar="1/1" mediaStart="1800/1" mediaDuration="50/1" trackNumber="0" src="5" >
             <Transformer>
              <VectorParam id="1965"  name="translation">
               <InterpolatingParam id="1966" interp="linr"  time="-9999999/1" value="0" leadInLength="0/1"  />
               <InterpolatingParam id="1967" interp="linr"  time="-9999999/1" value="0" leadInLength="0/1"  />
               <InterpolatingParam id="1968" interp="linr"  time="-9999999/1" value="0" leadInLength="0/1"  />
              </VectorParam>
              <VectorParam id="1969"  name="rotation">
               <InterpolatingParam id="1970" interp="linr"  time="-9999999/1" value="0" leadInLength="0/1"  />
               <InterpolatingParam id="1971" interp="linr"  time="-9999999/1" value="0" leadInLength="0/1"  />
               <InterpolatingParam id="1972" interp="linr"  time="-9999999/1" value="0" leadInLength="0/1"  />
              </VectorParam>
              <VectorParam id="1973"  name="shear">
               <InterpolatingParam id="1974" interp="linr"  time="-9999999/1" value="0" leadInLength="0/1"  />
               <InterpolatingParam id="1975" interp="linr"  time="-9999999/1" value="0" leadInLength="0/1"  />
               <InterpolatingParam id="1976" interp="linr"  time="-9999999/1" value="0" leadInLength="0/1"  />
              </VectorParam>
              <VectorParam id="1977"  name="scale">
               <InterpolatingParam id="1978" interp="linr"  time="-9999999/1" value="1" leadInLength="0/1"  />
               <InterpolatingParam id="1979" interp="linr"  time="-9999999/1" value="1" leadInLength="0/1"  />
               <InterpolatingParam id="1980" interp="linr"  time="-9999999/1" value="1" leadInLength="0/1"  />
              </VectorParam>
              <VectorParam id="1981"  name="anchor">
               <InterpolatingParam id="1982" interp="linr"  time="0/1" value="0" leadInLength="0/1"  />
               <InterpolatingParam id="1983" interp="linr"  time="0/1" value="0" leadInLength="0/1"  />
               <InterpolatingParam id="1984" interp="linr"  time="0/1" value="0" leadInLength="0/1"  />
              </VectorParam>
             </Transformer>
             <Parameters>
              <VectorParam id="1985"  name="sourceCrop">
               <InterpolatingParam id="1986" interp="linr"  time="0/1" value="0" leadInLength="0/1"  />
               <InterpolatingParam id="1987" interp="linr"  time="0/1" value="0" leadInLength="0/1"  />
               <InterpolatingParam id="1988" interp="linr"  time="0/1" value="0" leadInLength="0/1"  />
               <InterpolatingParam id="1989" interp="linr"  time="0/1" value="0" leadInLength="0/1"  />
              </VectorParam>
              <VectorParam id="1990"  name="geometryCrop">
               <InterpolatingParam id="1991" interp="linr"  time="-9999999/1" value="0" leadInLength="0/1"  />
               <InterpolatingParam id="1992" interp="linr"  time="-9999999/1" value="0" leadInLength="0/1"  />
               <InterpolatingParam id="1993" interp="linr"  time="-9999999/1" value="0" leadInLength="0/1"  />
               <InterpolatingParam id="1994" interp="linr"  time="-9999999/1" value="0" leadInLength="0/1"  />
              </VectorParam>
              <InterpolatingParam id="1995" interp="linr"  time="-9999999/1" value="1" leadInLength="0/1"  name="opacity"/>
              <InterpolatingParam id="1996" interp="linr"  time="0/1" value="0" leadInLength="0/1"  name="cursorOpacity"/>
              <InterpolatingParam id="1997" interp="linr"  time="0/1" value="0" leadInLength="0/1"  name="cursorScale"/>
             </Parameters>
             <Attributes>
              <Attribute id="1998" value="" name="ident"/>
             </Attributes>
             <ExtraData>
              <Entry key="ZoomPanBin">
               <ZoomPanBin id="1999"  >
                <ZoomPanKeyframes>
                 <ZoomPanKeyframe id="2000" timeRangeEnd="-9999999/1" timeRangeDuration="0/1" interpolaterName="linr"  />
                </ZoomPanKeyframes>
               </ZoomPanBin>
              </Entry>
              <Entry key="CursorEffectBin">
               <CursorEffectBin id="2001"  >
                <CursorEffectKeyframes>
                </CursorEffectKeyframes>
               </CursorEffectBin>
              </Entry>
             </ExtraData>
            </ScreenVMFile>
            <MetaData>
             <entry key="AutoAppliedSmartFocus" val="False"/>
             <entry key="WinSubProjectDisplayName" val=""/>
            </MetaData>
           </UnifiedMedia>
           <UnifiedMedia id="2002"  >
            <AMFile id="2003" start="1546" duration="10" scalar="1/1" mediaStart="1947/1" mediaDuration="10/1" trackNumber="1" src="5" channelNumber="0,1" >
             <Parameters>
              <InterpolatingParam id="2004" interp="linr"  time="0/1" value="1" leadInLength="0/1"  name="volume"/>
              <Parameter id="2005"  name="captions"/>
             </Parameters>
             <Attributes>
              <Attribute id="2006" value="" name="ident"/>
              <Attribute id="2007" value="44100" name="sampleRate"/>
              <Attribute id="2008" value="16" name="bitDepth"/>
              <Attribute id="2009" value="1" name="gain"/>
              <Attribute id="2010" value="0" name="mixToMono"/>
             </Attributes>
            </AMFile>
            <ScreenVMFile id="2011" start="1546" duration="10" scalar="1/1" mediaStart="1947/1" mediaDuration="10/1" trackNumber="0" src="5" >
             <Transformer>
              <VectorParam id="2012"  name="translation">
               <InterpolatingParam id="2013" interp="linr"  time="-9999999/1" value="0" leadInLength="0/1"  />
               <InterpolatingParam id="2014" interp="linr"  time="-9999999/1" value="0" leadInLength="0/1"  />
               <InterpolatingParam id="2015" interp="linr"  time="-9999999/1" value="0" leadInLength="0/1"  />
              </VectorParam>
              <VectorParam id="2016"  name="rotation">
               <InterpolatingParam id="2017" interp="linr"  time="-9999999/1" value="0" leadInLength="0/1"  />
               <InterpolatingParam id="2018" interp="linr"  time="-9999999/1" value="0" leadInLength="0/1"  />
               <InterpolatingParam id="2019" interp="linr"  time="-9999999/1" value="0" leadInLength="0/1"  />
              </VectorParam>
              <VectorParam id="2020"  name="shear">
               <InterpolatingParam id="2021" interp="linr"  time="-9999999/1" value="0" leadInLength="0/1"  />
               <InterpolatingParam id="2022" interp="linr"  time="-9999999/1" value="0" leadInLength="0/1"  />
               <InterpolatingParam id="2023" interp="linr"  time="-9999999/1" value="0" leadInLength="0/1"  />
              </VectorParam>
              <VectorParam id="2024"  name="scale">
               <InterpolatingParam id="2025" interp="linr"  time="-9999999/1" value="1" leadInLength="0/1"  />
               <InterpolatingParam id="2026" interp="linr"  time="-9999999/1" value="1" leadInLength="0/1"  />
               <InterpolatingParam id="2027" interp="linr"  time="-9999999/1" value="1" leadInLength="0/1"  />
              </VectorParam>
              <VectorParam id="2028"  name="anchor">
               <InterpolatingParam id="2029" interp="linr"  time="0/1" value="0" leadInLength="0/1"  />
               <InterpolatingParam id="2030" interp="linr"  time="0/1" value="0" leadInLength="0/1"  />
               <InterpolatingParam id="2031" interp="linr"  time="0/1" value="0" leadInLength="0/1"  />
              </VectorParam>
             </Transformer>
             <Parameters>
              <VectorParam id="2032"  name="sourceCrop">
               <InterpolatingParam id="2033" interp="linr"  time="0/1" value="0" leadInLength="0/1"  />
               <InterpolatingParam id="2034" interp="linr"  time="0/1" value="0" leadInLength="0/1"  />
               <InterpolatingParam id="2035" interp="linr"  time="0/1" value="0" leadInLength="0/1"  />
               <InterpolatingParam id="2036" interp="linr"  time="0/1" value="0" leadInLength="0/1"  />
              </VectorParam>
              <VectorParam id="2037"  name="geometryCrop">
               <InterpolatingParam id="2038" interp="linr"  time="-9999999/1" value="0" leadInLength="0/1"  />
               <InterpolatingParam id="2039" interp="linr"  time="-9999999/1" value="0" leadInLength="0/1"  />
               <InterpolatingParam id="2040" interp="linr"  time="-9999999/1" value="0" leadInLength="0/1"  />
               <InterpolatingParam id="2041" interp="linr"  time="-9999999/1" value="0" leadInLength="0/1"  />
              </VectorParam>
              <InterpolatingParam id="2042" interp="linr"  time="-9999999/1" value="1" leadInLength="0/1"  name="opacity"/>
              <InterpolatingParam id="2043" interp="linr"  time="0/1" value="0" leadInLength="0/1"  name="cursorOpacity"/>
              <InterpolatingParam id="2044" interp="linr"  time="0/1" value="0" leadInLength="0/1"  name="cursorScale"/>
             </Parameters>
             <Attributes>
              <Attribute id="2045" value="" name="ident"/>
             </Attributes>
             <ExtraData>
              <Entry key="ZoomPanBin">
               <ZoomPanBin id="2046"  >
                <ZoomPanKeyframes>
                 <ZoomPanKeyframe id="2047" timeRangeEnd="-9999999/1" timeRangeDuration="0/1" interpolaterName="linr"  />
                </ZoomPanKeyframes>
               </ZoomPanBin>
              </Entry>
              <Entry key="CursorEffectBin">
               <CursorEffectBin id="2048"  >
                <CursorEffectKeyframes>
                </CursorEffectKeyframes>
               </CursorEffectBin>
              </Entry>
             </ExtraData>
            </ScreenVMFile>
            <MetaData>
             <entry key="AutoAppliedSmartFocus" val="False"/>
             <entry key="WinSubProjectDisplayName" val=""/>
            </MetaData>
           </UnifiedMedia>
           <UnifiedMedia id="2049"  >
            <AMFile id="2050" start="1556" duration="724" scalar="1/1" mediaStart="2026/1" mediaDuration="724/1" trackNumber="1" src="5" channelNumber="0,1" >
             <Parameters>
              <InterpolatingParam id="2051" interp="linr"  time="0/1" value="1" leadInLength="0/1"  name="volume"/>
              <Parameter id="2052"  name="captions"/>
             </Parameters>
             <Attributes>
              <Attribute id="2053" value="" name="ident"/>
              <Attribute id="2054" value="44100" name="sampleRate"/>
              <Attribute id="2055" value="16" name="bitDepth"/>
              <Attribute id="2056" value="1" name="gain"/>
              <Attribute id="2057" value="0" name="mixToMono"/>
             </Attributes>
            </AMFile>
            <ScreenVMFile id="2058" start="1556" duration="724" scalar="1/1" mediaStart="2026/1" mediaDuration="724/1" trackNumber="0" src="5" >
             <Transformer>
              <VectorParam id="2059"  name="translation">
               <InterpolatingParam id="2060" interp="linr"  time="-9999999/1" value="0" leadInLength="0/1"  />
               <InterpolatingParam id="2061" interp="linr"  time="-9999999/1" value="0" leadInLength="0/1"  />
               <InterpolatingParam id="2062" interp="linr"  time="-9999999/1" value="0" leadInLength="0/1"  />
              </VectorParam>
              <VectorParam id="2063"  name="rotation">
               <InterpolatingParam id="2064" interp="linr"  time="-9999999/1" value="0" leadInLength="0/1"  />
               <InterpolatingParam id="2065" interp="linr"  time="-9999999/1" value="0" leadInLength="0/1"  />
               <InterpolatingParam id="2066" interp="linr"  time="-9999999/1" value="0" leadInLength="0/1"  />
              </VectorParam>
              <VectorParam id="2067"  name="shear">
               <InterpolatingParam id="2068" interp="linr"  time="-9999999/1" value="0" leadInLength="0/1"  />
               <InterpolatingParam id="2069" interp="linr"  time="-9999999/1" value="0" leadInLength="0/1"  />
               <InterpolatingParam id="2070" interp="linr"  time="-9999999/1" value="0" leadInLength="0/1"  />
              </VectorParam>
              <VectorParam id="2071"  name="scale">
               <InterpolatingParam id="2072" interp="linr"  time="-9999999/1" value="1" leadInLength="0/1"  />
               <InterpolatingParam id="2073" interp="linr"  time="-9999999/1" value="1" leadInLength="0/1"  />
               <InterpolatingParam id="2074" interp="linr"  time="-9999999/1" value="1" leadInLength="0/1"  />
              </VectorParam>
              <VectorParam id="2075"  name="anchor">
               <InterpolatingParam id="2076" interp="linr"  time="0/1" value="0" leadInLength="0/1"  />
               <InterpolatingParam id="2077" interp="linr"  time="0/1" value="0" leadInLength="0/1"  />
               <InterpolatingParam id="2078" interp="linr"  time="0/1" value="0" leadInLength="0/1"  />
              </VectorParam>
             </Transformer>
             <Parameters>
              <VectorParam id="2079"  name="sourceCrop">
               <InterpolatingParam id="2080" interp="linr"  time="0/1" value="0" leadInLength="0/1"  />
               <InterpolatingParam id="2081" interp="linr"  time="0/1" value="0" leadInLength="0/1"  />
               <InterpolatingParam id="2082" interp="linr"  time="0/1" value="0" leadInLength="0/1"  />
               <InterpolatingParam id="2083" interp="linr"  time="0/1" value="0" leadInLength="0/1"  />
              </VectorParam>
              <VectorParam id="2084"  name="geometryCrop">
               <InterpolatingParam id="2085" interp="linr"  time="-9999999/1" value="0" leadInLength="0/1"  />
               <InterpolatingParam id="2086" interp="linr"  time="-9999999/1" value="0" leadInLength="0/1"  />
               <InterpolatingParam id="2087" interp="linr"  time="-9999999/1" value="0" leadInLength="0/1"  />
               <InterpolatingParam id="2088" interp="linr"  time="-9999999/1" value="0" leadInLength="0/1"  />
              </VectorParam>
              <InterpolatingParam id="2089" interp="linr"  time="-9999999/1" value="1" leadInLength="0/1"  name="opacity"/>
              <InterpolatingParam id="2090" interp="linr"  time="0/1" value="0" leadInLength="0/1"  name="cursorOpacity"/>
              <InterpolatingParam id="2091" interp="linr"  time="0/1" value="0" leadInLength="0/1"  name="cursorScale"/>
             </Parameters>
             <Attributes>
              <Attribute id="2092" value="" name="ident"/>
             </Attributes>
             <ExtraData>
              <Entry key="ZoomPanBin">
               <ZoomPanBin id="2093"  >
                <ZoomPanKeyframes>
                 <ZoomPanKeyframe id="2094" timeRangeEnd="-9999999/1" timeRangeDuration="0/1" interpolaterName="linr"  />
                </ZoomPanKeyframes>
               </ZoomPanBin>
              </Entry>
              <Entry key="CursorEffectBin">
               <CursorEffectBin id="2095"  >
                <CursorEffectKeyframes>
                </CursorEffectKeyframes>
               </CursorEffectBin>
              </Entry>
             </ExtraData>
            </ScreenVMFile>
            <MetaData>
             <entry key="AutoAppliedSmartFocus" val="False"/>
             <entry key="WinSubProjectDisplayName" val=""/>
            </MetaData>
           </UnifiedMedia>
           <UnifiedMedia id="2096"  >
            <AMFile id="2097" start="2280" duration="122" scalar="1/1" mediaStart="2770/1" mediaDuration="122/1" trackNumber="1" src="5" channelNumber="0,1" >
             <Parameters>
              <InterpolatingParam id="2098" interp="linr"  time="0/1" value="1" leadInLength="0/1"  name="volume"/>
              <Parameter id="2099"  name="captions"/>
             </Parameters>
             <Attributes>
              <Attribute id="2100" value="" name="ident"/>
              <Attribute id="2101" value="44100" name="sampleRate"/>
              <Attribute id="2102" value="16" name="bitDepth"/>
              <Attribute id="2103" value="1" name="gain"/>
              <Attribute id="2104" value="0" name="mixToMono"/>
             </Attributes>
            </AMFile>
            <ScreenVMFile id="2105" start="2280" duration="122" scalar="1/1" mediaStart="2770/1" mediaDuration="122/1" trackNumber="0" src="5" >
             <Transformer>
              <VectorParam id="2106"  name="translation">
               <InterpolatingParam id="2107" interp="linr"  time="-9999999/1" value="0" leadInLength="0/1"  />
               <InterpolatingParam id="2108" interp="linr"  time="-9999999/1" value="0" leadInLength="0/1"  />
               <InterpolatingParam id="2109" interp="linr"  time="-9999999/1" value="0" leadInLength="0/1"  />
              </VectorParam>
              <VectorParam id="2110"  name="rotation">
               <InterpolatingParam id="2111" interp="linr"  time="-9999999/1" value="0" leadInLength="0/1"  />
               <InterpolatingParam id="2112" interp="linr"  time="-9999999/1" value="0" leadInLength="0/1"  />
               <InterpolatingParam id="2113" interp="linr"  time="-9999999/1" value="0" leadInLength="0/1"  />
              </VectorParam>
              <VectorParam id="2114"  name="shear">
               <InterpolatingParam id="2115" interp="linr"  time="-9999999/1" value="0" leadInLength="0/1"  />
               <InterpolatingParam id="2116" interp="linr"  time="-9999999/1" value="0" leadInLength="0/1"  />
               <InterpolatingParam id="2117" interp="linr"  time="-9999999/1" value="0" leadInLength="0/1"  />
              </VectorParam>
              <VectorParam id="2118"  name="scale">
               <InterpolatingParam id="2119" interp="linr"  time="-9999999/1" value="1" leadInLength="0/1"  />
               <InterpolatingParam id="2120" interp="linr"  time="-9999999/1" value="1" leadInLength="0/1"  />
               <InterpolatingParam id="2121" interp="linr"  time="-9999999/1" value="1" leadInLength="0/1"  />
              </VectorParam>
              <VectorParam id="2122"  name="anchor">
               <InterpolatingParam id="2123" interp="linr"  time="0/1" value="0" leadInLength="0/1"  />
               <InterpolatingParam id="2124" interp="linr"  time="0/1" value="0" leadInLength="0/1"  />
               <InterpolatingParam id="2125" interp="linr"  time="0/1" value="0" leadInLength="0/1"  />
              </VectorParam>
             </Transformer>
             <Parameters>
              <VectorParam id="2126"  name="sourceCrop">
               <InterpolatingParam id="2127" interp="linr"  time="0/1" value="0" leadInLength="0/1"  />
               <InterpolatingParam id="2128" interp="linr"  time="0/1" value="0" leadInLength="0/1"  />
               <InterpolatingParam id="2129" interp="linr"  time="0/1" value="0" leadInLength="0/1"  />
               <InterpolatingParam id="2130" interp="linr"  time="0/1" value="0" leadInLength="0/1"  />
              </VectorParam>
              <VectorParam id="2131"  name="geometryCrop">
               <InterpolatingParam id="2132" interp="linr"  time="-9999999/1" value="0" leadInLength="0/1"  />
               <InterpolatingParam id="2133" interp="linr"  time="-9999999/1" value="0" leadInLength="0/1"  />
               <InterpolatingParam id="2134" interp="linr"  time="-9999999/1" value="0" leadInLength="0/1"  />
               <InterpolatingParam id="2135" interp="linr"  time="-9999999/1" value="0" leadInLength="0/1"  />
              </VectorParam>
              <InterpolatingParam id="2136" interp="linr"  time="-9999999/1" value="1" leadInLength="0/1"  name="opacity"/>
              <InterpolatingParam id="2137" interp="linr"  time="0/1" value="0" leadInLength="0/1"  name="cursorOpacity"/>
              <InterpolatingParam id="2138" interp="linr"  time="0/1" value="0" leadInLength="0/1"  name="cursorScale"/>
             </Parameters>
             <Attributes>
              <Attribute id="2139" value="" name="ident"/>
             </Attributes>
             <ExtraData>
              <Entry key="ZoomPanBin">
               <ZoomPanBin id="2140"  >
                <ZoomPanKeyframes>
                 <ZoomPanKeyframe id="2141" timeRangeEnd="-9999999/1" timeRangeDuration="0/1" interpolaterName="linr"  />
                </ZoomPanKeyframes>
               </ZoomPanBin>
              </Entry>
              <Entry key="CursorEffectBin">
               <CursorEffectBin id="2142"  >
                <CursorEffectKeyframes>
                </CursorEffectKeyframes>
               </CursorEffectBin>
              </Entry>
             </ExtraData>
            </ScreenVMFile>
            <MetaData>
             <entry key="AutoAppliedSmartFocus" val="False"/>
             <entry key="WinSubProjectDisplayName" val=""/>
            </MetaData>
           </UnifiedMedia>
           <UnifiedMedia id="2143"  >
            <AMFile id="2144" start="2402" duration="97" scalar="1/1" mediaStart="3293/1" mediaDuration="97/1" trackNumber="1" src="5" channelNumber="0,1" >
             <Parameters>
              <InterpolatingParam id="2145" interp="linr"  time="0/1" value="1" leadInLength="0/1"  name="volume"/>
              <Parameter id="2146"  name="captions"/>
             </Parameters>
             <Attributes>
              <Attribute id="2147" value="" name="ident"/>
              <Attribute id="2148" value="44100" name="sampleRate"/>
              <Attribute id="2149" value="16" name="bitDepth"/>
              <Attribute id="2150" value="1" name="gain"/>
              <Attribute id="2151" value="0" name="mixToMono"/>
             </Attributes>
            </AMFile>
            <ScreenVMFile id="2152" start="2402" duration="97" scalar="1/1" mediaStart="3293/1" mediaDuration="97/1" trackNumber="0" src="5" >
             <Transformer>
              <VectorParam id="2153"  name="translation">
               <InterpolatingParam id="2154" interp="linr"  time="-9999999/1" value="0" leadInLength="0/1"  />
               <InterpolatingParam id="2155" interp="linr"  time="-9999999/1" value="0" leadInLength="0/1"  />
               <InterpolatingParam id="2156" interp="linr"  time="-9999999/1" value="0" leadInLength="0/1"  />
              </VectorParam>
              <VectorParam id="2157"  name="rotation">
               <InterpolatingParam id="2158" interp="linr"  time="-9999999/1" value="0" leadInLength="0/1"  />
               <InterpolatingParam id="2159" interp="linr"  time="-9999999/1" value="0" leadInLength="0/1"  />
               <InterpolatingParam id="2160" interp="linr"  time="-9999999/1" value="0" leadInLength="0/1"  />
              </VectorParam>
              <VectorParam id="2161"  name="shear">
               <InterpolatingParam id="2162" interp="linr"  time="-9999999/1" value="0" leadInLength="0/1"  />
               <InterpolatingParam id="2163" interp="linr"  time="-9999999/1" value="0" leadInLength="0/1"  />
               <InterpolatingParam id="2164" interp="linr"  time="-9999999/1" value="0" leadInLength="0/1"  />
              </VectorParam>
              <VectorParam id="2165"  name="scale">
               <InterpolatingParam id="2166" interp="linr"  time="-9999999/1" value="1" leadInLength="0/1"  />
               <InterpolatingParam id="2167" interp="linr"  time="-9999999/1" value="1" leadInLength="0/1"  />
               <InterpolatingParam id="2168" interp="linr"  time="-9999999/1" value="1" leadInLength="0/1"  />
              </VectorParam>
              <VectorParam id="2169"  name="anchor">
               <InterpolatingParam id="2170" interp="linr"  time="0/1" value="0" leadInLength="0/1"  />
               <InterpolatingParam id="2171" interp="linr"  time="0/1" value="0" leadInLength="0/1"  />
               <InterpolatingParam id="2172" interp="linr"  time="0/1" value="0" leadInLength="0/1"  />
              </VectorParam>
             </Transformer>
             <Parameters>
              <VectorParam id="2173"  name="sourceCrop">
               <InterpolatingParam id="2174" interp="linr"  time="0/1" value="0" leadInLength="0/1"  />
               <InterpolatingParam id="2175" interp="linr"  time="0/1" value="0" leadInLength="0/1"  />
               <InterpolatingParam id="2176" interp="linr"  time="0/1" value="0" leadInLength="0/1"  />
               <InterpolatingParam id="2177" interp="linr"  time="0/1" value="0" leadInLength="0/1"  />
              </VectorParam>
              <VectorParam id="2178"  name="geometryCrop">
               <InterpolatingParam id="2179" interp="linr"  time="-9999999/1" value="0" leadInLength="0/1"  />
               <InterpolatingParam id="2180" interp="linr"  time="-9999999/1" value="0" leadInLength="0/1"  />
               <InterpolatingParam id="2181" interp="linr"  time="-9999999/1" value="0" leadInLength="0/1"  />
               <InterpolatingParam id="2182" interp="linr"  time="-9999999/1" value="0" leadInLength="0/1"  />
              </VectorParam>
              <InterpolatingParam id="2183" interp="linr"  time="-9999999/1" value="1" leadInLength="0/1"  name="opacity"/>
              <InterpolatingParam id="2184" interp="linr"  time="0/1" value="0" leadInLength="0/1"  name="cursorOpacity"/>
              <InterpolatingParam id="2185" interp="linr"  time="0/1" value="0" leadInLength="0/1"  name="cursorScale"/>
             </Parameters>
             <Attributes>
              <Attribute id="2186" value="" name="ident"/>
             </Attributes>
             <ExtraData>
              <Entry key="ZoomPanBin">
               <ZoomPanBin id="2187"  >
                <ZoomPanKeyframes>
                 <ZoomPanKeyframe id="2188" timeRangeEnd="-9999999/1" timeRangeDuration="0/1" interpolaterName="linr"  />
                </ZoomPanKeyframes>
               </ZoomPanBin>
              </Entry>
              <Entry key="CursorEffectBin">
               <CursorEffectBin id="2189"  >
                <CursorEffectKeyframes>
                </CursorEffectKeyframes>
               </CursorEffectBin>
              </Entry>
             </ExtraData>
            </ScreenVMFile>
            <MetaData>
             <entry key="AutoAppliedSmartFocus" val="False"/>
             <entry key="WinSubProjectDisplayName" val=""/>
            </MetaData>
           </UnifiedMedia>
           <UnifiedMedia id="2190"  >
            <AMFile id="2191" start="2499" duration="4" scalar="1/1" mediaStart="4305/1" mediaDuration="4/1" trackNumber="1" src="5" channelNumber="0,1" >
             <Parameters>
              <InterpolatingParam id="2192" interp="linr"  time="0/1" value="1" leadInLength="0/1"  name="volume"/>
              <Parameter id="2193"  name="captions"/>
             </Parameters>
             <Attributes>
              <Attribute id="2194" value="" name="ident"/>
              <Attribute id="2195" value="44100" name="sampleRate"/>
              <Attribute id="2196" value="16" name="bitDepth"/>
              <Attribute id="2197" value="1" name="gain"/>
              <Attribute id="2198" value="0" name="mixToMono"/>
             </Attributes>
            </AMFile>
            <ScreenVMFile id="2199" start="2499" duration="4" scalar="1/1" mediaStart="4305/1" mediaDuration="4/1" trackNumber="0" src="5" >
             <Transformer>
              <VectorParam id="2200"  name="translation">
               <InterpolatingParam id="2201" interp="linr"  time="-9999999/1" value="0" leadInLength="0/1"  />
               <InterpolatingParam id="2202" interp="linr"  time="-9999999/1" value="0" leadInLength="0/1"  />
               <InterpolatingParam id="2203" interp="linr"  time="-9999999/1" value="0" leadInLength="0/1"  />
              </VectorParam>
              <VectorParam id="2204"  name="rotation">
               <InterpolatingParam id="2205" interp="linr"  time="-9999999/1" value="0" leadInLength="0/1"  />
               <InterpolatingParam id="2206" interp="linr"  time="-9999999/1" value="0" leadInLength="0/1"  />
               <InterpolatingParam id="2207" interp="linr"  time="-9999999/1" value="0" leadInLength="0/1"  />
              </VectorParam>
              <VectorParam id="2208"  name="shear">
               <InterpolatingParam id="2209" interp="linr"  time="-9999999/1" value="0" leadInLength="0/1"  />
               <InterpolatingParam id="2210" interp="linr"  time="-9999999/1" value="0" leadInLength="0/1"  />
               <InterpolatingParam id="2211" interp="linr"  time="-9999999/1" value="0" leadInLength="0/1"  />
              </VectorParam>
              <VectorParam id="2212"  name="scale">
               <InterpolatingParam id="2213" interp="linr"  time="-9999999/1" value="1" leadInLength="0/1"  />
               <InterpolatingParam id="2214" interp="linr"  time="-9999999/1" value="1" leadInLength="0/1"  />
               <InterpolatingParam id="2215" interp="linr"  time="-9999999/1" value="1" leadInLength="0/1"  />
              </VectorParam>
              <VectorParam id="2216"  name="anchor">
               <InterpolatingParam id="2217" interp="linr"  time="0/1" value="0" leadInLength="0/1"  />
               <InterpolatingParam id="2218" interp="linr"  time="0/1" value="0" leadInLength="0/1"  />
               <InterpolatingParam id="2219" interp="linr"  time="0/1" value="0" leadInLength="0/1"  />
              </VectorParam>
             </Transformer>
             <Parameters>
              <VectorParam id="2220"  name="sourceCrop">
               <InterpolatingParam id="2221" interp="linr"  time="0/1" value="0" leadInLength="0/1"  />
               <InterpolatingParam id="2222" interp="linr"  time="0/1" value="0" leadInLength="0/1"  />
               <InterpolatingParam id="2223" interp="linr"  time="0/1" value="0" leadInLength="0/1"  />
               <InterpolatingParam id="2224" interp="linr"  time="0/1" value="0" leadInLength="0/1"  />
              </VectorParam>
              <VectorParam id="2225"  name="geometryCrop">
               <InterpolatingParam id="2226" interp="linr"  time="-9999999/1" value="0" leadInLength="0/1"  />
               <InterpolatingParam id="2227" interp="linr"  time="-9999999/1" value="0" leadInLength="0/1"  />
               <InterpolatingParam id="2228" interp="linr"  time="-9999999/1" value="0" leadInLength="0/1"  />
               <InterpolatingParam id="2229" interp="linr"  time="-9999999/1" value="0" leadInLength="0/1"  />
              </VectorParam>
              <InterpolatingParam id="2230" interp="linr"  time="-9999999/1" value="1" leadInLength="0/1"  name="opacity"/>
              <InterpolatingParam id="2231" interp="linr"  time="0/1" value="0" leadInLength="0/1"  name="cursorOpacity"/>
              <InterpolatingParam id="2232" interp="linr"  time="0/1" value="0" leadInLength="0/1"  name="cursorScale"/>
             </Parameters>
             <Attributes>
              <Attribute id="2233" value="" name="ident"/>
             </Attributes>
             <ExtraData>
              <Entry key="ZoomPanBin">
               <ZoomPanBin id="2234"  >
                <ZoomPanKeyframes>
                 <ZoomPanKeyframe id="2235" timeRangeEnd="-9999999/1" timeRangeDuration="0/1" interpolaterName="linr"  />
                </ZoomPanKeyframes>
               </ZoomPanBin>
              </Entry>
              <Entry key="CursorEffectBin">
               <CursorEffectBin id="2236"  >
                <CursorEffectKeyframes>
                </CursorEffectKeyframes>
               </CursorEffectBin>
              </Entry>
             </ExtraData>
            </ScreenVMFile>
            <MetaData>
             <entry key="AutoAppliedSmartFocus" val="False"/>
             <entry key="WinSubProjectDisplayName" val=""/>
            </MetaData>
           </UnifiedMedia>
           <UnifiedMedia id="2237"  >
            <AMFile id="2238" start="2503" duration="149" scalar="1/1" mediaStart="4432/1" mediaDuration="149/1" trackNumber="1" src="5" channelNumber="0,1" >
             <Parameters>
              <InterpolatingParam id="2239" interp="linr"  time="0/1" value="1" leadInLength="0/1"  name="volume"/>
              <Parameter id="2240"  name="captions"/>
             </Parameters>
             <Attributes>
              <Attribute id="2241" value="" name="ident"/>
              <Attribute id="2242" value="44100" name="sampleRate"/>
              <Attribute id="2243" value="16" name="bitDepth"/>
              <Attribute id="2244" value="1" name="gain"/>
              <Attribute id="2245" value="0" name="mixToMono"/>
             </Attributes>
            </AMFile>
            <ScreenVMFile id="2246" start="2503" duration="149" scalar="1/1" mediaStart="4432/1" mediaDuration="149/1" trackNumber="0" src="5" >
             <Transformer>
              <VectorParam id="2247"  name="translation">
               <InterpolatingParam id="2248" interp="linr"  time="-9999999/1" value="0" leadInLength="0/1"  />
               <InterpolatingParam id="2249" interp="linr"  time="-9999999/1" value="0" leadInLength="0/1"  />
               <InterpolatingParam id="2250" interp="linr"  time="-9999999/1" value="0" leadInLength="0/1"  />
              </VectorParam>
              <VectorParam id="2251"  name="rotation">
               <InterpolatingParam id="2252" interp="linr"  time="-9999999/1" value="0" leadInLength="0/1"  />
               <InterpolatingParam id="2253" interp="linr"  time="-9999999/1" value="0" leadInLength="0/1"  />
               <InterpolatingParam id="2254" interp="linr"  time="-9999999/1" value="0" leadInLength="0/1"  />
              </VectorParam>
              <VectorParam id="2255"  name="shear">
               <InterpolatingParam id="2256" interp="linr"  time="-9999999/1" value="0" leadInLength="0/1"  />
               <InterpolatingParam id="2257" interp="linr"  time="-9999999/1" value="0" leadInLength="0/1"  />
               <InterpolatingParam id="2258" interp="linr"  time="-9999999/1" value="0" leadInLength="0/1"  />
              </VectorParam>
              <VectorParam id="2259"  name="scale">
               <InterpolatingParam id="2260" interp="linr"  time="-9999999/1" value="1" leadInLength="0/1"  />
               <InterpolatingParam id="2261" interp="linr"  time="-9999999/1" value="1" leadInLength="0/1"  />
               <InterpolatingParam id="2262" interp="linr"  time="-9999999/1" value="1" leadInLength="0/1"  />
              </VectorParam>
              <VectorParam id="2263"  name="anchor">
               <InterpolatingParam id="2264" interp="linr"  time="0/1" value="0" leadInLength="0/1"  />
               <InterpolatingParam id="2265" interp="linr"  time="0/1" value="0" leadInLength="0/1"  />
               <InterpolatingParam id="2266" interp="linr"  time="0/1" value="0" leadInLength="0/1"  />
              </VectorParam>
             </Transformer>
             <Parameters>
              <VectorParam id="2267"  name="sourceCrop">
               <InterpolatingParam id="2268" interp="linr"  time="0/1" value="0" leadInLength="0/1"  />
               <InterpolatingParam id="2269" interp="linr"  time="0/1" value="0" leadInLength="0/1"  />
               <InterpolatingParam id="2270" interp="linr"  time="0/1" value="0" leadInLength="0/1"  />
               <InterpolatingParam id="2271" interp="linr"  time="0/1" value="0" leadInLength="0/1"  />
              </VectorParam>
              <VectorParam id="2272"  name="geometryCrop">
               <InterpolatingParam id="2273" interp="linr"  time="-9999999/1" value="0" leadInLength="0/1"  />
               <InterpolatingParam id="2274" interp="linr"  time="-9999999/1" value="0" leadInLength="0/1"  />
               <InterpolatingParam id="2275" interp="linr"  time="-9999999/1" value="0" leadInLength="0/1"  />
               <InterpolatingParam id="2276" interp="linr"  time="-9999999/1" value="0" leadInLength="0/1"  />
              </VectorParam>
              <InterpolatingParam id="2277" interp="linr"  time="-9999999/1" value="1" leadInLength="0/1"  name="opacity"/>
              <InterpolatingParam id="2278" interp="linr"  time="0/1" value="0" leadInLength="0/1"  name="cursorOpacity"/>
              <InterpolatingParam id="2279" interp="linr"  time="0/1" value="0" leadInLength="0/1"  name="cursorScale"/>
             </Parameters>
             <Attributes>
              <Attribute id="2280" value="" name="ident"/>
             </Attributes>
             <ExtraData>
              <Entry key="ZoomPanBin">
               <ZoomPanBin id="2281"  >
                <ZoomPanKeyframes>
                 <ZoomPanKeyframe id="2282" timeRangeEnd="-9999999/1" timeRangeDuration="0/1" interpolaterName="linr"  />
                </ZoomPanKeyframes>
               </ZoomPanBin>
              </Entry>
              <Entry key="CursorEffectBin">
               <CursorEffectBin id="2283"  >
                <CursorEffectKeyframes>
                </CursorEffectKeyframes>
               </CursorEffectBin>
              </Entry>
             </ExtraData>
            </ScreenVMFile>
            <MetaData>
             <entry key="AutoAppliedSmartFocus" val="False"/>
             <entry key="WinSubProjectDisplayName" val=""/>
            </MetaData>
           </UnifiedMedia>
           <UnifiedMedia id="2284"  >
            <AMFile id="2285" start="2652" duration="28" scalar="1/1" mediaStart="4588/1" mediaDuration="28/1" trackNumber="1" src="5" channelNumber="0,1" >
             <Parameters>
              <InterpolatingParam id="2286" interp="linr"  time="0/1" value="1" leadInLength="0/1"  name="volume"/>
              <Parameter id="2287"  name="captions"/>
             </Parameters>
             <Attributes>
              <Attribute id="2288" value="" name="ident"/>
              <Attribute id="2289" value="44100" name="sampleRate"/>
              <Attribute id="2290" value="16" name="bitDepth"/>
              <Attribute id="2291" value="1" name="gain"/>
              <Attribute id="2292" value="0" name="mixToMono"/>
             </Attributes>
            </AMFile>
            <ScreenVMFile id="2293" start="2652" duration="28" scalar="1/1" mediaStart="4588/1" mediaDuration="28/1" trackNumber="0" src="5" >
             <Transformer>
              <VectorParam id="2294"  name="translation">
               <InterpolatingParam id="2295" interp="linr"  time="-9999999/1" value="0" leadInLength="0/1"  />
               <InterpolatingParam id="2296" interp="linr"  time="-9999999/1" value="0" leadInLength="0/1"  />
               <InterpolatingParam id="2297" interp="linr"  time="-9999999/1" value="0" leadInLength="0/1"  />
              </VectorParam>
              <VectorParam id="2298"  name="rotation">
               <InterpolatingParam id="2299" interp="linr"  time="-9999999/1" value="0" leadInLength="0/1"  />
               <InterpolatingParam id="2300" interp="linr"  time="-9999999/1" value="0" leadInLength="0/1"  />
               <InterpolatingParam id="2301" interp="linr"  time="-9999999/1" value="0" leadInLength="0/1"  />
              </VectorParam>
              <VectorParam id="2302"  name="shear">
               <InterpolatingParam id="2303" interp="linr"  time="-9999999/1" value="0" leadInLength="0/1"  />
               <InterpolatingParam id="2304" interp="linr"  time="-9999999/1" value="0" leadInLength="0/1"  />
               <InterpolatingParam id="2305" interp="linr"  time="-9999999/1" value="0" leadInLength="0/1"  />
              </VectorParam>
              <VectorParam id="2306"  name="scale">
               <InterpolatingParam id="2307" interp="linr"  time="-9999999/1" value="1" leadInLength="0/1"  />
               <InterpolatingParam id="2308" interp="linr"  time="-9999999/1" value="1" leadInLength="0/1"  />
               <InterpolatingParam id="2309" interp="linr"  time="-9999999/1" value="1" leadInLength="0/1"  />
              </VectorParam>
              <VectorParam id="2310"  name="anchor">
               <InterpolatingParam id="2311" interp="linr"  time="0/1" value="0" leadInLength="0/1"  />
               <InterpolatingParam id="2312" interp="linr"  time="0/1" value="0" leadInLength="0/1"  />
               <InterpolatingParam id="2313" interp="linr"  time="0/1" value="0" leadInLength="0/1"  />
              </VectorParam>
             </Transformer>
             <Parameters>
              <VectorParam id="2314"  name="sourceCrop">
               <InterpolatingParam id="2315" interp="linr"  time="0/1" value="0" leadInLength="0/1"  />
               <InterpolatingParam id="2316" interp="linr"  time="0/1" value="0" leadInLength="0/1"  />
               <InterpolatingParam id="2317" interp="linr"  time="0/1" value="0" leadInLength="0/1"  />
               <InterpolatingParam id="2318" interp="linr"  time="0/1" value="0" leadInLength="0/1"  />
              </VectorParam>
              <VectorParam id="2319"  name="geometryCrop">
               <InterpolatingParam id="2320" interp="linr"  time="-9999999/1" value="0" leadInLength="0/1"  />
               <InterpolatingParam id="2321" interp="linr"  time="-9999999/1" value="0" leadInLength="0/1"  />
               <InterpolatingParam id="2322" interp="linr"  time="-9999999/1" value="0" leadInLength="0/1"  />
               <InterpolatingParam id="2323" interp="linr"  time="-9999999/1" value="0" leadInLength="0/1"  />
              </VectorParam>
              <InterpolatingParam id="2324" interp="linr"  time="-9999999/1" value="1" leadInLength="0/1"  name="opacity"/>
              <InterpolatingParam id="2325" interp="linr"  time="0/1" value="0" leadInLength="0/1"  name="cursorOpacity"/>
              <InterpolatingParam id="2326" interp="linr"  time="0/1" value="0" leadInLength="0/1"  name="cursorScale"/>
             </Parameters>
             <Attributes>
              <Attribute id="2327" value="" name="ident"/>
             </Attributes>
             <ExtraData>
              <Entry key="ZoomPanBin">
               <ZoomPanBin id="2328"  >
                <ZoomPanKeyframes>
                 <ZoomPanKeyframe id="2329" timeRangeEnd="-9999999/1" timeRangeDuration="0/1" interpolaterName="linr"  />
                </ZoomPanKeyframes>
               </ZoomPanBin>
              </Entry>
              <Entry key="CursorEffectBin">
               <CursorEffectBin id="2330"  >
                <CursorEffectKeyframes>
                </CursorEffectKeyframes>
               </CursorEffectBin>
              </Entry>
             </ExtraData>
            </ScreenVMFile>
            <MetaData>
             <entry key="AutoAppliedSmartFocus" val="False"/>
             <entry key="WinSubProjectDisplayName" val=""/>
            </MetaData>
           </UnifiedMedia>
           <UnifiedMedia id="2331"  >
            <AMFile id="2332" start="2680" duration="208" scalar="1/1" mediaStart="4713/1" mediaDuration="208/1" trackNumber="1" src="5" channelNumber="0,1" >
             <Parameters>
              <InterpolatingParam id="2333" interp="linr"  time="0/1" value="1" leadInLength="0/1"  name="volume"/>
              <Parameter id="2334"  name="captions"/>
             </Parameters>
             <Attributes>
              <Attribute id="2335" value="" name="ident"/>
              <Attribute id="2336" value="44100" name="sampleRate"/>
              <Attribute id="2337" value="16" name="bitDepth"/>
              <Attribute id="2338" value="1" name="gain"/>
              <Attribute id="2339" value="0" name="mixToMono"/>
             </Attributes>
            </AMFile>
            <ScreenVMFile id="2340" start="2680" duration="208" scalar="1/1" mediaStart="4713/1" mediaDuration="208/1" trackNumber="0" src="5" >
             <Transformer>
              <VectorParam id="2341"  name="translation">
               <InterpolatingParam id="2342" interp="linr"  time="-9999999/1" value="0" leadInLength="0/1"  />
               <InterpolatingParam id="2343" interp="linr"  time="-9999999/1" value="0" leadInLength="0/1"  />
               <InterpolatingParam id="2344" interp="linr"  time="-9999999/1" value="0" leadInLength="0/1"  />
              </VectorParam>
              <VectorParam id="2345"  name="rotation">
               <InterpolatingParam id="2346" interp="linr"  time="-9999999/1" value="0" leadInLength="0/1"  />
               <InterpolatingParam id="2347" interp="linr"  time="-9999999/1" value="0" leadInLength="0/1"  />
               <InterpolatingParam id="2348" interp="linr"  time="-9999999/1" value="0" leadInLength="0/1"  />
              </VectorParam>
              <VectorParam id="2349"  name="shear">
               <InterpolatingParam id="2350" interp="linr"  time="-9999999/1" value="0" leadInLength="0/1"  />
               <InterpolatingParam id="2351" interp="linr"  time="-9999999/1" value="0" leadInLength="0/1"  />
               <InterpolatingParam id="2352" interp="linr"  time="-9999999/1" value="0" leadInLength="0/1"  />
              </VectorParam>
              <VectorParam id="2353"  name="scale">
               <InterpolatingParam id="2354" interp="linr"  time="-9999999/1" value="1" leadInLength="0/1"  />
               <InterpolatingParam id="2355" interp="linr"  time="-9999999/1" value="1" leadInLength="0/1"  />
               <InterpolatingParam id="2356" interp="linr"  time="-9999999/1" value="1" leadInLength="0/1"  />
              </VectorParam>
              <VectorParam id="2357"  name="anchor">
               <InterpolatingParam id="2358" interp="linr"  time="0/1" value="0" leadInLength="0/1"  />
               <InterpolatingParam id="2359" interp="linr"  time="0/1" value="0" leadInLength="0/1"  />
               <InterpolatingParam id="2360" interp="linr"  time="0/1" value="0" leadInLength="0/1"  />
              </VectorParam>
             </Transformer>
             <Parameters>
              <VectorParam id="2361"  name="sourceCrop">
               <InterpolatingParam id="2362" interp="linr"  time="0/1" value="0" leadInLength="0/1"  />
               <InterpolatingParam id="2363" interp="linr"  time="0/1" value="0" leadInLength="0/1"  />
               <InterpolatingParam id="2364" interp="linr"  time="0/1" value="0" leadInLength="0/1"  />
               <InterpolatingParam id="2365" interp="linr"  time="0/1" value="0" leadInLength="0/1"  />
              </VectorParam>
              <VectorParam id="2366"  name="geometryCrop">
               <InterpolatingParam id="2367" interp="linr"  time="-9999999/1" value="0" leadInLength="0/1"  />
               <InterpolatingParam id="2368" interp="linr"  time="-9999999/1" value="0" leadInLength="0/1"  />
               <InterpolatingParam id="2369" interp="linr"  time="-9999999/1" value="0" leadInLength="0/1"  />
               <InterpolatingParam id="2370" interp="linr"  time="-9999999/1" value="0" leadInLength="0/1"  />
              </VectorParam>
              <InterpolatingParam id="2371" interp="linr"  time="-9999999/1" value="1" leadInLength="0/1"  name="opacity"/>
              <InterpolatingParam id="2372" interp="linr"  time="0/1" value="0" leadInLength="0/1"  name="cursorOpacity"/>
              <InterpolatingParam id="2373" interp="linr"  time="0/1" value="0" leadInLength="0/1"  name="cursorScale"/>
             </Parameters>
             <Attributes>
              <Attribute id="2374" value="" name="ident"/>
             </Attributes>
             <ExtraData>
              <Entry key="ZoomPanBin">
               <ZoomPanBin id="2375"  >
                <ZoomPanKeyframes>
                 <ZoomPanKeyframe id="2376" timeRangeEnd="-9999999/1" timeRangeDuration="0/1" interpolaterName="linr"  />
                </ZoomPanKeyframes>
               </ZoomPanBin>
              </Entry>
              <Entry key="CursorEffectBin">
               <CursorEffectBin id="2377"  >
                <CursorEffectKeyframes>
                </CursorEffectKeyframes>
               </CursorEffectBin>
              </Entry>
             </ExtraData>
            </ScreenVMFile>
            <MetaData>
             <entry key="AutoAppliedSmartFocus" val="False"/>
             <entry key="WinSubProjectDisplayName" val=""/>
            </MetaData>
           </UnifiedMedia>
           <UnifiedMedia id="2378"  >
            <AMFile id="2379" start="2888" duration="87" scalar="1/1" mediaStart="5531/1" mediaDuration="87/1" trackNumber="1" src="5" channelNumber="0,1" >
             <Parameters>
              <InterpolatingParam id="2380" interp="linr"  time="0/1" value="1" leadInLength="0/1"  name="volume"/>
              <Parameter id="2381"  name="captions"/>
             </Parameters>
             <Attributes>
              <Attribute id="2382" value="" name="ident"/>
              <Attribute id="2383" value="44100" name="sampleRate"/>
              <Attribute id="2384" value="16" name="bitDepth"/>
              <Attribute id="2385" value="1" name="gain"/>
              <Attribute id="2386" value="0" name="mixToMono"/>
             </Attributes>
            </AMFile>
            <ScreenVMFile id="2387" start="2888" duration="87" scalar="1/1" mediaStart="5531/1" mediaDuration="87/1" trackNumber="0" src="5" >
             <Transformer>
              <VectorParam id="2388"  name="translation">
               <InterpolatingParam id="2389" interp="linr"  time="-9999999/1" value="0" leadInLength="0/1"  />
               <InterpolatingParam id="2390" interp="linr"  time="-9999999/1" value="0" leadInLength="0/1"  />
               <InterpolatingParam id="2391" interp="linr"  time="-9999999/1" value="0" leadInLength="0/1"  />
              </VectorParam>
              <VectorParam id="2392"  name="rotation">
               <InterpolatingParam id="2393" interp="linr"  time="-9999999/1" value="0" leadInLength="0/1"  />
               <InterpolatingParam id="2394" interp="linr"  time="-9999999/1" value="0" leadInLength="0/1"  />
               <InterpolatingParam id="2395" interp="linr"  time="-9999999/1" value="0" leadInLength="0/1"  />
              </VectorParam>
              <VectorParam id="2396"  name="shear">
               <InterpolatingParam id="2397" interp="linr"  time="-9999999/1" value="0" leadInLength="0/1"  />
               <InterpolatingParam id="2398" interp="linr"  time="-9999999/1" value="0" leadInLength="0/1"  />
               <InterpolatingParam id="2399" interp="linr"  time="-9999999/1" value="0" leadInLength="0/1"  />
              </VectorParam>
              <VectorParam id="2400"  name="scale">
               <InterpolatingParam id="2401" interp="linr"  time="-9999999/1" value="1" leadInLength="0/1"  />
               <InterpolatingParam id="2402" interp="linr"  time="-9999999/1" value="1" leadInLength="0/1"  />
               <InterpolatingParam id="2403" interp="linr"  time="-9999999/1" value="1" leadInLength="0/1"  />
              </VectorParam>
              <VectorParam id="2404"  name="anchor">
               <InterpolatingParam id="2405" interp="linr"  time="0/1" value="0" leadInLength="0/1"  />
               <InterpolatingParam id="2406" interp="linr"  time="0/1" value="0" leadInLength="0/1"  />
               <InterpolatingParam id="2407" interp="linr"  time="0/1" value="0" leadInLength="0/1"  />
              </VectorParam>
             </Transformer>
             <Parameters>
              <VectorParam id="2408"  name="sourceCrop">
               <InterpolatingParam id="2409" interp="linr"  time="0/1" value="0" leadInLength="0/1"  />
               <InterpolatingParam id="2410" interp="linr"  time="0/1" value="0" leadInLength="0/1"  />
               <InterpolatingParam id="2411" interp="linr"  time="0/1" value="0" leadInLength="0/1"  />
               <InterpolatingParam id="2412" interp="linr"  time="0/1" value="0" leadInLength="0/1"  />
              </VectorParam>
              <VectorParam id="2413"  name="geometryCrop">
               <InterpolatingParam id="2414" interp="linr"  time="-9999999/1" value="0" leadInLength="0/1"  />
               <InterpolatingParam id="2415" interp="linr"  time="-9999999/1" value="0" leadInLength="0/1"  />
               <InterpolatingParam id="2416" interp="linr"  time="-9999999/1" value="0" leadInLength="0/1"  />
               <InterpolatingParam id="2417" interp="linr"  time="-9999999/1" value="0" leadInLength="0/1"  />
              </VectorParam>
              <InterpolatingParam id="2418" interp="linr"  time="-9999999/1" value="1" leadInLength="0/1"  name="opacity"/>
              <InterpolatingParam id="2419" interp="linr"  time="0/1" value="0" leadInLength="0/1"  name="cursorOpacity"/>
              <InterpolatingParam id="2420" interp="linr"  time="0/1" value="0" leadInLength="0/1"  name="cursorScale"/>
             </Parameters>
             <Attributes>
              <Attribute id="2421" value="" name="ident"/>
             </Attributes>
             <ExtraData>
              <Entry key="ZoomPanBin">
               <ZoomPanBin id="2422"  >
                <ZoomPanKeyframes>
                 <ZoomPanKeyframe id="2423" timeRangeEnd="-9999999/1" timeRangeDuration="0/1" interpolaterName="linr"  />
                </ZoomPanKeyframes>
               </ZoomPanBin>
              </Entry>
              <Entry key="CursorEffectBin">
               <CursorEffectBin id="2424"  >
                <CursorEffectKeyframes>
                </CursorEffectKeyframes>
               </CursorEffectBin>
              </Entry>
             </ExtraData>
            </ScreenVMFile>
            <MetaData>
             <entry key="AutoAppliedSmartFocus" val="False"/>
             <entry key="WinSubProjectDisplayName" val=""/>
            </MetaData>
           </UnifiedMedia>
           <UnifiedMedia id="2425"  >
            <AMFile id="2426" start="2975" duration="448" scalar="1/1" mediaStart="5674/1" mediaDuration="448/1" trackNumber="1" src="5" channelNumber="0,1" >
             <Parameters>
              <InterpolatingParam id="2427" interp="linr"  time="0/1" value="1" leadInLength="0/1"  name="volume"/>
              <Parameter id="2428"  name="captions"/>
             </Parameters>
             <Attributes>
              <Attribute id="2429" value="" name="ident"/>
              <Attribute id="2430" value="44100" name="sampleRate"/>
              <Attribute id="2431" value="16" name="bitDepth"/>
              <Attribute id="2432" value="1" name="gain"/>
              <Attribute id="2433" value="0" name="mixToMono"/>
             </Attributes>
            </AMFile>
            <ScreenVMFile id="2434" start="2975" duration="448" scalar="1/1" mediaStart="5674/1" mediaDuration="448/1" trackNumber="0" src="5" >
             <Transformer>
              <VectorParam id="2435"  name="translation">
               <InterpolatingParam id="2436" interp="linr"  time="-9999999/1" value="0" leadInLength="0/1"  />
               <InterpolatingParam id="2437" interp="linr"  time="-9999999/1" value="0" leadInLength="0/1"  />
               <InterpolatingParam id="2438" interp="linr"  time="-9999999/1" value="0" leadInLength="0/1"  />
              </VectorParam>
              <VectorParam id="2439"  name="rotation">
               <InterpolatingParam id="2440" interp="linr"  time="-9999999/1" value="0" leadInLength="0/1"  />
               <InterpolatingParam id="2441" interp="linr"  time="-9999999/1" value="0" leadInLength="0/1"  />
               <InterpolatingParam id="2442" interp="linr"  time="-9999999/1" value="0" leadInLength="0/1"  />
              </VectorParam>
              <VectorParam id="2443"  name="shear">
               <InterpolatingParam id="2444" interp="linr"  time="-9999999/1" value="0" leadInLength="0/1"  />
               <InterpolatingParam id="2445" interp="linr"  time="-9999999/1" value="0" leadInLength="0/1"  />
               <InterpolatingParam id="2446" interp="linr"  time="-9999999/1" value="0" leadInLength="0/1"  />
              </VectorParam>
              <VectorParam id="2447"  name="scale">
               <InterpolatingParam id="2448" interp="linr"  time="-9999999/1" value="1" leadInLength="0/1"  />
               <InterpolatingParam id="2449" interp="linr"  time="-9999999/1" value="1" leadInLength="0/1"  />
               <InterpolatingParam id="2450" interp="linr"  time="-9999999/1" value="1" leadInLength="0/1"  />
              </VectorParam>
              <VectorParam id="2451"  name="anchor">
               <InterpolatingParam id="2452" interp="linr"  time="0/1" value="0" leadInLength="0/1"  />
               <InterpolatingParam id="2453" interp="linr"  time="0/1" value="0" leadInLength="0/1"  />
               <InterpolatingParam id="2454" interp="linr"  time="0/1" value="0" leadInLength="0/1"  />
              </VectorParam>
             </Transformer>
             <Parameters>
              <VectorParam id="2455"  name="sourceCrop">
               <InterpolatingParam id="2456" interp="linr"  time="0/1" value="0" leadInLength="0/1"  />
               <InterpolatingParam id="2457" interp="linr"  time="0/1" value="0" leadInLength="0/1"  />
               <InterpolatingParam id="2458" interp="linr"  time="0/1" value="0" leadInLength="0/1"  />
               <InterpolatingParam id="2459" interp="linr"  time="0/1" value="0" leadInLength="0/1"  />
              </VectorParam>
              <VectorParam id="2460"  name="geometryCrop">
               <InterpolatingParam id="2461" interp="linr"  time="-9999999/1" value="0" leadInLength="0/1"  />
               <InterpolatingParam id="2462" interp="linr"  time="-9999999/1" value="0" leadInLength="0/1"  />
               <InterpolatingParam id="2463" interp="linr"  time="-9999999/1" value="0" leadInLength="0/1"  />
               <InterpolatingParam id="2464" interp="linr"  time="-9999999/1" value="0" leadInLength="0/1"  />
              </VectorParam>
              <InterpolatingParam id="2465" interp="linr"  time="-9999999/1" value="1" leadInLength="0/1"  name="opacity"/>
              <InterpolatingParam id="2466" interp="linr"  time="0/1" value="0" leadInLength="0/1"  name="cursorOpacity"/>
              <InterpolatingParam id="2467" interp="linr"  time="0/1" value="0" leadInLength="0/1"  name="cursorScale"/>
             </Parameters>
             <Attributes>
              <Attribute id="2468" value="" name="ident"/>
             </Attributes>
             <ExtraData>
              <Entry key="ZoomPanBin">
               <ZoomPanBin id="2469"  >
                <ZoomPanKeyframes>
                 <ZoomPanKeyframe id="2470" timeRangeEnd="-9999999/1" timeRangeDuration="0/1" interpolaterName="linr"  />
                </ZoomPanKeyframes>
               </ZoomPanBin>
              </Entry>
              <Entry key="CursorEffectBin">
               <CursorEffectBin id="2471"  >
                <CursorEffectKeyframes>
                </CursorEffectKeyframes>
               </CursorEffectBin>
              </Entry>
             </ExtraData>
            </ScreenVMFile>
            <MetaData>
             <entry key="AutoAppliedSmartFocus" val="False"/>
             <entry key="WinSubProjectDisplayName" val=""/>
            </MetaData>
           </UnifiedMedia>
           <UnifiedMedia id="2472"  >
            <AMFile id="2473" start="3423" duration="77" scalar="1/1" mediaStart="6209/1" mediaDuration="77/1" trackNumber="1" src="5" channelNumber="0,1" >
             <Parameters>
              <InterpolatingParam id="2474" interp="linr"  time="0/1" value="1" leadInLength="0/1"  name="volume"/>
              <Parameter id="2475"  name="captions"/>
             </Parameters>
             <Attributes>
              <Attribute id="2476" value="" name="ident"/>
              <Attribute id="2477" value="44100" name="sampleRate"/>
              <Attribute id="2478" value="16" name="bitDepth"/>
              <Attribute id="2479" value="1" name="gain"/>
              <Attribute id="2480" value="0" name="mixToMono"/>
             </Attributes>
            </AMFile>
            <ScreenVMFile id="2481" start="3423" duration="77" scalar="1/1" mediaStart="6209/1" mediaDuration="77/1" trackNumber="0" src="5" >
             <Transformer>
              <VectorParam id="2482"  name="translation">
               <InterpolatingParam id="2483" interp="linr"  time="-9999999/1" value="0" leadInLength="0/1"  />
               <InterpolatingParam id="2484" interp="linr"  time="-9999999/1" value="0" leadInLength="0/1"  />
               <InterpolatingParam id="2485" interp="linr"  time="-9999999/1" value="0" leadInLength="0/1"  />
              </VectorParam>
              <VectorParam id="2486"  name="rotation">
               <InterpolatingParam id="2487" interp="linr"  time="-9999999/1" value="0" leadInLength="0/1"  />
               <InterpolatingParam id="2488" interp="linr"  time="-9999999/1" value="0" leadInLength="0/1"  />
               <InterpolatingParam id="2489" interp="linr"  time="-9999999/1" value="0" leadInLength="0/1"  />
              </VectorParam>
              <VectorParam id="2490"  name="shear">
               <InterpolatingParam id="2491" interp="linr"  time="-9999999/1" value="0" leadInLength="0/1"  />
               <InterpolatingParam id="2492" interp="linr"  time="-9999999/1" value="0" leadInLength="0/1"  />
               <InterpolatingParam id="2493" interp="linr"  time="-9999999/1" value="0" leadInLength="0/1"  />
              </VectorParam>
              <VectorParam id="2494"  name="scale">
               <InterpolatingParam id="2495" interp="linr"  time="-9999999/1" value="1" leadInLength="0/1"  />
               <InterpolatingParam id="2496" interp="linr"  time="-9999999/1" value="1" leadInLength="0/1"  />
               <InterpolatingParam id="2497" interp="linr"  time="-9999999/1" value="1" leadInLength="0/1"  />
              </VectorParam>
              <VectorParam id="2498"  name="anchor">
               <InterpolatingParam id="2499" interp="linr"  time="0/1" value="0" leadInLength="0/1"  />
               <InterpolatingParam id="2500" interp="linr"  time="0/1" value="0" leadInLength="0/1"  />
               <InterpolatingParam id="2501" interp="linr"  time="0/1" value="0" leadInLength="0/1"  />
              </VectorParam>
             </Transformer>
             <Parameters>
              <VectorParam id="2502"  name="sourceCrop">
               <InterpolatingParam id="2503" interp="linr"  time="0/1" value="0" leadInLength="0/1"  />
               <InterpolatingParam id="2504" interp="linr"  time="0/1" value="0" leadInLength="0/1"  />
               <InterpolatingParam id="2505" interp="linr"  time="0/1" value="0" leadInLength="0/1"  />
               <InterpolatingParam id="2506" interp="linr"  time="0/1" value="0" leadInLength="0/1"  />
              </VectorParam>
              <VectorParam id="2507"  name="geometryCrop">
               <InterpolatingParam id="2508" interp="linr"  time="-9999999/1" value="0" leadInLength="0/1"  />
               <InterpolatingParam id="2509" interp="linr"  time="-9999999/1" value="0" leadInLength="0/1"  />
               <InterpolatingParam id="2510" interp="linr"  time="-9999999/1" value="0" leadInLength="0/1"  />
               <InterpolatingParam id="2511" interp="linr"  time="-9999999/1" value="0" leadInLength="0/1"  />
              </VectorParam>
              <InterpolatingParam id="2512" interp="linr"  time="-9999999/1" value="1" leadInLength="0/1"  name="opacity"/>
              <InterpolatingParam id="2513" interp="linr"  time="0/1" value="0" leadInLength="0/1"  name="cursorOpacity"/>
              <InterpolatingParam id="2514" interp="linr"  time="0/1" value="0" leadInLength="0/1"  name="cursorScale"/>
             </Parameters>
             <Attributes>
              <Attribute id="2515" value="" name="ident"/>
             </Attributes>
             <ExtraData>
              <Entry key="ZoomPanBin">
               <ZoomPanBin id="2516"  >
                <ZoomPanKeyframes>
                 <ZoomPanKeyframe id="2517" timeRangeEnd="-9999999/1" timeRangeDuration="0/1" interpolaterName="linr"  />
                </ZoomPanKeyframes>
               </ZoomPanBin>
              </Entry>
              <Entry key="CursorEffectBin">
               <CursorEffectBin id="2518"  >
                <CursorEffectKeyframes>
                </CursorEffectKeyframes>
               </CursorEffectBin>
              </Entry>
             </ExtraData>
            </ScreenVMFile>
            <MetaData>
             <entry key="AutoAppliedSmartFocus" val="False"/>
             <entry key="WinSubProjectDisplayName" val=""/>
            </MetaData>
           </UnifiedMedia>
           <UnifiedMedia id="2519"  >
            <AMFile id="2520" start="3500" duration="3" scalar="1/1" mediaStart="6297/1" mediaDuration="3/1" trackNumber="1" src="5" channelNumber="0,1" >
             <Parameters>
              <InterpolatingParam id="2521" interp="linr"  time="0/1" value="1" leadInLength="0/1"  name="volume"/>
              <Parameter id="2522"  name="captions"/>
             </Parameters>
             <Attributes>
              <Attribute id="2523" value="" name="ident"/>
              <Attribute id="2524" value="44100" name="sampleRate"/>
              <Attribute id="2525" value="16" name="bitDepth"/>
              <Attribute id="2526" value="1" name="gain"/>
              <Attribute id="2527" value="0" name="mixToMono"/>
             </Attributes>
            </AMFile>
            <ScreenVMFile id="2528" start="3500" duration="3" scalar="1/1" mediaStart="6297/1" mediaDuration="3/1" trackNumber="0" src="5" >
             <Transformer>
              <VectorParam id="2529"  name="translation">
               <InterpolatingParam id="2530" interp="linr"  time="-9999999/1" value="0" leadInLength="0/1"  />
               <InterpolatingParam id="2531" interp="linr"  time="-9999999/1" value="0" leadInLength="0/1"  />
               <InterpolatingParam id="2532" interp="linr"  time="-9999999/1" value="0" leadInLength="0/1"  />
              </VectorParam>
              <VectorParam id="2533"  name="rotation">
               <InterpolatingParam id="2534" interp="linr"  time="-9999999/1" value="0" leadInLength="0/1"  />
               <InterpolatingParam id="2535" interp="linr"  time="-9999999/1" value="0" leadInLength="0/1"  />
               <InterpolatingParam id="2536" interp="linr"  time="-9999999/1" value="0" leadInLength="0/1"  />
              </VectorParam>
              <VectorParam id="2537"  name="shear">
               <InterpolatingParam id="2538" interp="linr"  time="-9999999/1" value="0" leadInLength="0/1"  />
               <InterpolatingParam id="2539" interp="linr"  time="-9999999/1" value="0" leadInLength="0/1"  />
               <InterpolatingParam id="2540" interp="linr"  time="-9999999/1" value="0" leadInLength="0/1"  />
              </VectorParam>
              <VectorParam id="2541"  name="scale">
               <InterpolatingParam id="2542" interp="linr"  time="-9999999/1" value="1" leadInLength="0/1"  />
               <InterpolatingParam id="2543" interp="linr"  time="-9999999/1" value="1" leadInLength="0/1"  />
               <InterpolatingParam id="2544" interp="linr"  time="-9999999/1" value="1" leadInLength="0/1"  />
              </VectorParam>
              <VectorParam id="2545"  name="anchor">
               <InterpolatingParam id="2546" interp="linr"  time="0/1" value="0" leadInLength="0/1"  />
               <InterpolatingParam id="2547" interp="linr"  time="0/1" value="0" leadInLength="0/1"  />
               <InterpolatingParam id="2548" interp="linr"  time="0/1" value="0" leadInLength="0/1"  />
              </VectorParam>
             </Transformer>
             <Parameters>
              <VectorParam id="2549"  name="sourceCrop">
               <InterpolatingParam id="2550" interp="linr"  time="0/1" value="0" leadInLength="0/1"  />
               <InterpolatingParam id="2551" interp="linr"  time="0/1" value="0" leadInLength="0/1"  />
               <InterpolatingParam id="2552" interp="linr"  time="0/1" value="0" leadInLength="0/1"  />
               <InterpolatingParam id="2553" interp="linr"  time="0/1" value="0" leadInLength="0/1"  />
              </VectorParam>
              <VectorParam id="2554"  name="geometryCrop">
               <InterpolatingParam id="2555" interp="linr"  time="-9999999/1" value="0" leadInLength="0/1"  />
               <InterpolatingParam id="2556" interp="linr"  time="-9999999/1" value="0" leadInLength="0/1"  />
               <InterpolatingParam id="2557" interp="linr"  time="-9999999/1" value="0" leadInLength="0/1"  />
               <InterpolatingParam id="2558" interp="linr"  time="-9999999/1" value="0" leadInLength="0/1"  />
              </VectorParam>
              <InterpolatingParam id="2559" interp="linr"  time="-9999999/1" value="1" leadInLength="0/1"  name="opacity"/>
              <InterpolatingParam id="2560" interp="linr"  time="0/1" value="0" leadInLength="0/1"  name="cursorOpacity"/>
              <InterpolatingParam id="2561" interp="linr"  time="0/1" value="0" leadInLength="0/1"  name="cursorScale"/>
             </Parameters>
             <Attributes>
              <Attribute id="2562" value="" name="ident"/>
             </Attributes>
             <ExtraData>
              <Entry key="ZoomPanBin">
               <ZoomPanBin id="2563"  >
                <ZoomPanKeyframes>
                 <ZoomPanKeyframe id="2564" timeRangeEnd="-9999999/1" timeRangeDuration="0/1" interpolaterName="linr"  />
                </ZoomPanKeyframes>
               </ZoomPanBin>
              </Entry>
              <Entry key="CursorEffectBin">
               <CursorEffectBin id="2565"  >
                <CursorEffectKeyframes>
                </CursorEffectKeyframes>
               </CursorEffectBin>
              </Entry>
             </ExtraData>
            </ScreenVMFile>
            <MetaData>
             <entry key="AutoAppliedSmartFocus" val="False"/>
             <entry key="WinSubProjectDisplayName" val=""/>
            </MetaData>
           </UnifiedMedia>
           <UnifiedMedia id="2566"  >
            <AMFile id="2567" start="3503" duration="60" scalar="1/1" mediaStart="7131/1" mediaDuration="60/1" trackNumber="1" src="5" channelNumber="0,1" >
             <Parameters>
              <InterpolatingParam id="2568" interp="linr"  time="0/1" value="1" leadInLength="0/1"  name="volume"/>
              <Parameter id="2569"  name="captions"/>
             </Parameters>
             <Attributes>
              <Attribute id="2570" value="" name="ident"/>
              <Attribute id="2571" value="44100" name="sampleRate"/>
              <Attribute id="2572" value="16" name="bitDepth"/>
              <Attribute id="2573" value="1" name="gain"/>
              <Attribute id="2574" value="0" name="mixToMono"/>
             </Attributes>
            </AMFile>
            <ScreenVMFile id="2575" start="3503" duration="60" scalar="1/1" mediaStart="7131/1" mediaDuration="60/1" trackNumber="0" src="5" >
             <Transformer>
              <VectorParam id="2576"  name="translation">
               <InterpolatingParam id="2577" interp="linr"  time="-9999999/1" value="0" leadInLength="0/1"  />
               <InterpolatingParam id="2578" interp="linr"  time="-9999999/1" value="0" leadInLength="0/1"  />
               <InterpolatingParam id="2579" interp="linr"  time="-9999999/1" value="0" leadInLength="0/1"  />
              </VectorParam>
              <VectorParam id="2580"  name="rotation">
               <InterpolatingParam id="2581" interp="linr"  time="-9999999/1" value="0" leadInLength="0/1"  />
               <InterpolatingParam id="2582" interp="linr"  time="-9999999/1" value="0" leadInLength="0/1"  />
               <InterpolatingParam id="2583" interp="linr"  time="-9999999/1" value="0" leadInLength="0/1"  />
              </VectorParam>
              <VectorParam id="2584"  name="shear">
               <InterpolatingParam id="2585" interp="linr"  time="-9999999/1" value="0" leadInLength="0/1"  />
               <InterpolatingParam id="2586" interp="linr"  time="-9999999/1" value="0" leadInLength="0/1"  />
               <InterpolatingParam id="2587" interp="linr"  time="-9999999/1" value="0" leadInLength="0/1"  />
              </VectorParam>
              <VectorParam id="2588"  name="scale">
               <InterpolatingParam id="2589" interp="linr"  time="-9999999/1" value="1" leadInLength="0/1"  />
               <InterpolatingParam id="2590" interp="linr"  time="-9999999/1" value="1" leadInLength="0/1"  />
               <InterpolatingParam id="2591" interp="linr"  time="-9999999/1" value="1" leadInLength="0/1"  />
              </VectorParam>
              <VectorParam id="2592"  name="anchor">
               <InterpolatingParam id="2593" interp="linr"  time="0/1" value="0" leadInLength="0/1"  />
               <InterpolatingParam id="2594" interp="linr"  time="0/1" value="0" leadInLength="0/1"  />
               <InterpolatingParam id="2595" interp="linr"  time="0/1" value="0" leadInLength="0/1"  />
              </VectorParam>
             </Transformer>
             <Parameters>
              <VectorParam id="2596"  name="sourceCrop">
               <InterpolatingParam id="2597" interp="linr"  time="0/1" value="0" leadInLength="0/1"  />
               <InterpolatingParam id="2598" interp="linr"  time="0/1" value="0" leadInLength="0/1"  />
               <InterpolatingParam id="2599" interp="linr"  time="0/1" value="0" leadInLength="0/1"  />
               <InterpolatingParam id="2600" interp="linr"  time="0/1" value="0" leadInLength="0/1"  />
              </VectorParam>
              <VectorParam id="2601"  name="geometryCrop">
               <InterpolatingParam id="2602" interp="linr"  time="-9999999/1" value="0" leadInLength="0/1"  />
               <InterpolatingParam id="2603" interp="linr"  time="-9999999/1" value="0" leadInLength="0/1"  />
               <InterpolatingParam id="2604" interp="linr"  time="-9999999/1" value="0" leadInLength="0/1"  />
               <InterpolatingParam id="2605" interp="linr"  time="-9999999/1" value="0" leadInLength="0/1"  />
              </VectorParam>
              <InterpolatingParam id="2606" interp="linr"  time="-9999999/1" value="1" leadInLength="0/1"  name="opacity"/>
              <InterpolatingParam id="2607" interp="linr"  time="0/1" value="0" leadInLength="0/1"  name="cursorOpacity"/>
              <InterpolatingParam id="2608" interp="linr"  time="0/1" value="0" leadInLength="0/1"  name="cursorScale"/>
             </Parameters>
             <Attributes>
              <Attribute id="2609" value="" name="ident"/>
             </Attributes>
             <ExtraData>
              <Entry key="ZoomPanBin">
               <ZoomPanBin id="2610"  >
                <ZoomPanKeyframes>
                 <ZoomPanKeyframe id="2611" timeRangeEnd="-9999999/1" timeRangeDuration="0/1" interpolaterName="linr"  />
                </ZoomPanKeyframes>
               </ZoomPanBin>
              </Entry>
              <Entry key="CursorEffectBin">
               <CursorEffectBin id="2612"  >
                <CursorEffectKeyframes>
                </CursorEffectKeyframes>
               </CursorEffectBin>
              </Entry>
             </ExtraData>
            </ScreenVMFile>
            <MetaData>
             <entry key="AutoAppliedSmartFocus" val="False"/>
             <entry key="WinSubProjectDisplayName" val=""/>
            </MetaData>
           </UnifiedMedia>
           <UnifiedMedia id="2613"  >
            <AMFile id="2614" start="3563" duration="147" scalar="1/1" mediaStart="7204/1" mediaDuration="147/1" trackNumber="1" src="5" channelNumber="0,1" >
             <Parameters>
              <InterpolatingParam id="2615" interp="linr"  time="0/1" value="1" leadInLength="0/1"  name="volume"/>
              <Parameter id="2616"  name="captions"/>
             </Parameters>
             <Attributes>
              <Attribute id="2617" value="" name="ident"/>
              <Attribute id="2618" value="44100" name="sampleRate"/>
              <Attribute id="2619" value="16" name="bitDepth"/>
              <Attribute id="2620" value="1" name="gain"/>
              <Attribute id="2621" value="0" name="mixToMono"/>
             </Attributes>
            </AMFile>
            <ScreenVMFile id="2622" start="3563" duration="147" scalar="1/1" mediaStart="7204/1" mediaDuration="147/1" trackNumber="0" src="5" >
             <Transformer>
              <VectorParam id="2623"  name="translation">
               <InterpolatingParam id="2624" interp="linr"  time="-9999999/1" value="0" leadInLength="0/1"  />
               <InterpolatingParam id="2625" interp="linr"  time="-9999999/1" value="0" leadInLength="0/1"  />
               <InterpolatingParam id="2626" interp="linr"  time="-9999999/1" value="0" leadInLength="0/1"  />
              </VectorParam>
              <VectorParam id="2627"  name="rotation">
               <InterpolatingParam id="2628" interp="linr"  time="-9999999/1" value="0" leadInLength="0/1"  />
               <InterpolatingParam id="2629" interp="linr"  time="-9999999/1" value="0" leadInLength="0/1"  />
               <InterpolatingParam id="2630" interp="linr"  time="-9999999/1" value="0" leadInLength="0/1"  />
              </VectorParam>
              <VectorParam id="2631"  name="shear">
               <InterpolatingParam id="2632" interp="linr"  time="-9999999/1" value="0" leadInLength="0/1"  />
               <InterpolatingParam id="2633" interp="linr"  time="-9999999/1" value="0" leadInLength="0/1"  />
               <InterpolatingParam id="2634" interp="linr"  time="-9999999/1" value="0" leadInLength="0/1"  />
              </VectorParam>
              <VectorParam id="2635"  name="scale">
               <InterpolatingParam id="2636" interp="linr"  time="-9999999/1" value="1" leadInLength="0/1"  />
               <InterpolatingParam id="2637" interp="linr"  time="-9999999/1" value="1" leadInLength="0/1"  />
               <InterpolatingParam id="2638" interp="linr"  time="-9999999/1" value="1" leadInLength="0/1"  />
              </VectorParam>
              <VectorParam id="2639"  name="anchor">
               <InterpolatingParam id="2640" interp="linr"  time="0/1" value="0" leadInLength="0/1"  />
               <InterpolatingParam id="2641" interp="linr"  time="0/1" value="0" leadInLength="0/1"  />
               <InterpolatingParam id="2642" interp="linr"  time="0/1" value="0" leadInLength="0/1"  />
              </VectorParam>
             </Transformer>
             <Parameters>
              <VectorParam id="2643"  name="sourceCrop">
               <InterpolatingParam id="2644" interp="linr"  time="0/1" value="0" leadInLength="0/1"  />
               <InterpolatingParam id="2645" interp="linr"  time="0/1" value="0" leadInLength="0/1"  />
               <InterpolatingParam id="2646" interp="linr"  time="0/1" value="0" leadInLength="0/1"  />
               <InterpolatingParam id="2647" interp="linr"  time="0/1" value="0" leadInLength="0/1"  />
              </VectorParam>
              <VectorParam id="2648"  name="geometryCrop">
               <InterpolatingParam id="2649" interp="linr"  time="-9999999/1" value="0" leadInLength="0/1"  />
               <InterpolatingParam id="2650" interp="linr"  time="-9999999/1" value="0" leadInLength="0/1"  />
               <InterpolatingParam id="2651" interp="linr"  time="-9999999/1" value="0" leadInLength="0/1"  />
               <InterpolatingParam id="2652" interp="linr"  time="-9999999/1" value="0" leadInLength="0/1"  />
              </VectorParam>
              <InterpolatingParam id="2653" interp="linr"  time="-9999999/1" value="1" leadInLength="0/1"  name="opacity"/>
              <InterpolatingParam id="2654" interp="linr"  time="0/1" value="0" leadInLength="0/1"  name="cursorOpacity"/>
              <InterpolatingParam id="2655" interp="linr"  time="0/1" value="0" leadInLength="0/1"  name="cursorScale"/>
             </Parameters>
             <Attributes>
              <Attribute id="2656" value="" name="ident"/>
             </Attributes>
             <ExtraData>
              <Entry key="ZoomPanBin">
               <ZoomPanBin id="2657"  >
                <ZoomPanKeyframes>
                 <ZoomPanKeyframe id="2658" timeRangeEnd="-9999999/1" timeRangeDuration="0/1" interpolaterName="linr"  />
                </ZoomPanKeyframes>
               </ZoomPanBin>
              </Entry>
              <Entry key="CursorEffectBin">
               <CursorEffectBin id="2659"  >
                <CursorEffectKeyframes>
                </CursorEffectKeyframes>
               </CursorEffectBin>
              </Entry>
             </ExtraData>
            </ScreenVMFile>
            <MetaData>
             <entry key="AutoAppliedSmartFocus" val="False"/>
             <entry key="WinSubProjectDisplayName" val=""/>
            </MetaData>
           </UnifiedMedia>
           <UnifiedMedia id="2660"  >
            <AMFile id="2661" start="3710" duration="198" scalar="1/1" mediaStart="7663/1" mediaDuration="198/1" trackNumber="1" src="5" channelNumber="0,1" >
             <Parameters>
              <InterpolatingParam id="2662" interp="linr"  time="0/1" value="1" leadInLength="0/1"  name="volume"/>
              <Parameter id="2663"  name="captions"/>
             </Parameters>
             <Attributes>
              <Attribute id="2664" value="" name="ident"/>
              <Attribute id="2665" value="44100" name="sampleRate"/>
              <Attribute id="2666" value="16" name="bitDepth"/>
              <Attribute id="2667" value="1" name="gain"/>
              <Attribute id="2668" value="0" name="mixToMono"/>
             </Attributes>
            </AMFile>
            <ScreenVMFile id="2669" start="3710" duration="198" scalar="1/1" mediaStart="7663/1" mediaDuration="198/1" trackNumber="0" src="5" >
             <Transformer>
              <VectorParam id="2670"  name="translation">
               <InterpolatingParam id="2671" interp="linr"  time="-9999999/1" value="0" leadInLength="0/1"  />
               <InterpolatingParam id="2672" interp="linr"  time="-9999999/1" value="0" leadInLength="0/1"  />
               <InterpolatingParam id="2673" interp="linr"  time="-9999999/1" value="0" leadInLength="0/1"  />
              </VectorParam>
              <VectorParam id="2674"  name="rotation">
               <InterpolatingParam id="2675" interp="linr"  time="-9999999/1" value="0" leadInLength="0/1"  />
               <InterpolatingParam id="2676" interp="linr"  time="-9999999/1" value="0" leadInLength="0/1"  />
               <InterpolatingParam id="2677" interp="linr"  time="-9999999/1" value="0" leadInLength="0/1"  />
              </VectorParam>
              <VectorParam id="2678"  name="shear">
               <InterpolatingParam id="2679" interp="linr"  time="-9999999/1" value="0" leadInLength="0/1"  />
               <InterpolatingParam id="2680" interp="linr"  time="-9999999/1" value="0" leadInLength="0/1"  />
               <InterpolatingParam id="2681" interp="linr"  time="-9999999/1" value="0" leadInLength="0/1"  />
              </VectorParam>
              <VectorParam id="2682"  name="scale">
               <InterpolatingParam id="2683" interp="linr"  time="-9999999/1" value="1" leadInLength="0/1"  />
               <InterpolatingParam id="2684" interp="linr"  time="-9999999/1" value="1" leadInLength="0/1"  />
               <InterpolatingParam id="2685" interp="linr"  time="-9999999/1" value="1" leadInLength="0/1"  />
              </VectorParam>
              <VectorParam id="2686"  name="anchor">
               <InterpolatingParam id="2687" interp="linr"  time="0/1" value="0" leadInLength="0/1"  />
               <InterpolatingParam id="2688" interp="linr"  time="0/1" value="0" leadInLength="0/1"  />
               <InterpolatingParam id="2689" interp="linr"  time="0/1" value="0" leadInLength="0/1"  />
              </VectorParam>
             </Transformer>
             <Parameters>
              <VectorParam id="2690"  name="sourceCrop">
               <InterpolatingParam id="2691" interp="linr"  time="0/1" value="0" leadInLength="0/1"  />
               <InterpolatingParam id="2692" interp="linr"  time="0/1" value="0" leadInLength="0/1"  />
               <InterpolatingParam id="2693" interp="linr"  time="0/1" value="0" leadInLength="0/1"  />
               <InterpolatingParam id="2694" interp="linr"  time="0/1" value="0" leadInLength="0/1"  />
              </VectorParam>
              <VectorParam id="2695"  name="geometryCrop">
               <InterpolatingParam id="2696" interp="linr"  time="-9999999/1" value="0" leadInLength="0/1"  />
               <InterpolatingParam id="2697" interp="linr"  time="-9999999/1" value="0" leadInLength="0/1"  />
               <InterpolatingParam id="2698" interp="linr"  time="-9999999/1" value="0" leadInLength="0/1"  />
               <InterpolatingParam id="2699" interp="linr"  time="-9999999/1" value="0" leadInLength="0/1"  />
              </VectorParam>
              <InterpolatingParam id="2700" interp="linr"  time="-9999999/1" value="1" leadInLength="0/1"  name="opacity"/>
              <InterpolatingParam id="2701" interp="linr"  time="0/1" value="0" leadInLength="0/1"  name="cursorOpacity"/>
              <InterpolatingParam id="2702" interp="linr"  time="0/1" value="0" leadInLength="0/1"  name="cursorScale"/>
             </Parameters>
             <Attributes>
              <Attribute id="2703" value="" name="ident"/>
             </Attributes>
             <ExtraData>
              <Entry key="ZoomPanBin">
               <ZoomPanBin id="2704"  >
                <ZoomPanKeyframes>
                 <ZoomPanKeyframe id="2705" timeRangeEnd="-9999999/1" timeRangeDuration="0/1" interpolaterName="linr"  />
                </ZoomPanKeyframes>
               </ZoomPanBin>
              </Entry>
              <Entry key="CursorEffectBin">
               <CursorEffectBin id="2706"  >
                <CursorEffectKeyframes>
                </CursorEffectKeyframes>
               </CursorEffectBin>
              </Entry>
             </ExtraData>
            </ScreenVMFile>
            <MetaData>
             <entry key="AutoAppliedSmartFocus" val="False"/>
             <entry key="WinSubProjectDisplayName" val=""/>
            </MetaData>
           </UnifiedMedia>
           <UnifiedMedia id="2707"  >
            <AMFile id="2708" start="3908" duration="150" scalar="1/1" mediaStart="8769/1" mediaDuration="150/1" trackNumber="1" src="5" channelNumber="0,1" >
             <Parameters>
              <InterpolatingParam id="2709" interp="linr"  time="0/1" value="1" leadInLength="0/1"  name="volume"/>
              <Parameter id="2710"  name="captions"/>
             </Parameters>
             <Attributes>
              <Attribute id="2711" value="" name="ident"/>
              <Attribute id="2712" value="44100" name="sampleRate"/>
              <Attribute id="2713" value="16" name="bitDepth"/>
              <Attribute id="2714" value="1" name="gain"/>
              <Attribute id="2715" value="0" name="mixToMono"/>
             </Attributes>
            </AMFile>
            <ScreenVMFile id="2716" start="3908" duration="150" scalar="1/1" mediaStart="8769/1" mediaDuration="150/1" trackNumber="0" src="5" >
             <Transformer>
              <VectorParam id="2717"  name="translation">
               <InterpolatingParam id="2718" interp="linr"  time="-9999999/1" value="0" leadInLength="0/1"  />
               <InterpolatingParam id="2719" interp="linr"  time="-9999999/1" value="0" leadInLength="0/1"  />
               <InterpolatingParam id="2720" interp="linr"  time="-9999999/1" value="0" leadInLength="0/1"  />
              </VectorParam>
              <VectorParam id="2721"  name="rotation">
               <InterpolatingParam id="2722" interp="linr"  time="-9999999/1" value="0" leadInLength="0/1"  />
               <InterpolatingParam id="2723" interp="linr"  time="-9999999/1" value="0" leadInLength="0/1"  />
               <InterpolatingParam id="2724" interp="linr"  time="-9999999/1" value="0" leadInLength="0/1"  />
              </VectorParam>
              <VectorParam id="2725"  name="shear">
               <InterpolatingParam id="2726" interp="linr"  time="-9999999/1" value="0" leadInLength="0/1"  />
               <InterpolatingParam id="2727" interp="linr"  time="-9999999/1" value="0" leadInLength="0/1"  />
               <InterpolatingParam id="2728" interp="linr"  time="-9999999/1" value="0" leadInLength="0/1"  />
              </VectorParam>
              <VectorParam id="2729"  name="scale">
               <InterpolatingParam id="2730" interp="linr"  time="-9999999/1" value="1" leadInLength="0/1"  />
               <InterpolatingParam id="2731" interp="linr"  time="-9999999/1" value="1" leadInLength="0/1"  />
               <InterpolatingParam id="2732" interp="linr"  time="-9999999/1" value="1" leadInLength="0/1"  />
              </VectorParam>
              <VectorParam id="2733"  name="anchor">
               <InterpolatingParam id="2734" interp="linr"  time="0/1" value="0" leadInLength="0/1"  />
               <InterpolatingParam id="2735" interp="linr"  time="0/1" value="0" leadInLength="0/1"  />
               <InterpolatingParam id="2736" interp="linr"  time="0/1" value="0" leadInLength="0/1"  />
              </VectorParam>
             </Transformer>
             <Parameters>
              <VectorParam id="2737"  name="sourceCrop">
               <InterpolatingParam id="2738" interp="linr"  time="0/1" value="0" leadInLength="0/1"  />
               <InterpolatingParam id="2739" interp="linr"  time="0/1" value="0" leadInLength="0/1"  />
               <InterpolatingParam id="2740" interp="linr"  time="0/1" value="0" leadInLength="0/1"  />
               <InterpolatingParam id="2741" interp="linr"  time="0/1" value="0" leadInLength="0/1"  />
              </VectorParam>
              <VectorParam id="2742"  name="geometryCrop">
               <InterpolatingParam id="2743" interp="linr"  time="-9999999/1" value="0" leadInLength="0/1"  />
               <InterpolatingParam id="2744" interp="linr"  time="-9999999/1" value="0" leadInLength="0/1"  />
               <InterpolatingParam id="2745" interp="linr"  time="-9999999/1" value="0" leadInLength="0/1"  />
               <InterpolatingParam id="2746" interp="linr"  time="-9999999/1" value="0" leadInLength="0/1"  />
              </VectorParam>
              <InterpolatingParam id="2747" interp="linr"  time="-9999999/1" value="1" leadInLength="0/1"  name="opacity"/>
              <InterpolatingParam id="2748" interp="linr"  time="0/1" value="0" leadInLength="0/1"  name="cursorOpacity"/>
              <InterpolatingParam id="2749" interp="linr"  time="0/1" value="0" leadInLength="0/1"  name="cursorScale"/>
             </Parameters>
             <Attributes>
              <Attribute id="2750" value="" name="ident"/>
             </Attributes>
             <ExtraData>
              <Entry key="ZoomPanBin">
               <ZoomPanBin id="2751"  >
                <ZoomPanKeyframes>
                 <ZoomPanKeyframe id="2752" timeRangeEnd="-9999999/1" timeRangeDuration="0/1" interpolaterName="linr"  />
                </ZoomPanKeyframes>
               </ZoomPanBin>
              </Entry>
              <Entry key="CursorEffectBin">
               <CursorEffectBin id="2753"  >
                <CursorEffectKeyframes>
                </CursorEffectKeyframes>
               </CursorEffectBin>
              </Entry>
             </ExtraData>
            </ScreenVMFile>
            <MetaData>
             <entry key="AutoAppliedSmartFocus" val="False"/>
             <entry key="WinSubProjectDisplayName" val=""/>
            </MetaData>
           </UnifiedMedia>
           <UnifiedMedia id="2754"  >
            <AMFile id="2755" start="4058" duration="332" scalar="1/1" mediaStart="8980/1" mediaDuration="332/1" trackNumber="1" src="5" channelNumber="0,1" >
             <Parameters>
              <InterpolatingParam id="2756" interp="linr"  time="0/1" value="1" leadInLength="0/1"  name="volume"/>
              <Parameter id="2757"  name="captions"/>
             </Parameters>
             <Attributes>
              <Attribute id="2758" value="" name="ident"/>
              <Attribute id="2759" value="44100" name="sampleRate"/>
              <Attribute id="2760" value="16" name="bitDepth"/>
              <Attribute id="2761" value="1" name="gain"/>
              <Attribute id="2762" value="0" name="mixToMono"/>
             </Attributes>
            </AMFile>
            <ScreenVMFile id="2763" start="4058" duration="332" scalar="1/1" mediaStart="8980/1" mediaDuration="332/1" trackNumber="0" src="5" >
             <Transformer>
              <VectorParam id="2764"  name="translation">
               <InterpolatingParam id="2765" interp="linr"  time="-9999999/1" value="0" leadInLength="0/1"  />
               <InterpolatingParam id="2766" interp="linr"  time="-9999999/1" value="0" leadInLength="0/1"  />
               <InterpolatingParam id="2767" interp="linr"  time="-9999999/1" value="0" leadInLength="0/1"  />
              </VectorParam>
              <VectorParam id="2768"  name="rotation">
               <InterpolatingParam id="2769" interp="linr"  time="-9999999/1" value="0" leadInLength="0/1"  />
               <InterpolatingParam id="2770" interp="linr"  time="-9999999/1" value="0" leadInLength="0/1"  />
               <InterpolatingParam id="2771" interp="linr"  time="-9999999/1" value="0" leadInLength="0/1"  />
              </VectorParam>
              <VectorParam id="2772"  name="shear">
               <InterpolatingParam id="2773" interp="linr"  time="-9999999/1" value="0" leadInLength="0/1"  />
               <InterpolatingParam id="2774" interp="linr"  time="-9999999/1" value="0" leadInLength="0/1"  />
               <InterpolatingParam id="2775" interp="linr"  time="-9999999/1" value="0" leadInLength="0/1"  />
              </VectorParam>
              <VectorParam id="2776"  name="scale">
               <InterpolatingParam id="2777" interp="linr"  time="-9999999/1" value="1" leadInLength="0/1"  />
               <InterpolatingParam id="2778" interp="linr"  time="-9999999/1" value="1" leadInLength="0/1"  />
               <InterpolatingParam id="2779" interp="linr"  time="-9999999/1" value="1" leadInLength="0/1"  />
              </VectorParam>
              <VectorParam id="2780"  name="anchor">
               <InterpolatingParam id="2781" interp="linr"  time="0/1" value="0" leadInLength="0/1"  />
               <InterpolatingParam id="2782" interp="linr"  time="0/1" value="0" leadInLength="0/1"  />
               <InterpolatingParam id="2783" interp="linr"  time="0/1" value="0" leadInLength="0/1"  />
              </VectorParam>
             </Transformer>
             <Parameters>
              <VectorParam id="2784"  name="sourceCrop">
               <InterpolatingParam id="2785" interp="linr"  time="0/1" value="0" leadInLength="0/1"  />
               <InterpolatingParam id="2786" interp="linr"  time="0/1" value="0" leadInLength="0/1"  />
               <InterpolatingParam id="2787" interp="linr"  time="0/1" value="0" leadInLength="0/1"  />
               <InterpolatingParam id="2788" interp="linr"  time="0/1" value="0" leadInLength="0/1"  />
              </VectorParam>
              <VectorParam id="2789"  name="geometryCrop">
               <InterpolatingParam id="2790" interp="linr"  time="-9999999/1" value="0" leadInLength="0/1"  />
               <InterpolatingParam id="2791" interp="linr"  time="-9999999/1" value="0" leadInLength="0/1"  />
               <InterpolatingParam id="2792" interp="linr"  time="-9999999/1" value="0" leadInLength="0/1"  />
               <InterpolatingParam id="2793" interp="linr"  time="-9999999/1" value="0" leadInLength="0/1"  />
              </VectorParam>
              <InterpolatingParam id="2794" interp="linr"  time="-9999999/1" value="1" leadInLength="0/1"  name="opacity"/>
              <InterpolatingParam id="2795" interp="linr"  time="0/1" value="0" leadInLength="0/1"  name="cursorOpacity"/>
              <InterpolatingParam id="2796" interp="linr"  time="0/1" value="0" leadInLength="0/1"  name="cursorScale"/>
             </Parameters>
             <Attributes>
              <Attribute id="2797" value="" name="ident"/>
             </Attributes>
             <ExtraData>
              <Entry key="ZoomPanBin">
               <ZoomPanBin id="2798"  >
                <ZoomPanKeyframes>
                 <ZoomPanKeyframe id="2799" timeRangeEnd="-9999999/1" timeRangeDuration="0/1" interpolaterName="linr"  />
                </ZoomPanKeyframes>
               </ZoomPanBin>
              </Entry>
              <Entry key="CursorEffectBin">
               <CursorEffectBin id="2800"  >
                <CursorEffectKeyframes>
                </CursorEffectKeyframes>
               </CursorEffectBin>
              </Entry>
             </ExtraData>
            </ScreenVMFile>
            <MetaData>
             <entry key="AutoAppliedSmartFocus" val="False"/>
             <entry key="WinSubProjectDisplayName" val=""/>
            </MetaData>
           </UnifiedMedia>
          </Medias>
         </GenericTrack>
        </StitchedMedia>
        <StitchedMedia id="2801" start="7929" duration="3401" scalar="1/1" mediaStart="0/1" mediaDuration="3401/1" minMediaStart="0/1" >
         <Transformer>
          <VectorParam id="2802"  name="translation">
           <InterpolatingParam id="2803" interp="linr"  time="-9999999/1" value="2.1773323884611703e-011" leadInLength="0/1"  />
           <InterpolatingParam id="2804" interp="linr"  time="-9999999/1" value="-2.3916868485684972e-011" leadInLength="0/1"  />
           <InterpolatingParam id="2805" interp="linr"  time="-9999999/1" value="0" leadInLength="0/1"  />
          </VectorParam>
          <VectorParam id="2806"  name="rotation">
           <InterpolatingParam id="2807" interp="linr"  time="-9999999/1" value="0" leadInLength="0/1"  />
           <InterpolatingParam id="2808" interp="linr"  time="-9999999/1" value="0" leadInLength="0/1"  />
           <InterpolatingParam id="2809" interp="linr"  time="-9999999/1" value="0" leadInLength="0/1"  />
          </VectorParam>
          <VectorParam id="2810"  name="shear">
           <InterpolatingParam id="2811" interp="linr"  time="-9999999/1" value="0" leadInLength="0/1"  />
           <InterpolatingParam id="2812" interp="linr"  time="-9999999/1" value="0" leadInLength="0/1"  />
           <InterpolatingParam id="2813" interp="linr"  time="-9999999/1" value="0" leadInLength="0/1"  />
          </VectorParam>
          <VectorParam id="2814"  name="scale">
           <InterpolatingParam id="2815" interp="linr"  time="-9999999/1" value="0.70833333333333337" leadInLength="0/1"  />
           <InterpolatingParam id="2816" interp="linr"  time="-9999999/1" value="0.70833333333333337" leadInLength="0/1"  />
           <InterpolatingParam id="2817" interp="linr"  time="-9999999/1" value="1" leadInLength="0/1"  />
          </VectorParam>
          <VectorParam id="2818"  name="anchor">
           <InterpolatingParam id="2819" interp="linr"  time="0/1" value="0" leadInLength="0/1"  />
           <InterpolatingParam id="2820" interp="linr"  time="0/1" value="0" leadInLength="0/1"  />
           <InterpolatingParam id="2821" interp="linr"  time="0/1" value="0" leadInLength="0/1"  />
          </VectorParam>
         </Transformer>
         <Parameters>
          <VectorParam id="2822"  name="sourceCrop">
           <InterpolatingParam id="2823" interp="linr"  time="0/1" value="0" leadInLength="0/1"  />
           <InterpolatingParam id="2824" interp="linr"  time="0/1" value="0" leadInLength="0/1"  />
           <InterpolatingParam id="2825" interp="linr"  time="0/1" value="0" leadInLength="0/1"  />
           <InterpolatingParam id="2826" interp="linr"  time="0/1" value="0" leadInLength="0/1"  />
          </VectorParam>
          <VectorParam id="2827"  name="geometryCrop">
           <InterpolatingParam id="2828" interp="linr"  time="-9999999/1" value="0" leadInLength="0/1"  />
           <InterpolatingParam id="2829" interp="linr"  time="-9999999/1" value="0" leadInLength="0/1"  />
           <InterpolatingParam id="2830" interp="linr"  time="-9999999/1" value="0" leadInLength="0/1"  />
           <InterpolatingParam id="2831" interp="linr"  time="-9999999/1" value="0" leadInLength="0/1"  />
          </VectorParam>
          <InterpolatingParam id="2832" interp="linr"  time="-9999999/1" value="1" leadInLength="0/1"  name="opacity"/>
          <InterpolatingParam id="2833" interp="linr"  time="0/1" value="1" leadInLength="0/1"  name="cursorOpacity"/>
          <InterpolatingParam id="2834" interp="linr"  time="0/1" value="1" leadInLength="0/1"  name="cursorScale"/>
          <InterpolatingParam id="2835" interp="linr"  time="0/1" value="2.5414887902519077" leadInLength="0/1"  name="volume"/>
          <Parameter id="2836"  name="captions"/>
         </Parameters>
         <Effects>
          <GenericEffect id="2837" name = "CursorBaseEffectName" >
           <Parameters>
           <InterpolatingParam id="2838" interp="linr"   name="cursorSize">
            <Keyframes>
            <Keyframe id="2839"  time="-9999999/1" value="1" leadInLength="0/1"  />
            <Keyframe id="2840"  time="1312/1" value="1" leadInLength="30/1"  interpolater="leadin-linr"  />
            </Keyframes>
           </InterpolatingParam>
           <InterpolatingParam id="2841" interp="linr"   name="highlightBlurRadius">
            <Keyframes>
            <Keyframe id="2842"  time="-9999999/1" value="0" leadInLength="0/1"  />
            <Keyframe id="2843"  time="1312/1" value="0" leadInLength="30/1"  interpolater="leadin-linr"  />
            </Keyframes>
           </InterpolatingParam>
           <InterpolatingParam id="2844" interp="linr"   name="highlightColorBlue">
            <Keyframes>
            <Keyframe id="2845"  time="-9999999/1" value="0" leadInLength="0/1"  />
            <Keyframe id="2846"  time="1312/1" value="0" leadInLength="30/1"  interpolater="leadin-linr"  />
            </Keyframes>
           </InterpolatingParam>
           <InterpolatingParam id="2847" interp="linr"   name="highlightColorGreen">
            <Keyframes>
            <Keyframe id="2848"  time="-9999999/1" value="255" leadInLength="0/1"  />
            <Keyframe id="2849"  time="1312/1" value="255" leadInLength="30/1"  interpolater="leadin-linr"  />
            </Keyframes>
           </InterpolatingParam>
           <InterpolatingParam id="2850" interp="linr"   name="highlightColorRed">
            <Keyframes>
            <Keyframe id="2851"  time="-9999999/1" value="255" leadInLength="0/1"  />
            <Keyframe id="2852"  time="1312/1" value="255" leadInLength="30/1"  interpolater="leadin-linr"  />
            </Keyframes>
           </InterpolatingParam>
           <InterpolatingParam id="2853" interp="linr"   name="highlightFeatherSize">
            <Keyframes>
            <Keyframe id="2854"  time="-9999999/1" value="5" leadInLength="0/1"  />
            <Keyframe id="2855"  time="1312/1" value="5" leadInLength="30/1"  interpolater="leadin-linr"  />
            </Keyframes>
           </InterpolatingParam>
           <InterpolatingParam id="2856" interp="linr"   name="highlightMagnification">
            <Keyframes>
            <Keyframe id="2857"  time="-9999999/1" value="2" leadInLength="0/1"  />
            <Keyframe id="2858"  time="1312/1" value="2" leadInLength="30/1"  interpolater="leadin-linr"  />
            </Keyframes>
           </InterpolatingParam>
           <InterpolatingParam id="2859" interp="linr"   name="highlightOpacity">
            <Keyframes>
            <Keyframe id="2860"  time="-9999999/1" value="60" leadInLength="0/1"  />
            <Keyframe id="2861"  time="1312/1" value="60" leadInLength="30/1"  interpolater="leadin-linr"  />
            </Keyframes>
           </InterpolatingParam>
           <InterpolatingParam id="2862" interp="linr"   name="highlightSize">
            <Keyframes>
            <Keyframe id="2863"  time="-9999999/1" value="45" leadInLength="0/1"  />
            <Keyframe id="2864"  time="1312/1" value="45" leadInLength="30/1"  interpolater="leadin-linr"  />
            </Keyframes>
           </InterpolatingParam>
           <Parameter id="2865"   name="highlightType">
            <Keyframes>
            <Keyframe id="2866"  time="-9999999/1" value="4" leadInLength="0/1"  />
            <Keyframe id="2867"  time="1312/1" value="4" leadInLength="30/1"  />
            </Keyframes>
           </Parameter>
           <InterpolatingParam id="2868" interp="linr"   name="leftClickColorBlue">
            <Keyframes>
            <Keyframe id="2869"  time="-9999999/1" value="0" leadInLength="0/1"  />
            <Keyframe id="2870"  time="1312/1" value="0" leadInLength="30/1"  interpolater="leadin-linr"  />
            </Keyframes>
           </InterpolatingParam>
           <InterpolatingParam id="2871" interp="linr"   name="leftClickColorGreen">
            <Keyframes>
            <Keyframe id="2872"  time="-9999999/1" value="0" leadInLength="0/1"  />
            <Keyframe id="2873"  time="1312/1" value="0" leadInLength="30/1"  interpolater="leadin-linr"  />
            </Keyframes>
           </InterpolatingParam>
           <InterpolatingParam id="2874" interp="linr"   name="leftClickColorRed">
            <Keyframes>
            <Keyframe id="2875"  time="-9999999/1" value="255" leadInLength="0/1"  />
            <Keyframe id="2876"  time="1312/1" value="255" leadInLength="30/1"  interpolater="leadin-linr"  />
            </Keyframes>
           </InterpolatingParam>
           <InterpolatingParam id="2877" interp="linr"   name="leftClickDuration">
            <Keyframes>
            <Keyframe id="2878"  time="-9999999/1" value="0.80000000000000004" leadInLength="0/1"  />
            <Keyframe id="2879"  time="1312/1" value="0.80000000000000004" leadInLength="30/1"  interpolater="leadin-linr"  />
            </Keyframes>
           </InterpolatingParam>
           <InterpolatingParam id="2880" interp="linr"   name="leftClickSize">
            <Keyframes>
            <Keyframe id="2881"  time="-9999999/1" value="20" leadInLength="0/1"  />
            <Keyframe id="2882"  time="1312/1" value="20" leadInLength="30/1"  interpolater="leadin-linr"  />
            </Keyframes>
           </InterpolatingParam>
           <Parameter id="2883"   name="leftClickSoundFilename">
            <Keyframes>
            <Keyframe id="2884"  time="-9999999/1" value="" leadInLength="0/1"  />
            <Keyframe id="2885"  time="1312/1" value="" leadInLength="30/1"  />
            </Keyframes>
           </Parameter>
           <InterpolatingParam id="2886" interp="linr"   name="leftClickSoundVolume">
            <Keyframes>
            <Keyframe id="2887"  time="-9999999/1" value="1" leadInLength="0/1"  />
            <Keyframe id="2888"  time="1312/1" value="1" leadInLength="30/1"  interpolater="leadin-linr"  />
            </Keyframes>
           </InterpolatingParam>
           <Parameter id="2889"   name="leftClickType">
            <Keyframes>
            <Keyframe id="2890"  time="-9999999/1" value="0" leadInLength="0/1"  />
            <Keyframe id="2891"  time="1312/1" value="0" leadInLength="30/1"  />
            </Keyframes>
           </Parameter>
           <InterpolatingParam id="2892" interp="linr"   name="opacity">
            <Keyframes>
            <Keyframe id="2893"  time="-9999999/1" value="1" leadInLength="0/1"  />
            <Keyframe id="2894"  time="1312/1" value="1" leadInLength="30/1"  interpolater="leadin-linr"  />
            </Keyframes>
           </InterpolatingParam>
           <InterpolatingParam id="2895" interp="linr"   name="rightClickColorBlue">
            <Keyframes>
            <Keyframe id="2896"  time="-9999999/1" value="255" leadInLength="0/1"  />
            <Keyframe id="2897"  time="1312/1" value="255" leadInLength="30/1"  interpolater="leadin-linr"  />
            </Keyframes>
           </InterpolatingParam>
           <InterpolatingParam id="2898" interp="linr"   name="rightClickColorGreen">
            <Keyframes>
            <Keyframe id="2899"  time="-9999999/1" value="0" leadInLength="0/1"  />
            <Keyframe id="2900"  time="1312/1" value="0" leadInLength="30/1"  interpolater="leadin-linr"  />
            </Keyframes>
           </InterpolatingParam>
           <InterpolatingParam id="2901" interp="linr"   name="rightClickColorRed">
            <Keyframes>
            <Keyframe id="2902"  time="-9999999/1" value="0" leadInLength="0/1"  />
            <Keyframe id="2903"  time="1312/1" value="0" leadInLength="30/1"  interpolater="leadin-linr"  />
            </Keyframes>
           </InterpolatingParam>
           <InterpolatingParam id="2904" interp="linr"   name="rightClickDuration">
            <Keyframes>
            <Keyframe id="2905"  time="-9999999/1" value="0.80000000000000004" leadInLength="0/1"  />
            <Keyframe id="2906"  time="1312/1" value="0.80000000000000004" leadInLength="30/1"  interpolater="leadin-linr"  />
            </Keyframes>
           </InterpolatingParam>
           <InterpolatingParam id="2907" interp="linr"   name="rightClickSize">
            <Keyframes>
            <Keyframe id="2908"  time="-9999999/1" value="20" leadInLength="0/1"  />
            <Keyframe id="2909"  time="1312/1" value="20" leadInLength="30/1"  interpolater="leadin-linr"  />
            </Keyframes>
           </InterpolatingParam>
           <Parameter id="2910"   name="rightClickSoundFilename">
            <Keyframes>
            <Keyframe id="2911"  time="-9999999/1" value="" leadInLength="0/1"  />
            <Keyframe id="2912"  time="1312/1" value="" leadInLength="30/1"  />
            </Keyframes>
           </Parameter>
           <InterpolatingParam id="2913" interp="linr"   name="rightClickSoundVolume">
            <Keyframes>
            <Keyframe id="2914"  time="-9999999/1" value="1" leadInLength="0/1"  />
            <Keyframe id="2915"  time="1312/1" value="1" leadInLength="30/1"  interpolater="leadin-linr"  />
            </Keyframes>
           </InterpolatingParam>
           <Parameter id="2916"   name="rightClickType">
            <Keyframes>
            <Keyframe id="2917"  time="-9999999/1" value="0" leadInLength="0/1"  />
            <Keyframe id="2918"  time="1312/1" value="0" leadInLength="30/1"  />
            </Keyframes>
           </Parameter>
           </Parameters>
           <MetaData>
            <entry key="effectIndex" val="0"/>
           </MetaData>
          </GenericEffect>
         </Effects>
         <Attributes>
          <Attribute id="2919" value="" name="ident"/>
          <Attribute id="2920" value="0" name="mixToMono"/>
         </Attributes>
         <MetaData>
          <entry key="AutoAppliedSmartFocus" val="False"/>
          <entry key="WinSubProjectDisplayName" val=""/>
         </MetaData>
         <ExtraData>
          <Entry key="ZoomPanBin">
           <ZoomPanBin id="2921"  >
            <ZoomPanKeyframes>
             <ZoomPanKeyframe id="2922" timeRangeEnd="-9999999/1" timeRangeDuration="0/1" interpolaterName="linr"  />
            </ZoomPanKeyframes>
           </ZoomPanBin>
          </Entry>
          <Entry key="CursorEffectBin">
           <CursorEffectBin id="2923"  >
            <CursorEffectKeyframes>
             <CursorEffectKeyframe id="2924" timeRangeEnd="-9999999/1" timeRangeDuration="0/1" interpolaterName=""  />
             <CursorEffectKeyframe id="2925" timeRangeEnd="1312/1" timeRangeDuration="30/1" interpolaterName=""  />
            </CursorEffectKeyframes>
           </CursorEffectBin>
          </Entry>
         </ExtraData>
         <GenericTrack id="2926"  >
          <Attributes>
           <Attribute id="2927" value="" name="ident"/>
           <Attribute id="2928" value="0" name="audioMuted"/>
           <Attribute id="2929" value="0" name="videoHidden"/>
          </Attributes>
          <MetaData>
           <entry key="IsLocked" val="False"/>
           <entry key="WinTrackHeight" val="0"/>
          </MetaData>
          <Medias>
           <UnifiedMedia id="2930"  >
            <AMFile id="2931" start="0" duration="353" scalar="1/1" mediaStart="0/1" mediaDuration="353/1" trackNumber="1" src="7" channelNumber="0,1" >
             <Parameters>
              <InterpolatingParam id="2932" interp="linr"  time="0/1" value="1" leadInLength="0/1"  name="volume"/>
              <Parameter id="2933"  name="captions"/>
             </Parameters>
             <Attributes>
              <Attribute id="2934" value="" name="ident"/>
              <Attribute id="2935" value="44100" name="sampleRate"/>
              <Attribute id="2936" value="16" name="bitDepth"/>
              <Attribute id="2937" value="1" name="gain"/>
              <Attribute id="2938" value="0" name="mixToMono"/>
             </Attributes>
            </AMFile>
            <ScreenVMFile id="2939" start="0" duration="353" scalar="1/1" mediaStart="0/1" mediaDuration="353/1" trackNumber="0" src="7" >
             <Transformer>
              <VectorParam id="2940"  name="translation">
               <InterpolatingParam id="2941" interp="linr"  time="-9999999/1" value="0" leadInLength="0/1"  />
               <InterpolatingParam id="2942" interp="linr"  time="-9999999/1" value="0" leadInLength="0/1"  />
               <InterpolatingParam id="2943" interp="linr"  time="-9999999/1" value="0" leadInLength="0/1"  />
              </VectorParam>
              <VectorParam id="2944"  name="rotation">
               <InterpolatingParam id="2945" interp="linr"  time="-9999999/1" value="0" leadInLength="0/1"  />
               <InterpolatingParam id="2946" interp="linr"  time="-9999999/1" value="0" leadInLength="0/1"  />
               <InterpolatingParam id="2947" interp="linr"  time="-9999999/1" value="0" leadInLength="0/1"  />
              </VectorParam>
              <VectorParam id="2948"  name="shear">
               <InterpolatingParam id="2949" interp="linr"  time="-9999999/1" value="0" leadInLength="0/1"  />
               <InterpolatingParam id="2950" interp="linr"  time="-9999999/1" value="0" leadInLength="0/1"  />
               <InterpolatingParam id="2951" interp="linr"  time="-9999999/1" value="0" leadInLength="0/1"  />
              </VectorParam>
              <VectorParam id="2952"  name="scale">
               <InterpolatingParam id="2953" interp="linr"  time="-9999999/1" value="1" leadInLength="0/1"  />
               <InterpolatingParam id="2954" interp="linr"  time="-9999999/1" value="1" leadInLength="0/1"  />
               <InterpolatingParam id="2955" interp="linr"  time="-9999999/1" value="1" leadInLength="0/1"  />
              </VectorParam>
              <VectorParam id="2956"  name="anchor">
               <InterpolatingParam id="2957" interp="linr"  time="0/1" value="0" leadInLength="0/1"  />
               <InterpolatingParam id="2958" interp="linr"  time="0/1" value="0" leadInLength="0/1"  />
               <InterpolatingParam id="2959" interp="linr"  time="0/1" value="0" leadInLength="0/1"  />
              </VectorParam>
             </Transformer>
             <Parameters>
              <VectorParam id="2960"  name="sourceCrop">
               <InterpolatingParam id="2961" interp="linr"  time="0/1" value="0" leadInLength="0/1"  />
               <InterpolatingParam id="2962" interp="linr"  time="0/1" value="0" leadInLength="0/1"  />
               <InterpolatingParam id="2963" interp="linr"  time="0/1" value="0" leadInLength="0/1"  />
               <InterpolatingParam id="2964" interp="linr"  time="0/1" value="0" leadInLength="0/1"  />
              </VectorParam>
              <VectorParam id="2965"  name="geometryCrop">
               <InterpolatingParam id="2966" interp="linr"  time="-9999999/1" value="0" leadInLength="0/1"  />
               <InterpolatingParam id="2967" interp="linr"  time="-9999999/1" value="0" leadInLength="0/1"  />
               <InterpolatingParam id="2968" interp="linr"  time="-9999999/1" value="0" leadInLength="0/1"  />
               <InterpolatingParam id="2969" interp="linr"  time="-9999999/1" value="0" leadInLength="0/1"  />
              </VectorParam>
              <InterpolatingParam id="2970" interp="linr"  time="-9999999/1" value="1" leadInLength="0/1"  name="opacity"/>
              <InterpolatingParam id="2971" interp="linr"  time="0/1" value="0" leadInLength="0/1"  name="cursorOpacity"/>
              <InterpolatingParam id="2972" interp="linr"  time="0/1" value="0" leadInLength="0/1"  name="cursorScale"/>
             </Parameters>
             <Attributes>
              <Attribute id="2973" value="" name="ident"/>
             </Attributes>
             <ExtraData>
              <Entry key="ZoomPanBin">
               <ZoomPanBin id="2974"  >
                <ZoomPanKeyframes>
                 <ZoomPanKeyframe id="2975" timeRangeEnd="-9999999/1" timeRangeDuration="0/1" interpolaterName="linr"  />
                </ZoomPanKeyframes>
               </ZoomPanBin>
              </Entry>
              <Entry key="CursorEffectBin">
               <CursorEffectBin id="2976"  >
                <CursorEffectKeyframes>
                </CursorEffectKeyframes>
               </CursorEffectBin>
              </Entry>
             </ExtraData>
            </ScreenVMFile>
            <MetaData>
             <entry key="AutoAppliedSmartFocus" val="False"/>
             <entry key="WinSubProjectDisplayName" val=""/>
            </MetaData>
           </UnifiedMedia>
           <UnifiedMedia id="2977"  >
            <AMFile id="2978" start="353" duration="82" scalar="1/1" mediaStart="485/1" mediaDuration="82/1" trackNumber="1" src="7" channelNumber="0,1" >
             <Parameters>
              <InterpolatingParam id="2979" interp="linr"  time="0/1" value="1" leadInLength="0/1"  name="volume"/>
              <Parameter id="2980"  name="captions"/>
             </Parameters>
             <Attributes>
              <Attribute id="2981" value="" name="ident"/>
              <Attribute id="2982" value="44100" name="sampleRate"/>
              <Attribute id="2983" value="16" name="bitDepth"/>
              <Attribute id="2984" value="1" name="gain"/>
              <Attribute id="2985" value="0" name="mixToMono"/>
             </Attributes>
            </AMFile>
            <ScreenVMFile id="2986" start="353" duration="82" scalar="1/1" mediaStart="485/1" mediaDuration="82/1" trackNumber="0" src="7" >
             <Transformer>
              <VectorParam id="2987"  name="translation">
               <InterpolatingParam id="2988" interp="linr"  time="-9999999/1" value="0" leadInLength="0/1"  />
               <InterpolatingParam id="2989" interp="linr"  time="-9999999/1" value="0" leadInLength="0/1"  />
               <InterpolatingParam id="2990" interp="linr"  time="-9999999/1" value="0" leadInLength="0/1"  />
              </VectorParam>
              <VectorParam id="2991"  name="rotation">
               <InterpolatingParam id="2992" interp="linr"  time="-9999999/1" value="0" leadInLength="0/1"  />
               <InterpolatingParam id="2993" interp="linr"  time="-9999999/1" value="0" leadInLength="0/1"  />
               <InterpolatingParam id="2994" interp="linr"  time="-9999999/1" value="0" leadInLength="0/1"  />
              </VectorParam>
              <VectorParam id="2995"  name="shear">
               <InterpolatingParam id="2996" interp="linr"  time="-9999999/1" value="0" leadInLength="0/1"  />
               <InterpolatingParam id="2997" interp="linr"  time="-9999999/1" value="0" leadInLength="0/1"  />
               <InterpolatingParam id="2998" interp="linr"  time="-9999999/1" value="0" leadInLength="0/1"  />
              </VectorParam>
              <VectorParam id="2999"  name="scale">
               <InterpolatingParam id="3000" interp="linr"  time="-9999999/1" value="1" leadInLength="0/1"  />
               <InterpolatingParam id="3001" interp="linr"  time="-9999999/1" value="1" leadInLength="0/1"  />
               <InterpolatingParam id="3002" interp="linr"  time="-9999999/1" value="1" leadInLength="0/1"  />
              </VectorParam>
              <VectorParam id="3003"  name="anchor">
               <InterpolatingParam id="3004" interp="linr"  time="0/1" value="0" leadInLength="0/1"  />
               <InterpolatingParam id="3005" interp="linr"  time="0/1" value="0" leadInLength="0/1"  />
               <InterpolatingParam id="3006" interp="linr"  time="0/1" value="0" leadInLength="0/1"  />
              </VectorParam>
             </Transformer>
             <Parameters>
              <VectorParam id="3007"  name="sourceCrop">
               <InterpolatingParam id="3008" interp="linr"  time="0/1" value="0" leadInLength="0/1"  />
               <InterpolatingParam id="3009" interp="linr"  time="0/1" value="0" leadInLength="0/1"  />
               <InterpolatingParam id="3010" interp="linr"  time="0/1" value="0" leadInLength="0/1"  />
               <InterpolatingParam id="3011" interp="linr"  time="0/1" value="0" leadInLength="0/1"  />
              </VectorParam>
              <VectorParam id="3012"  name="geometryCrop">
               <InterpolatingParam id="3013" interp="linr"  time="-9999999/1" value="0" leadInLength="0/1"  />
               <InterpolatingParam id="3014" interp="linr"  time="-9999999/1" value="0" leadInLength="0/1"  />
               <InterpolatingParam id="3015" interp="linr"  time="-9999999/1" value="0" leadInLength="0/1"  />
               <InterpolatingParam id="3016" interp="linr"  time="-9999999/1" value="0" leadInLength="0/1"  />
              </VectorParam>
              <InterpolatingParam id="3017" interp="linr"  time="-9999999/1" value="1" leadInLength="0/1"  name="opacity"/>
              <InterpolatingParam id="3018" interp="linr"  time="0/1" value="0" leadInLength="0/1"  name="cursorOpacity"/>
              <InterpolatingParam id="3019" interp="linr"  time="0/1" value="0" leadInLength="0/1"  name="cursorScale"/>
             </Parameters>
             <Attributes>
              <Attribute id="3020" value="" name="ident"/>
             </Attributes>
             <ExtraData>
              <Entry key="ZoomPanBin">
               <ZoomPanBin id="3021"  >
                <ZoomPanKeyframes>
                 <ZoomPanKeyframe id="3022" timeRangeEnd="-9999999/1" timeRangeDuration="0/1" interpolaterName="linr"  />
                </ZoomPanKeyframes>
               </ZoomPanBin>
              </Entry>
              <Entry key="CursorEffectBin">
               <CursorEffectBin id="3023"  >
                <CursorEffectKeyframes>
                </CursorEffectKeyframes>
               </CursorEffectBin>
              </Entry>
             </ExtraData>
            </ScreenVMFile>
            <MetaData>
             <entry key="AutoAppliedSmartFocus" val="False"/>
             <entry key="WinSubProjectDisplayName" val=""/>
            </MetaData>
           </UnifiedMedia>
           <UnifiedMedia id="3024"  >
            <AMFile id="3025" start="435" duration="589" scalar="1/1" mediaStart="1698/1" mediaDuration="589/1" trackNumber="1" src="7" channelNumber="0,1" >
             <Parameters>
              <InterpolatingParam id="3026" interp="linr"  time="0/1" value="1" leadInLength="0/1"  name="volume"/>
              <Parameter id="3027"  name="captions"/>
             </Parameters>
             <Attributes>
              <Attribute id="3028" value="" name="ident"/>
              <Attribute id="3029" value="44100" name="sampleRate"/>
              <Attribute id="3030" value="16" name="bitDepth"/>
              <Attribute id="3031" value="1" name="gain"/>
              <Attribute id="3032" value="0" name="mixToMono"/>
             </Attributes>
            </AMFile>
            <ScreenVMFile id="3033" start="435" duration="589" scalar="1/1" mediaStart="1698/1" mediaDuration="589/1" trackNumber="0" src="7" >
             <Transformer>
              <VectorParam id="3034"  name="translation">
               <InterpolatingParam id="3035" interp="linr"  time="-9999999/1" value="0" leadInLength="0/1"  />
               <InterpolatingParam id="3036" interp="linr"  time="-9999999/1" value="0" leadInLength="0/1"  />
               <InterpolatingParam id="3037" interp="linr"  time="-9999999/1" value="0" leadInLength="0/1"  />
              </VectorParam>
              <VectorParam id="3038"  name="rotation">
               <InterpolatingParam id="3039" interp="linr"  time="-9999999/1" value="0" leadInLength="0/1"  />
               <InterpolatingParam id="3040" interp="linr"  time="-9999999/1" value="0" leadInLength="0/1"  />
               <InterpolatingParam id="3041" interp="linr"  time="-9999999/1" value="0" leadInLength="0/1"  />
              </VectorParam>
              <VectorParam id="3042"  name="shear">
               <InterpolatingParam id="3043" interp="linr"  time="-9999999/1" value="0" leadInLength="0/1"  />
               <InterpolatingParam id="3044" interp="linr"  time="-9999999/1" value="0" leadInLength="0/1"  />
               <InterpolatingParam id="3045" interp="linr"  time="-9999999/1" value="0" leadInLength="0/1"  />
              </VectorParam>
              <VectorParam id="3046"  name="scale">
               <InterpolatingParam id="3047" interp="linr"  time="-9999999/1" value="1" leadInLength="0/1"  />
               <InterpolatingParam id="3048" interp="linr"  time="-9999999/1" value="1" leadInLength="0/1"  />
               <InterpolatingParam id="3049" interp="linr"  time="-9999999/1" value="1" leadInLength="0/1"  />
              </VectorParam>
              <VectorParam id="3050"  name="anchor">
               <InterpolatingParam id="3051" interp="linr"  time="0/1" value="0" leadInLength="0/1"  />
               <InterpolatingParam id="3052" interp="linr"  time="0/1" value="0" leadInLength="0/1"  />
               <InterpolatingParam id="3053" interp="linr"  time="0/1" value="0" leadInLength="0/1"  />
              </VectorParam>
             </Transformer>
             <Parameters>
              <VectorParam id="3054"  name="sourceCrop">
               <InterpolatingParam id="3055" interp="linr"  time="0/1" value="0" leadInLength="0/1"  />
               <InterpolatingParam id="3056" interp="linr"  time="0/1" value="0" leadInLength="0/1"  />
               <InterpolatingParam id="3057" interp="linr"  time="0/1" value="0" leadInLength="0/1"  />
               <InterpolatingParam id="3058" interp="linr"  time="0/1" value="0" leadInLength="0/1"  />
              </VectorParam>
              <VectorParam id="3059"  name="geometryCrop">
               <InterpolatingParam id="3060" interp="linr"  time="-9999999/1" value="0" leadInLength="0/1"  />
               <InterpolatingParam id="3061" interp="linr"  time="-9999999/1" value="0" leadInLength="0/1"  />
               <InterpolatingParam id="3062" interp="linr"  time="-9999999/1" value="0" leadInLength="0/1"  />
               <InterpolatingParam id="3063" interp="linr"  time="-9999999/1" value="0" leadInLength="0/1"  />
              </VectorParam>
              <InterpolatingParam id="3064" interp="linr"  time="-9999999/1" value="1" leadInLength="0/1"  name="opacity"/>
              <InterpolatingParam id="3065" interp="linr"  time="0/1" value="0" leadInLength="0/1"  name="cursorOpacity"/>
              <InterpolatingParam id="3066" interp="linr"  time="0/1" value="0" leadInLength="0/1"  name="cursorScale"/>
             </Parameters>
             <Attributes>
              <Attribute id="3067" value="" name="ident"/>
             </Attributes>
             <ExtraData>
              <Entry key="ZoomPanBin">
               <ZoomPanBin id="3068"  >
                <ZoomPanKeyframes>
                 <ZoomPanKeyframe id="3069" timeRangeEnd="-9999999/1" timeRangeDuration="0/1" interpolaterName="linr"  />
                </ZoomPanKeyframes>
               </ZoomPanBin>
              </Entry>
              <Entry key="CursorEffectBin">
               <CursorEffectBin id="3070"  >
                <CursorEffectKeyframes>
                </CursorEffectKeyframes>
               </CursorEffectBin>
              </Entry>
             </ExtraData>
            </ScreenVMFile>
            <MetaData>
             <entry key="AutoAppliedSmartFocus" val="False"/>
             <entry key="WinSubProjectDisplayName" val=""/>
            </MetaData>
           </UnifiedMedia>
           <UnifiedMedia id="3071"  >
            <AMFile id="3072" start="1024" duration="22" scalar="1/1" mediaStart="2336/1" mediaDuration="22/1" trackNumber="1" src="7" channelNumber="0,1" >
             <Parameters>
              <InterpolatingParam id="3073" interp="linr"  time="0/1" value="1" leadInLength="0/1"  name="volume"/>
              <Parameter id="3074"  name="captions"/>
             </Parameters>
             <Attributes>
              <Attribute id="3075" value="" name="ident"/>
              <Attribute id="3076" value="44100" name="sampleRate"/>
              <Attribute id="3077" value="16" name="bitDepth"/>
              <Attribute id="3078" value="1" name="gain"/>
              <Attribute id="3079" value="0" name="mixToMono"/>
             </Attributes>
            </AMFile>
            <ScreenVMFile id="3080" start="1024" duration="22" scalar="1/1" mediaStart="2336/1" mediaDuration="22/1" trackNumber="0" src="7" >
             <Transformer>
              <VectorParam id="3081"  name="translation">
               <InterpolatingParam id="3082" interp="linr"  time="-9999999/1" value="0" leadInLength="0/1"  />
               <InterpolatingParam id="3083" interp="linr"  time="-9999999/1" value="0" leadInLength="0/1"  />
               <InterpolatingParam id="3084" interp="linr"  time="-9999999/1" value="0" leadInLength="0/1"  />
              </VectorParam>
              <VectorParam id="3085"  name="rotation">
               <InterpolatingParam id="3086" interp="linr"  time="-9999999/1" value="0" leadInLength="0/1"  />
               <InterpolatingParam id="3087" interp="linr"  time="-9999999/1" value="0" leadInLength="0/1"  />
               <InterpolatingParam id="3088" interp="linr"  time="-9999999/1" value="0" leadInLength="0/1"  />
              </VectorParam>
              <VectorParam id="3089"  name="shear">
               <InterpolatingParam id="3090" interp="linr"  time="-9999999/1" value="0" leadInLength="0/1"  />
               <InterpolatingParam id="3091" interp="linr"  time="-9999999/1" value="0" leadInLength="0/1"  />
               <InterpolatingParam id="3092" interp="linr"  time="-9999999/1" value="0" leadInLength="0/1"  />
              </VectorParam>
              <VectorParam id="3093"  name="scale">
               <InterpolatingParam id="3094" interp="linr"  time="-9999999/1" value="1" leadInLength="0/1"  />
               <InterpolatingParam id="3095" interp="linr"  time="-9999999/1" value="1" leadInLength="0/1"  />
               <InterpolatingParam id="3096" interp="linr"  time="-9999999/1" value="1" leadInLength="0/1"  />
              </VectorParam>
              <VectorParam id="3097"  name="anchor">
               <InterpolatingParam id="3098" interp="linr"  time="0/1" value="0" leadInLength="0/1"  />
               <InterpolatingParam id="3099" interp="linr"  time="0/1" value="0" leadInLength="0/1"  />
               <InterpolatingParam id="3100" interp="linr"  time="0/1" value="0" leadInLength="0/1"  />
              </VectorParam>
             </Transformer>
             <Parameters>
              <VectorParam id="3101"  name="sourceCrop">
               <InterpolatingParam id="3102" interp="linr"  time="0/1" value="0" leadInLength="0/1"  />
               <InterpolatingParam id="3103" interp="linr"  time="0/1" value="0" leadInLength="0/1"  />
               <InterpolatingParam id="3104" interp="linr"  time="0/1" value="0" leadInLength="0/1"  />
               <InterpolatingParam id="3105" interp="linr"  time="0/1" value="0" leadInLength="0/1"  />
              </VectorParam>
              <VectorParam id="3106"  name="geometryCrop">
               <InterpolatingParam id="3107" interp="linr"  time="-9999999/1" value="0" leadInLength="0/1"  />
               <InterpolatingParam id="3108" interp="linr"  time="-9999999/1" value="0" leadInLength="0/1"  />
               <InterpolatingParam id="3109" interp="linr"  time="-9999999/1" value="0" leadInLength="0/1"  />
               <InterpolatingParam id="3110" interp="linr"  time="-9999999/1" value="0" leadInLength="0/1"  />
              </VectorParam>
              <InterpolatingParam id="3111" interp="linr"  time="-9999999/1" value="1" leadInLength="0/1"  name="opacity"/>
              <InterpolatingParam id="3112" interp="linr"  time="0/1" value="0" leadInLength="0/1"  name="cursorOpacity"/>
              <InterpolatingParam id="3113" interp="linr"  time="0/1" value="0" leadInLength="0/1"  name="cursorScale"/>
             </Parameters>
             <Attributes>
              <Attribute id="3114" value="" name="ident"/>
             </Attributes>
             <ExtraData>
              <Entry key="ZoomPanBin">
               <ZoomPanBin id="3115"  >
                <ZoomPanKeyframes>
                 <ZoomPanKeyframe id="3116" timeRangeEnd="-9999999/1" timeRangeDuration="0/1" interpolaterName="linr"  />
                </ZoomPanKeyframes>
               </ZoomPanBin>
              </Entry>
              <Entry key="CursorEffectBin">
               <CursorEffectBin id="3117"  >
                <CursorEffectKeyframes>
                </CursorEffectKeyframes>
               </CursorEffectBin>
              </Entry>
             </ExtraData>
            </ScreenVMFile>
            <MetaData>
             <entry key="AutoAppliedSmartFocus" val="False"/>
             <entry key="WinSubProjectDisplayName" val=""/>
            </MetaData>
           </UnifiedMedia>
           <UnifiedMedia id="3118"  >
            <AMFile id="3119" start="1046" duration="288" scalar="1/1" mediaStart="2413/1" mediaDuration="288/1" trackNumber="1" src="7" channelNumber="0,1" >
             <Parameters>
              <InterpolatingParam id="3120" interp="linr"  time="0/1" value="1" leadInLength="0/1"  name="volume"/>
              <Parameter id="3121"  name="captions"/>
             </Parameters>
             <Attributes>
              <Attribute id="3122" value="" name="ident"/>
              <Attribute id="3123" value="44100" name="sampleRate"/>
              <Attribute id="3124" value="16" name="bitDepth"/>
              <Attribute id="3125" value="1" name="gain"/>
              <Attribute id="3126" value="0" name="mixToMono"/>
             </Attributes>
            </AMFile>
            <ScreenVMFile id="3127" start="1046" duration="288" scalar="1/1" mediaStart="2413/1" mediaDuration="288/1" trackNumber="0" src="7" >
             <Transformer>
              <VectorParam id="3128"  name="translation">
               <InterpolatingParam id="3129" interp="linr"  time="-9999999/1" value="0" leadInLength="0/1"  />
               <InterpolatingParam id="3130" interp="linr"  time="-9999999/1" value="0" leadInLength="0/1"  />
               <InterpolatingParam id="3131" interp="linr"  time="-9999999/1" value="0" leadInLength="0/1"  />
              </VectorParam>
              <VectorParam id="3132"  name="rotation">
               <InterpolatingParam id="3133" interp="linr"  time="-9999999/1" value="0" leadInLength="0/1"  />
               <InterpolatingParam id="3134" interp="linr"  time="-9999999/1" value="0" leadInLength="0/1"  />
               <InterpolatingParam id="3135" interp="linr"  time="-9999999/1" value="0" leadInLength="0/1"  />
              </VectorParam>
              <VectorParam id="3136"  name="shear">
               <InterpolatingParam id="3137" interp="linr"  time="-9999999/1" value="0" leadInLength="0/1"  />
               <InterpolatingParam id="3138" interp="linr"  time="-9999999/1" value="0" leadInLength="0/1"  />
               <InterpolatingParam id="3139" interp="linr"  time="-9999999/1" value="0" leadInLength="0/1"  />
              </VectorParam>
              <VectorParam id="3140"  name="scale">
               <InterpolatingParam id="3141" interp="linr"  time="-9999999/1" value="1" leadInLength="0/1"  />
               <InterpolatingParam id="3142" interp="linr"  time="-9999999/1" value="1" leadInLength="0/1"  />
               <InterpolatingParam id="3143" interp="linr"  time="-9999999/1" value="1" leadInLength="0/1"  />
              </VectorParam>
              <VectorParam id="3144"  name="anchor">
               <InterpolatingParam id="3145" interp="linr"  time="0/1" value="0" leadInLength="0/1"  />
               <InterpolatingParam id="3146" interp="linr"  time="0/1" value="0" leadInLength="0/1"  />
               <InterpolatingParam id="3147" interp="linr"  time="0/1" value="0" leadInLength="0/1"  />
              </VectorParam>
             </Transformer>
             <Parameters>
              <VectorParam id="3148"  name="sourceCrop">
               <InterpolatingParam id="3149" interp="linr"  time="0/1" value="0" leadInLength="0/1"  />
               <InterpolatingParam id="3150" interp="linr"  time="0/1" value="0" leadInLength="0/1"  />
               <InterpolatingParam id="3151" interp="linr"  time="0/1" value="0" leadInLength="0/1"  />
               <InterpolatingParam id="3152" interp="linr"  time="0/1" value="0" leadInLength="0/1"  />
              </VectorParam>
              <VectorParam id="3153"  name="geometryCrop">
               <InterpolatingParam id="3154" interp="linr"  time="-9999999/1" value="0" leadInLength="0/1"  />
               <InterpolatingParam id="3155" interp="linr"  time="-9999999/1" value="0" leadInLength="0/1"  />
               <InterpolatingParam id="3156" interp="linr"  time="-9999999/1" value="0" leadInLength="0/1"  />
               <InterpolatingParam id="3157" interp="linr"  time="-9999999/1" value="0" leadInLength="0/1"  />
              </VectorParam>
              <InterpolatingParam id="3158" interp="linr"  time="-9999999/1" value="1" leadInLength="0/1"  name="opacity"/>
              <InterpolatingParam id="3159" interp="linr"  time="0/1" value="0" leadInLength="0/1"  name="cursorOpacity"/>
              <InterpolatingParam id="3160" interp="linr"  time="0/1" value="0" leadInLength="0/1"  name="cursorScale"/>
             </Parameters>
             <Attributes>
              <Attribute id="3161" value="" name="ident"/>
             </Attributes>
             <ExtraData>
              <Entry key="ZoomPanBin">
               <ZoomPanBin id="3162"  >
                <ZoomPanKeyframes>
                 <ZoomPanKeyframe id="3163" timeRangeEnd="-9999999/1" timeRangeDuration="0/1" interpolaterName="linr"  />
                </ZoomPanKeyframes>
               </ZoomPanBin>
              </Entry>
              <Entry key="CursorEffectBin">
               <CursorEffectBin id="3164"  >
                <CursorEffectKeyframes>
                </CursorEffectKeyframes>
               </CursorEffectBin>
              </Entry>
             </ExtraData>
            </ScreenVMFile>
            <MetaData>
             <entry key="AutoAppliedSmartFocus" val="False"/>
             <entry key="WinSubProjectDisplayName" val=""/>
            </MetaData>
           </UnifiedMedia>
           <UnifiedMedia id="3165"  >
            <AMFile id="3166" start="1334" duration="211" scalar="1/1" mediaStart="2958/1" mediaDuration="211/1" trackNumber="1" src="7" channelNumber="0,1" >
             <Parameters>
              <InterpolatingParam id="3167" interp="linr"  time="0/1" value="1" leadInLength="0/1"  name="volume"/>
              <Parameter id="3168"  name="captions"/>
             </Parameters>
             <Attributes>
              <Attribute id="3169" value="" name="ident"/>
              <Attribute id="3170" value="44100" name="sampleRate"/>
              <Attribute id="3171" value="16" name="bitDepth"/>
              <Attribute id="3172" value="1" name="gain"/>
              <Attribute id="3173" value="0" name="mixToMono"/>
             </Attributes>
            </AMFile>
            <ScreenVMFile id="3174" start="1334" duration="211" scalar="1/1" mediaStart="2958/1" mediaDuration="211/1" trackNumber="0" src="7" >
             <Transformer>
              <VectorParam id="3175"  name="translation">
               <InterpolatingParam id="3176" interp="linr"  time="-9999999/1" value="0" leadInLength="0/1"  />
               <InterpolatingParam id="3177" interp="linr"  time="-9999999/1" value="0" leadInLength="0/1"  />
               <InterpolatingParam id="3178" interp="linr"  time="-9999999/1" value="0" leadInLength="0/1"  />
              </VectorParam>
              <VectorParam id="3179"  name="rotation">
               <InterpolatingParam id="3180" interp="linr"  time="-9999999/1" value="0" leadInLength="0/1"  />
               <InterpolatingParam id="3181" interp="linr"  time="-9999999/1" value="0" leadInLength="0/1"  />
               <InterpolatingParam id="3182" interp="linr"  time="-9999999/1" value="0" leadInLength="0/1"  />
              </VectorParam>
              <VectorParam id="3183"  name="shear">
               <InterpolatingParam id="3184" interp="linr"  time="-9999999/1" value="0" leadInLength="0/1"  />
               <InterpolatingParam id="3185" interp="linr"  time="-9999999/1" value="0" leadInLength="0/1"  />
               <InterpolatingParam id="3186" interp="linr"  time="-9999999/1" value="0" leadInLength="0/1"  />
              </VectorParam>
              <VectorParam id="3187"  name="scale">
               <InterpolatingParam id="3188" interp="linr"  time="-9999999/1" value="1" leadInLength="0/1"  />
               <InterpolatingParam id="3189" interp="linr"  time="-9999999/1" value="1" leadInLength="0/1"  />
               <InterpolatingParam id="3190" interp="linr"  time="-9999999/1" value="1" leadInLength="0/1"  />
              </VectorParam>
              <VectorParam id="3191"  name="anchor">
               <InterpolatingParam id="3192" interp="linr"  time="0/1" value="0" leadInLength="0/1"  />
               <InterpolatingParam id="3193" interp="linr"  time="0/1" value="0" leadInLength="0/1"  />
               <InterpolatingParam id="3194" interp="linr"  time="0/1" value="0" leadInLength="0/1"  />
              </VectorParam>
             </Transformer>
             <Parameters>
              <VectorParam id="3195"  name="sourceCrop">
               <InterpolatingParam id="3196" interp="linr"  time="0/1" value="0" leadInLength="0/1"  />
               <InterpolatingParam id="3197" interp="linr"  time="0/1" value="0" leadInLength="0/1"  />
               <InterpolatingParam id="3198" interp="linr"  time="0/1" value="0" leadInLength="0/1"  />
               <InterpolatingParam id="3199" interp="linr"  time="0/1" value="0" leadInLength="0/1"  />
              </VectorParam>
              <VectorParam id="3200"  name="geometryCrop">
               <InterpolatingParam id="3201" interp="linr"  time="-9999999/1" value="0" leadInLength="0/1"  />
               <InterpolatingParam id="3202" interp="linr"  time="-9999999/1" value="0" leadInLength="0/1"  />
               <InterpolatingParam id="3203" interp="linr"  time="-9999999/1" value="0" leadInLength="0/1"  />
               <InterpolatingParam id="3204" interp="linr"  time="-9999999/1" value="0" leadInLength="0/1"  />
              </VectorParam>
              <InterpolatingParam id="3205" interp="linr"  time="-9999999/1" value="1" leadInLength="0/1"  name="opacity"/>
              <InterpolatingParam id="3206" interp="linr"  time="0/1" value="0" leadInLength="0/1"  name="cursorOpacity"/>
              <InterpolatingParam id="3207" interp="linr"  time="0/1" value="0" leadInLength="0/1"  name="cursorScale"/>
             </Parameters>
             <Attributes>
              <Attribute id="3208" value="" name="ident"/>
             </Attributes>
             <ExtraData>
              <Entry key="ZoomPanBin">
               <ZoomPanBin id="3209"  >
                <ZoomPanKeyframes>
                 <ZoomPanKeyframe id="3210" timeRangeEnd="-9999999/1" timeRangeDuration="0/1" interpolaterName="linr"  />
                </ZoomPanKeyframes>
               </ZoomPanBin>
              </Entry>
              <Entry key="CursorEffectBin">
               <CursorEffectBin id="3211"  >
                <CursorEffectKeyframes>
                </CursorEffectKeyframes>
               </CursorEffectBin>
              </Entry>
             </ExtraData>
            </ScreenVMFile>
            <MetaData>
             <entry key="AutoAppliedSmartFocus" val="False"/>
             <entry key="WinSubProjectDisplayName" val=""/>
            </MetaData>
           </UnifiedMedia>
           <UnifiedMedia id="3212"  >
            <AMFile id="3213" start="1545" duration="116" scalar="1/1" mediaStart="3429/1" mediaDuration="116/1" trackNumber="1" src="7" channelNumber="0,1" >
             <Parameters>
              <InterpolatingParam id="3214" interp="linr"  time="0/1" value="1" leadInLength="0/1"  name="volume"/>
              <Parameter id="3215"  name="captions"/>
             </Parameters>
             <Attributes>
              <Attribute id="3216" value="" name="ident"/>
              <Attribute id="3217" value="44100" name="sampleRate"/>
              <Attribute id="3218" value="16" name="bitDepth"/>
              <Attribute id="3219" value="1" name="gain"/>
              <Attribute id="3220" value="0" name="mixToMono"/>
             </Attributes>
            </AMFile>
            <ScreenVMFile id="3221" start="1545" duration="116" scalar="1/1" mediaStart="3429/1" mediaDuration="116/1" trackNumber="0" src="7" >
             <Transformer>
              <VectorParam id="3222"  name="translation">
               <InterpolatingParam id="3223" interp="linr"  time="-9999999/1" value="0" leadInLength="0/1"  />
               <InterpolatingParam id="3224" interp="linr"  time="-9999999/1" value="0" leadInLength="0/1"  />
               <InterpolatingParam id="3225" interp="linr"  time="-9999999/1" value="0" leadInLength="0/1"  />
              </VectorParam>
              <VectorParam id="3226"  name="rotation">
               <InterpolatingParam id="3227" interp="linr"  time="-9999999/1" value="0" leadInLength="0/1"  />
               <InterpolatingParam id="3228" interp="linr"  time="-9999999/1" value="0" leadInLength="0/1"  />
               <InterpolatingParam id="3229" interp="linr"  time="-9999999/1" value="0" leadInLength="0/1"  />
              </VectorParam>
              <VectorParam id="3230"  name="shear">
               <InterpolatingParam id="3231" interp="linr"  time="-9999999/1" value="0" leadInLength="0/1"  />
               <InterpolatingParam id="3232" interp="linr"  time="-9999999/1" value="0" leadInLength="0/1"  />
               <InterpolatingParam id="3233" interp="linr"  time="-9999999/1" value="0" leadInLength="0/1"  />
              </VectorParam>
              <VectorParam id="3234"  name="scale">
               <InterpolatingParam id="3235" interp="linr"  time="-9999999/1" value="1" leadInLength="0/1"  />
               <InterpolatingParam id="3236" interp="linr"  time="-9999999/1" value="1" leadInLength="0/1"  />
               <InterpolatingParam id="3237" interp="linr"  time="-9999999/1" value="1" leadInLength="0/1"  />
              </VectorParam>
              <VectorParam id="3238"  name="anchor">
               <InterpolatingParam id="3239" interp="linr"  time="0/1" value="0" leadInLength="0/1"  />
               <InterpolatingParam id="3240" interp="linr"  time="0/1" value="0" leadInLength="0/1"  />
               <InterpolatingParam id="3241" interp="linr"  time="0/1" value="0" leadInLength="0/1"  />
              </VectorParam>
             </Transformer>
             <Parameters>
              <VectorParam id="3242"  name="sourceCrop">
               <InterpolatingParam id="3243" interp="linr"  time="0/1" value="0" leadInLength="0/1"  />
               <InterpolatingParam id="3244" interp="linr"  time="0/1" value="0" leadInLength="0/1"  />
               <InterpolatingParam id="3245" interp="linr"  time="0/1" value="0" leadInLength="0/1"  />
               <InterpolatingParam id="3246" interp="linr"  time="0/1" value="0" leadInLength="0/1"  />
              </VectorParam>
              <VectorParam id="3247"  name="geometryCrop">
               <InterpolatingParam id="3248" interp="linr"  time="-9999999/1" value="0" leadInLength="0/1"  />
               <InterpolatingParam id="3249" interp="linr"  time="-9999999/1" value="0" leadInLength="0/1"  />
               <InterpolatingParam id="3250" interp="linr"  time="-9999999/1" value="0" leadInLength="0/1"  />
               <InterpolatingParam id="3251" interp="linr"  time="-9999999/1" value="0" leadInLength="0/1"  />
              </VectorParam>
              <InterpolatingParam id="3252" interp="linr"  time="-9999999/1" value="1" leadInLength="0/1"  name="opacity"/>
              <InterpolatingParam id="3253" interp="linr"  time="0/1" value="0" leadInLength="0/1"  name="cursorOpacity"/>
              <InterpolatingParam id="3254" interp="linr"  time="0/1" value="0" leadInLength="0/1"  name="cursorScale"/>
             </Parameters>
             <Attributes>
              <Attribute id="3255" value="" name="ident"/>
             </Attributes>
             <ExtraData>
              <Entry key="ZoomPanBin">
               <ZoomPanBin id="3256"  >
                <ZoomPanKeyframes>
                 <ZoomPanKeyframe id="3257" timeRangeEnd="-9999999/1" timeRangeDuration="0/1" interpolaterName="linr"  />
                </ZoomPanKeyframes>
               </ZoomPanBin>
              </Entry>
              <Entry key="CursorEffectBin">
               <CursorEffectBin id="3258"  >
                <CursorEffectKeyframes>
                </CursorEffectKeyframes>
               </CursorEffectBin>
              </Entry>
             </ExtraData>
            </ScreenVMFile>
            <MetaData>
             <entry key="AutoAppliedSmartFocus" val="False"/>
             <entry key="WinSubProjectDisplayName" val=""/>
            </MetaData>
           </UnifiedMedia>
           <UnifiedMedia id="3259"  >
            <AMFile id="3260" start="1661" duration="255" scalar="1/1" mediaStart="3934/1" mediaDuration="255/1" trackNumber="1" src="7" channelNumber="0,1" >
             <Parameters>
              <InterpolatingParam id="3261" interp="linr"  time="0/1" value="1" leadInLength="0/1"  name="volume"/>
              <Parameter id="3262"  name="captions"/>
             </Parameters>
             <Attributes>
              <Attribute id="3263" value="" name="ident"/>
              <Attribute id="3264" value="44100" name="sampleRate"/>
              <Attribute id="3265" value="16" name="bitDepth"/>
              <Attribute id="3266" value="1" name="gain"/>
              <Attribute id="3267" value="0" name="mixToMono"/>
             </Attributes>
            </AMFile>
            <ScreenVMFile id="3268" start="1661" duration="255" scalar="1/1" mediaStart="3934/1" mediaDuration="255/1" trackNumber="0" src="7" >
             <Transformer>
              <VectorParam id="3269"  name="translation">
               <InterpolatingParam id="3270" interp="linr"  time="-9999999/1" value="0" leadInLength="0/1"  />
               <InterpolatingParam id="3271" interp="linr"  time="-9999999/1" value="0" leadInLength="0/1"  />
               <InterpolatingParam id="3272" interp="linr"  time="-9999999/1" value="0" leadInLength="0/1"  />
              </VectorParam>
              <VectorParam id="3273"  name="rotation">
               <InterpolatingParam id="3274" interp="linr"  time="-9999999/1" value="0" leadInLength="0/1"  />
               <InterpolatingParam id="3275" interp="linr"  time="-9999999/1" value="0" leadInLength="0/1"  />
               <InterpolatingParam id="3276" interp="linr"  time="-9999999/1" value="0" leadInLength="0/1"  />
              </VectorParam>
              <VectorParam id="3277"  name="shear">
               <InterpolatingParam id="3278" interp="linr"  time="-9999999/1" value="0" leadInLength="0/1"  />
               <InterpolatingParam id="3279" interp="linr"  time="-9999999/1" value="0" leadInLength="0/1"  />
               <InterpolatingParam id="3280" interp="linr"  time="-9999999/1" value="0" leadInLength="0/1"  />
              </VectorParam>
              <VectorParam id="3281"  name="scale">
               <InterpolatingParam id="3282" interp="linr"  time="-9999999/1" value="1" leadInLength="0/1"  />
               <InterpolatingParam id="3283" interp="linr"  time="-9999999/1" value="1" leadInLength="0/1"  />
               <InterpolatingParam id="3284" interp="linr"  time="-9999999/1" value="1" leadInLength="0/1"  />
              </VectorParam>
              <VectorParam id="3285"  name="anchor">
               <InterpolatingParam id="3286" interp="linr"  time="0/1" value="0" leadInLength="0/1"  />
               <InterpolatingParam id="3287" interp="linr"  time="0/1" value="0" leadInLength="0/1"  />
               <InterpolatingParam id="3288" interp="linr"  time="0/1" value="0" leadInLength="0/1"  />
              </VectorParam>
             </Transformer>
             <Parameters>
              <VectorParam id="3289"  name="sourceCrop">
               <InterpolatingParam id="3290" interp="linr"  time="0/1" value="0" leadInLength="0/1"  />
               <InterpolatingParam id="3291" interp="linr"  time="0/1" value="0" leadInLength="0/1"  />
               <InterpolatingParam id="3292" interp="linr"  time="0/1" value="0" leadInLength="0/1"  />
               <InterpolatingParam id="3293" interp="linr"  time="0/1" value="0" leadInLength="0/1"  />
              </VectorParam>
              <VectorParam id="3294"  name="geometryCrop">
               <InterpolatingParam id="3295" interp="linr"  time="-9999999/1" value="0" leadInLength="0/1"  />
               <InterpolatingParam id="3296" interp="linr"  time="-9999999/1" value="0" leadInLength="0/1"  />
               <InterpolatingParam id="3297" interp="linr"  time="-9999999/1" value="0" leadInLength="0/1"  />
               <InterpolatingParam id="3298" interp="linr"  time="-9999999/1" value="0" leadInLength="0/1"  />
              </VectorParam>
              <InterpolatingParam id="3299" interp="linr"  time="-9999999/1" value="1" leadInLength="0/1"  name="opacity"/>
              <InterpolatingParam id="3300" interp="linr"  time="0/1" value="0" leadInLength="0/1"  name="cursorOpacity"/>
              <InterpolatingParam id="3301" interp="linr"  time="0/1" value="0" leadInLength="0/1"  name="cursorScale"/>
             </Parameters>
             <Attributes>
              <Attribute id="3302" value="" name="ident"/>
             </Attributes>
             <ExtraData>
              <Entry key="ZoomPanBin">
               <ZoomPanBin id="3303"  >
                <ZoomPanKeyframes>
                 <ZoomPanKeyframe id="3304" timeRangeEnd="-9999999/1" timeRangeDuration="0/1" interpolaterName="linr"  />
                </ZoomPanKeyframes>
               </ZoomPanBin>
              </Entry>
              <Entry key="CursorEffectBin">
               <CursorEffectBin id="3305"  >
                <CursorEffectKeyframes>
                </CursorEffectKeyframes>
               </CursorEffectBin>
              </Entry>
             </ExtraData>
            </ScreenVMFile>
            <MetaData>
             <entry key="AutoAppliedSmartFocus" val="False"/>
             <entry key="WinSubProjectDisplayName" val=""/>
            </MetaData>
           </UnifiedMedia>
           <UnifiedMedia id="3306"  >
            <AMFile id="3307" start="1916" duration="51" scalar="1/1" mediaStart="4243/1" mediaDuration="51/1" trackNumber="1" src="7" channelNumber="0,1" >
             <Parameters>
              <InterpolatingParam id="3308" interp="linr"  time="0/1" value="1" leadInLength="0/1"  name="volume"/>
              <Parameter id="3309"  name="captions"/>
             </Parameters>
             <Attributes>
              <Attribute id="3310" value="" name="ident"/>
              <Attribute id="3311" value="44100" name="sampleRate"/>
              <Attribute id="3312" value="16" name="bitDepth"/>
              <Attribute id="3313" value="1" name="gain"/>
              <Attribute id="3314" value="0" name="mixToMono"/>
             </Attributes>
            </AMFile>
            <ScreenVMFile id="3315" start="1916" duration="51" scalar="1/1" mediaStart="4243/1" mediaDuration="51/1" trackNumber="0" src="7" >
             <Transformer>
              <VectorParam id="3316"  name="translation">
               <InterpolatingParam id="3317" interp="linr"  time="-9999999/1" value="0" leadInLength="0/1"  />
               <InterpolatingParam id="3318" interp="linr"  time="-9999999/1" value="0" leadInLength="0/1"  />
               <InterpolatingParam id="3319" interp="linr"  time="-9999999/1" value="0" leadInLength="0/1"  />
              </VectorParam>
              <VectorParam id="3320"  name="rotation">
               <InterpolatingParam id="3321" interp="linr"  time="-9999999/1" value="0" leadInLength="0/1"  />
               <InterpolatingParam id="3322" interp="linr"  time="-9999999/1" value="0" leadInLength="0/1"  />
               <InterpolatingParam id="3323" interp="linr"  time="-9999999/1" value="0" leadInLength="0/1"  />
              </VectorParam>
              <VectorParam id="3324"  name="shear">
               <InterpolatingParam id="3325" interp="linr"  time="-9999999/1" value="0" leadInLength="0/1"  />
               <InterpolatingParam id="3326" interp="linr"  time="-9999999/1" value="0" leadInLength="0/1"  />
               <InterpolatingParam id="3327" interp="linr"  time="-9999999/1" value="0" leadInLength="0/1"  />
              </VectorParam>
              <VectorParam id="3328"  name="scale">
               <InterpolatingParam id="3329" interp="linr"  time="-9999999/1" value="1" leadInLength="0/1"  />
               <InterpolatingParam id="3330" interp="linr"  time="-9999999/1" value="1" leadInLength="0/1"  />
               <InterpolatingParam id="3331" interp="linr"  time="-9999999/1" value="1" leadInLength="0/1"  />
              </VectorParam>
              <VectorParam id="3332"  name="anchor">
               <InterpolatingParam id="3333" interp="linr"  time="0/1" value="0" leadInLength="0/1"  />
               <InterpolatingParam id="3334" interp="linr"  time="0/1" value="0" leadInLength="0/1"  />
               <InterpolatingParam id="3335" interp="linr"  time="0/1" value="0" leadInLength="0/1"  />
              </VectorParam>
             </Transformer>
             <Parameters>
              <VectorParam id="3336"  name="sourceCrop">
               <InterpolatingParam id="3337" interp="linr"  time="0/1" value="0" leadInLength="0/1"  />
               <InterpolatingParam id="3338" interp="linr"  time="0/1" value="0" leadInLength="0/1"  />
               <InterpolatingParam id="3339" interp="linr"  time="0/1" value="0" leadInLength="0/1"  />
               <InterpolatingParam id="3340" interp="linr"  time="0/1" value="0" leadInLength="0/1"  />
              </VectorParam>
              <VectorParam id="3341"  name="geometryCrop">
               <InterpolatingParam id="3342" interp="linr"  time="-9999999/1" value="0" leadInLength="0/1"  />
               <InterpolatingParam id="3343" interp="linr"  time="-9999999/1" value="0" leadInLength="0/1"  />
               <InterpolatingParam id="3344" interp="linr"  time="-9999999/1" value="0" leadInLength="0/1"  />
               <InterpolatingParam id="3345" interp="linr"  time="-9999999/1" value="0" leadInLength="0/1"  />
              </VectorParam>
              <InterpolatingParam id="3346" interp="linr"  time="-9999999/1" value="1" leadInLength="0/1"  name="opacity"/>
              <InterpolatingParam id="3347" interp="linr"  time="0/1" value="0" leadInLength="0/1"  name="cursorOpacity"/>
              <InterpolatingParam id="3348" interp="linr"  time="0/1" value="0" leadInLength="0/1"  name="cursorScale"/>
             </Parameters>
             <Attributes>
              <Attribute id="3349" value="" name="ident"/>
             </Attributes>
             <ExtraData>
              <Entry key="ZoomPanBin">
               <ZoomPanBin id="3350"  >
                <ZoomPanKeyframes>
                 <ZoomPanKeyframe id="3351" timeRangeEnd="-9999999/1" timeRangeDuration="0/1" interpolaterName="linr"  />
                </ZoomPanKeyframes>
               </ZoomPanBin>
              </Entry>
              <Entry key="CursorEffectBin">
               <CursorEffectBin id="3352"  >
                <CursorEffectKeyframes>
                </CursorEffectKeyframes>
               </CursorEffectBin>
              </Entry>
             </ExtraData>
            </ScreenVMFile>
            <MetaData>
             <entry key="AutoAppliedSmartFocus" val="False"/>
             <entry key="WinSubProjectDisplayName" val=""/>
            </MetaData>
           </UnifiedMedia>
           <UnifiedMedia id="3353"  >
            <AMFile id="3354" start="1967" duration="256" scalar="1/1" mediaStart="11824/1" mediaDuration="256/1" trackNumber="1" src="7" channelNumber="0,1" >
             <Parameters>
              <InterpolatingParam id="3355" interp="linr"  time="0/1" value="1" leadInLength="0/1"  name="volume"/>
              <Parameter id="3356"  name="captions"/>
             </Parameters>
             <Attributes>
              <Attribute id="3357" value="" name="ident"/>
              <Attribute id="3358" value="44100" name="sampleRate"/>
              <Attribute id="3359" value="16" name="bitDepth"/>
              <Attribute id="3360" value="1" name="gain"/>
              <Attribute id="3361" value="0" name="mixToMono"/>
             </Attributes>
            </AMFile>
            <ScreenVMFile id="3362" start="1967" duration="256" scalar="1/1" mediaStart="11824/1" mediaDuration="256/1" trackNumber="0" src="7" >
             <Transformer>
              <VectorParam id="3363"  name="translation">
               <InterpolatingParam id="3364" interp="linr"  time="-9999999/1" value="0" leadInLength="0/1"  />
               <InterpolatingParam id="3365" interp="linr"  time="-9999999/1" value="0" leadInLength="0/1"  />
               <InterpolatingParam id="3366" interp="linr"  time="-9999999/1" value="0" leadInLength="0/1"  />
              </VectorParam>
              <VectorParam id="3367"  name="rotation">
               <InterpolatingParam id="3368" interp="linr"  time="-9999999/1" value="0" leadInLength="0/1"  />
               <InterpolatingParam id="3369" interp="linr"  time="-9999999/1" value="0" leadInLength="0/1"  />
               <InterpolatingParam id="3370" interp="linr"  time="-9999999/1" value="0" leadInLength="0/1"  />
              </VectorParam>
              <VectorParam id="3371"  name="shear">
               <InterpolatingParam id="3372" interp="linr"  time="-9999999/1" value="0" leadInLength="0/1"  />
               <InterpolatingParam id="3373" interp="linr"  time="-9999999/1" value="0" leadInLength="0/1"  />
               <InterpolatingParam id="3374" interp="linr"  time="-9999999/1" value="0" leadInLength="0/1"  />
              </VectorParam>
              <VectorParam id="3375"  name="scale">
               <InterpolatingParam id="3376" interp="linr"  time="-9999999/1" value="1" leadInLength="0/1"  />
               <InterpolatingParam id="3377" interp="linr"  time="-9999999/1" value="1" leadInLength="0/1"  />
               <InterpolatingParam id="3378" interp="linr"  time="-9999999/1" value="1" leadInLength="0/1"  />
              </VectorParam>
              <VectorParam id="3379"  name="anchor">
               <InterpolatingParam id="3380" interp="linr"  time="0/1" value="0" leadInLength="0/1"  />
               <InterpolatingParam id="3381" interp="linr"  time="0/1" value="0" leadInLength="0/1"  />
               <InterpolatingParam id="3382" interp="linr"  time="0/1" value="0" leadInLength="0/1"  />
              </VectorParam>
             </Transformer>
             <Parameters>
              <VectorParam id="3383"  name="sourceCrop">
               <InterpolatingParam id="3384" interp="linr"  time="0/1" value="0" leadInLength="0/1"  />
               <InterpolatingParam id="3385" interp="linr"  time="0/1" value="0" leadInLength="0/1"  />
               <InterpolatingParam id="3386" interp="linr"  time="0/1" value="0" leadInLength="0/1"  />
               <InterpolatingParam id="3387" interp="linr"  time="0/1" value="0" leadInLength="0/1"  />
              </VectorParam>
              <VectorParam id="3388"  name="geometryCrop">
               <InterpolatingParam id="3389" interp="linr"  time="-9999999/1" value="0" leadInLength="0/1"  />
               <InterpolatingParam id="3390" interp="linr"  time="-9999999/1" value="0" leadInLength="0/1"  />
               <InterpolatingParam id="3391" interp="linr"  time="-9999999/1" value="0" leadInLength="0/1"  />
               <InterpolatingParam id="3392" interp="linr"  time="-9999999/1" value="0" leadInLength="0/1"  />
              </VectorParam>
              <InterpolatingParam id="3393" interp="linr"  time="-9999999/1" value="1" leadInLength="0/1"  name="opacity"/>
              <InterpolatingParam id="3394" interp="linr"  time="0/1" value="0" leadInLength="0/1"  name="cursorOpacity"/>
              <InterpolatingParam id="3395" interp="linr"  time="0/1" value="0" leadInLength="0/1"  name="cursorScale"/>
             </Parameters>
             <Attributes>
              <Attribute id="3396" value="" name="ident"/>
             </Attributes>
             <ExtraData>
              <Entry key="ZoomPanBin">
               <ZoomPanBin id="3397"  >
                <ZoomPanKeyframes>
                 <ZoomPanKeyframe id="3398" timeRangeEnd="-9999999/1" timeRangeDuration="0/1" interpolaterName="linr"  />
                </ZoomPanKeyframes>
               </ZoomPanBin>
              </Entry>
              <Entry key="CursorEffectBin">
               <CursorEffectBin id="3399"  >
                <CursorEffectKeyframes>
                </CursorEffectKeyframes>
               </CursorEffectBin>
              </Entry>
             </ExtraData>
            </ScreenVMFile>
            <MetaData>
             <entry key="AutoAppliedSmartFocus" val="False"/>
             <entry key="WinSubProjectDisplayName" val=""/>
            </MetaData>
           </UnifiedMedia>
           <UnifiedMedia id="3400"  >
            <AMFile id="3401" start="2223" duration="140" scalar="1/1" mediaStart="12352/1" mediaDuration="140/1" trackNumber="1" src="7" channelNumber="0,1" >
             <Parameters>
              <InterpolatingParam id="3402" interp="linr"  time="0/1" value="1" leadInLength="0/1"  name="volume"/>
              <Parameter id="3403"  name="captions"/>
             </Parameters>
             <Attributes>
              <Attribute id="3404" value="" name="ident"/>
              <Attribute id="3405" value="44100" name="sampleRate"/>
              <Attribute id="3406" value="16" name="bitDepth"/>
              <Attribute id="3407" value="1" name="gain"/>
              <Attribute id="3408" value="0" name="mixToMono"/>
             </Attributes>
            </AMFile>
            <ScreenVMFile id="3409" start="2223" duration="140" scalar="1/1" mediaStart="12352/1" mediaDuration="140/1" trackNumber="0" src="7" >
             <Transformer>
              <VectorParam id="3410"  name="translation">
               <InterpolatingParam id="3411" interp="linr"  time="-9999999/1" value="0" leadInLength="0/1"  />
               <InterpolatingParam id="3412" interp="linr"  time="-9999999/1" value="0" leadInLength="0/1"  />
               <InterpolatingParam id="3413" interp="linr"  time="-9999999/1" value="0" leadInLength="0/1"  />
              </VectorParam>
              <VectorParam id="3414"  name="rotation">
               <InterpolatingParam id="3415" interp="linr"  time="-9999999/1" value="0" leadInLength="0/1"  />
               <InterpolatingParam id="3416" interp="linr"  time="-9999999/1" value="0" leadInLength="0/1"  />
               <InterpolatingParam id="3417" interp="linr"  time="-9999999/1" value="0" leadInLength="0/1"  />
              </VectorParam>
              <VectorParam id="3418"  name="shear">
               <InterpolatingParam id="3419" interp="linr"  time="-9999999/1" value="0" leadInLength="0/1"  />
               <InterpolatingParam id="3420" interp="linr"  time="-9999999/1" value="0" leadInLength="0/1"  />
               <InterpolatingParam id="3421" interp="linr"  time="-9999999/1" value="0" leadInLength="0/1"  />
              </VectorParam>
              <VectorParam id="3422"  name="scale">
               <InterpolatingParam id="3423" interp="linr"  time="-9999999/1" value="1" leadInLength="0/1"  />
               <InterpolatingParam id="3424" interp="linr"  time="-9999999/1" value="1" leadInLength="0/1"  />
               <InterpolatingParam id="3425" interp="linr"  time="-9999999/1" value="1" leadInLength="0/1"  />
              </VectorParam>
              <VectorParam id="3426"  name="anchor">
               <InterpolatingParam id="3427" interp="linr"  time="0/1" value="0" leadInLength="0/1"  />
               <InterpolatingParam id="3428" interp="linr"  time="0/1" value="0" leadInLength="0/1"  />
               <InterpolatingParam id="3429" interp="linr"  time="0/1" value="0" leadInLength="0/1"  />
              </VectorParam>
             </Transformer>
             <Parameters>
              <VectorParam id="3430"  name="sourceCrop">
               <InterpolatingParam id="3431" interp="linr"  time="0/1" value="0" leadInLength="0/1"  />
               <InterpolatingParam id="3432" interp="linr"  time="0/1" value="0" leadInLength="0/1"  />
               <InterpolatingParam id="3433" interp="linr"  time="0/1" value="0" leadInLength="0/1"  />
               <InterpolatingParam id="3434" interp="linr"  time="0/1" value="0" leadInLength="0/1"  />
              </VectorParam>
              <VectorParam id="3435"  name="geometryCrop">
               <InterpolatingParam id="3436" interp="linr"  time="-9999999/1" value="0" leadInLength="0/1"  />
               <InterpolatingParam id="3437" interp="linr"  time="-9999999/1" value="0" leadInLength="0/1"  />
               <InterpolatingParam id="3438" interp="linr"  time="-9999999/1" value="0" leadInLength="0/1"  />
               <InterpolatingParam id="3439" interp="linr"  time="-9999999/1" value="0" leadInLength="0/1"  />
              </VectorParam>
              <InterpolatingParam id="3440" interp="linr"  time="-9999999/1" value="1" leadInLength="0/1"  name="opacity"/>
              <InterpolatingParam id="3441" interp="linr"  time="0/1" value="0" leadInLength="0/1"  name="cursorOpacity"/>
              <InterpolatingParam id="3442" interp="linr"  time="0/1" value="0" leadInLength="0/1"  name="cursorScale"/>
             </Parameters>
             <Attributes>
              <Attribute id="3443" value="" name="ident"/>
             </Attributes>
             <ExtraData>
              <Entry key="ZoomPanBin">
               <ZoomPanBin id="3444"  >
                <ZoomPanKeyframes>
                 <ZoomPanKeyframe id="3445" timeRangeEnd="-9999999/1" timeRangeDuration="0/1" interpolaterName="linr"  />
                </ZoomPanKeyframes>
               </ZoomPanBin>
              </Entry>
              <Entry key="CursorEffectBin">
               <CursorEffectBin id="3446"  >
                <CursorEffectKeyframes>
                </CursorEffectKeyframes>
               </CursorEffectBin>
              </Entry>
             </ExtraData>
            </ScreenVMFile>
            <MetaData>
             <entry key="AutoAppliedSmartFocus" val="False"/>
             <entry key="WinSubProjectDisplayName" val=""/>
            </MetaData>
           </UnifiedMedia>
           <UnifiedMedia id="3447"  >
            <AMFile id="3448" start="2363" duration="489" scalar="1/1" mediaStart="12918/1" mediaDuration="489/1" trackNumber="1" src="7" channelNumber="0,1" >
             <Parameters>
              <InterpolatingParam id="3449" interp="linr"  time="0/1" value="1" leadInLength="0/1"  name="volume"/>
              <Parameter id="3450"  name="captions"/>
             </Parameters>
             <Attributes>
              <Attribute id="3451" value="" name="ident"/>
              <Attribute id="3452" value="44100" name="sampleRate"/>
              <Attribute id="3453" value="16" name="bitDepth"/>
              <Attribute id="3454" value="1" name="gain"/>
              <Attribute id="3455" value="0" name="mixToMono"/>
             </Attributes>
            </AMFile>
            <ScreenVMFile id="3456" start="2363" duration="489" scalar="1/1" mediaStart="12918/1" mediaDuration="489/1" trackNumber="0" src="7" >
             <Transformer>
              <VectorParam id="3457"  name="translation">
               <InterpolatingParam id="3458" interp="linr"  time="-9999999/1" value="0" leadInLength="0/1"  />
               <InterpolatingParam id="3459" interp="linr"  time="-9999999/1" value="0" leadInLength="0/1"  />
               <InterpolatingParam id="3460" interp="linr"  time="-9999999/1" value="0" leadInLength="0/1"  />
              </VectorParam>
              <VectorParam id="3461"  name="rotation">
               <InterpolatingParam id="3462" interp="linr"  time="-9999999/1" value="0" leadInLength="0/1"  />
               <InterpolatingParam id="3463" interp="linr"  time="-9999999/1" value="0" leadInLength="0/1"  />
               <InterpolatingParam id="3464" interp="linr"  time="-9999999/1" value="0" leadInLength="0/1"  />
              </VectorParam>
              <VectorParam id="3465"  name="shear">
               <InterpolatingParam id="3466" interp="linr"  time="-9999999/1" value="0" leadInLength="0/1"  />
               <InterpolatingParam id="3467" interp="linr"  time="-9999999/1" value="0" leadInLength="0/1"  />
               <InterpolatingParam id="3468" interp="linr"  time="-9999999/1" value="0" leadInLength="0/1"  />
              </VectorParam>
              <VectorParam id="3469"  name="scale">
               <InterpolatingParam id="3470" interp="linr"  time="-9999999/1" value="1" leadInLength="0/1"  />
               <InterpolatingParam id="3471" interp="linr"  time="-9999999/1" value="1" leadInLength="0/1"  />
               <InterpolatingParam id="3472" interp="linr"  time="-9999999/1" value="1" leadInLength="0/1"  />
              </VectorParam>
              <VectorParam id="3473"  name="anchor">
               <InterpolatingParam id="3474" interp="linr"  time="0/1" value="0" leadInLength="0/1"  />
               <InterpolatingParam id="3475" interp="linr"  time="0/1" value="0" leadInLength="0/1"  />
               <InterpolatingParam id="3476" interp="linr"  time="0/1" value="0" leadInLength="0/1"  />
              </VectorParam>
             </Transformer>
             <Parameters>
              <VectorParam id="3477"  name="sourceCrop">
               <InterpolatingParam id="3478" interp="linr"  time="0/1" value="0" leadInLength="0/1"  />
               <InterpolatingParam id="3479" interp="linr"  time="0/1" value="0" leadInLength="0/1"  />
               <InterpolatingParam id="3480" interp="linr"  time="0/1" value="0" leadInLength="0/1"  />
               <InterpolatingParam id="3481" interp="linr"  time="0/1" value="0" leadInLength="0/1"  />
              </VectorParam>
              <VectorParam id="3482"  name="geometryCrop">
               <InterpolatingParam id="3483" interp="linr"  time="-9999999/1" value="0" leadInLength="0/1"  />
               <InterpolatingParam id="3484" interp="linr"  time="-9999999/1" value="0" leadInLength="0/1"  />
               <InterpolatingParam id="3485" interp="linr"  time="-9999999/1" value="0" leadInLength="0/1"  />
               <InterpolatingParam id="3486" interp="linr"  time="-9999999/1" value="0" leadInLength="0/1"  />
              </VectorParam>
              <InterpolatingParam id="3487" interp="linr"  time="-9999999/1" value="1" leadInLength="0/1"  name="opacity"/>
              <InterpolatingParam id="3488" interp="linr"  time="0/1" value="0" leadInLength="0/1"  name="cursorOpacity"/>
              <InterpolatingParam id="3489" interp="linr"  time="0/1" value="0" leadInLength="0/1"  name="cursorScale"/>
             </Parameters>
             <Attributes>
              <Attribute id="3490" value="" name="ident"/>
             </Attributes>
             <ExtraData>
              <Entry key="ZoomPanBin">
               <ZoomPanBin id="3491"  >
                <ZoomPanKeyframes>
                 <ZoomPanKeyframe id="3492" timeRangeEnd="-9999999/1" timeRangeDuration="0/1" interpolaterName="linr"  />
                </ZoomPanKeyframes>
               </ZoomPanBin>
              </Entry>
              <Entry key="CursorEffectBin">
               <CursorEffectBin id="3493"  >
                <CursorEffectKeyframes>
                </CursorEffectKeyframes>
               </CursorEffectBin>
              </Entry>
             </ExtraData>
            </ScreenVMFile>
            <MetaData>
             <entry key="AutoAppliedSmartFocus" val="False"/>
             <entry key="WinSubProjectDisplayName" val=""/>
            </MetaData>
           </UnifiedMedia>
           <UnifiedMedia id="3494"  >
            <AMFile id="3495" start="2852" duration="169" scalar="1/1" mediaStart="13458/1" mediaDuration="169/1" trackNumber="1" src="7" channelNumber="0,1" >
             <Parameters>
              <InterpolatingParam id="3496" interp="linr"  time="0/1" value="1" leadInLength="0/1"  name="volume"/>
              <Parameter id="3497"  name="captions"/>
             </Parameters>
             <Attributes>
              <Attribute id="3498" value="" name="ident"/>
              <Attribute id="3499" value="44100" name="sampleRate"/>
              <Attribute id="3500" value="16" name="bitDepth"/>
              <Attribute id="3501" value="1" name="gain"/>
              <Attribute id="3502" value="0" name="mixToMono"/>
             </Attributes>
            </AMFile>
            <ScreenVMFile id="3503" start="2852" duration="169" scalar="1/1" mediaStart="13458/1" mediaDuration="169/1" trackNumber="0" src="7" >
             <Transformer>
              <VectorParam id="3504"  name="translation">
               <InterpolatingParam id="3505" interp="linr"  time="-9999999/1" value="0" leadInLength="0/1"  />
               <InterpolatingParam id="3506" interp="linr"  time="-9999999/1" value="0" leadInLength="0/1"  />
               <InterpolatingParam id="3507" interp="linr"  time="-9999999/1" value="0" leadInLength="0/1"  />
              </VectorParam>
              <VectorParam id="3508"  name="rotation">
               <InterpolatingParam id="3509" interp="linr"  time="-9999999/1" value="0" leadInLength="0/1"  />
               <InterpolatingParam id="3510" interp="linr"  time="-9999999/1" value="0" leadInLength="0/1"  />
               <InterpolatingParam id="3511" interp="linr"  time="-9999999/1" value="0" leadInLength="0/1"  />
              </VectorParam>
              <VectorParam id="3512"  name="shear">
               <InterpolatingParam id="3513" interp="linr"  time="-9999999/1" value="0" leadInLength="0/1"  />
               <InterpolatingParam id="3514" interp="linr"  time="-9999999/1" value="0" leadInLength="0/1"  />
               <InterpolatingParam id="3515" interp="linr"  time="-9999999/1" value="0" leadInLength="0/1"  />
              </VectorParam>
              <VectorParam id="3516"  name="scale">
               <InterpolatingParam id="3517" interp="linr"  time="-9999999/1" value="1" leadInLength="0/1"  />
               <InterpolatingParam id="3518" interp="linr"  time="-9999999/1" value="1" leadInLength="0/1"  />
               <InterpolatingParam id="3519" interp="linr"  time="-9999999/1" value="1" leadInLength="0/1"  />
              </VectorParam>
              <VectorParam id="3520"  name="anchor">
               <InterpolatingParam id="3521" interp="linr"  time="0/1" value="0" leadInLength="0/1"  />
               <InterpolatingParam id="3522" interp="linr"  time="0/1" value="0" leadInLength="0/1"  />
               <InterpolatingParam id="3523" interp="linr"  time="0/1" value="0" leadInLength="0/1"  />
              </VectorParam>
             </Transformer>
             <Parameters>
              <VectorParam id="3524"  name="sourceCrop">
               <InterpolatingParam id="3525" interp="linr"  time="0/1" value="0" leadInLength="0/1"  />
               <InterpolatingParam id="3526" interp="linr"  time="0/1" value="0" leadInLength="0/1"  />
               <InterpolatingParam id="3527" interp="linr"  time="0/1" value="0" leadInLength="0/1"  />
               <InterpolatingParam id="3528" interp="linr"  time="0/1" value="0" leadInLength="0/1"  />
              </VectorParam>
              <VectorParam id="3529"  name="geometryCrop">
               <InterpolatingParam id="3530" interp="linr"  time="-9999999/1" value="0" leadInLength="0/1"  />
               <InterpolatingParam id="3531" interp="linr"  time="-9999999/1" value="0" leadInLength="0/1"  />
               <InterpolatingParam id="3532" interp="linr"  time="-9999999/1" value="0" leadInLength="0/1"  />
               <InterpolatingParam id="3533" interp="linr"  time="-9999999/1" value="0" leadInLength="0/1"  />
              </VectorParam>
              <InterpolatingParam id="3534" interp="linr"  time="-9999999/1" value="1" leadInLength="0/1"  name="opacity"/>
              <InterpolatingParam id="3535" interp="linr"  time="0/1" value="0" leadInLength="0/1"  name="cursorOpacity"/>
              <InterpolatingParam id="3536" interp="linr"  time="0/1" value="0" leadInLength="0/1"  name="cursorScale"/>
             </Parameters>
             <Attributes>
              <Attribute id="3537" value="" name="ident"/>
             </Attributes>
             <ExtraData>
              <Entry key="ZoomPanBin">
               <ZoomPanBin id="3538"  >
                <ZoomPanKeyframes>
                 <ZoomPanKeyframe id="3539" timeRangeEnd="-9999999/1" timeRangeDuration="0/1" interpolaterName="linr"  />
                </ZoomPanKeyframes>
               </ZoomPanBin>
              </Entry>
              <Entry key="CursorEffectBin">
               <CursorEffectBin id="3540"  >
                <CursorEffectKeyframes>
                </CursorEffectKeyframes>
               </CursorEffectBin>
              </Entry>
             </ExtraData>
            </ScreenVMFile>
            <MetaData>
             <entry key="AutoAppliedSmartFocus" val="False"/>
             <entry key="WinSubProjectDisplayName" val=""/>
            </MetaData>
           </UnifiedMedia>
           <UnifiedMedia id="3541"  >
            <AMFile id="3542" start="3021" duration="142" scalar="1/1" mediaStart="13648/1" mediaDuration="142/1" trackNumber="1" src="7" channelNumber="0,1" >
             <Parameters>
              <InterpolatingParam id="3543" interp="linr"  time="0/1" value="1" leadInLength="0/1"  name="volume"/>
              <Parameter id="3544"  name="captions"/>
             </Parameters>
             <Attributes>
              <Attribute id="3545" value="" name="ident"/>
              <Attribute id="3546" value="44100" name="sampleRate"/>
              <Attribute id="3547" value="16" name="bitDepth"/>
              <Attribute id="3548" value="1" name="gain"/>
              <Attribute id="3549" value="0" name="mixToMono"/>
             </Attributes>
            </AMFile>
            <ScreenVMFile id="3550" start="3021" duration="142" scalar="1/1" mediaStart="13648/1" mediaDuration="142/1" trackNumber="0" src="7" >
             <Transformer>
              <VectorParam id="3551"  name="translation">
               <InterpolatingParam id="3552" interp="linr"  time="-9999999/1" value="0" leadInLength="0/1"  />
               <InterpolatingParam id="3553" interp="linr"  time="-9999999/1" value="0" leadInLength="0/1"  />
               <InterpolatingParam id="3554" interp="linr"  time="-9999999/1" value="0" leadInLength="0/1"  />
              </VectorParam>
              <VectorParam id="3555"  name="rotation">
               <InterpolatingParam id="3556" interp="linr"  time="-9999999/1" value="0" leadInLength="0/1"  />
               <InterpolatingParam id="3557" interp="linr"  time="-9999999/1" value="0" leadInLength="0/1"  />
               <InterpolatingParam id="3558" interp="linr"  time="-9999999/1" value="0" leadInLength="0/1"  />
              </VectorParam>
              <VectorParam id="3559"  name="shear">
               <InterpolatingParam id="3560" interp="linr"  time="-9999999/1" value="0" leadInLength="0/1"  />
               <InterpolatingParam id="3561" interp="linr"  time="-9999999/1" value="0" leadInLength="0/1"  />
               <InterpolatingParam id="3562" interp="linr"  time="-9999999/1" value="0" leadInLength="0/1"  />
              </VectorParam>
              <VectorParam id="3563"  name="scale">
               <InterpolatingParam id="3564" interp="linr"  time="-9999999/1" value="1" leadInLength="0/1"  />
               <InterpolatingParam id="3565" interp="linr"  time="-9999999/1" value="1" leadInLength="0/1"  />
               <InterpolatingParam id="3566" interp="linr"  time="-9999999/1" value="1" leadInLength="0/1"  />
              </VectorParam>
              <VectorParam id="3567"  name="anchor">
               <InterpolatingParam id="3568" interp="linr"  time="0/1" value="0" leadInLength="0/1"  />
               <InterpolatingParam id="3569" interp="linr"  time="0/1" value="0" leadInLength="0/1"  />
               <InterpolatingParam id="3570" interp="linr"  time="0/1" value="0" leadInLength="0/1"  />
              </VectorParam>
             </Transformer>
             <Parameters>
              <VectorParam id="3571"  name="sourceCrop">
               <InterpolatingParam id="3572" interp="linr"  time="0/1" value="0" leadInLength="0/1"  />
               <InterpolatingParam id="3573" interp="linr"  time="0/1" value="0" leadInLength="0/1"  />
               <InterpolatingParam id="3574" interp="linr"  time="0/1" value="0" leadInLength="0/1"  />
               <InterpolatingParam id="3575" interp="linr"  time="0/1" value="0" leadInLength="0/1"  />
              </VectorParam>
              <VectorParam id="3576"  name="geometryCrop">
               <InterpolatingParam id="3577" interp="linr"  time="-9999999/1" value="0" leadInLength="0/1"  />
               <InterpolatingParam id="3578" interp="linr"  time="-9999999/1" value="0" leadInLength="0/1"  />
               <InterpolatingParam id="3579" interp="linr"  time="-9999999/1" value="0" leadInLength="0/1"  />
               <InterpolatingParam id="3580" interp="linr"  time="-9999999/1" value="0" leadInLength="0/1"  />
              </VectorParam>
              <InterpolatingParam id="3581" interp="linr"  time="-9999999/1" value="1" leadInLength="0/1"  name="opacity"/>
              <InterpolatingParam id="3582" interp="linr"  time="0/1" value="0" leadInLength="0/1"  name="cursorOpacity"/>
              <InterpolatingParam id="3583" interp="linr"  time="0/1" value="0" leadInLength="0/1"  name="cursorScale"/>
             </Parameters>
             <Attributes>
              <Attribute id="3584" value="" name="ident"/>
             </Attributes>
             <ExtraData>
              <Entry key="ZoomPanBin">
               <ZoomPanBin id="3585"  >
                <ZoomPanKeyframes>
                 <ZoomPanKeyframe id="3586" timeRangeEnd="-9999999/1" timeRangeDuration="0/1" interpolaterName="linr"  />
                </ZoomPanKeyframes>
               </ZoomPanBin>
              </Entry>
              <Entry key="CursorEffectBin">
               <CursorEffectBin id="3587"  >
                <CursorEffectKeyframes>
                </CursorEffectKeyframes>
               </CursorEffectBin>
              </Entry>
             </ExtraData>
            </ScreenVMFile>
            <MetaData>
             <entry key="AutoAppliedSmartFocus" val="False"/>
             <entry key="WinSubProjectDisplayName" val=""/>
            </MetaData>
           </UnifiedMedia>
           <UnifiedMedia id="3588"  >
            <AMFile id="3589" start="3163" duration="122" scalar="1/1" mediaStart="13955/1" mediaDuration="122/1" trackNumber="1" src="7" channelNumber="0,1" >
             <Parameters>
              <InterpolatingParam id="3590" interp="linr"  time="0/1" value="1" leadInLength="0/1"  name="volume"/>
              <Parameter id="3591"  name="captions"/>
             </Parameters>
             <Attributes>
              <Attribute id="3592" value="" name="ident"/>
              <Attribute id="3593" value="44100" name="sampleRate"/>
              <Attribute id="3594" value="16" name="bitDepth"/>
              <Attribute id="3595" value="1" name="gain"/>
              <Attribute id="3596" value="0" name="mixToMono"/>
             </Attributes>
            </AMFile>
            <ScreenVMFile id="3597" start="3163" duration="122" scalar="1/1" mediaStart="13955/1" mediaDuration="122/1" trackNumber="0" src="7" >
             <Transformer>
              <VectorParam id="3598"  name="translation">
               <InterpolatingParam id="3599" interp="linr"  time="-9999999/1" value="0" leadInLength="0/1"  />
               <InterpolatingParam id="3600" interp="linr"  time="-9999999/1" value="0" leadInLength="0/1"  />
               <InterpolatingParam id="3601" interp="linr"  time="-9999999/1" value="0" leadInLength="0/1"  />
              </VectorParam>
              <VectorParam id="3602"  name="rotation">
               <InterpolatingParam id="3603" interp="linr"  time="-9999999/1" value="0" leadInLength="0/1"  />
               <InterpolatingParam id="3604" interp="linr"  time="-9999999/1" value="0" leadInLength="0/1"  />
               <InterpolatingParam id="3605" interp="linr"  time="-9999999/1" value="0" leadInLength="0/1"  />
              </VectorParam>
              <VectorParam id="3606"  name="shear">
               <InterpolatingParam id="3607" interp="linr"  time="-9999999/1" value="0" leadInLength="0/1"  />
               <InterpolatingParam id="3608" interp="linr"  time="-9999999/1" value="0" leadInLength="0/1"  />
               <InterpolatingParam id="3609" interp="linr"  time="-9999999/1" value="0" leadInLength="0/1"  />
              </VectorParam>
              <VectorParam id="3610"  name="scale">
               <InterpolatingParam id="3611" interp="linr"  time="-9999999/1" value="1" leadInLength="0/1"  />
               <InterpolatingParam id="3612" interp="linr"  time="-9999999/1" value="1" leadInLength="0/1"  />
               <InterpolatingParam id="3613" interp="linr"  time="-9999999/1" value="1" leadInLength="0/1"  />
              </VectorParam>
              <VectorParam id="3614"  name="anchor">
               <InterpolatingParam id="3615" interp="linr"  time="0/1" value="0" leadInLength="0/1"  />
               <InterpolatingParam id="3616" interp="linr"  time="0/1" value="0" leadInLength="0/1"  />
               <InterpolatingParam id="3617" interp="linr"  time="0/1" value="0" leadInLength="0/1"  />
              </VectorParam>
             </Transformer>
             <Parameters>
              <VectorParam id="3618"  name="sourceCrop">
               <InterpolatingParam id="3619" interp="linr"  time="0/1" value="0" leadInLength="0/1"  />
               <InterpolatingParam id="3620" interp="linr"  time="0/1" value="0" leadInLength="0/1"  />
               <InterpolatingParam id="3621" interp="linr"  time="0/1" value="0" leadInLength="0/1"  />
               <InterpolatingParam id="3622" interp="linr"  time="0/1" value="0" leadInLength="0/1"  />
              </VectorParam>
              <VectorParam id="3623"  name="geometryCrop">
               <InterpolatingParam id="3624" interp="linr"  time="-9999999/1" value="0" leadInLength="0/1"  />
               <InterpolatingParam id="3625" interp="linr"  time="-9999999/1" value="0" leadInLength="0/1"  />
               <InterpolatingParam id="3626" interp="linr"  time="-9999999/1" value="0" leadInLength="0/1"  />
               <InterpolatingParam id="3627" interp="linr"  time="-9999999/1" value="0" leadInLength="0/1"  />
              </VectorParam>
              <InterpolatingParam id="3628" interp="linr"  time="-9999999/1" value="1" leadInLength="0/1"  name="opacity"/>
              <InterpolatingParam id="3629" interp="linr"  time="0/1" value="0" leadInLength="0/1"  name="cursorOpacity"/>
              <InterpolatingParam id="3630" interp="linr"  time="0/1" value="0" leadInLength="0/1"  name="cursorScale"/>
             </Parameters>
             <Attributes>
              <Attribute id="3631" value="" name="ident"/>
             </Attributes>
             <ExtraData>
              <Entry key="ZoomPanBin">
               <ZoomPanBin id="3632"  >
                <ZoomPanKeyframes>
                 <ZoomPanKeyframe id="3633" timeRangeEnd="-9999999/1" timeRangeDuration="0/1" interpolaterName="linr"  />
                </ZoomPanKeyframes>
               </ZoomPanBin>
              </Entry>
              <Entry key="CursorEffectBin">
               <CursorEffectBin id="3634"  >
                <CursorEffectKeyframes>
                </CursorEffectKeyframes>
               </CursorEffectBin>
              </Entry>
             </ExtraData>
            </ScreenVMFile>
            <MetaData>
             <entry key="AutoAppliedSmartFocus" val="False"/>
             <entry key="WinSubProjectDisplayName" val=""/>
            </MetaData>
           </UnifiedMedia>
           <UnifiedMedia id="3635"  >
            <AMFile id="3636" start="3285" duration="201" scalar="1/1" mediaStart="14168/1" mediaDuration="201/1" trackNumber="1" src="7" channelNumber="0,1" >
             <Parameters>
              <InterpolatingParam id="3637" interp="linr"  time="0/1" value="1" leadInLength="0/1"  name="volume"/>
              <Parameter id="3638"  name="captions"/>
             </Parameters>
             <Attributes>
              <Attribute id="3639" value="" name="ident"/>
              <Attribute id="3640" value="44100" name="sampleRate"/>
              <Attribute id="3641" value="16" name="bitDepth"/>
              <Attribute id="3642" value="1" name="gain"/>
              <Attribute id="3643" value="0" name="mixToMono"/>
             </Attributes>
            </AMFile>
            <ScreenVMFile id="3644" start="3285" duration="201" scalar="1/1" mediaStart="14168/1" mediaDuration="201/1" trackNumber="0" src="7" >
             <Transformer>
              <VectorParam id="3645"  name="translation">
               <InterpolatingParam id="3646" interp="linr"  time="-9999999/1" value="0" leadInLength="0/1"  />
               <InterpolatingParam id="3647" interp="linr"  time="-9999999/1" value="0" leadInLength="0/1"  />
               <InterpolatingParam id="3648" interp="linr"  time="-9999999/1" value="0" leadInLength="0/1"  />
              </VectorParam>
              <VectorParam id="3649"  name="rotation">
               <InterpolatingParam id="3650" interp="linr"  time="-9999999/1" value="0" leadInLength="0/1"  />
               <InterpolatingParam id="3651" interp="linr"  time="-9999999/1" value="0" leadInLength="0/1"  />
               <InterpolatingParam id="3652" interp="linr"  time="-9999999/1" value="0" leadInLength="0/1"  />
              </VectorParam>
              <VectorParam id="3653"  name="shear">
               <InterpolatingParam id="3654" interp="linr"  time="-9999999/1" value="0" leadInLength="0/1"  />
               <InterpolatingParam id="3655" interp="linr"  time="-9999999/1" value="0" leadInLength="0/1"  />
               <InterpolatingParam id="3656" interp="linr"  time="-9999999/1" value="0" leadInLength="0/1"  />
              </VectorParam>
              <VectorParam id="3657"  name="scale">
               <InterpolatingParam id="3658" interp="linr"  time="-9999999/1" value="1" leadInLength="0/1"  />
               <InterpolatingParam id="3659" interp="linr"  time="-9999999/1" value="1" leadInLength="0/1"  />
               <InterpolatingParam id="3660" interp="linr"  time="-9999999/1" value="1" leadInLength="0/1"  />
              </VectorParam>
              <VectorParam id="3661"  name="anchor">
               <InterpolatingParam id="3662" interp="linr"  time="0/1" value="0" leadInLength="0/1"  />
               <InterpolatingParam id="3663" interp="linr"  time="0/1" value="0" leadInLength="0/1"  />
               <InterpolatingParam id="3664" interp="linr"  time="0/1" value="0" leadInLength="0/1"  />
              </VectorParam>
             </Transformer>
             <Parameters>
              <VectorParam id="3665"  name="sourceCrop">
               <InterpolatingParam id="3666" interp="linr"  time="0/1" value="0" leadInLength="0/1"  />
               <InterpolatingParam id="3667" interp="linr"  time="0/1" value="0" leadInLength="0/1"  />
               <InterpolatingParam id="3668" interp="linr"  time="0/1" value="0" leadInLength="0/1"  />
               <InterpolatingParam id="3669" interp="linr"  time="0/1" value="0" leadInLength="0/1"  />
              </VectorParam>
              <VectorParam id="3670"  name="geometryCrop">
               <InterpolatingParam id="3671" interp="linr"  time="-9999999/1" value="0" leadInLength="0/1"  />
               <InterpolatingParam id="3672" interp="linr"  time="-9999999/1" value="0" leadInLength="0/1"  />
               <InterpolatingParam id="3673" interp="linr"  time="-9999999/1" value="0" leadInLength="0/1"  />
               <InterpolatingParam id="3674" interp="linr"  time="-9999999/1" value="0" leadInLength="0/1"  />
              </VectorParam>
              <InterpolatingParam id="3675" interp="linr"  time="-9999999/1" value="1" leadInLength="0/1"  name="opacity"/>
              <InterpolatingParam id="3676" interp="linr"  time="0/1" value="0" leadInLength="0/1"  name="cursorOpacity"/>
              <InterpolatingParam id="3677" interp="linr"  time="0/1" value="0" leadInLength="0/1"  name="cursorScale"/>
             </Parameters>
             <Attributes>
              <Attribute id="3678" value="" name="ident"/>
             </Attributes>
             <ExtraData>
              <Entry key="ZoomPanBin">
               <ZoomPanBin id="3679"  >
                <ZoomPanKeyframes>
                 <ZoomPanKeyframe id="3680" timeRangeEnd="-9999999/1" timeRangeDuration="0/1" interpolaterName="linr"  />
                </ZoomPanKeyframes>
               </ZoomPanBin>
              </Entry>
              <Entry key="CursorEffectBin">
               <CursorEffectBin id="3681"  >
                <CursorEffectKeyframes>
                </CursorEffectKeyframes>
               </CursorEffectBin>
              </Entry>
             </ExtraData>
            </ScreenVMFile>
            <MetaData>
             <entry key="AutoAppliedSmartFocus" val="False"/>
             <entry key="WinSubProjectDisplayName" val=""/>
            </MetaData>
           </UnifiedMedia>
          </Medias>
         </GenericTrack>
        </StitchedMedia>
        <StitchedMedia id="3682" start="11331" duration="2008" scalar="1/1" mediaStart="0/1" mediaDuration="2008/1" minMediaStart="0/1" >
         <Transformer>
          <VectorParam id="3683"  name="translation">
           <InterpolatingParam id="3684" interp="linr"  time="-9999999/1" value="3.7413031079456664e-011" leadInLength="0/1"  />
           <InterpolatingParam id="3685" interp="linr"  time="-9999999/1" value="-2.3755812132246014e-011" leadInLength="0/1"  />
           <InterpolatingParam id="3686" interp="linr"  time="-9999999/1" value="0" leadInLength="0/1"  />
          </VectorParam>
          <VectorParam id="3687"  name="rotation">
           <InterpolatingParam id="3688" interp="linr"  time="-9999999/1" value="0" leadInLength="0/1"  />
           <InterpolatingParam id="3689" interp="linr"  time="-9999999/1" value="0" leadInLength="0/1"  />
           <InterpolatingParam id="3690" interp="linr"  time="-9999999/1" value="0" leadInLength="0/1"  />
          </VectorParam>
          <VectorParam id="3691"  name="shear">
           <InterpolatingParam id="3692" interp="linr"  time="-9999999/1" value="0" leadInLength="0/1"  />
           <InterpolatingParam id="3693" interp="linr"  time="-9999999/1" value="0" leadInLength="0/1"  />
           <InterpolatingParam id="3694" interp="linr"  time="-9999999/1" value="0" leadInLength="0/1"  />
          </VectorParam>
          <VectorParam id="3695"  name="scale">
           <InterpolatingParam id="3696" interp="linr"  time="-9999999/1" value="0.70833333333333337" leadInLength="0/1"  />
           <InterpolatingParam id="3697" interp="linr"  time="-9999999/1" value="0.70833333333333337" leadInLength="0/1"  />
           <InterpolatingParam id="3698" interp="linr"  time="-9999999/1" value="1" leadInLength="0/1"  />
          </VectorParam>
          <VectorParam id="3699"  name="anchor">
           <InterpolatingParam id="3700" interp="linr"  time="0/1" value="0" leadInLength="0/1"  />
           <InterpolatingParam id="3701" interp="linr"  time="0/1" value="0" leadInLength="0/1"  />
           <InterpolatingParam id="3702" interp="linr"  time="0/1" value="0" leadInLength="0/1"  />
          </VectorParam>
         </Transformer>
         <Parameters>
          <VectorParam id="3703"  name="sourceCrop">
           <InterpolatingParam id="3704" interp="linr"  time="0/1" value="0" leadInLength="0/1"  />
           <InterpolatingParam id="3705" interp="linr"  time="0/1" value="0" leadInLength="0/1"  />
           <InterpolatingParam id="3706" interp="linr"  time="0/1" value="0" leadInLength="0/1"  />
           <InterpolatingParam id="3707" interp="linr"  time="0/1" value="0" leadInLength="0/1"  />
          </VectorParam>
          <VectorParam id="3708"  name="geometryCrop">
           <InterpolatingParam id="3709" interp="linr"  time="-9999999/1" value="0" leadInLength="0/1"  />
           <InterpolatingParam id="3710" interp="linr"  time="-9999999/1" value="0" leadInLength="0/1"  />
           <InterpolatingParam id="3711" interp="linr"  time="-9999999/1" value="0" leadInLength="0/1"  />
           <InterpolatingParam id="3712" interp="linr"  time="-9999999/1" value="0" leadInLength="0/1"  />
          </VectorParam>
          <InterpolatingParam id="3713" interp="linr"  time="-9999999/1" value="1" leadInLength="0/1"  name="opacity"/>
          <InterpolatingParam id="3714" interp="linr"  time="0/1" value="1" leadInLength="0/1"  name="cursorOpacity"/>
          <InterpolatingParam id="3715" interp="linr"  time="0/1" value="1" leadInLength="0/1"  name="cursorScale"/>
          <InterpolatingParam id="3716" interp="linr"  time="0/1" value="3.6482334869431625" leadInLength="0/1"  name="volume"/>
          <Parameter id="3717"  name="captions"/>
         </Parameters>
         <Effects>
          <GenericEffect id="3718" name = "CursorBaseEffectName" >
           <Parameters>
           <InterpolatingParam id="3719" interp="linr"  time="-9999999/1" value="1" leadInLength="0/1"   name="cursorSize"/>
           <InterpolatingParam id="3720" interp="linr"  time="-9999999/1" value="0" leadInLength="0/1"   name="highlightBlurRadius"/>
           <InterpolatingParam id="3721" interp="linr"  time="-9999999/1" value="0" leadInLength="0/1"   name="highlightColorBlue"/>
           <InterpolatingParam id="3722" interp="linr"  time="-9999999/1" value="255" leadInLength="0/1"   name="highlightColorGreen"/>
           <InterpolatingParam id="3723" interp="linr"  time="-9999999/1" value="255" leadInLength="0/1"   name="highlightColorRed"/>
           <InterpolatingParam id="3724" interp="linr"  time="-9999999/1" value="5" leadInLength="0/1"   name="highlightFeatherSize"/>
           <InterpolatingParam id="3725" interp="linr"  time="-9999999/1" value="2" leadInLength="0/1"   name="highlightMagnification"/>
           <InterpolatingParam id="3726" interp="linr"  time="-9999999/1" value="60" leadInLength="0/1"   name="highlightOpacity"/>
           <InterpolatingParam id="3727" interp="linr"  time="-9999999/1" value="45" leadInLength="0/1"   name="highlightSize"/>
           <Parameter id="3728"   name="highlightType">
            <Keyframes>
            <Keyframe id="3729"  time="-9999999/1" value="4" leadInLength="0/1"  />
            </Keyframes>
           </Parameter>
           <InterpolatingParam id="3730" interp="linr"  time="-9999999/1" value="0" leadInLength="0/1"   name="leftClickColorBlue"/>
           <InterpolatingParam id="3731" interp="linr"  time="-9999999/1" value="0" leadInLength="0/1"   name="leftClickColorGreen"/>
           <InterpolatingParam id="3732" interp="linr"  time="-9999999/1" value="255" leadInLength="0/1"   name="leftClickColorRed"/>
           <InterpolatingParam id="3733" interp="linr"  time="-9999999/1" value="0.80000000000000004" leadInLength="0/1"   name="leftClickDuration"/>
           <InterpolatingParam id="3734" interp="linr"  time="-9999999/1" value="20" leadInLength="0/1"   name="leftClickSize"/>
           <Parameter id="3735"   name="leftClickSoundFilename">
            <Keyframes>
            <Keyframe id="3736"  time="-9999999/1" value="" leadInLength="0/1"  />
            </Keyframes>
           </Parameter>
           <InterpolatingParam id="3737" interp="linr"  time="-9999999/1" value="1" leadInLength="0/1"   name="leftClickSoundVolume"/>
           <Parameter id="3738"   name="leftClickType">
            <Keyframes>
            <Keyframe id="3739"  time="-9999999/1" value="0" leadInLength="0/1"  />
            </Keyframes>
           </Parameter>
           <InterpolatingParam id="3740" interp="linr"  time="-9999999/1" value="1" leadInLength="0/1"   name="opacity"/>
           <InterpolatingParam id="3741" interp="linr"  time="-9999999/1" value="255" leadInLength="0/1"   name="rightClickColorBlue"/>
           <InterpolatingParam id="3742" interp="linr"  time="-9999999/1" value="0" leadInLength="0/1"   name="rightClickColorGreen"/>
           <InterpolatingParam id="3743" interp="linr"  time="-9999999/1" value="0" leadInLength="0/1"   name="rightClickColorRed"/>
           <InterpolatingParam id="3744" interp="linr"  time="-9999999/1" value="0.80000000000000004" leadInLength="0/1"   name="rightClickDuration"/>
           <InterpolatingParam id="3745" interp="linr"  time="-9999999/1" value="20" leadInLength="0/1"   name="rightClickSize"/>
           <Parameter id="3746"   name="rightClickSoundFilename">
            <Keyframes>
            <Keyframe id="3747"  time="-9999999/1" value="" leadInLength="0/1"  />
            </Keyframes>
           </Parameter>
           <InterpolatingParam id="3748" interp="linr"  time="-9999999/1" value="1" leadInLength="0/1"   name="rightClickSoundVolume"/>
           <Parameter id="3749"   name="rightClickType">
            <Keyframes>
            <Keyframe id="3750"  time="-9999999/1" value="0" leadInLength="0/1"  />
            </Keyframes>
           </Parameter>
           </Parameters>
           <MetaData>
            <entry key="effectIndex" val="0"/>
           </MetaData>
          </GenericEffect>
         </Effects>
         <Attributes>
          <Attribute id="3751" value="" name="ident"/>
          <Attribute id="3752" value="0" name="mixToMono"/>
         </Attributes>
         <MetaData>
          <entry key="AutoAppliedSmartFocus" val="False"/>
          <entry key="WinSubProjectDisplayName" val=""/>
         </MetaData>
         <ExtraData>
          <Entry key="ZoomPanBin">
           <ZoomPanBin id="3753"  >
            <ZoomPanKeyframes>
             <ZoomPanKeyframe id="3754" timeRangeEnd="-9999999/1" timeRangeDuration="0/1" interpolaterName="linr"  />
            </ZoomPanKeyframes>
           </ZoomPanBin>
          </Entry>
          <Entry key="CursorEffectBin">
           <CursorEffectBin id="3755"  >
            <CursorEffectKeyframes>
             <CursorEffectKeyframe id="3756" timeRangeEnd="-9999999/1" timeRangeDuration="0/1" interpolaterName=""  />
            </CursorEffectKeyframes>
           </CursorEffectBin>
          </Entry>
         </ExtraData>
         <GenericTrack id="3757"  >
          <Attributes>
           <Attribute id="3758" value="" name="ident"/>
           <Attribute id="3759" value="0" name="audioMuted"/>
           <Attribute id="3760" value="0" name="videoHidden"/>
          </Attributes>
          <MetaData>
           <entry key="IsLocked" val="False"/>
           <entry key="WinTrackHeight" val="0"/>
          </MetaData>
          <Medias>
           <UnifiedMedia id="3761"  >
            <AMFile id="3762" start="0" duration="301" scalar="1/1" mediaStart="0/1" mediaDuration="301/1" trackNumber="1" src="9" channelNumber="0,1" >
             <Parameters>
              <InterpolatingParam id="3763" interp="linr"  time="0/1" value="1" leadInLength="0/1"  name="volume"/>
              <Parameter id="3764"  name="captions"/>
             </Parameters>
             <Attributes>
              <Attribute id="3765" value="" name="ident"/>
              <Attribute id="3766" value="44100" name="sampleRate"/>
              <Attribute id="3767" value="16" name="bitDepth"/>
              <Attribute id="3768" value="1" name="gain"/>
              <Attribute id="3769" value="0" name="mixToMono"/>
             </Attributes>
            </AMFile>
            <ScreenVMFile id="3770" start="0" duration="301" scalar="1/1" mediaStart="0/1" mediaDuration="301/1" trackNumber="0" src="9" >
             <Transformer>
              <VectorParam id="3771"  name="translation">
               <InterpolatingParam id="3772" interp="linr"  time="-9999999/1" value="0" leadInLength="0/1"  />
               <InterpolatingParam id="3773" interp="linr"  time="-9999999/1" value="0" leadInLength="0/1"  />
               <InterpolatingParam id="3774" interp="linr"  time="-9999999/1" value="0" leadInLength="0/1"  />
              </VectorParam>
              <VectorParam id="3775"  name="rotation">
               <InterpolatingParam id="3776" interp="linr"  time="-9999999/1" value="0" leadInLength="0/1"  />
               <InterpolatingParam id="3777" interp="linr"  time="-9999999/1" value="0" leadInLength="0/1"  />
               <InterpolatingParam id="3778" interp="linr"  time="-9999999/1" value="0" leadInLength="0/1"  />
              </VectorParam>
              <VectorParam id="3779"  name="shear">
               <InterpolatingParam id="3780" interp="linr"  time="-9999999/1" value="0" leadInLength="0/1"  />
               <InterpolatingParam id="3781" interp="linr"  time="-9999999/1" value="0" leadInLength="0/1"  />
               <InterpolatingParam id="3782" interp="linr"  time="-9999999/1" value="0" leadInLength="0/1"  />
              </VectorParam>
              <VectorParam id="3783"  name="scale">
               <InterpolatingParam id="3784" interp="linr"  time="-9999999/1" value="1" leadInLength="0/1"  />
               <InterpolatingParam id="3785" interp="linr"  time="-9999999/1" value="1" leadInLength="0/1"  />
               <InterpolatingParam id="3786" interp="linr"  time="-9999999/1" value="1" leadInLength="0/1"  />
              </VectorParam>
              <VectorParam id="3787"  name="anchor">
               <InterpolatingParam id="3788" interp="linr"  time="0/1" value="0" leadInLength="0/1"  />
               <InterpolatingParam id="3789" interp="linr"  time="0/1" value="0" leadInLength="0/1"  />
               <InterpolatingParam id="3790" interp="linr"  time="0/1" value="0" leadInLength="0/1"  />
              </VectorParam>
             </Transformer>
             <Parameters>
              <VectorParam id="3791"  name="sourceCrop">
               <InterpolatingParam id="3792" interp="linr"  time="0/1" value="0" leadInLength="0/1"  />
               <InterpolatingParam id="3793" interp="linr"  time="0/1" value="0" leadInLength="0/1"  />
               <InterpolatingParam id="3794" interp="linr"  time="0/1" value="0" leadInLength="0/1"  />
               <InterpolatingParam id="3795" interp="linr"  time="0/1" value="0" leadInLength="0/1"  />
              </VectorParam>
              <VectorParam id="3796"  name="geometryCrop">
               <InterpolatingParam id="3797" interp="linr"  time="-9999999/1" value="0" leadInLength="0/1"  />
               <InterpolatingParam id="3798" interp="linr"  time="-9999999/1" value="0" leadInLength="0/1"  />
               <InterpolatingParam id="3799" interp="linr"  time="-9999999/1" value="0" leadInLength="0/1"  />
               <InterpolatingParam id="3800" interp="linr"  time="-9999999/1" value="0" leadInLength="0/1"  />
              </VectorParam>
              <InterpolatingParam id="3801" interp="linr"  time="-9999999/1" value="1" leadInLength="0/1"  name="opacity"/>
              <InterpolatingParam id="3802" interp="linr"  time="0/1" value="0" leadInLength="0/1"  name="cursorOpacity"/>
              <InterpolatingParam id="3803" interp="linr"  time="0/1" value="0" leadInLength="0/1"  name="cursorScale"/>
             </Parameters>
             <Attributes>
              <Attribute id="3804" value="" name="ident"/>
             </Attributes>
             <ExtraData>
              <Entry key="ZoomPanBin">
               <ZoomPanBin id="3805"  >
                <ZoomPanKeyframes>
                 <ZoomPanKeyframe id="3806" timeRangeEnd="-9999999/1" timeRangeDuration="0/1" interpolaterName="linr"  />
                </ZoomPanKeyframes>
               </ZoomPanBin>
              </Entry>
              <Entry key="CursorEffectBin">
               <CursorEffectBin id="3807"  >
                <CursorEffectKeyframes>
                </CursorEffectKeyframes>
               </CursorEffectBin>
              </Entry>
             </ExtraData>
            </ScreenVMFile>
            <MetaData>
             <entry key="AutoAppliedSmartFocus" val="False"/>
             <entry key="WinSubProjectDisplayName" val=""/>
            </MetaData>
           </UnifiedMedia>
           <UnifiedMedia id="3808"  >
            <AMFile id="3809" start="301" duration="154" scalar="1/1" mediaStart="3058/1" mediaDuration="154/1" trackNumber="1" src="9" channelNumber="0,1" >
             <Parameters>
              <InterpolatingParam id="3810" interp="linr"  time="0/1" value="1" leadInLength="0/1"  name="volume"/>
              <Parameter id="3811"  name="captions"/>
             </Parameters>
             <Attributes>
              <Attribute id="3812" value="" name="ident"/>
              <Attribute id="3813" value="44100" name="sampleRate"/>
              <Attribute id="3814" value="16" name="bitDepth"/>
              <Attribute id="3815" value="1" name="gain"/>
              <Attribute id="3816" value="0" name="mixToMono"/>
             </Attributes>
            </AMFile>
            <ScreenVMFile id="3817" start="301" duration="154" scalar="1/1" mediaStart="3058/1" mediaDuration="154/1" trackNumber="0" src="9" >
             <Transformer>
              <VectorParam id="3818"  name="translation">
               <InterpolatingParam id="3819" interp="linr"  time="-9999999/1" value="0" leadInLength="0/1"  />
               <InterpolatingParam id="3820" interp="linr"  time="-9999999/1" value="0" leadInLength="0/1"  />
               <InterpolatingParam id="3821" interp="linr"  time="-9999999/1" value="0" leadInLength="0/1"  />
              </VectorParam>
              <VectorParam id="3822"  name="rotation">
               <InterpolatingParam id="3823" interp="linr"  time="-9999999/1" value="0" leadInLength="0/1"  />
               <InterpolatingParam id="3824" interp="linr"  time="-9999999/1" value="0" leadInLength="0/1"  />
               <InterpolatingParam id="3825" interp="linr"  time="-9999999/1" value="0" leadInLength="0/1"  />
              </VectorParam>
              <VectorParam id="3826"  name="shear">
               <InterpolatingParam id="3827" interp="linr"  time="-9999999/1" value="0" leadInLength="0/1"  />
               <InterpolatingParam id="3828" interp="linr"  time="-9999999/1" value="0" leadInLength="0/1"  />
               <InterpolatingParam id="3829" interp="linr"  time="-9999999/1" value="0" leadInLength="0/1"  />
              </VectorParam>
              <VectorParam id="3830"  name="scale">
               <InterpolatingParam id="3831" interp="linr"  time="-9999999/1" value="1" leadInLength="0/1"  />
               <InterpolatingParam id="3832" interp="linr"  time="-9999999/1" value="1" leadInLength="0/1"  />
               <InterpolatingParam id="3833" interp="linr"  time="-9999999/1" value="1" leadInLength="0/1"  />
              </VectorParam>
              <VectorParam id="3834"  name="anchor">
               <InterpolatingParam id="3835" interp="linr"  time="0/1" value="0" leadInLength="0/1"  />
               <InterpolatingParam id="3836" interp="linr"  time="0/1" value="0" leadInLength="0/1"  />
               <InterpolatingParam id="3837" interp="linr"  time="0/1" value="0" leadInLength="0/1"  />
              </VectorParam>
             </Transformer>
             <Parameters>
              <VectorParam id="3838"  name="sourceCrop">
               <InterpolatingParam id="3839" interp="linr"  time="0/1" value="0" leadInLength="0/1"  />
               <InterpolatingParam id="3840" interp="linr"  time="0/1" value="0" leadInLength="0/1"  />
               <InterpolatingParam id="3841" interp="linr"  time="0/1" value="0" leadInLength="0/1"  />
               <InterpolatingParam id="3842" interp="linr"  time="0/1" value="0" leadInLength="0/1"  />
              </VectorParam>
              <VectorParam id="3843"  name="geometryCrop">
               <InterpolatingParam id="3844" interp="linr"  time="-9999999/1" value="0" leadInLength="0/1"  />
               <InterpolatingParam id="3845" interp="linr"  time="-9999999/1" value="0" leadInLength="0/1"  />
               <InterpolatingParam id="3846" interp="linr"  time="-9999999/1" value="0" leadInLength="0/1"  />
               <InterpolatingParam id="3847" interp="linr"  time="-9999999/1" value="0" leadInLength="0/1"  />
              </VectorParam>
              <InterpolatingParam id="3848" interp="linr"  time="-9999999/1" value="1" leadInLength="0/1"  name="opacity"/>
              <InterpolatingParam id="3849" interp="linr"  time="0/1" value="0" leadInLength="0/1"  name="cursorOpacity"/>
              <InterpolatingParam id="3850" interp="linr"  time="0/1" value="0" leadInLength="0/1"  name="cursorScale"/>
             </Parameters>
             <Attributes>
              <Attribute id="3851" value="" name="ident"/>
             </Attributes>
             <ExtraData>
              <Entry key="ZoomPanBin">
               <ZoomPanBin id="3852"  >
                <ZoomPanKeyframes>
                 <ZoomPanKeyframe id="3853" timeRangeEnd="-9999999/1" timeRangeDuration="0/1" interpolaterName="linr"  />
                </ZoomPanKeyframes>
               </ZoomPanBin>
              </Entry>
              <Entry key="CursorEffectBin">
               <CursorEffectBin id="3854"  >
                <CursorEffectKeyframes>
                </CursorEffectKeyframes>
               </CursorEffectBin>
              </Entry>
             </ExtraData>
            </ScreenVMFile>
            <MetaData>
             <entry key="AutoAppliedSmartFocus" val="False"/>
             <entry key="WinSubProjectDisplayName" val=""/>
            </MetaData>
           </UnifiedMedia>
           <UnifiedMedia id="3855"  >
            <AMFile id="3856" start="455" duration="118" scalar="1/1" mediaStart="3455/1" mediaDuration="118/1" trackNumber="1" src="9" channelNumber="0,1" >
             <Parameters>
              <InterpolatingParam id="3857" interp="linr"  time="0/1" value="1" leadInLength="0/1"  name="volume"/>
              <Parameter id="3858"  name="captions"/>
             </Parameters>
             <Attributes>
              <Attribute id="3859" value="" name="ident"/>
              <Attribute id="3860" value="44100" name="sampleRate"/>
              <Attribute id="3861" value="16" name="bitDepth"/>
              <Attribute id="3862" value="1" name="gain"/>
              <Attribute id="3863" value="0" name="mixToMono"/>
             </Attributes>
            </AMFile>
            <ScreenVMFile id="3864" start="455" duration="118" scalar="1/1" mediaStart="3455/1" mediaDuration="118/1" trackNumber="0" src="9" >
             <Transformer>
              <VectorParam id="3865"  name="translation">
               <InterpolatingParam id="3866" interp="linr"  time="-9999999/1" value="0" leadInLength="0/1"  />
               <InterpolatingParam id="3867" interp="linr"  time="-9999999/1" value="0" leadInLength="0/1"  />
               <InterpolatingParam id="3868" interp="linr"  time="-9999999/1" value="0" leadInLength="0/1"  />
              </VectorParam>
              <VectorParam id="3869"  name="rotation">
               <InterpolatingParam id="3870" interp="linr"  time="-9999999/1" value="0" leadInLength="0/1"  />
               <InterpolatingParam id="3871" interp="linr"  time="-9999999/1" value="0" leadInLength="0/1"  />
               <InterpolatingParam id="3872" interp="linr"  time="-9999999/1" value="0" leadInLength="0/1"  />
              </VectorParam>
              <VectorParam id="3873"  name="shear">
               <InterpolatingParam id="3874" interp="linr"  time="-9999999/1" value="0" leadInLength="0/1"  />
               <InterpolatingParam id="3875" interp="linr"  time="-9999999/1" value="0" leadInLength="0/1"  />
               <InterpolatingParam id="3876" interp="linr"  time="-9999999/1" value="0" leadInLength="0/1"  />
              </VectorParam>
              <VectorParam id="3877"  name="scale">
               <InterpolatingParam id="3878" interp="linr"  time="-9999999/1" value="1" leadInLength="0/1"  />
               <InterpolatingParam id="3879" interp="linr"  time="-9999999/1" value="1" leadInLength="0/1"  />
               <InterpolatingParam id="3880" interp="linr"  time="-9999999/1" value="1" leadInLength="0/1"  />
              </VectorParam>
              <VectorParam id="3881"  name="anchor">
               <InterpolatingParam id="3882" interp="linr"  time="0/1" value="0" leadInLength="0/1"  />
               <InterpolatingParam id="3883" interp="linr"  time="0/1" value="0" leadInLength="0/1"  />
               <InterpolatingParam id="3884" interp="linr"  time="0/1" value="0" leadInLength="0/1"  />
              </VectorParam>
             </Transformer>
             <Parameters>
              <VectorParam id="3885"  name="sourceCrop">
               <InterpolatingParam id="3886" interp="linr"  time="0/1" value="0" leadInLength="0/1"  />
               <InterpolatingParam id="3887" interp="linr"  time="0/1" value="0" leadInLength="0/1"  />
               <InterpolatingParam id="3888" interp="linr"  time="0/1" value="0" leadInLength="0/1"  />
               <InterpolatingParam id="3889" interp="linr"  time="0/1" value="0" leadInLength="0/1"  />
              </VectorParam>
              <VectorParam id="3890"  name="geometryCrop">
               <InterpolatingParam id="3891" interp="linr"  time="-9999999/1" value="0" leadInLength="0/1"  />
               <InterpolatingParam id="3892" interp="linr"  time="-9999999/1" value="0" leadInLength="0/1"  />
               <InterpolatingParam id="3893" interp="linr"  time="-9999999/1" value="0" leadInLength="0/1"  />
               <InterpolatingParam id="3894" interp="linr"  time="-9999999/1" value="0" leadInLength="0/1"  />
              </VectorParam>
              <InterpolatingParam id="3895" interp="linr"  time="-9999999/1" value="1" leadInLength="0/1"  name="opacity"/>
              <InterpolatingParam id="3896" interp="linr"  time="0/1" value="0" leadInLength="0/1"  name="cursorOpacity"/>
              <InterpolatingParam id="3897" interp="linr"  time="0/1" value="0" leadInLength="0/1"  name="cursorScale"/>
             </Parameters>
             <Attributes>
              <Attribute id="3898" value="" name="ident"/>
             </Attributes>
             <ExtraData>
              <Entry key="ZoomPanBin">
               <ZoomPanBin id="3899"  >
                <ZoomPanKeyframes>
                 <ZoomPanKeyframe id="3900" timeRangeEnd="-9999999/1" timeRangeDuration="0/1" interpolaterName="linr"  />
                </ZoomPanKeyframes>
               </ZoomPanBin>
              </Entry>
              <Entry key="CursorEffectBin">
               <CursorEffectBin id="3901"  >
                <CursorEffectKeyframes>
                </CursorEffectKeyframes>
               </CursorEffectBin>
              </Entry>
             </ExtraData>
            </ScreenVMFile>
            <MetaData>
             <entry key="AutoAppliedSmartFocus" val="False"/>
             <entry key="WinSubProjectDisplayName" val=""/>
            </MetaData>
           </UnifiedMedia>
           <UnifiedMedia id="3902"  >
            <AMFile id="3903" start="573" duration="35" scalar="1/1" mediaStart="3664/1" mediaDuration="35/1" trackNumber="1" src="9" channelNumber="0,1" >
             <Parameters>
              <InterpolatingParam id="3904" interp="linr"  time="0/1" value="1" leadInLength="0/1"  name="volume"/>
              <Parameter id="3905"  name="captions"/>
             </Parameters>
             <Attributes>
              <Attribute id="3906" value="" name="ident"/>
              <Attribute id="3907" value="44100" name="sampleRate"/>
              <Attribute id="3908" value="16" name="bitDepth"/>
              <Attribute id="3909" value="1" name="gain"/>
              <Attribute id="3910" value="0" name="mixToMono"/>
             </Attributes>
            </AMFile>
            <ScreenVMFile id="3911" start="573" duration="35" scalar="1/1" mediaStart="3664/1" mediaDuration="35/1" trackNumber="0" src="9" >
             <Transformer>
              <VectorParam id="3912"  name="translation">
               <InterpolatingParam id="3913" interp="linr"  time="-9999999/1" value="0" leadInLength="0/1"  />
               <InterpolatingParam id="3914" interp="linr"  time="-9999999/1" value="0" leadInLength="0/1"  />
               <InterpolatingParam id="3915" interp="linr"  time="-9999999/1" value="0" leadInLength="0/1"  />
              </VectorParam>
              <VectorParam id="3916"  name="rotation">
               <InterpolatingParam id="3917" interp="linr"  time="-9999999/1" value="0" leadInLength="0/1"  />
               <InterpolatingParam id="3918" interp="linr"  time="-9999999/1" value="0" leadInLength="0/1"  />
               <InterpolatingParam id="3919" interp="linr"  time="-9999999/1" value="0" leadInLength="0/1"  />
              </VectorParam>
              <VectorParam id="3920"  name="shear">
               <InterpolatingParam id="3921" interp="linr"  time="-9999999/1" value="0" leadInLength="0/1"  />
               <InterpolatingParam id="3922" interp="linr"  time="-9999999/1" value="0" leadInLength="0/1"  />
               <InterpolatingParam id="3923" interp="linr"  time="-9999999/1" value="0" leadInLength="0/1"  />
              </VectorParam>
              <VectorParam id="3924"  name="scale">
               <InterpolatingParam id="3925" interp="linr"  time="-9999999/1" value="1" leadInLength="0/1"  />
               <InterpolatingParam id="3926" interp="linr"  time="-9999999/1" value="1" leadInLength="0/1"  />
               <InterpolatingParam id="3927" interp="linr"  time="-9999999/1" value="1" leadInLength="0/1"  />
              </VectorParam>
              <VectorParam id="3928"  name="anchor">
               <InterpolatingParam id="3929" interp="linr"  time="0/1" value="0" leadInLength="0/1"  />
               <InterpolatingParam id="3930" interp="linr"  time="0/1" value="0" leadInLength="0/1"  />
               <InterpolatingParam id="3931" interp="linr"  time="0/1" value="0" leadInLength="0/1"  />
              </VectorParam>
             </Transformer>
             <Parameters>
              <VectorParam id="3932"  name="sourceCrop">
               <InterpolatingParam id="3933" interp="linr"  time="0/1" value="0" leadInLength="0/1"  />
               <InterpolatingParam id="3934" interp="linr"  time="0/1" value="0" leadInLength="0/1"  />
               <InterpolatingParam id="3935" interp="linr"  time="0/1" value="0" leadInLength="0/1"  />
               <InterpolatingParam id="3936" interp="linr"  time="0/1" value="0" leadInLength="0/1"  />
              </VectorParam>
              <VectorParam id="3937"  name="geometryCrop">
               <InterpolatingParam id="3938" interp="linr"  time="-9999999/1" value="0" leadInLength="0/1"  />
               <InterpolatingParam id="3939" interp="linr"  time="-9999999/1" value="0" leadInLength="0/1"  />
               <InterpolatingParam id="3940" interp="linr"  time="-9999999/1" value="0" leadInLength="0/1"  />
               <InterpolatingParam id="3941" interp="linr"  time="-9999999/1" value="0" leadInLength="0/1"  />
              </VectorParam>
              <InterpolatingParam id="3942" interp="linr"  time="-9999999/1" value="1" leadInLength="0/1"  name="opacity"/>
              <InterpolatingParam id="3943" interp="linr"  time="0/1" value="0" leadInLength="0/1"  name="cursorOpacity"/>
              <InterpolatingParam id="3944" interp="linr"  time="0/1" value="0" leadInLength="0/1"  name="cursorScale"/>
             </Parameters>
             <Attributes>
              <Attribute id="3945" value="" name="ident"/>
             </Attributes>
             <ExtraData>
              <Entry key="ZoomPanBin">
               <ZoomPanBin id="3946"  >
                <ZoomPanKeyframes>
                 <ZoomPanKeyframe id="3947" timeRangeEnd="-9999999/1" timeRangeDuration="0/1" interpolaterName="linr"  />
                </ZoomPanKeyframes>
               </ZoomPanBin>
              </Entry>
              <Entry key="CursorEffectBin">
               <CursorEffectBin id="3948"  >
                <CursorEffectKeyframes>
                </CursorEffectKeyframes>
               </CursorEffectBin>
              </Entry>
             </ExtraData>
            </ScreenVMFile>
            <MetaData>
             <entry key="AutoAppliedSmartFocus" val="False"/>
             <entry key="WinSubProjectDisplayName" val=""/>
            </MetaData>
           </UnifiedMedia>
           <UnifiedMedia id="3949"  >
            <AMFile id="3950" start="608" duration="10" scalar="1/1" mediaStart="4470/1" mediaDuration="10/1" trackNumber="1" src="9" channelNumber="0,1" >
             <Parameters>
              <InterpolatingParam id="3951" interp="linr"  time="0/1" value="1" leadInLength="0/1"  name="volume"/>
              <Parameter id="3952"  name="captions"/>
             </Parameters>
             <Attributes>
              <Attribute id="3953" value="" name="ident"/>
              <Attribute id="3954" value="44100" name="sampleRate"/>
              <Attribute id="3955" value="16" name="bitDepth"/>
              <Attribute id="3956" value="1" name="gain"/>
              <Attribute id="3957" value="0" name="mixToMono"/>
             </Attributes>
            </AMFile>
            <ScreenVMFile id="3958" start="608" duration="10" scalar="1/1" mediaStart="4470/1" mediaDuration="10/1" trackNumber="0" src="9" >
             <Transformer>
              <VectorParam id="3959"  name="translation">
               <InterpolatingParam id="3960" interp="linr"  time="-9999999/1" value="0" leadInLength="0/1"  />
               <InterpolatingParam id="3961" interp="linr"  time="-9999999/1" value="0" leadInLength="0/1"  />
               <InterpolatingParam id="3962" interp="linr"  time="-9999999/1" value="0" leadInLength="0/1"  />
              </VectorParam>
              <VectorParam id="3963"  name="rotation">
               <InterpolatingParam id="3964" interp="linr"  time="-9999999/1" value="0" leadInLength="0/1"  />
               <InterpolatingParam id="3965" interp="linr"  time="-9999999/1" value="0" leadInLength="0/1"  />
               <InterpolatingParam id="3966" interp="linr"  time="-9999999/1" value="0" leadInLength="0/1"  />
              </VectorParam>
              <VectorParam id="3967"  name="shear">
               <InterpolatingParam id="3968" interp="linr"  time="-9999999/1" value="0" leadInLength="0/1"  />
               <InterpolatingParam id="3969" interp="linr"  time="-9999999/1" value="0" leadInLength="0/1"  />
               <InterpolatingParam id="3970" interp="linr"  time="-9999999/1" value="0" leadInLength="0/1"  />
              </VectorParam>
              <VectorParam id="3971"  name="scale">
               <InterpolatingParam id="3972" interp="linr"  time="-9999999/1" value="1" leadInLength="0/1"  />
               <InterpolatingParam id="3973" interp="linr"  time="-9999999/1" value="1" leadInLength="0/1"  />
               <InterpolatingParam id="3974" interp="linr"  time="-9999999/1" value="1" leadInLength="0/1"  />
              </VectorParam>
              <VectorParam id="3975"  name="anchor">
               <InterpolatingParam id="3976" interp="linr"  time="0/1" value="0" leadInLength="0/1"  />
               <InterpolatingParam id="3977" interp="linr"  time="0/1" value="0" leadInLength="0/1"  />
               <InterpolatingParam id="3978" interp="linr"  time="0/1" value="0" leadInLength="0/1"  />
              </VectorParam>
             </Transformer>
             <Parameters>
              <VectorParam id="3979"  name="sourceCrop">
               <InterpolatingParam id="3980" interp="linr"  time="0/1" value="0" leadInLength="0/1"  />
               <InterpolatingParam id="3981" interp="linr"  time="0/1" value="0" leadInLength="0/1"  />
               <InterpolatingParam id="3982" interp="linr"  time="0/1" value="0" leadInLength="0/1"  />
               <InterpolatingParam id="3983" interp="linr"  time="0/1" value="0" leadInLength="0/1"  />
              </VectorParam>
              <VectorParam id="3984"  name="geometryCrop">
               <InterpolatingParam id="3985" interp="linr"  time="-9999999/1" value="0" leadInLength="0/1"  />
               <InterpolatingParam id="3986" interp="linr"  time="-9999999/1" value="0" leadInLength="0/1"  />
               <InterpolatingParam id="3987" interp="linr"  time="-9999999/1" value="0" leadInLength="0/1"  />
               <InterpolatingParam id="3988" interp="linr"  time="-9999999/1" value="0" leadInLength="0/1"  />
              </VectorParam>
              <InterpolatingParam id="3989" interp="linr"  time="-9999999/1" value="1" leadInLength="0/1"  name="opacity"/>
              <InterpolatingParam id="3990" interp="linr"  time="0/1" value="0" leadInLength="0/1"  name="cursorOpacity"/>
              <InterpolatingParam id="3991" interp="linr"  time="0/1" value="0" leadInLength="0/1"  name="cursorScale"/>
             </Parameters>
             <Attributes>
              <Attribute id="3992" value="" name="ident"/>
             </Attributes>
             <ExtraData>
              <Entry key="ZoomPanBin">
               <ZoomPanBin id="3993"  >
                <ZoomPanKeyframes>
                 <ZoomPanKeyframe id="3994" timeRangeEnd="-9999999/1" timeRangeDuration="0/1" interpolaterName="linr"  />
                </ZoomPanKeyframes>
               </ZoomPanBin>
              </Entry>
              <Entry key="CursorEffectBin">
               <CursorEffectBin id="3995"  >
                <CursorEffectKeyframes>
                </CursorEffectKeyframes>
               </CursorEffectBin>
              </Entry>
             </ExtraData>
            </ScreenVMFile>
            <MetaData>
             <entry key="AutoAppliedSmartFocus" val="False"/>
             <entry key="WinSubProjectDisplayName" val=""/>
            </MetaData>
           </UnifiedMedia>
           <UnifiedMedia id="3996"  >
            <AMFile id="3997" start="618" duration="55" scalar="1/1" mediaStart="4688/1" mediaDuration="55/1" trackNumber="1" src="9" channelNumber="0,1" >
             <Parameters>
              <InterpolatingParam id="3998" interp="linr"  time="0/1" value="1" leadInLength="0/1"  name="volume"/>
              <Parameter id="3999"  name="captions"/>
             </Parameters>
             <Attributes>
              <Attribute id="4000" value="" name="ident"/>
              <Attribute id="4001" value="44100" name="sampleRate"/>
              <Attribute id="4002" value="16" name="bitDepth"/>
              <Attribute id="4003" value="1" name="gain"/>
              <Attribute id="4004" value="0" name="mixToMono"/>
             </Attributes>
            </AMFile>
            <ScreenVMFile id="4005" start="618" duration="55" scalar="1/1" mediaStart="4688/1" mediaDuration="55/1" trackNumber="0" src="9" >
             <Transformer>
              <VectorParam id="4006"  name="translation">
               <InterpolatingParam id="4007" interp="linr"  time="-9999999/1" value="0" leadInLength="0/1"  />
               <InterpolatingParam id="4008" interp="linr"  time="-9999999/1" value="0" leadInLength="0/1"  />
               <InterpolatingParam id="4009" interp="linr"  time="-9999999/1" value="0" leadInLength="0/1"  />
              </VectorParam>
              <VectorParam id="4010"  name="rotation">
               <InterpolatingParam id="4011" interp="linr"  time="-9999999/1" value="0" leadInLength="0/1"  />
               <InterpolatingParam id="4012" interp="linr"  time="-9999999/1" value="0" leadInLength="0/1"  />
               <InterpolatingParam id="4013" interp="linr"  time="-9999999/1" value="0" leadInLength="0/1"  />
              </VectorParam>
              <VectorParam id="4014"  name="shear">
               <InterpolatingParam id="4015" interp="linr"  time="-9999999/1" value="0" leadInLength="0/1"  />
               <InterpolatingParam id="4016" interp="linr"  time="-9999999/1" value="0" leadInLength="0/1"  />
               <InterpolatingParam id="4017" interp="linr"  time="-9999999/1" value="0" leadInLength="0/1"  />
              </VectorParam>
              <VectorParam id="4018"  name="scale">
               <InterpolatingParam id="4019" interp="linr"  time="-9999999/1" value="1" leadInLength="0/1"  />
               <InterpolatingParam id="4020" interp="linr"  time="-9999999/1" value="1" leadInLength="0/1"  />
               <InterpolatingParam id="4021" interp="linr"  time="-9999999/1" value="1" leadInLength="0/1"  />
              </VectorParam>
              <VectorParam id="4022"  name="anchor">
               <InterpolatingParam id="4023" interp="linr"  time="0/1" value="0" leadInLength="0/1"  />
               <InterpolatingParam id="4024" interp="linr"  time="0/1" value="0" leadInLength="0/1"  />
               <InterpolatingParam id="4025" interp="linr"  time="0/1" value="0" leadInLength="0/1"  />
              </VectorParam>
             </Transformer>
             <Parameters>
              <VectorParam id="4026"  name="sourceCrop">
               <InterpolatingParam id="4027" interp="linr"  time="0/1" value="0" leadInLength="0/1"  />
               <InterpolatingParam id="4028" interp="linr"  time="0/1" value="0" leadInLength="0/1"  />
               <InterpolatingParam id="4029" interp="linr"  time="0/1" value="0" leadInLength="0/1"  />
               <InterpolatingParam id="4030" interp="linr"  time="0/1" value="0" leadInLength="0/1"  />
              </VectorParam>
              <VectorParam id="4031"  name="geometryCrop">
               <InterpolatingParam id="4032" interp="linr"  time="-9999999/1" value="0" leadInLength="0/1"  />
               <InterpolatingParam id="4033" interp="linr"  time="-9999999/1" value="0" leadInLength="0/1"  />
               <InterpolatingParam id="4034" interp="linr"  time="-9999999/1" value="0" leadInLength="0/1"  />
               <InterpolatingParam id="4035" interp="linr"  time="-9999999/1" value="0" leadInLength="0/1"  />
              </VectorParam>
              <InterpolatingParam id="4036" interp="linr"  time="-9999999/1" value="1" leadInLength="0/1"  name="opacity"/>
              <InterpolatingParam id="4037" interp="linr"  time="0/1" value="0" leadInLength="0/1"  name="cursorOpacity"/>
              <InterpolatingParam id="4038" interp="linr"  time="0/1" value="0" leadInLength="0/1"  name="cursorScale"/>
             </Parameters>
             <Attributes>
              <Attribute id="4039" value="" name="ident"/>
             </Attributes>
             <ExtraData>
              <Entry key="ZoomPanBin">
               <ZoomPanBin id="4040"  >
                <ZoomPanKeyframes>
                 <ZoomPanKeyframe id="4041" timeRangeEnd="-9999999/1" timeRangeDuration="0/1" interpolaterName="linr"  />
                </ZoomPanKeyframes>
               </ZoomPanBin>
              </Entry>
              <Entry key="CursorEffectBin">
               <CursorEffectBin id="4042"  >
                <CursorEffectKeyframes>
                </CursorEffectKeyframes>
               </CursorEffectBin>
              </Entry>
             </ExtraData>
            </ScreenVMFile>
            <MetaData>
             <entry key="AutoAppliedSmartFocus" val="False"/>
             <entry key="WinSubProjectDisplayName" val=""/>
            </MetaData>
           </UnifiedMedia>
           <UnifiedMedia id="4043"  >
            <AMFile id="4044" start="673" duration="108" scalar="1/1" mediaStart="5385/1" mediaDuration="108/1" trackNumber="1" src="9" channelNumber="0,1" >
             <Parameters>
              <InterpolatingParam id="4045" interp="linr"  time="0/1" value="1" leadInLength="0/1"  name="volume"/>
              <Parameter id="4046"  name="captions"/>
             </Parameters>
             <Attributes>
              <Attribute id="4047" value="" name="ident"/>
              <Attribute id="4048" value="44100" name="sampleRate"/>
              <Attribute id="4049" value="16" name="bitDepth"/>
              <Attribute id="4050" value="1" name="gain"/>
              <Attribute id="4051" value="0" name="mixToMono"/>
             </Attributes>
            </AMFile>
            <ScreenVMFile id="4052" start="673" duration="108" scalar="1/1" mediaStart="5385/1" mediaDuration="108/1" trackNumber="0" src="9" >
             <Transformer>
              <VectorParam id="4053"  name="translation">
               <InterpolatingParam id="4054" interp="linr"  time="-9999999/1" value="0" leadInLength="0/1"  />
               <InterpolatingParam id="4055" interp="linr"  time="-9999999/1" value="0" leadInLength="0/1"  />
               <InterpolatingParam id="4056" interp="linr"  time="-9999999/1" value="0" leadInLength="0/1"  />
              </VectorParam>
              <VectorParam id="4057"  name="rotation">
               <InterpolatingParam id="4058" interp="linr"  time="-9999999/1" value="0" leadInLength="0/1"  />
               <InterpolatingParam id="4059" interp="linr"  time="-9999999/1" value="0" leadInLength="0/1"  />
               <InterpolatingParam id="4060" interp="linr"  time="-9999999/1" value="0" leadInLength="0/1"  />
              </VectorParam>
              <VectorParam id="4061"  name="shear">
               <InterpolatingParam id="4062" interp="linr"  time="-9999999/1" value="0" leadInLength="0/1"  />
               <InterpolatingParam id="4063" interp="linr"  time="-9999999/1" value="0" leadInLength="0/1"  />
               <InterpolatingParam id="4064" interp="linr"  time="-9999999/1" value="0" leadInLength="0/1"  />
              </VectorParam>
              <VectorParam id="4065"  name="scale">
               <InterpolatingParam id="4066" interp="linr"  time="-9999999/1" value="1" leadInLength="0/1"  />
               <InterpolatingParam id="4067" interp="linr"  time="-9999999/1" value="1" leadInLength="0/1"  />
               <InterpolatingParam id="4068" interp="linr"  time="-9999999/1" value="1" leadInLength="0/1"  />
              </VectorParam>
              <VectorParam id="4069"  name="anchor">
               <InterpolatingParam id="4070" interp="linr"  time="0/1" value="0" leadInLength="0/1"  />
               <InterpolatingParam id="4071" interp="linr"  time="0/1" value="0" leadInLength="0/1"  />
               <InterpolatingParam id="4072" interp="linr"  time="0/1" value="0" leadInLength="0/1"  />
              </VectorParam>
             </Transformer>
             <Parameters>
              <VectorParam id="4073"  name="sourceCrop">
               <InterpolatingParam id="4074" interp="linr"  time="0/1" value="0" leadInLength="0/1"  />
               <InterpolatingParam id="4075" interp="linr"  time="0/1" value="0" leadInLength="0/1"  />
               <InterpolatingParam id="4076" interp="linr"  time="0/1" value="0" leadInLength="0/1"  />
               <InterpolatingParam id="4077" interp="linr"  time="0/1" value="0" leadInLength="0/1"  />
              </VectorParam>
              <VectorParam id="4078"  name="geometryCrop">
               <InterpolatingParam id="4079" interp="linr"  time="-9999999/1" value="0" leadInLength="0/1"  />
               <InterpolatingParam id="4080" interp="linr"  time="-9999999/1" value="0" leadInLength="0/1"  />
               <InterpolatingParam id="4081" interp="linr"  time="-9999999/1" value="0" leadInLength="0/1"  />
               <InterpolatingParam id="4082" interp="linr"  time="-9999999/1" value="0" leadInLength="0/1"  />
              </VectorParam>
              <InterpolatingParam id="4083" interp="linr"  time="-9999999/1" value="1" leadInLength="0/1"  name="opacity"/>
              <InterpolatingParam id="4084" interp="linr"  time="0/1" value="0" leadInLength="0/1"  name="cursorOpacity"/>
              <InterpolatingParam id="4085" interp="linr"  time="0/1" value="0" leadInLength="0/1"  name="cursorScale"/>
             </Parameters>
             <Attributes>
              <Attribute id="4086" value="" name="ident"/>
             </Attributes>
             <ExtraData>
              <Entry key="ZoomPanBin">
               <ZoomPanBin id="4087"  >
                <ZoomPanKeyframes>
                 <ZoomPanKeyframe id="4088" timeRangeEnd="-9999999/1" timeRangeDuration="0/1" interpolaterName="linr"  />
                </ZoomPanKeyframes>
               </ZoomPanBin>
              </Entry>
              <Entry key="CursorEffectBin">
               <CursorEffectBin id="4089"  >
                <CursorEffectKeyframes>
                </CursorEffectKeyframes>
               </CursorEffectBin>
              </Entry>
             </ExtraData>
            </ScreenVMFile>
            <MetaData>
             <entry key="AutoAppliedSmartFocus" val="False"/>
             <entry key="WinSubProjectDisplayName" val=""/>
            </MetaData>
           </UnifiedMedia>
           <UnifiedMedia id="4090"  >
            <AMFile id="4091" start="781" duration="102" scalar="1/1" mediaStart="5804/1" mediaDuration="102/1" trackNumber="1" src="9" channelNumber="0,1" >
             <Parameters>
              <InterpolatingParam id="4092" interp="linr"  time="0/1" value="1" leadInLength="0/1"  name="volume"/>
              <Parameter id="4093"  name="captions"/>
             </Parameters>
             <Attributes>
              <Attribute id="4094" value="" name="ident"/>
              <Attribute id="4095" value="44100" name="sampleRate"/>
              <Attribute id="4096" value="16" name="bitDepth"/>
              <Attribute id="4097" value="1" name="gain"/>
              <Attribute id="4098" value="0" name="mixToMono"/>
             </Attributes>
            </AMFile>
            <ScreenVMFile id="4099" start="781" duration="102" scalar="1/1" mediaStart="5804/1" mediaDuration="102/1" trackNumber="0" src="9" >
             <Transformer>
              <VectorParam id="4100"  name="translation">
               <InterpolatingParam id="4101" interp="linr"  time="-9999999/1" value="0" leadInLength="0/1"  />
               <InterpolatingParam id="4102" interp="linr"  time="-9999999/1" value="0" leadInLength="0/1"  />
               <InterpolatingParam id="4103" interp="linr"  time="-9999999/1" value="0" leadInLength="0/1"  />
              </VectorParam>
              <VectorParam id="4104"  name="rotation">
               <InterpolatingParam id="4105" interp="linr"  time="-9999999/1" value="0" leadInLength="0/1"  />
               <InterpolatingParam id="4106" interp="linr"  time="-9999999/1" value="0" leadInLength="0/1"  />
               <InterpolatingParam id="4107" interp="linr"  time="-9999999/1" value="0" leadInLength="0/1"  />
              </VectorParam>
              <VectorParam id="4108"  name="shear">
               <InterpolatingParam id="4109" interp="linr"  time="-9999999/1" value="0" leadInLength="0/1"  />
               <InterpolatingParam id="4110" interp="linr"  time="-9999999/1" value="0" leadInLength="0/1"  />
               <InterpolatingParam id="4111" interp="linr"  time="-9999999/1" value="0" leadInLength="0/1"  />
              </VectorParam>
              <VectorParam id="4112"  name="scale">
               <InterpolatingParam id="4113" interp="linr"  time="-9999999/1" value="1" leadInLength="0/1"  />
               <InterpolatingParam id="4114" interp="linr"  time="-9999999/1" value="1" leadInLength="0/1"  />
               <InterpolatingParam id="4115" interp="linr"  time="-9999999/1" value="1" leadInLength="0/1"  />
              </VectorParam>
              <VectorParam id="4116"  name="anchor">
               <InterpolatingParam id="4117" interp="linr"  time="0/1" value="0" leadInLength="0/1"  />
               <InterpolatingParam id="4118" interp="linr"  time="0/1" value="0" leadInLength="0/1"  />
               <InterpolatingParam id="4119" interp="linr"  time="0/1" value="0" leadInLength="0/1"  />
              </VectorParam>
             </Transformer>
             <Parameters>
              <VectorParam id="4120"  name="sourceCrop">
               <InterpolatingParam id="4121" interp="linr"  time="0/1" value="0" leadInLength="0/1"  />
               <InterpolatingParam id="4122" interp="linr"  time="0/1" value="0" leadInLength="0/1"  />
               <InterpolatingParam id="4123" interp="linr"  time="0/1" value="0" leadInLength="0/1"  />
               <InterpolatingParam id="4124" interp="linr"  time="0/1" value="0" leadInLength="0/1"  />
              </VectorParam>
              <VectorParam id="4125"  name="geometryCrop">
               <InterpolatingParam id="4126" interp="linr"  time="-9999999/1" value="0" leadInLength="0/1"  />
               <InterpolatingParam id="4127" interp="linr"  time="-9999999/1" value="0" leadInLength="0/1"  />
               <InterpolatingParam id="4128" interp="linr"  time="-9999999/1" value="0" leadInLength="0/1"  />
               <InterpolatingParam id="4129" interp="linr"  time="-9999999/1" value="0" leadInLength="0/1"  />
              </VectorParam>
              <InterpolatingParam id="4130" interp="linr"  time="-9999999/1" value="1" leadInLength="0/1"  name="opacity"/>
              <InterpolatingParam id="4131" interp="linr"  time="0/1" value="0" leadInLength="0/1"  name="cursorOpacity"/>
              <InterpolatingParam id="4132" interp="linr"  time="0/1" value="0" leadInLength="0/1"  name="cursorScale"/>
             </Parameters>
             <Attributes>
              <Attribute id="4133" value="" name="ident"/>
             </Attributes>
             <ExtraData>
              <Entry key="ZoomPanBin">
               <ZoomPanBin id="4134"  >
                <ZoomPanKeyframes>
                 <ZoomPanKeyframe id="4135" timeRangeEnd="-9999999/1" timeRangeDuration="0/1" interpolaterName="linr"  />
                </ZoomPanKeyframes>
               </ZoomPanBin>
              </Entry>
              <Entry key="CursorEffectBin">
               <CursorEffectBin id="4136"  >
                <CursorEffectKeyframes>
                </CursorEffectKeyframes>
               </CursorEffectBin>
              </Entry>
             </ExtraData>
            </ScreenVMFile>
            <MetaData>
             <entry key="AutoAppliedSmartFocus" val="False"/>
             <entry key="WinSubProjectDisplayName" val=""/>
            </MetaData>
           </UnifiedMedia>
           <UnifiedMedia id="4137"  >
            <AMFile id="4138" start="883" duration="182" scalar="1/1" mediaStart="7155/1" mediaDuration="182/1" trackNumber="1" src="9" channelNumber="0,1" >
             <Parameters>
              <InterpolatingParam id="4139" interp="linr"  time="0/1" value="1" leadInLength="0/1"  name="volume"/>
              <Parameter id="4140"  name="captions"/>
             </Parameters>
             <Attributes>
              <Attribute id="4141" value="" name="ident"/>
              <Attribute id="4142" value="44100" name="sampleRate"/>
              <Attribute id="4143" value="16" name="bitDepth"/>
              <Attribute id="4144" value="1" name="gain"/>
              <Attribute id="4145" value="0" name="mixToMono"/>
             </Attributes>
            </AMFile>
            <ScreenVMFile id="4146" start="883" duration="182" scalar="1/1" mediaStart="7155/1" mediaDuration="182/1" trackNumber="0" src="9" >
             <Transformer>
              <VectorParam id="4147"  name="translation">
               <InterpolatingParam id="4148" interp="linr"  time="-9999999/1" value="0" leadInLength="0/1"  />
               <InterpolatingParam id="4149" interp="linr"  time="-9999999/1" value="0" leadInLength="0/1"  />
               <InterpolatingParam id="4150" interp="linr"  time="-9999999/1" value="0" leadInLength="0/1"  />
              </VectorParam>
              <VectorParam id="4151"  name="rotation">
               <InterpolatingParam id="4152" interp="linr"  time="-9999999/1" value="0" leadInLength="0/1"  />
               <InterpolatingParam id="4153" interp="linr"  time="-9999999/1" value="0" leadInLength="0/1"  />
               <InterpolatingParam id="4154" interp="linr"  time="-9999999/1" value="0" leadInLength="0/1"  />
              </VectorParam>
              <VectorParam id="4155"  name="shear">
               <InterpolatingParam id="4156" interp="linr"  time="-9999999/1" value="0" leadInLength="0/1"  />
               <InterpolatingParam id="4157" interp="linr"  time="-9999999/1" value="0" leadInLength="0/1"  />
               <InterpolatingParam id="4158" interp="linr"  time="-9999999/1" value="0" leadInLength="0/1"  />
              </VectorParam>
              <VectorParam id="4159"  name="scale">
               <InterpolatingParam id="4160" interp="linr"  time="-9999999/1" value="1" leadInLength="0/1"  />
               <InterpolatingParam id="4161" interp="linr"  time="-9999999/1" value="1" leadInLength="0/1"  />
               <InterpolatingParam id="4162" interp="linr"  time="-9999999/1" value="1" leadInLength="0/1"  />
              </VectorParam>
              <VectorParam id="4163"  name="anchor">
               <InterpolatingParam id="4164" interp="linr"  time="0/1" value="0" leadInLength="0/1"  />
               <InterpolatingParam id="4165" interp="linr"  time="0/1" value="0" leadInLength="0/1"  />
               <InterpolatingParam id="4166" interp="linr"  time="0/1" value="0" leadInLength="0/1"  />
              </VectorParam>
             </Transformer>
             <Parameters>
              <VectorParam id="4167"  name="sourceCrop">
               <InterpolatingParam id="4168" interp="linr"  time="0/1" value="0" leadInLength="0/1"  />
               <InterpolatingParam id="4169" interp="linr"  time="0/1" value="0" leadInLength="0/1"  />
               <InterpolatingParam id="4170" interp="linr"  time="0/1" value="0" leadInLength="0/1"  />
               <InterpolatingParam id="4171" interp="linr"  time="0/1" value="0" leadInLength="0/1"  />
              </VectorParam>
              <VectorParam id="4172"  name="geometryCrop">
               <InterpolatingParam id="4173" interp="linr"  time="-9999999/1" value="0" leadInLength="0/1"  />
               <InterpolatingParam id="4174" interp="linr"  time="-9999999/1" value="0" leadInLength="0/1"  />
               <InterpolatingParam id="4175" interp="linr"  time="-9999999/1" value="0" leadInLength="0/1"  />
               <InterpolatingParam id="4176" interp="linr"  time="-9999999/1" value="0" leadInLength="0/1"  />
              </VectorParam>
              <InterpolatingParam id="4177" interp="linr"  time="-9999999/1" value="1" leadInLength="0/1"  name="opacity"/>
              <InterpolatingParam id="4178" interp="linr"  time="0/1" value="0" leadInLength="0/1"  name="cursorOpacity"/>
              <InterpolatingParam id="4179" interp="linr"  time="0/1" value="0" leadInLength="0/1"  name="cursorScale"/>
             </Parameters>
             <Attributes>
              <Attribute id="4180" value="" name="ident"/>
             </Attributes>
             <ExtraData>
              <Entry key="ZoomPanBin">
               <ZoomPanBin id="4181"  >
                <ZoomPanKeyframes>
                 <ZoomPanKeyframe id="4182" timeRangeEnd="-9999999/1" timeRangeDuration="0/1" interpolaterName="linr"  />
                </ZoomPanKeyframes>
               </ZoomPanBin>
              </Entry>
              <Entry key="CursorEffectBin">
               <CursorEffectBin id="4183"  >
                <CursorEffectKeyframes>
                </CursorEffectKeyframes>
               </CursorEffectBin>
              </Entry>
             </ExtraData>
            </ScreenVMFile>
            <MetaData>
             <entry key="AutoAppliedSmartFocus" val="False"/>
             <entry key="WinSubProjectDisplayName" val=""/>
            </MetaData>
           </UnifiedMedia>
           <UnifiedMedia id="4184"  >
            <AMFile id="4185" start="1065" duration="118" scalar="1/1" mediaStart="7473/1" mediaDuration="118/1" trackNumber="1" src="9" channelNumber="0,1" >
             <Parameters>
              <InterpolatingParam id="4186" interp="linr"  time="0/1" value="1" leadInLength="0/1"  name="volume"/>
              <Parameter id="4187"  name="captions"/>
             </Parameters>
             <Attributes>
              <Attribute id="4188" value="" name="ident"/>
              <Attribute id="4189" value="44100" name="sampleRate"/>
              <Attribute id="4190" value="16" name="bitDepth"/>
              <Attribute id="4191" value="1" name="gain"/>
              <Attribute id="4192" value="0" name="mixToMono"/>
             </Attributes>
            </AMFile>
            <ScreenVMFile id="4193" start="1065" duration="118" scalar="1/1" mediaStart="7473/1" mediaDuration="118/1" trackNumber="0" src="9" >
             <Transformer>
              <VectorParam id="4194"  name="translation">
               <InterpolatingParam id="4195" interp="linr"  time="-9999999/1" value="0" leadInLength="0/1"  />
               <InterpolatingParam id="4196" interp="linr"  time="-9999999/1" value="0" leadInLength="0/1"  />
               <InterpolatingParam id="4197" interp="linr"  time="-9999999/1" value="0" leadInLength="0/1"  />
              </VectorParam>
              <VectorParam id="4198"  name="rotation">
               <InterpolatingParam id="4199" interp="linr"  time="-9999999/1" value="0" leadInLength="0/1"  />
               <InterpolatingParam id="4200" interp="linr"  time="-9999999/1" value="0" leadInLength="0/1"  />
               <InterpolatingParam id="4201" interp="linr"  time="-9999999/1" value="0" leadInLength="0/1"  />
              </VectorParam>
              <VectorParam id="4202"  name="shear">
               <InterpolatingParam id="4203" interp="linr"  time="-9999999/1" value="0" leadInLength="0/1"  />
               <InterpolatingParam id="4204" interp="linr"  time="-9999999/1" value="0" leadInLength="0/1"  />
               <InterpolatingParam id="4205" interp="linr"  time="-9999999/1" value="0" leadInLength="0/1"  />
              </VectorParam>
              <VectorParam id="4206"  name="scale">
               <InterpolatingParam id="4207" interp="linr"  time="-9999999/1" value="1" leadInLength="0/1"  />
               <InterpolatingParam id="4208" interp="linr"  time="-9999999/1" value="1" leadInLength="0/1"  />
               <InterpolatingParam id="4209" interp="linr"  time="-9999999/1" value="1" leadInLength="0/1"  />
              </VectorParam>
              <VectorParam id="4210"  name="anchor">
               <InterpolatingParam id="4211" interp="linr"  time="0/1" value="0" leadInLength="0/1"  />
               <InterpolatingParam id="4212" interp="linr"  time="0/1" value="0" leadInLength="0/1"  />
               <InterpolatingParam id="4213" interp="linr"  time="0/1" value="0" leadInLength="0/1"  />
              </VectorParam>
             </Transformer>
             <Parameters>
              <VectorParam id="4214"  name="sourceCrop">
               <InterpolatingParam id="4215" interp="linr"  time="0/1" value="0" leadInLength="0/1"  />
               <InterpolatingParam id="4216" interp="linr"  time="0/1" value="0" leadInLength="0/1"  />
               <InterpolatingParam id="4217" interp="linr"  time="0/1" value="0" leadInLength="0/1"  />
               <InterpolatingParam id="4218" interp="linr"  time="0/1" value="0" leadInLength="0/1"  />
              </VectorParam>
              <VectorParam id="4219"  name="geometryCrop">
               <InterpolatingParam id="4220" interp="linr"  time="-9999999/1" value="0" leadInLength="0/1"  />
               <InterpolatingParam id="4221" interp="linr"  time="-9999999/1" value="0" leadInLength="0/1"  />
               <InterpolatingParam id="4222" interp="linr"  time="-9999999/1" value="0" leadInLength="0/1"  />
               <InterpolatingParam id="4223" interp="linr"  time="-9999999/1" value="0" leadInLength="0/1"  />
              </VectorParam>
              <InterpolatingParam id="4224" interp="linr"  time="-9999999/1" value="1" leadInLength="0/1"  name="opacity"/>
              <InterpolatingParam id="4225" interp="linr"  time="0/1" value="0" leadInLength="0/1"  name="cursorOpacity"/>
              <InterpolatingParam id="4226" interp="linr"  time="0/1" value="0" leadInLength="0/1"  name="cursorScale"/>
             </Parameters>
             <Attributes>
              <Attribute id="4227" value="" name="ident"/>
             </Attributes>
             <ExtraData>
              <Entry key="ZoomPanBin">
               <ZoomPanBin id="4228"  >
                <ZoomPanKeyframes>
                 <ZoomPanKeyframe id="4229" timeRangeEnd="-9999999/1" timeRangeDuration="0/1" interpolaterName="linr"  />
                </ZoomPanKeyframes>
               </ZoomPanBin>
              </Entry>
              <Entry key="CursorEffectBin">
               <CursorEffectBin id="4230"  >
                <CursorEffectKeyframes>
                </CursorEffectKeyframes>
               </CursorEffectBin>
              </Entry>
             </ExtraData>
            </ScreenVMFile>
            <MetaData>
             <entry key="AutoAppliedSmartFocus" val="False"/>
             <entry key="WinSubProjectDisplayName" val=""/>
            </MetaData>
           </UnifiedMedia>
           <UnifiedMedia id="4231"  >
            <AMFile id="4232" start="1183" duration="113" scalar="1/1" mediaStart="8304/1" mediaDuration="113/1" trackNumber="1" src="9" channelNumber="0,1" >
             <Parameters>
              <InterpolatingParam id="4233" interp="linr"  time="0/1" value="1" leadInLength="0/1"  name="volume"/>
              <Parameter id="4234"  name="captions"/>
             </Parameters>
             <Attributes>
              <Attribute id="4235" value="" name="ident"/>
              <Attribute id="4236" value="44100" name="sampleRate"/>
              <Attribute id="4237" value="16" name="bitDepth"/>
              <Attribute id="4238" value="1" name="gain"/>
              <Attribute id="4239" value="0" name="mixToMono"/>
             </Attributes>
            </AMFile>
            <ScreenVMFile id="4240" start="1183" duration="113" scalar="1/1" mediaStart="8304/1" mediaDuration="113/1" trackNumber="0" src="9" >
             <Transformer>
              <VectorParam id="4241"  name="translation">
               <InterpolatingParam id="4242" interp="linr"  time="-9999999/1" value="0" leadInLength="0/1"  />
               <InterpolatingParam id="4243" interp="linr"  time="-9999999/1" value="0" leadInLength="0/1"  />
               <InterpolatingParam id="4244" interp="linr"  time="-9999999/1" value="0" leadInLength="0/1"  />
              </VectorParam>
              <VectorParam id="4245"  name="rotation">
               <InterpolatingParam id="4246" interp="linr"  time="-9999999/1" value="0" leadInLength="0/1"  />
               <InterpolatingParam id="4247" interp="linr"  time="-9999999/1" value="0" leadInLength="0/1"  />
               <InterpolatingParam id="4248" interp="linr"  time="-9999999/1" value="0" leadInLength="0/1"  />
              </VectorParam>
              <VectorParam id="4249"  name="shear">
               <InterpolatingParam id="4250" interp="linr"  time="-9999999/1" value="0" leadInLength="0/1"  />
               <InterpolatingParam id="4251" interp="linr"  time="-9999999/1" value="0" leadInLength="0/1"  />
               <InterpolatingParam id="4252" interp="linr"  time="-9999999/1" value="0" leadInLength="0/1"  />
              </VectorParam>
              <VectorParam id="4253"  name="scale">
               <InterpolatingParam id="4254" interp="linr"  time="-9999999/1" value="1" leadInLength="0/1"  />
               <InterpolatingParam id="4255" interp="linr"  time="-9999999/1" value="1" leadInLength="0/1"  />
               <InterpolatingParam id="4256" interp="linr"  time="-9999999/1" value="1" leadInLength="0/1"  />
              </VectorParam>
              <VectorParam id="4257"  name="anchor">
               <InterpolatingParam id="4258" interp="linr"  time="0/1" value="0" leadInLength="0/1"  />
               <InterpolatingParam id="4259" interp="linr"  time="0/1" value="0" leadInLength="0/1"  />
               <InterpolatingParam id="4260" interp="linr"  time="0/1" value="0" leadInLength="0/1"  />
              </VectorParam>
             </Transformer>
             <Parameters>
              <VectorParam id="4261"  name="sourceCrop">
               <InterpolatingParam id="4262" interp="linr"  time="0/1" value="0" leadInLength="0/1"  />
               <InterpolatingParam id="4263" interp="linr"  time="0/1" value="0" leadInLength="0/1"  />
               <InterpolatingParam id="4264" interp="linr"  time="0/1" value="0" leadInLength="0/1"  />
               <InterpolatingParam id="4265" interp="linr"  time="0/1" value="0" leadInLength="0/1"  />
              </VectorParam>
              <VectorParam id="4266"  name="geometryCrop">
               <InterpolatingParam id="4267" interp="linr"  time="-9999999/1" value="0" leadInLength="0/1"  />
               <InterpolatingParam id="4268" interp="linr"  time="-9999999/1" value="0" leadInLength="0/1"  />
               <InterpolatingParam id="4269" interp="linr"  time="-9999999/1" value="0" leadInLength="0/1"  />
               <InterpolatingParam id="4270" interp="linr"  time="-9999999/1" value="0" leadInLength="0/1"  />
              </VectorParam>
              <InterpolatingParam id="4271" interp="linr"  time="-9999999/1" value="1" leadInLength="0/1"  name="opacity"/>
              <InterpolatingParam id="4272" interp="linr"  time="0/1" value="0" leadInLength="0/1"  name="cursorOpacity"/>
              <InterpolatingParam id="4273" interp="linr"  time="0/1" value="0" leadInLength="0/1"  name="cursorScale"/>
             </Parameters>
             <Attributes>
              <Attribute id="4274" value="" name="ident"/>
             </Attributes>
             <ExtraData>
              <Entry key="ZoomPanBin">
               <ZoomPanBin id="4275"  >
                <ZoomPanKeyframes>
                 <ZoomPanKeyframe id="4276" timeRangeEnd="-9999999/1" timeRangeDuration="0/1" interpolaterName="linr"  />
                </ZoomPanKeyframes>
               </ZoomPanBin>
              </Entry>
              <Entry key="CursorEffectBin">
               <CursorEffectBin id="4277"  >
                <CursorEffectKeyframes>
                </CursorEffectKeyframes>
               </CursorEffectBin>
              </Entry>
             </ExtraData>
            </ScreenVMFile>
            <MetaData>
             <entry key="AutoAppliedSmartFocus" val="False"/>
             <entry key="WinSubProjectDisplayName" val=""/>
            </MetaData>
           </UnifiedMedia>
           <UnifiedMedia id="4278"  >
            <AMFile id="4279" start="1296" duration="127" scalar="1/1" mediaStart="9217/1" mediaDuration="127/1" trackNumber="1" src="9" channelNumber="0,1" >
             <Parameters>
              <InterpolatingParam id="4280" interp="linr"  time="0/1" value="1" leadInLength="0/1"  name="volume"/>
              <Parameter id="4281"  name="captions"/>
             </Parameters>
             <Attributes>
              <Attribute id="4282" value="" name="ident"/>
              <Attribute id="4283" value="44100" name="sampleRate"/>
              <Attribute id="4284" value="16" name="bitDepth"/>
              <Attribute id="4285" value="1" name="gain"/>
              <Attribute id="4286" value="0" name="mixToMono"/>
             </Attributes>
            </AMFile>
            <ScreenVMFile id="4287" start="1296" duration="127" scalar="1/1" mediaStart="9217/1" mediaDuration="127/1" trackNumber="0" src="9" >
             <Transformer>
              <VectorParam id="4288"  name="translation">
               <InterpolatingParam id="4289" interp="linr"  time="-9999999/1" value="0" leadInLength="0/1"  />
               <InterpolatingParam id="4290" interp="linr"  time="-9999999/1" value="0" leadInLength="0/1"  />
               <InterpolatingParam id="4291" interp="linr"  time="-9999999/1" value="0" leadInLength="0/1"  />
              </VectorParam>
              <VectorParam id="4292"  name="rotation">
               <InterpolatingParam id="4293" interp="linr"  time="-9999999/1" value="0" leadInLength="0/1"  />
               <InterpolatingParam id="4294" interp="linr"  time="-9999999/1" value="0" leadInLength="0/1"  />
               <InterpolatingParam id="4295" interp="linr"  time="-9999999/1" value="0" leadInLength="0/1"  />
              </VectorParam>
              <VectorParam id="4296"  name="shear">
               <InterpolatingParam id="4297" interp="linr"  time="-9999999/1" value="0" leadInLength="0/1"  />
               <InterpolatingParam id="4298" interp="linr"  time="-9999999/1" value="0" leadInLength="0/1"  />
               <InterpolatingParam id="4299" interp="linr"  time="-9999999/1" value="0" leadInLength="0/1"  />
              </VectorParam>
              <VectorParam id="4300"  name="scale">
               <InterpolatingParam id="4301" interp="linr"  time="-9999999/1" value="1" leadInLength="0/1"  />
               <InterpolatingParam id="4302" interp="linr"  time="-9999999/1" value="1" leadInLength="0/1"  />
               <InterpolatingParam id="4303" interp="linr"  time="-9999999/1" value="1" leadInLength="0/1"  />
              </VectorParam>
              <VectorParam id="4304"  name="anchor">
               <InterpolatingParam id="4305" interp="linr"  time="0/1" value="0" leadInLength="0/1"  />
               <InterpolatingParam id="4306" interp="linr"  time="0/1" value="0" leadInLength="0/1"  />
               <InterpolatingParam id="4307" interp="linr"  time="0/1" value="0" leadInLength="0/1"  />
              </VectorParam>
             </Transformer>
             <Parameters>
              <VectorParam id="4308"  name="sourceCrop">
               <InterpolatingParam id="4309" interp="linr"  time="0/1" value="0" leadInLength="0/1"  />
               <InterpolatingParam id="4310" interp="linr"  time="0/1" value="0" leadInLength="0/1"  />
               <InterpolatingParam id="4311" interp="linr"  time="0/1" value="0" leadInLength="0/1"  />
               <InterpolatingParam id="4312" interp="linr"  time="0/1" value="0" leadInLength="0/1"  />
              </VectorParam>
              <VectorParam id="4313"  name="geometryCrop">
               <InterpolatingParam id="4314" interp="linr"  time="-9999999/1" value="0" leadInLength="0/1"  />
               <InterpolatingParam id="4315" interp="linr"  time="-9999999/1" value="0" leadInLength="0/1"  />
               <InterpolatingParam id="4316" interp="linr"  time="-9999999/1" value="0" leadInLength="0/1"  />
               <InterpolatingParam id="4317" interp="linr"  time="-9999999/1" value="0" leadInLength="0/1"  />
              </VectorParam>
              <InterpolatingParam id="4318" interp="linr"  time="-9999999/1" value="1" leadInLength="0/1"  name="opacity"/>
              <InterpolatingParam id="4319" interp="linr"  time="0/1" value="0" leadInLength="0/1"  name="cursorOpacity"/>
              <InterpolatingParam id="4320" interp="linr"  time="0/1" value="0" leadInLength="0/1"  name="cursorScale"/>
             </Parameters>
             <Attributes>
              <Attribute id="4321" value="" name="ident"/>
             </Attributes>
             <ExtraData>
              <Entry key="ZoomPanBin">
               <ZoomPanBin id="4322"  >
                <ZoomPanKeyframes>
                 <ZoomPanKeyframe id="4323" timeRangeEnd="-9999999/1" timeRangeDuration="0/1" interpolaterName="linr"  />
                </ZoomPanKeyframes>
               </ZoomPanBin>
              </Entry>
              <Entry key="CursorEffectBin">
               <CursorEffectBin id="4324"  >
                <CursorEffectKeyframes>
                </CursorEffectKeyframes>
               </CursorEffectBin>
              </Entry>
             </ExtraData>
            </ScreenVMFile>
            <MetaData>
             <entry key="AutoAppliedSmartFocus" val="False"/>
             <entry key="WinSubProjectDisplayName" val=""/>
            </MetaData>
           </UnifiedMedia>
           <UnifiedMedia id="4325"  >
            <AMFile id="4326" start="1423" duration="53" scalar="1/1" mediaStart="9500/1" mediaDuration="53/1" trackNumber="1" src="9" channelNumber="0,1" >
             <Parameters>
              <InterpolatingParam id="4327" interp="linr"  time="0/1" value="1" leadInLength="0/1"  name="volume"/>
              <Parameter id="4328"  name="captions"/>
             </Parameters>
             <Attributes>
              <Attribute id="4329" value="" name="ident"/>
              <Attribute id="4330" value="44100" name="sampleRate"/>
              <Attribute id="4331" value="16" name="bitDepth"/>
              <Attribute id="4332" value="1" name="gain"/>
              <Attribute id="4333" value="0" name="mixToMono"/>
             </Attributes>
            </AMFile>
            <ScreenVMFile id="4334" start="1423" duration="53" scalar="1/1" mediaStart="9500/1" mediaDuration="53/1" trackNumber="0" src="9" >
             <Transformer>
              <VectorParam id="4335"  name="translation">
               <InterpolatingParam id="4336" interp="linr"  time="-9999999/1" value="0" leadInLength="0/1"  />
               <InterpolatingParam id="4337" interp="linr"  time="-9999999/1" value="0" leadInLength="0/1"  />
               <InterpolatingParam id="4338" interp="linr"  time="-9999999/1" value="0" leadInLength="0/1"  />
              </VectorParam>
              <VectorParam id="4339"  name="rotation">
               <InterpolatingParam id="4340" interp="linr"  time="-9999999/1" value="0" leadInLength="0/1"  />
               <InterpolatingParam id="4341" interp="linr"  time="-9999999/1" value="0" leadInLength="0/1"  />
               <InterpolatingParam id="4342" interp="linr"  time="-9999999/1" value="0" leadInLength="0/1"  />
              </VectorParam>
              <VectorParam id="4343"  name="shear">
               <InterpolatingParam id="4344" interp="linr"  time="-9999999/1" value="0" leadInLength="0/1"  />
               <InterpolatingParam id="4345" interp="linr"  time="-9999999/1" value="0" leadInLength="0/1"  />
               <InterpolatingParam id="4346" interp="linr"  time="-9999999/1" value="0" leadInLength="0/1"  />
              </VectorParam>
              <VectorParam id="4347"  name="scale">
               <InterpolatingParam id="4348" interp="linr"  time="-9999999/1" value="1" leadInLength="0/1"  />
               <InterpolatingParam id="4349" interp="linr"  time="-9999999/1" value="1" leadInLength="0/1"  />
               <InterpolatingParam id="4350" interp="linr"  time="-9999999/1" value="1" leadInLength="0/1"  />
              </VectorParam>
              <VectorParam id="4351"  name="anchor">
               <InterpolatingParam id="4352" interp="linr"  time="0/1" value="0" leadInLength="0/1"  />
               <InterpolatingParam id="4353" interp="linr"  time="0/1" value="0" leadInLength="0/1"  />
               <InterpolatingParam id="4354" interp="linr"  time="0/1" value="0" leadInLength="0/1"  />
              </VectorParam>
             </Transformer>
             <Parameters>
              <VectorParam id="4355"  name="sourceCrop">
               <InterpolatingParam id="4356" interp="linr"  time="0/1" value="0" leadInLength="0/1"  />
               <InterpolatingParam id="4357" interp="linr"  time="0/1" value="0" leadInLength="0/1"  />
               <InterpolatingParam id="4358" interp="linr"  time="0/1" value="0" leadInLength="0/1"  />
               <InterpolatingParam id="4359" interp="linr"  time="0/1" value="0" leadInLength="0/1"  />
              </VectorParam>
              <VectorParam id="4360"  name="geometryCrop">
               <InterpolatingParam id="4361" interp="linr"  time="-9999999/1" value="0" leadInLength="0/1"  />
               <InterpolatingParam id="4362" interp="linr"  time="-9999999/1" value="0" leadInLength="0/1"  />
               <InterpolatingParam id="4363" interp="linr"  time="-9999999/1" value="0" leadInLength="0/1"  />
               <InterpolatingParam id="4364" interp="linr"  time="-9999999/1" value="0" leadInLength="0/1"  />
              </VectorParam>
              <InterpolatingParam id="4365" interp="linr"  time="-9999999/1" value="1" leadInLength="0/1"  name="opacity"/>
              <InterpolatingParam id="4366" interp="linr"  time="0/1" value="0" leadInLength="0/1"  name="cursorOpacity"/>
              <InterpolatingParam id="4367" interp="linr"  time="0/1" value="0" leadInLength="0/1"  name="cursorScale"/>
             </Parameters>
             <Attributes>
              <Attribute id="4368" value="" name="ident"/>
             </Attributes>
             <ExtraData>
              <Entry key="ZoomPanBin">
               <ZoomPanBin id="4369"  >
                <ZoomPanKeyframes>
                 <ZoomPanKeyframe id="4370" timeRangeEnd="-9999999/1" timeRangeDuration="0/1" interpolaterName="linr"  />
                </ZoomPanKeyframes>
               </ZoomPanBin>
              </Entry>
              <Entry key="CursorEffectBin">
               <CursorEffectBin id="4371"  >
                <CursorEffectKeyframes>
                </CursorEffectKeyframes>
               </CursorEffectBin>
              </Entry>
             </ExtraData>
            </ScreenVMFile>
            <MetaData>
             <entry key="AutoAppliedSmartFocus" val="False"/>
             <entry key="WinSubProjectDisplayName" val=""/>
            </MetaData>
           </UnifiedMedia>
           <UnifiedMedia id="4372"  >
            <AMFile id="4373" start="1476" duration="131" scalar="1/1" mediaStart="9613/1" mediaDuration="131/1" trackNumber="1" src="9" channelNumber="0,1" >
             <Parameters>
              <InterpolatingParam id="4374" interp="linr"  time="0/1" value="1" leadInLength="0/1"  name="volume"/>
              <Parameter id="4375"  name="captions"/>
             </Parameters>
             <Attributes>
              <Attribute id="4376" value="" name="ident"/>
              <Attribute id="4377" value="44100" name="sampleRate"/>
              <Attribute id="4378" value="16" name="bitDepth"/>
              <Attribute id="4379" value="1" name="gain"/>
              <Attribute id="4380" value="0" name="mixToMono"/>
             </Attributes>
            </AMFile>
            <ScreenVMFile id="4381" start="1476" duration="131" scalar="1/1" mediaStart="9613/1" mediaDuration="131/1" trackNumber="0" src="9" >
             <Transformer>
              <VectorParam id="4382"  name="translation">
               <InterpolatingParam id="4383" interp="linr"  time="-9999999/1" value="0" leadInLength="0/1"  />
               <InterpolatingParam id="4384" interp="linr"  time="-9999999/1" value="0" leadInLength="0/1"  />
               <InterpolatingParam id="4385" interp="linr"  time="-9999999/1" value="0" leadInLength="0/1"  />
              </VectorParam>
              <VectorParam id="4386"  name="rotation">
               <InterpolatingParam id="4387" interp="linr"  time="-9999999/1" value="0" leadInLength="0/1"  />
               <InterpolatingParam id="4388" interp="linr"  time="-9999999/1" value="0" leadInLength="0/1"  />
               <InterpolatingParam id="4389" interp="linr"  time="-9999999/1" value="0" leadInLength="0/1"  />
              </VectorParam>
              <VectorParam id="4390"  name="shear">
               <InterpolatingParam id="4391" interp="linr"  time="-9999999/1" value="0" leadInLength="0/1"  />
               <InterpolatingParam id="4392" interp="linr"  time="-9999999/1" value="0" leadInLength="0/1"  />
               <InterpolatingParam id="4393" interp="linr"  time="-9999999/1" value="0" leadInLength="0/1"  />
              </VectorParam>
              <VectorParam id="4394"  name="scale">
               <InterpolatingParam id="4395" interp="linr"  time="-9999999/1" value="1" leadInLength="0/1"  />
               <InterpolatingParam id="4396" interp="linr"  time="-9999999/1" value="1" leadInLength="0/1"  />
               <InterpolatingParam id="4397" interp="linr"  time="-9999999/1" value="1" leadInLength="0/1"  />
              </VectorParam>
              <VectorParam id="4398"  name="anchor">
               <InterpolatingParam id="4399" interp="linr"  time="0/1" value="0" leadInLength="0/1"  />
               <InterpolatingParam id="4400" interp="linr"  time="0/1" value="0" leadInLength="0/1"  />
               <InterpolatingParam id="4401" interp="linr"  time="0/1" value="0" leadInLength="0/1"  />
              </VectorParam>
             </Transformer>
             <Parameters>
              <VectorParam id="4402"  name="sourceCrop">
               <InterpolatingParam id="4403" interp="linr"  time="0/1" value="0" leadInLength="0/1"  />
               <InterpolatingParam id="4404" interp="linr"  time="0/1" value="0" leadInLength="0/1"  />
               <InterpolatingParam id="4405" interp="linr"  time="0/1" value="0" leadInLength="0/1"  />
               <InterpolatingParam id="4406" interp="linr"  time="0/1" value="0" leadInLength="0/1"  />
              </VectorParam>
              <VectorParam id="4407"  name="geometryCrop">
               <InterpolatingParam id="4408" interp="linr"  time="-9999999/1" value="0" leadInLength="0/1"  />
               <InterpolatingParam id="4409" interp="linr"  time="-9999999/1" value="0" leadInLength="0/1"  />
               <InterpolatingParam id="4410" interp="linr"  time="-9999999/1" value="0" leadInLength="0/1"  />
               <InterpolatingParam id="4411" interp="linr"  time="-9999999/1" value="0" leadInLength="0/1"  />
              </VectorParam>
              <InterpolatingParam id="4412" interp="linr"  time="-9999999/1" value="1" leadInLength="0/1"  name="opacity"/>
              <InterpolatingParam id="4413" interp="linr"  time="0/1" value="0" leadInLength="0/1"  name="cursorOpacity"/>
              <InterpolatingParam id="4414" interp="linr"  time="0/1" value="0" leadInLength="0/1"  name="cursorScale"/>
             </Parameters>
             <Attributes>
              <Attribute id="4415" value="" name="ident"/>
             </Attributes>
             <ExtraData>
              <Entry key="ZoomPanBin">
               <ZoomPanBin id="4416"  >
                <ZoomPanKeyframes>
                 <ZoomPanKeyframe id="4417" timeRangeEnd="-9999999/1" timeRangeDuration="0/1" interpolaterName="linr"  />
                </ZoomPanKeyframes>
               </ZoomPanBin>
              </Entry>
              <Entry key="CursorEffectBin">
               <CursorEffectBin id="4418"  >
                <CursorEffectKeyframes>
                </CursorEffectKeyframes>
               </CursorEffectBin>
              </Entry>
             </ExtraData>
            </ScreenVMFile>
            <MetaData>
             <entry key="AutoAppliedSmartFocus" val="False"/>
             <entry key="WinSubProjectDisplayName" val=""/>
            </MetaData>
           </UnifiedMedia>
           <UnifiedMedia id="4419"  >
            <AMFile id="4420" start="1607" duration="42" scalar="1/1" mediaStart="9963/1" mediaDuration="42/1" trackNumber="1" src="9" channelNumber="0,1" >
             <Parameters>
              <InterpolatingParam id="4421" interp="linr"  time="0/1" value="1" leadInLength="0/1"  name="volume"/>
              <Parameter id="4422"  name="captions"/>
             </Parameters>
             <Attributes>
              <Attribute id="4423" value="" name="ident"/>
              <Attribute id="4424" value="44100" name="sampleRate"/>
              <Attribute id="4425" value="16" name="bitDepth"/>
              <Attribute id="4426" value="1" name="gain"/>
              <Attribute id="4427" value="0" name="mixToMono"/>
             </Attributes>
            </AMFile>
            <ScreenVMFile id="4428" start="1607" duration="42" scalar="1/1" mediaStart="9963/1" mediaDuration="42/1" trackNumber="0" src="9" >
             <Transformer>
              <VectorParam id="4429"  name="translation">
               <InterpolatingParam id="4430" interp="linr"  time="-9999999/1" value="0" leadInLength="0/1"  />
               <InterpolatingParam id="4431" interp="linr"  time="-9999999/1" value="0" leadInLength="0/1"  />
               <InterpolatingParam id="4432" interp="linr"  time="-9999999/1" value="0" leadInLength="0/1"  />
              </VectorParam>
              <VectorParam id="4433"  name="rotation">
               <InterpolatingParam id="4434" interp="linr"  time="-9999999/1" value="0" leadInLength="0/1"  />
               <InterpolatingParam id="4435" interp="linr"  time="-9999999/1" value="0" leadInLength="0/1"  />
               <InterpolatingParam id="4436" interp="linr"  time="-9999999/1" value="0" leadInLength="0/1"  />
              </VectorParam>
              <VectorParam id="4437"  name="shear">
               <InterpolatingParam id="4438" interp="linr"  time="-9999999/1" value="0" leadInLength="0/1"  />
               <InterpolatingParam id="4439" interp="linr"  time="-9999999/1" value="0" leadInLength="0/1"  />
               <InterpolatingParam id="4440" interp="linr"  time="-9999999/1" value="0" leadInLength="0/1"  />
              </VectorParam>
              <VectorParam id="4441"  name="scale">
               <InterpolatingParam id="4442" interp="linr"  time="-9999999/1" value="1" leadInLength="0/1"  />
               <InterpolatingParam id="4443" interp="linr"  time="-9999999/1" value="1" leadInLength="0/1"  />
               <InterpolatingParam id="4444" interp="linr"  time="-9999999/1" value="1" leadInLength="0/1"  />
              </VectorParam>
              <VectorParam id="4445"  name="anchor">
               <InterpolatingParam id="4446" interp="linr"  time="0/1" value="0" leadInLength="0/1"  />
               <InterpolatingParam id="4447" interp="linr"  time="0/1" value="0" leadInLength="0/1"  />
               <InterpolatingParam id="4448" interp="linr"  time="0/1" value="0" leadInLength="0/1"  />
              </VectorParam>
             </Transformer>
             <Parameters>
              <VectorParam id="4449"  name="sourceCrop">
               <InterpolatingParam id="4450" interp="linr"  time="0/1" value="0" leadInLength="0/1"  />
               <InterpolatingParam id="4451" interp="linr"  time="0/1" value="0" leadInLength="0/1"  />
               <InterpolatingParam id="4452" interp="linr"  time="0/1" value="0" leadInLength="0/1"  />
               <InterpolatingParam id="4453" interp="linr"  time="0/1" value="0" leadInLength="0/1"  />
              </VectorParam>
              <VectorParam id="4454"  name="geometryCrop">
               <InterpolatingParam id="4455" interp="linr"  time="-9999999/1" value="0" leadInLength="0/1"  />
               <InterpolatingParam id="4456" interp="linr"  time="-9999999/1" value="0" leadInLength="0/1"  />
               <InterpolatingParam id="4457" interp="linr"  time="-9999999/1" value="0" leadInLength="0/1"  />
               <InterpolatingParam id="4458" interp="linr"  time="-9999999/1" value="0" leadInLength="0/1"  />
              </VectorParam>
              <InterpolatingParam id="4459" interp="linr"  time="-9999999/1" value="1" leadInLength="0/1"  name="opacity"/>
              <InterpolatingParam id="4460" interp="linr"  time="0/1" value="0" leadInLength="0/1"  name="cursorOpacity"/>
              <InterpolatingParam id="4461" interp="linr"  time="0/1" value="0" leadInLength="0/1"  name="cursorScale"/>
             </Parameters>
             <Attributes>
              <Attribute id="4462" value="" name="ident"/>
             </Attributes>
             <ExtraData>
              <Entry key="ZoomPanBin">
               <ZoomPanBin id="4463"  >
                <ZoomPanKeyframes>
                 <ZoomPanKeyframe id="4464" timeRangeEnd="-9999999/1" timeRangeDuration="0/1" interpolaterName="linr"  />
                </ZoomPanKeyframes>
               </ZoomPanBin>
              </Entry>
              <Entry key="CursorEffectBin">
               <CursorEffectBin id="4465"  >
                <CursorEffectKeyframes>
                </CursorEffectKeyframes>
               </CursorEffectBin>
              </Entry>
             </ExtraData>
            </ScreenVMFile>
            <MetaData>
             <entry key="AutoAppliedSmartFocus" val="False"/>
             <entry key="WinSubProjectDisplayName" val=""/>
            </MetaData>
           </UnifiedMedia>
           <UnifiedMedia id="4466"  >
            <AMFile id="4467" start="1649" duration="123" scalar="1/1" mediaStart="10268/1" mediaDuration="123/1" trackNumber="1" src="9" channelNumber="0,1" >
             <Parameters>
              <InterpolatingParam id="4468" interp="linr"  time="0/1" value="1" leadInLength="0/1"  name="volume"/>
              <Parameter id="4469"  name="captions"/>
             </Parameters>
             <Attributes>
              <Attribute id="4470" value="" name="ident"/>
              <Attribute id="4471" value="44100" name="sampleRate"/>
              <Attribute id="4472" value="16" name="bitDepth"/>
              <Attribute id="4473" value="1" name="gain"/>
              <Attribute id="4474" value="0" name="mixToMono"/>
             </Attributes>
            </AMFile>
            <ScreenVMFile id="4475" start="1649" duration="123" scalar="1/1" mediaStart="10268/1" mediaDuration="123/1" trackNumber="0" src="9" >
             <Transformer>
              <VectorParam id="4476"  name="translation">
               <InterpolatingParam id="4477" interp="linr"  time="-9999999/1" value="0" leadInLength="0/1"  />
               <InterpolatingParam id="4478" interp="linr"  time="-9999999/1" value="0" leadInLength="0/1"  />
               <InterpolatingParam id="4479" interp="linr"  time="-9999999/1" value="0" leadInLength="0/1"  />
              </VectorParam>
              <VectorParam id="4480"  name="rotation">
               <InterpolatingParam id="4481" interp="linr"  time="-9999999/1" value="0" leadInLength="0/1"  />
               <InterpolatingParam id="4482" interp="linr"  time="-9999999/1" value="0" leadInLength="0/1"  />
               <InterpolatingParam id="4483" interp="linr"  time="-9999999/1" value="0" leadInLength="0/1"  />
              </VectorParam>
              <VectorParam id="4484"  name="shear">
               <InterpolatingParam id="4485" interp="linr"  time="-9999999/1" value="0" leadInLength="0/1"  />
               <InterpolatingParam id="4486" interp="linr"  time="-9999999/1" value="0" leadInLength="0/1"  />
               <InterpolatingParam id="4487" interp="linr"  time="-9999999/1" value="0" leadInLength="0/1"  />
              </VectorParam>
              <VectorParam id="4488"  name="scale">
               <InterpolatingParam id="4489" interp="linr"  time="-9999999/1" value="1" leadInLength="0/1"  />
               <InterpolatingParam id="4490" interp="linr"  time="-9999999/1" value="1" leadInLength="0/1"  />
               <InterpolatingParam id="4491" interp="linr"  time="-9999999/1" value="1" leadInLength="0/1"  />
              </VectorParam>
              <VectorParam id="4492"  name="anchor">
               <InterpolatingParam id="4493" interp="linr"  time="0/1" value="0" leadInLength="0/1"  />
               <InterpolatingParam id="4494" interp="linr"  time="0/1" value="0" leadInLength="0/1"  />
               <InterpolatingParam id="4495" interp="linr"  time="0/1" value="0" leadInLength="0/1"  />
              </VectorParam>
             </Transformer>
             <Parameters>
              <VectorParam id="4496"  name="sourceCrop">
               <InterpolatingParam id="4497" interp="linr"  time="0/1" value="0" leadInLength="0/1"  />
               <InterpolatingParam id="4498" interp="linr"  time="0/1" value="0" leadInLength="0/1"  />
               <InterpolatingParam id="4499" interp="linr"  time="0/1" value="0" leadInLength="0/1"  />
               <InterpolatingParam id="4500" interp="linr"  time="0/1" value="0" leadInLength="0/1"  />
              </VectorParam>
              <VectorParam id="4501"  name="geometryCrop">
               <InterpolatingParam id="4502" interp="linr"  time="-9999999/1" value="0" leadInLength="0/1"  />
               <InterpolatingParam id="4503" interp="linr"  time="-9999999/1" value="0" leadInLength="0/1"  />
               <InterpolatingParam id="4504" interp="linr"  time="-9999999/1" value="0" leadInLength="0/1"  />
               <InterpolatingParam id="4505" interp="linr"  time="-9999999/1" value="0" leadInLength="0/1"  />
              </VectorParam>
              <InterpolatingParam id="4506" interp="linr"  time="-9999999/1" value="1" leadInLength="0/1"  name="opacity"/>
              <InterpolatingParam id="4507" interp="linr"  time="0/1" value="0" leadInLength="0/1"  name="cursorOpacity"/>
              <InterpolatingParam id="4508" interp="linr"  time="0/1" value="0" leadInLength="0/1"  name="cursorScale"/>
             </Parameters>
             <Attributes>
              <Attribute id="4509" value="" name="ident"/>
             </Attributes>
             <ExtraData>
              <Entry key="ZoomPanBin">
               <ZoomPanBin id="4510"  >
                <ZoomPanKeyframes>
                 <ZoomPanKeyframe id="4511" timeRangeEnd="-9999999/1" timeRangeDuration="0/1" interpolaterName="linr"  />
                </ZoomPanKeyframes>
               </ZoomPanBin>
              </Entry>
              <Entry key="CursorEffectBin">
               <CursorEffectBin id="4512"  >
                <CursorEffectKeyframes>
                </CursorEffectKeyframes>
               </CursorEffectBin>
              </Entry>
             </ExtraData>
            </ScreenVMFile>
            <MetaData>
             <entry key="AutoAppliedSmartFocus" val="False"/>
             <entry key="WinSubProjectDisplayName" val=""/>
            </MetaData>
           </UnifiedMedia>
           <UnifiedMedia id="4513"  >
            <AMFile id="4514" start="1772" duration="114" scalar="1/1" mediaStart="11013/1" mediaDuration="114/1" trackNumber="1" src="9" channelNumber="0,1" >
             <Parameters>
              <InterpolatingParam id="4515" interp="linr"  time="0/1" value="1" leadInLength="0/1"  name="volume"/>
              <Parameter id="4516"  name="captions"/>
             </Parameters>
             <Attributes>
              <Attribute id="4517" value="" name="ident"/>
              <Attribute id="4518" value="44100" name="sampleRate"/>
              <Attribute id="4519" value="16" name="bitDepth"/>
              <Attribute id="4520" value="1" name="gain"/>
              <Attribute id="4521" value="0" name="mixToMono"/>
             </Attributes>
            </AMFile>
            <ScreenVMFile id="4522" start="1772" duration="114" scalar="1/1" mediaStart="11013/1" mediaDuration="114/1" trackNumber="0" src="9" >
             <Transformer>
              <VectorParam id="4523"  name="translation">
               <InterpolatingParam id="4524" interp="linr"  time="-9999999/1" value="0" leadInLength="0/1"  />
               <InterpolatingParam id="4525" interp="linr"  time="-9999999/1" value="0" leadInLength="0/1"  />
               <InterpolatingParam id="4526" interp="linr"  time="-9999999/1" value="0" leadInLength="0/1"  />
              </VectorParam>
              <VectorParam id="4527"  name="rotation">
               <InterpolatingParam id="4528" interp="linr"  time="-9999999/1" value="0" leadInLength="0/1"  />
               <InterpolatingParam id="4529" interp="linr"  time="-9999999/1" value="0" leadInLength="0/1"  />
               <InterpolatingParam id="4530" interp="linr"  time="-9999999/1" value="0" leadInLength="0/1"  />
              </VectorParam>
              <VectorParam id="4531"  name="shear">
               <InterpolatingParam id="4532" interp="linr"  time="-9999999/1" value="0" leadInLength="0/1"  />
               <InterpolatingParam id="4533" interp="linr"  time="-9999999/1" value="0" leadInLength="0/1"  />
               <InterpolatingParam id="4534" interp="linr"  time="-9999999/1" value="0" leadInLength="0/1"  />
              </VectorParam>
              <VectorParam id="4535"  name="scale">
               <InterpolatingParam id="4536" interp="linr"  time="-9999999/1" value="1" leadInLength="0/1"  />
               <InterpolatingParam id="4537" interp="linr"  time="-9999999/1" value="1" leadInLength="0/1"  />
               <InterpolatingParam id="4538" interp="linr"  time="-9999999/1" value="1" leadInLength="0/1"  />
              </VectorParam>
              <VectorParam id="4539"  name="anchor">
               <InterpolatingParam id="4540" interp="linr"  time="0/1" value="0" leadInLength="0/1"  />
               <InterpolatingParam id="4541" interp="linr"  time="0/1" value="0" leadInLength="0/1"  />
               <InterpolatingParam id="4542" interp="linr"  time="0/1" value="0" leadInLength="0/1"  />
              </VectorParam>
             </Transformer>
             <Parameters>
              <VectorParam id="4543"  name="sourceCrop">
               <InterpolatingParam id="4544" interp="linr"  time="0/1" value="0" leadInLength="0/1"  />
               <InterpolatingParam id="4545" interp="linr"  time="0/1" value="0" leadInLength="0/1"  />
               <InterpolatingParam id="4546" interp="linr"  time="0/1" value="0" leadInLength="0/1"  />
               <InterpolatingParam id="4547" interp="linr"  time="0/1" value="0" leadInLength="0/1"  />
              </VectorParam>
              <VectorParam id="4548"  name="geometryCrop">
               <InterpolatingParam id="4549" interp="linr"  time="-9999999/1" value="0" leadInLength="0/1"  />
               <InterpolatingParam id="4550" interp="linr"  time="-9999999/1" value="0" leadInLength="0/1"  />
               <InterpolatingParam id="4551" interp="linr"  time="-9999999/1" value="0" leadInLength="0/1"  />
               <InterpolatingParam id="4552" interp="linr"  time="-9999999/1" value="0" leadInLength="0/1"  />
              </VectorParam>
              <InterpolatingParam id="4553" interp="linr"  time="-9999999/1" value="1" leadInLength="0/1"  name="opacity"/>
              <InterpolatingParam id="4554" interp="linr"  time="0/1" value="0" leadInLength="0/1"  name="cursorOpacity"/>
              <InterpolatingParam id="4555" interp="linr"  time="0/1" value="0" leadInLength="0/1"  name="cursorScale"/>
             </Parameters>
             <Attributes>
              <Attribute id="4556" value="" name="ident"/>
             </Attributes>
             <ExtraData>
              <Entry key="ZoomPanBin">
               <ZoomPanBin id="4557"  >
                <ZoomPanKeyframes>
                 <ZoomPanKeyframe id="4558" timeRangeEnd="-9999999/1" timeRangeDuration="0/1" interpolaterName="linr"  />
                </ZoomPanKeyframes>
               </ZoomPanBin>
              </Entry>
              <Entry key="CursorEffectBin">
               <CursorEffectBin id="4559"  >
                <CursorEffectKeyframes>
                </CursorEffectKeyframes>
               </CursorEffectBin>
              </Entry>
             </ExtraData>
            </ScreenVMFile>
            <MetaData>
             <entry key="AutoAppliedSmartFocus" val="False"/>
             <entry key="WinSubProjectDisplayName" val=""/>
            </MetaData>
           </UnifiedMedia>
           <UnifiedMedia id="4560"  >
            <AMFile id="4561" start="1886" duration="122" scalar="1/1" mediaStart="11817/1" mediaDuration="122/1" trackNumber="1" src="9" channelNumber="0,1" >
             <Parameters>
              <InterpolatingParam id="4562" interp="linr"  time="0/1" value="1" leadInLength="0/1"  name="volume"/>
              <Parameter id="4563"  name="captions"/>
             </Parameters>
             <Attributes>
              <Attribute id="4564" value="" name="ident"/>
              <Attribute id="4565" value="44100" name="sampleRate"/>
              <Attribute id="4566" value="16" name="bitDepth"/>
              <Attribute id="4567" value="1" name="gain"/>
              <Attribute id="4568" value="0" name="mixToMono"/>
             </Attributes>
            </AMFile>
            <ScreenVMFile id="4569" start="1886" duration="122" scalar="1/1" mediaStart="11817/1" mediaDuration="122/1" trackNumber="0" src="9" >
             <Transformer>
              <VectorParam id="4570"  name="translation">
               <InterpolatingParam id="4571" interp="linr"  time="-9999999/1" value="0" leadInLength="0/1"  />
               <InterpolatingParam id="4572" interp="linr"  time="-9999999/1" value="0" leadInLength="0/1"  />
               <InterpolatingParam id="4573" interp="linr"  time="-9999999/1" value="0" leadInLength="0/1"  />
              </VectorParam>
              <VectorParam id="4574"  name="rotation">
               <InterpolatingParam id="4575" interp="linr"  time="-9999999/1" value="0" leadInLength="0/1"  />
               <InterpolatingParam id="4576" interp="linr"  time="-9999999/1" value="0" leadInLength="0/1"  />
               <InterpolatingParam id="4577" interp="linr"  time="-9999999/1" value="0" leadInLength="0/1"  />
              </VectorParam>
              <VectorParam id="4578"  name="shear">
               <InterpolatingParam id="4579" interp="linr"  time="-9999999/1" value="0" leadInLength="0/1"  />
               <InterpolatingParam id="4580" interp="linr"  time="-9999999/1" value="0" leadInLength="0/1"  />
               <InterpolatingParam id="4581" interp="linr"  time="-9999999/1" value="0" leadInLength="0/1"  />
              </VectorParam>
              <VectorParam id="4582"  name="scale">
               <InterpolatingParam id="4583" interp="linr"  time="-9999999/1" value="1" leadInLength="0/1"  />
               <InterpolatingParam id="4584" interp="linr"  time="-9999999/1" value="1" leadInLength="0/1"  />
               <InterpolatingParam id="4585" interp="linr"  time="-9999999/1" value="1" leadInLength="0/1"  />
              </VectorParam>
              <VectorParam id="4586"  name="anchor">
               <InterpolatingParam id="4587" interp="linr"  time="0/1" value="0" leadInLength="0/1"  />
               <InterpolatingParam id="4588" interp="linr"  time="0/1" value="0" leadInLength="0/1"  />
               <InterpolatingParam id="4589" interp="linr"  time="0/1" value="0" leadInLength="0/1"  />
              </VectorParam>
             </Transformer>
             <Parameters>
              <VectorParam id="4590"  name="sourceCrop">
               <InterpolatingParam id="4591" interp="linr"  time="0/1" value="0" leadInLength="0/1"  />
               <InterpolatingParam id="4592" interp="linr"  time="0/1" value="0" leadInLength="0/1"  />
               <InterpolatingParam id="4593" interp="linr"  time="0/1" value="0" leadInLength="0/1"  />
               <InterpolatingParam id="4594" interp="linr"  time="0/1" value="0" leadInLength="0/1"  />
              </VectorParam>
              <VectorParam id="4595"  name="geometryCrop">
               <InterpolatingParam id="4596" interp="linr"  time="-9999999/1" value="0" leadInLength="0/1"  />
               <InterpolatingParam id="4597" interp="linr"  time="-9999999/1" value="0" leadInLength="0/1"  />
               <InterpolatingParam id="4598" interp="linr"  time="-9999999/1" value="0" leadInLength="0/1"  />
               <InterpolatingParam id="4599" interp="linr"  time="-9999999/1" value="0" leadInLength="0/1"  />
              </VectorParam>
              <InterpolatingParam id="4600" interp="linr"  time="-9999999/1" value="1" leadInLength="0/1"  name="opacity"/>
              <InterpolatingParam id="4601" interp="linr"  time="0/1" value="0" leadInLength="0/1"  name="cursorOpacity"/>
              <InterpolatingParam id="4602" interp="linr"  time="0/1" value="0" leadInLength="0/1"  name="cursorScale"/>
             </Parameters>
             <Attributes>
              <Attribute id="4603" value="" name="ident"/>
             </Attributes>
             <ExtraData>
              <Entry key="ZoomPanBin">
               <ZoomPanBin id="4604"  >
                <ZoomPanKeyframes>
                 <ZoomPanKeyframe id="4605" timeRangeEnd="-9999999/1" timeRangeDuration="0/1" interpolaterName="linr"  />
                </ZoomPanKeyframes>
               </ZoomPanBin>
              </Entry>
              <Entry key="CursorEffectBin">
               <CursorEffectBin id="4606"  >
                <CursorEffectKeyframes>
                </CursorEffectKeyframes>
               </CursorEffectBin>
              </Entry>
             </ExtraData>
            </ScreenVMFile>
            <MetaData>
             <entry key="AutoAppliedSmartFocus" val="False"/>
             <entry key="WinSubProjectDisplayName" val=""/>
            </MetaData>
           </UnifiedMedia>
          </Medias>
         </GenericTrack>
        </StitchedMedia>
        <StitchedMedia id="4607" start="13341" duration="1167" scalar="1/1" mediaStart="141/1" mediaDuration="1167/1" minMediaStart="0/1" >
         <Transformer>
          <VectorParam id="4608"  name="translation">
           <InterpolatingParam id="4609" interp="linr"  time="-9999999/1" value="1.1266395224159941e-010" leadInLength="0/1"  />
           <InterpolatingParam id="4610" interp="linr"  time="-9999999/1" value="-2.3916868485684972e-011" leadInLength="0/1"  />
           <InterpolatingParam id="4611" interp="linr"  time="-9999999/1" value="0" leadInLength="0/1"  />
          </VectorParam>
          <VectorParam id="4612"  name="rotation">
           <InterpolatingParam id="4613" interp="linr"  time="-9999999/1" value="0" leadInLength="0/1"  />
           <InterpolatingParam id="4614" interp="linr"  time="-9999999/1" value="0" leadInLength="0/1"  />
           <InterpolatingParam id="4615" interp="linr"  time="-9999999/1" value="0" leadInLength="0/1"  />
          </VectorParam>
          <VectorParam id="4616"  name="shear">
           <InterpolatingParam id="4617" interp="linr"  time="-9999999/1" value="0" leadInLength="0/1"  />
           <InterpolatingParam id="4618" interp="linr"  time="-9999999/1" value="0" leadInLength="0/1"  />
           <InterpolatingParam id="4619" interp="linr"  time="-9999999/1" value="0" leadInLength="0/1"  />
          </VectorParam>
          <VectorParam id="4620"  name="scale">
           <InterpolatingParam id="4621" interp="linr"  time="-9999999/1" value="0.70833333333333337" leadInLength="0/1"  />
           <InterpolatingParam id="4622" interp="linr"  time="-9999999/1" value="0.70833333333333337" leadInLength="0/1"  />
           <InterpolatingParam id="4623" interp="linr"  time="-9999999/1" value="1" leadInLength="0/1"  />
          </VectorParam>
          <VectorParam id="4624"  name="anchor">
           <InterpolatingParam id="4625" interp="linr"  time="0/1" value="0" leadInLength="0/1"  />
           <InterpolatingParam id="4626" interp="linr"  time="0/1" value="0" leadInLength="0/1"  />
           <InterpolatingParam id="4627" interp="linr"  time="0/1" value="0" leadInLength="0/1"  />
          </VectorParam>
         </Transformer>
         <Parameters>
          <VectorParam id="4628"  name="sourceCrop">
           <InterpolatingParam id="4629" interp="linr"  time="0/1" value="0" leadInLength="0/1"  />
           <InterpolatingParam id="4630" interp="linr"  time="0/1" value="0" leadInLength="0/1"  />
           <InterpolatingParam id="4631" interp="linr"  time="0/1" value="0" leadInLength="0/1"  />
           <InterpolatingParam id="4632" interp="linr"  time="0/1" value="0" leadInLength="0/1"  />
          </VectorParam>
          <VectorParam id="4633"  name="geometryCrop">
           <InterpolatingParam id="4634" interp="linr"  time="-9999999/1" value="0" leadInLength="0/1"  />
           <InterpolatingParam id="4635" interp="linr"  time="-9999999/1" value="0" leadInLength="0/1"  />
           <InterpolatingParam id="4636" interp="linr"  time="-9999999/1" value="0" leadInLength="0/1"  />
           <InterpolatingParam id="4637" interp="linr"  time="-9999999/1" value="0" leadInLength="0/1"  />
          </VectorParam>
          <InterpolatingParam id="4638" interp="linr"  time="-9999999/1" value="1" leadInLength="0/1"  name="opacity"/>
          <InterpolatingParam id="4639" interp="linr"  time="0/1" value="1" leadInLength="0/1"  name="cursorOpacity"/>
          <InterpolatingParam id="4640" interp="linr"  time="0/1" value="1" leadInLength="0/1"  name="cursorScale"/>
          <InterpolatingParam id="4641" interp="linr"  name="volume">
           <Keyframes>
           <Keyframe id="4642"  time="0/1" value="1" leadInLength="0/1"  />
           <Keyframe id="4643"  time="140/1" value="1" leadInLength="0/1"  />
           <Keyframe id="4644"  time="141/1" value="3.4024577572964638" leadInLength="0/1"  />
           <Keyframe id="4645"  time="1308/1" value="3.4024577572964638" leadInLength="0/1"  />
           <Keyframe id="4646"  time="1309/1" value="1" leadInLength="0/1"  />
           </Keyframes>
          </InterpolatingParam>
          <Parameter id="4647"  name="captions"/>
         </Parameters>
         <Effects>
          <GenericEffect id="4648" name = "CursorBaseEffectName" >
           <Parameters>
           <InterpolatingParam id="4649" interp="linr"  time="-9999999/1" value="1" leadInLength="0/1"   name="cursorSize"/>
           <InterpolatingParam id="4650" interp="linr"  time="-9999999/1" value="0" leadInLength="0/1"   name="highlightBlurRadius"/>
           <InterpolatingParam id="4651" interp="linr"  time="-9999999/1" value="0" leadInLength="0/1"   name="highlightColorBlue"/>
           <InterpolatingParam id="4652" interp="linr"  time="-9999999/1" value="255" leadInLength="0/1"   name="highlightColorGreen"/>
           <InterpolatingParam id="4653" interp="linr"  time="-9999999/1" value="255" leadInLength="0/1"   name="highlightColorRed"/>
           <InterpolatingParam id="4654" interp="linr"  time="-9999999/1" value="5" leadInLength="0/1"   name="highlightFeatherSize"/>
           <InterpolatingParam id="4655" interp="linr"  time="-9999999/1" value="2" leadInLength="0/1"   name="highlightMagnification"/>
           <InterpolatingParam id="4656" interp="linr"  time="-9999999/1" value="60" leadInLength="0/1"   name="highlightOpacity"/>
           <InterpolatingParam id="4657" interp="linr"  time="-9999999/1" value="45" leadInLength="0/1"   name="highlightSize"/>
           <Parameter id="4658"   name="highlightType">
            <Keyframes>
            <Keyframe id="4659"  time="-9999999/1" value="4" leadInLength="0/1"  />
            </Keyframes>
           </Parameter>
           <InterpolatingParam id="4660" interp="linr"  time="-9999999/1" value="0" leadInLength="0/1"   name="leftClickColorBlue"/>
           <InterpolatingParam id="4661" interp="linr"  time="-9999999/1" value="0" leadInLength="0/1"   name="leftClickColorGreen"/>
           <InterpolatingParam id="4662" interp="linr"  time="-9999999/1" value="255" leadInLength="0/1"   name="leftClickColorRed"/>
           <InterpolatingParam id="4663" interp="linr"  time="-9999999/1" value="0.80000000000000004" leadInLength="0/1"   name="leftClickDuration"/>
           <InterpolatingParam id="4664" interp="linr"  time="-9999999/1" value="20" leadInLength="0/1"   name="leftClickSize"/>
           <Parameter id="4665"   name="leftClickSoundFilename">
            <Keyframes>
            <Keyframe id="4666"  time="-9999999/1" value="" leadInLength="0/1"  />
            </Keyframes>
           </Parameter>
           <InterpolatingParam id="4667" interp="linr"  time="-9999999/1" value="1" leadInLength="0/1"   name="leftClickSoundVolume"/>
           <Parameter id="4668"   name="leftClickType">
            <Keyframes>
            <Keyframe id="4669"  time="-9999999/1" value="0" leadInLength="0/1"  />
            </Keyframes>
           </Parameter>
           <InterpolatingParam id="4670" interp="linr"  time="-9999999/1" value="1" leadInLength="0/1"   name="opacity"/>
           <InterpolatingParam id="4671" interp="linr"  time="-9999999/1" value="255" leadInLength="0/1"   name="rightClickColorBlue"/>
           <InterpolatingParam id="4672" interp="linr"  time="-9999999/1" value="0" leadInLength="0/1"   name="rightClickColorGreen"/>
           <InterpolatingParam id="4673" interp="linr"  time="-9999999/1" value="0" leadInLength="0/1"   name="rightClickColorRed"/>
           <InterpolatingParam id="4674" interp="linr"  time="-9999999/1" value="0.80000000000000004" leadInLength="0/1"   name="rightClickDuration"/>
           <InterpolatingParam id="4675" interp="linr"  time="-9999999/1" value="20" leadInLength="0/1"   name="rightClickSize"/>
           <Parameter id="4676"   name="rightClickSoundFilename">
            <Keyframes>
            <Keyframe id="4677"  time="-9999999/1" value="" leadInLength="0/1"  />
            </Keyframes>
           </Parameter>
           <InterpolatingParam id="4678" interp="linr"  time="-9999999/1" value="1" leadInLength="0/1"   name="rightClickSoundVolume"/>
           <Parameter id="4679"   name="rightClickType">
            <Keyframes>
            <Keyframe id="4680"  time="-9999999/1" value="0" leadInLength="0/1"  />
            </Keyframes>
           </Parameter>
           </Parameters>
           <MetaData>
            <entry key="effectIndex" val="0"/>
           </MetaData>
          </GenericEffect>
         </Effects>
         <Attributes>
          <Attribute id="4681" value="" name="ident"/>
          <Attribute id="4682" value="0" name="mixToMono"/>
         </Attributes>
         <MetaData>
          <entry key="AutoAppliedSmartFocus" val="False"/>
          <entry key="WinSubProjectDisplayName" val=""/>
         </MetaData>
         <ExtraData>
          <Entry key="ZoomPanBin">
           <ZoomPanBin id="4683"  >
            <ZoomPanKeyframes>
             <ZoomPanKeyframe id="4684" timeRangeEnd="-9999999/1" timeRangeDuration="0/1" interpolaterName="linr"  />
            </ZoomPanKeyframes>
           </ZoomPanBin>
          </Entry>
          <Entry key="CursorEffectBin">
           <CursorEffectBin id="4685"  >
            <CursorEffectKeyframes>
             <CursorEffectKeyframe id="4686" timeRangeEnd="-9999999/1" timeRangeDuration="0/1" interpolaterName=""  />
            </CursorEffectKeyframes>
           </CursorEffectBin>
          </Entry>
         </ExtraData>
         <GenericTrack id="4687"  >
          <Attributes>
           <Attribute id="4688" value="" name="ident"/>
           <Attribute id="4689" value="0" name="audioMuted"/>
           <Attribute id="4690" value="0" name="videoHidden"/>
          </Attributes>
          <MetaData>
           <entry key="IsLocked" val="False"/>
           <entry key="WinTrackHeight" val="0"/>
          </MetaData>
          <Medias>
           <UnifiedMedia id="4691"  >
            <AMFile id="4692" start="0" duration="267" scalar="1/1" mediaStart="0/1" mediaDuration="267/1" trackNumber="1" src="10" channelNumber="0,1" >
             <Parameters>
              <InterpolatingParam id="4693" interp="linr"  time="0/1" value="1" leadInLength="0/1"  name="volume"/>
              <Parameter id="4694"  name="captions"/>
             </Parameters>
             <Attributes>
              <Attribute id="4695" value="" name="ident"/>
              <Attribute id="4696" value="44100" name="sampleRate"/>
              <Attribute id="4697" value="16" name="bitDepth"/>
              <Attribute id="4698" value="1" name="gain"/>
              <Attribute id="4699" value="0" name="mixToMono"/>
             </Attributes>
            </AMFile>
            <ScreenVMFile id="4700" start="0" duration="267" scalar="1/1" mediaStart="0/1" mediaDuration="267/1" trackNumber="0" src="10" >
             <Transformer>
              <VectorParam id="4701"  name="translation">
               <InterpolatingParam id="4702" interp="linr"  time="-9999999/1" value="0" leadInLength="0/1"  />
               <InterpolatingParam id="4703" interp="linr"  time="-9999999/1" value="0" leadInLength="0/1"  />
               <InterpolatingParam id="4704" interp="linr"  time="-9999999/1" value="0" leadInLength="0/1"  />
              </VectorParam>
              <VectorParam id="4705"  name="rotation">
               <InterpolatingParam id="4706" interp="linr"  time="-9999999/1" value="0" leadInLength="0/1"  />
               <InterpolatingParam id="4707" interp="linr"  time="-9999999/1" value="0" leadInLength="0/1"  />
               <InterpolatingParam id="4708" interp="linr"  time="-9999999/1" value="0" leadInLength="0/1"  />
              </VectorParam>
              <VectorParam id="4709"  name="shear">
               <InterpolatingParam id="4710" interp="linr"  time="-9999999/1" value="0" leadInLength="0/1"  />
               <InterpolatingParam id="4711" interp="linr"  time="-9999999/1" value="0" leadInLength="0/1"  />
               <InterpolatingParam id="4712" interp="linr"  time="-9999999/1" value="0" leadInLength="0/1"  />
              </VectorParam>
              <VectorParam id="4713"  name="scale">
               <InterpolatingParam id="4714" interp="linr"  time="-9999999/1" value="1" leadInLength="0/1"  />
               <InterpolatingParam id="4715" interp="linr"  time="-9999999/1" value="1" leadInLength="0/1"  />
               <InterpolatingParam id="4716" interp="linr"  time="-9999999/1" value="1" leadInLength="0/1"  />
              </VectorParam>
              <VectorParam id="4717"  name="anchor">
               <InterpolatingParam id="4718" interp="linr"  time="0/1" value="0" leadInLength="0/1"  />
               <InterpolatingParam id="4719" interp="linr"  time="0/1" value="0" leadInLength="0/1"  />
               <InterpolatingParam id="4720" interp="linr"  time="0/1" value="0" leadInLength="0/1"  />
              </VectorParam>
             </Transformer>
             <Parameters>
              <VectorParam id="4721"  name="sourceCrop">
               <InterpolatingParam id="4722" interp="linr"  time="0/1" value="0" leadInLength="0/1"  />
               <InterpolatingParam id="4723" interp="linr"  time="0/1" value="0" leadInLength="0/1"  />
               <InterpolatingParam id="4724" interp="linr"  time="0/1" value="0" leadInLength="0/1"  />
               <InterpolatingParam id="4725" interp="linr"  time="0/1" value="0" leadInLength="0/1"  />
              </VectorParam>
              <VectorParam id="4726"  name="geometryCrop">
               <InterpolatingParam id="4727" interp="linr"  time="-9999999/1" value="0" leadInLength="0/1"  />
               <InterpolatingParam id="4728" interp="linr"  time="-9999999/1" value="0" leadInLength="0/1"  />
               <InterpolatingParam id="4729" interp="linr"  time="-9999999/1" value="0" leadInLength="0/1"  />
               <InterpolatingParam id="4730" interp="linr"  time="-9999999/1" value="0" leadInLength="0/1"  />
              </VectorParam>
              <InterpolatingParam id="4731" interp="linr"  time="-9999999/1" value="1" leadInLength="0/1"  name="opacity"/>
              <InterpolatingParam id="4732" interp="linr"  time="0/1" value="0" leadInLength="0/1"  name="cursorOpacity"/>
              <InterpolatingParam id="4733" interp="linr"  time="0/1" value="0" leadInLength="0/1"  name="cursorScale"/>
             </Parameters>
             <Attributes>
              <Attribute id="4734" value="" name="ident"/>
             </Attributes>
             <ExtraData>
              <Entry key="ZoomPanBin">
               <ZoomPanBin id="4735"  >
                <ZoomPanKeyframes>
                 <ZoomPanKeyframe id="4736" timeRangeEnd="-9999999/1" timeRangeDuration="0/1" interpolaterName="linr"  />
                </ZoomPanKeyframes>
               </ZoomPanBin>
              </Entry>
              <Entry key="CursorEffectBin">
               <CursorEffectBin id="4737"  >
                <CursorEffectKeyframes>
                </CursorEffectKeyframes>
               </CursorEffectBin>
              </Entry>
             </ExtraData>
            </ScreenVMFile>
            <MetaData>
             <entry key="AutoAppliedSmartFocus" val="False"/>
             <entry key="WinSubProjectDisplayName" val=""/>
            </MetaData>
           </UnifiedMedia>
           <UnifiedMedia id="4738"  >
            <AMFile id="4739" start="267" duration="128" scalar="1/1" mediaStart="512/1" mediaDuration="128/1" trackNumber="1" src="10" channelNumber="0,1" >
             <Parameters>
              <InterpolatingParam id="4740" interp="linr"  time="0/1" value="1" leadInLength="0/1"  name="volume"/>
              <Parameter id="4741"  name="captions"/>
             </Parameters>
             <Attributes>
              <Attribute id="4742" value="" name="ident"/>
              <Attribute id="4743" value="44100" name="sampleRate"/>
              <Attribute id="4744" value="16" name="bitDepth"/>
              <Attribute id="4745" value="1" name="gain"/>
              <Attribute id="4746" value="0" name="mixToMono"/>
             </Attributes>
            </AMFile>
            <ScreenVMFile id="4747" start="267" duration="128" scalar="1/1" mediaStart="512/1" mediaDuration="128/1" trackNumber="0" src="10" >
             <Transformer>
              <VectorParam id="4748"  name="translation">
               <InterpolatingParam id="4749" interp="linr"  time="-9999999/1" value="0" leadInLength="0/1"  />
               <InterpolatingParam id="4750" interp="linr"  time="-9999999/1" value="0" leadInLength="0/1"  />
               <InterpolatingParam id="4751" interp="linr"  time="-9999999/1" value="0" leadInLength="0/1"  />
              </VectorParam>
              <VectorParam id="4752"  name="rotation">
               <InterpolatingParam id="4753" interp="linr"  time="-9999999/1" value="0" leadInLength="0/1"  />
               <InterpolatingParam id="4754" interp="linr"  time="-9999999/1" value="0" leadInLength="0/1"  />
               <InterpolatingParam id="4755" interp="linr"  time="-9999999/1" value="0" leadInLength="0/1"  />
              </VectorParam>
              <VectorParam id="4756"  name="shear">
               <InterpolatingParam id="4757" interp="linr"  time="-9999999/1" value="0" leadInLength="0/1"  />
               <InterpolatingParam id="4758" interp="linr"  time="-9999999/1" value="0" leadInLength="0/1"  />
               <InterpolatingParam id="4759" interp="linr"  time="-9999999/1" value="0" leadInLength="0/1"  />
              </VectorParam>
              <VectorParam id="4760"  name="scale">
               <InterpolatingParam id="4761" interp="linr"  time="-9999999/1" value="1" leadInLength="0/1"  />
               <InterpolatingParam id="4762" interp="linr"  time="-9999999/1" value="1" leadInLength="0/1"  />
               <InterpolatingParam id="4763" interp="linr"  time="-9999999/1" value="1" leadInLength="0/1"  />
              </VectorParam>
              <VectorParam id="4764"  name="anchor">
               <InterpolatingParam id="4765" interp="linr"  time="0/1" value="0" leadInLength="0/1"  />
               <InterpolatingParam id="4766" interp="linr"  time="0/1" value="0" leadInLength="0/1"  />
               <InterpolatingParam id="4767" interp="linr"  time="0/1" value="0" leadInLength="0/1"  />
              </VectorParam>
             </Transformer>
             <Parameters>
              <VectorParam id="4768"  name="sourceCrop">
               <InterpolatingParam id="4769" interp="linr"  time="0/1" value="0" leadInLength="0/1"  />
               <InterpolatingParam id="4770" interp="linr"  time="0/1" value="0" leadInLength="0/1"  />
               <InterpolatingParam id="4771" interp="linr"  time="0/1" value="0" leadInLength="0/1"  />
               <InterpolatingParam id="4772" interp="linr"  time="0/1" value="0" leadInLength="0/1"  />
              </VectorParam>
              <VectorParam id="4773"  name="geometryCrop">
               <InterpolatingParam id="4774" interp="linr"  time="-9999999/1" value="0" leadInLength="0/1"  />
               <InterpolatingParam id="4775" interp="linr"  time="-9999999/1" value="0" leadInLength="0/1"  />
               <InterpolatingParam id="4776" interp="linr"  time="-9999999/1" value="0" leadInLength="0/1"  />
               <InterpolatingParam id="4777" interp="linr"  time="-9999999/1" value="0" leadInLength="0/1"  />
              </VectorParam>
              <InterpolatingParam id="4778" interp="linr"  time="-9999999/1" value="1" leadInLength="0/1"  name="opacity"/>
              <InterpolatingParam id="4779" interp="linr"  time="0/1" value="0" leadInLength="0/1"  name="cursorOpacity"/>
              <InterpolatingParam id="4780" interp="linr"  time="0/1" value="0" leadInLength="0/1"  name="cursorScale"/>
             </Parameters>
             <Attributes>
              <Attribute id="4781" value="" name="ident"/>
             </Attributes>
             <ExtraData>
              <Entry key="ZoomPanBin">
               <ZoomPanBin id="4782"  >
                <ZoomPanKeyframes>
                 <ZoomPanKeyframe id="4783" timeRangeEnd="-9999999/1" timeRangeDuration="0/1" interpolaterName="linr"  />
                </ZoomPanKeyframes>
               </ZoomPanBin>
              </Entry>
              <Entry key="CursorEffectBin">
               <CursorEffectBin id="4784"  >
                <CursorEffectKeyframes>
                </CursorEffectKeyframes>
               </CursorEffectBin>
              </Entry>
             </ExtraData>
            </ScreenVMFile>
            <MetaData>
             <entry key="AutoAppliedSmartFocus" val="False"/>
             <entry key="WinSubProjectDisplayName" val=""/>
            </MetaData>
           </UnifiedMedia>
           <UnifiedMedia id="4785"  >
            <AMFile id="4786" start="395" duration="150" scalar="1/1" mediaStart="835/1" mediaDuration="150/1" trackNumber="1" src="10" channelNumber="0,1" >
             <Parameters>
              <InterpolatingParam id="4787" interp="linr"  time="0/1" value="1" leadInLength="0/1"  name="volume"/>
              <Parameter id="4788"  name="captions"/>
             </Parameters>
             <Attributes>
              <Attribute id="4789" value="" name="ident"/>
              <Attribute id="4790" value="44100" name="sampleRate"/>
              <Attribute id="4791" value="16" name="bitDepth"/>
              <Attribute id="4792" value="1" name="gain"/>
              <Attribute id="4793" value="0" name="mixToMono"/>
             </Attributes>
            </AMFile>
            <ScreenVMFile id="4794" start="395" duration="150" scalar="1/1" mediaStart="835/1" mediaDuration="150/1" trackNumber="0" src="10" >
             <Transformer>
              <VectorParam id="4795"  name="translation">
               <InterpolatingParam id="4796" interp="linr"  time="-9999999/1" value="0" leadInLength="0/1"  />
               <InterpolatingParam id="4797" interp="linr"  time="-9999999/1" value="0" leadInLength="0/1"  />
               <InterpolatingParam id="4798" interp="linr"  time="-9999999/1" value="0" leadInLength="0/1"  />
              </VectorParam>
              <VectorParam id="4799"  name="rotation">
               <InterpolatingParam id="4800" interp="linr"  time="-9999999/1" value="0" leadInLength="0/1"  />
               <InterpolatingParam id="4801" interp="linr"  time="-9999999/1" value="0" leadInLength="0/1"  />
               <InterpolatingParam id="4802" interp="linr"  time="-9999999/1" value="0" leadInLength="0/1"  />
              </VectorParam>
              <VectorParam id="4803"  name="shear">
               <InterpolatingParam id="4804" interp="linr"  time="-9999999/1" value="0" leadInLength="0/1"  />
               <InterpolatingParam id="4805" interp="linr"  time="-9999999/1" value="0" leadInLength="0/1"  />
               <InterpolatingParam id="4806" interp="linr"  time="-9999999/1" value="0" leadInLength="0/1"  />
              </VectorParam>
              <VectorParam id="4807"  name="scale">
               <InterpolatingParam id="4808" interp="linr"  time="-9999999/1" value="1" leadInLength="0/1"  />
               <InterpolatingParam id="4809" interp="linr"  time="-9999999/1" value="1" leadInLength="0/1"  />
               <InterpolatingParam id="4810" interp="linr"  time="-9999999/1" value="1" leadInLength="0/1"  />
              </VectorParam>
              <VectorParam id="4811"  name="anchor">
               <InterpolatingParam id="4812" interp="linr"  time="0/1" value="0" leadInLength="0/1"  />
               <InterpolatingParam id="4813" interp="linr"  time="0/1" value="0" leadInLength="0/1"  />
               <InterpolatingParam id="4814" interp="linr"  time="0/1" value="0" leadInLength="0/1"  />
              </VectorParam>
             </Transformer>
             <Parameters>
              <VectorParam id="4815"  name="sourceCrop">
               <InterpolatingParam id="4816" interp="linr"  time="0/1" value="0" leadInLength="0/1"  />
               <InterpolatingParam id="4817" interp="linr"  time="0/1" value="0" leadInLength="0/1"  />
               <InterpolatingParam id="4818" interp="linr"  time="0/1" value="0" leadInLength="0/1"  />
               <InterpolatingParam id="4819" interp="linr"  time="0/1" value="0" leadInLength="0/1"  />
              </VectorParam>
              <VectorParam id="4820"  name="geometryCrop">
               <InterpolatingParam id="4821" interp="linr"  time="-9999999/1" value="0" leadInLength="0/1"  />
               <InterpolatingParam id="4822" interp="linr"  time="-9999999/1" value="0" leadInLength="0/1"  />
               <InterpolatingParam id="4823" interp="linr"  time="-9999999/1" value="0" leadInLength="0/1"  />
               <InterpolatingParam id="4824" interp="linr"  time="-9999999/1" value="0" leadInLength="0/1"  />
              </VectorParam>
              <InterpolatingParam id="4825" interp="linr"  time="-9999999/1" value="1" leadInLength="0/1"  name="opacity"/>
              <InterpolatingParam id="4826" interp="linr"  time="0/1" value="0" leadInLength="0/1"  name="cursorOpacity"/>
              <InterpolatingParam id="4827" interp="linr"  time="0/1" value="0" leadInLength="0/1"  name="cursorScale"/>
             </Parameters>
             <Attributes>
              <Attribute id="4828" value="" name="ident"/>
             </Attributes>
             <ExtraData>
              <Entry key="ZoomPanBin">
               <ZoomPanBin id="4829"  >
                <ZoomPanKeyframes>
                 <ZoomPanKeyframe id="4830" timeRangeEnd="-9999999/1" timeRangeDuration="0/1" interpolaterName="linr"  />
                </ZoomPanKeyframes>
               </ZoomPanBin>
              </Entry>
              <Entry key="CursorEffectBin">
               <CursorEffectBin id="4831"  >
                <CursorEffectKeyframes>
                </CursorEffectKeyframes>
               </CursorEffectBin>
              </Entry>
             </ExtraData>
            </ScreenVMFile>
            <MetaData>
             <entry key="AutoAppliedSmartFocus" val="False"/>
             <entry key="WinSubProjectDisplayName" val=""/>
            </MetaData>
           </UnifiedMedia>
           <UnifiedMedia id="4832"  >
            <AMFile id="4833" start="545" duration="113" scalar="1/1" mediaStart="2203/1" mediaDuration="113/1" trackNumber="1" src="10" channelNumber="0,1" >
             <Parameters>
              <InterpolatingParam id="4834" interp="linr"  time="0/1" value="1" leadInLength="0/1"  name="volume"/>
              <Parameter id="4835"  name="captions"/>
             </Parameters>
             <Attributes>
              <Attribute id="4836" value="" name="ident"/>
              <Attribute id="4837" value="44100" name="sampleRate"/>
              <Attribute id="4838" value="16" name="bitDepth"/>
              <Attribute id="4839" value="1" name="gain"/>
              <Attribute id="4840" value="0" name="mixToMono"/>
             </Attributes>
            </AMFile>
            <ScreenVMFile id="4841" start="545" duration="113" scalar="1/1" mediaStart="2203/1" mediaDuration="113/1" trackNumber="0" src="10" >
             <Transformer>
              <VectorParam id="4842"  name="translation">
               <InterpolatingParam id="4843" interp="linr"  time="-9999999/1" value="0" leadInLength="0/1"  />
               <InterpolatingParam id="4844" interp="linr"  time="-9999999/1" value="0" leadInLength="0/1"  />
               <InterpolatingParam id="4845" interp="linr"  time="-9999999/1" value="0" leadInLength="0/1"  />
              </VectorParam>
              <VectorParam id="4846"  name="rotation">
               <InterpolatingParam id="4847" interp="linr"  time="-9999999/1" value="0" leadInLength="0/1"  />
               <InterpolatingParam id="4848" interp="linr"  time="-9999999/1" value="0" leadInLength="0/1"  />
               <InterpolatingParam id="4849" interp="linr"  time="-9999999/1" value="0" leadInLength="0/1"  />
              </VectorParam>
              <VectorParam id="4850"  name="shear">
               <InterpolatingParam id="4851" interp="linr"  time="-9999999/1" value="0" leadInLength="0/1"  />
               <InterpolatingParam id="4852" interp="linr"  time="-9999999/1" value="0" leadInLength="0/1"  />
               <InterpolatingParam id="4853" interp="linr"  time="-9999999/1" value="0" leadInLength="0/1"  />
              </VectorParam>
              <VectorParam id="4854"  name="scale">
               <InterpolatingParam id="4855" interp="linr"  time="-9999999/1" value="1" leadInLength="0/1"  />
               <InterpolatingParam id="4856" interp="linr"  time="-9999999/1" value="1" leadInLength="0/1"  />
               <InterpolatingParam id="4857" interp="linr"  time="-9999999/1" value="1" leadInLength="0/1"  />
              </VectorParam>
              <VectorParam id="4858"  name="anchor">
               <InterpolatingParam id="4859" interp="linr"  time="0/1" value="0" leadInLength="0/1"  />
               <InterpolatingParam id="4860" interp="linr"  time="0/1" value="0" leadInLength="0/1"  />
               <InterpolatingParam id="4861" interp="linr"  time="0/1" value="0" leadInLength="0/1"  />
              </VectorParam>
             </Transformer>
             <Parameters>
              <VectorParam id="4862"  name="sourceCrop">
               <InterpolatingParam id="4863" interp="linr"  time="0/1" value="0" leadInLength="0/1"  />
               <InterpolatingParam id="4864" interp="linr"  time="0/1" value="0" leadInLength="0/1"  />
               <InterpolatingParam id="4865" interp="linr"  time="0/1" value="0" leadInLength="0/1"  />
               <InterpolatingParam id="4866" interp="linr"  time="0/1" value="0" leadInLength="0/1"  />
              </VectorParam>
              <VectorParam id="4867"  name="geometryCrop">
               <InterpolatingParam id="4868" interp="linr"  time="-9999999/1" value="0" leadInLength="0/1"  />
               <InterpolatingParam id="4869" interp="linr"  time="-9999999/1" value="0" leadInLength="0/1"  />
               <InterpolatingParam id="4870" interp="linr"  time="-9999999/1" value="0" leadInLength="0/1"  />
               <InterpolatingParam id="4871" interp="linr"  time="-9999999/1" value="0" leadInLength="0/1"  />
              </VectorParam>
              <InterpolatingParam id="4872" interp="linr"  time="-9999999/1" value="1" leadInLength="0/1"  name="opacity"/>
              <InterpolatingParam id="4873" interp="linr"  time="0/1" value="0" leadInLength="0/1"  name="cursorOpacity"/>
              <InterpolatingParam id="4874" interp="linr"  time="0/1" value="0" leadInLength="0/1"  name="cursorScale"/>
             </Parameters>
             <Attributes>
              <Attribute id="4875" value="" name="ident"/>
             </Attributes>
             <ExtraData>
              <Entry key="ZoomPanBin">
               <ZoomPanBin id="4876"  >
                <ZoomPanKeyframes>
                 <ZoomPanKeyframe id="4877" timeRangeEnd="-9999999/1" timeRangeDuration="0/1" interpolaterName="linr"  />
                </ZoomPanKeyframes>
               </ZoomPanBin>
              </Entry>
              <Entry key="CursorEffectBin">
               <CursorEffectBin id="4878"  >
                <CursorEffectKeyframes>
                </CursorEffectKeyframes>
               </CursorEffectBin>
              </Entry>
             </ExtraData>
            </ScreenVMFile>
            <MetaData>
             <entry key="AutoAppliedSmartFocus" val="False"/>
             <entry key="WinSubProjectDisplayName" val=""/>
            </MetaData>
           </UnifiedMedia>
           <UnifiedMedia id="4879"  >
            <AMFile id="4880" start="658" duration="168" scalar="1/1" mediaStart="3095/1" mediaDuration="168/1" trackNumber="1" src="10" channelNumber="0,1" >
             <Parameters>
              <InterpolatingParam id="4881" interp="linr"  time="0/1" value="1" leadInLength="0/1"  name="volume"/>
              <Parameter id="4882"  name="captions"/>
             </Parameters>
             <Attributes>
              <Attribute id="4883" value="" name="ident"/>
              <Attribute id="4884" value="44100" name="sampleRate"/>
              <Attribute id="4885" value="16" name="bitDepth"/>
              <Attribute id="4886" value="1" name="gain"/>
              <Attribute id="4887" value="0" name="mixToMono"/>
             </Attributes>
            </AMFile>
            <ScreenVMFile id="4888" start="658" duration="168" scalar="1/1" mediaStart="3095/1" mediaDuration="168/1" trackNumber="0" src="10" >
             <Transformer>
              <VectorParam id="4889"  name="translation">
               <InterpolatingParam id="4890" interp="linr"  time="-9999999/1" value="0" leadInLength="0/1"  />
               <InterpolatingParam id="4891" interp="linr"  time="-9999999/1" value="0" leadInLength="0/1"  />
               <InterpolatingParam id="4892" interp="linr"  time="-9999999/1" value="0" leadInLength="0/1"  />
              </VectorParam>
              <VectorParam id="4893"  name="rotation">
               <InterpolatingParam id="4894" interp="linr"  time="-9999999/1" value="0" leadInLength="0/1"  />
               <InterpolatingParam id="4895" interp="linr"  time="-9999999/1" value="0" leadInLength="0/1"  />
               <InterpolatingParam id="4896" interp="linr"  time="-9999999/1" value="0" leadInLength="0/1"  />
              </VectorParam>
              <VectorParam id="4897"  name="shear">
               <InterpolatingParam id="4898" interp="linr"  time="-9999999/1" value="0" leadInLength="0/1"  />
               <InterpolatingParam id="4899" interp="linr"  time="-9999999/1" value="0" leadInLength="0/1"  />
               <InterpolatingParam id="4900" interp="linr"  time="-9999999/1" value="0" leadInLength="0/1"  />
              </VectorParam>
              <VectorParam id="4901"  name="scale">
               <InterpolatingParam id="4902" interp="linr"  time="-9999999/1" value="1" leadInLength="0/1"  />
               <InterpolatingParam id="4903" interp="linr"  time="-9999999/1" value="1" leadInLength="0/1"  />
               <InterpolatingParam id="4904" interp="linr"  time="-9999999/1" value="1" leadInLength="0/1"  />
              </VectorParam>
              <VectorParam id="4905"  name="anchor">
               <InterpolatingParam id="4906" interp="linr"  time="0/1" value="0" leadInLength="0/1"  />
               <InterpolatingParam id="4907" interp="linr"  time="0/1" value="0" leadInLength="0/1"  />
               <InterpolatingParam id="4908" interp="linr"  time="0/1" value="0" leadInLength="0/1"  />
              </VectorParam>
             </Transformer>
             <Parameters>
              <VectorParam id="4909"  name="sourceCrop">
               <InterpolatingParam id="4910" interp="linr"  time="0/1" value="0" leadInLength="0/1"  />
               <InterpolatingParam id="4911" interp="linr"  time="0/1" value="0" leadInLength="0/1"  />
               <InterpolatingParam id="4912" interp="linr"  time="0/1" value="0" leadInLength="0/1"  />
               <InterpolatingParam id="4913" interp="linr"  time="0/1" value="0" leadInLength="0/1"  />
              </VectorParam>
              <VectorParam id="4914"  name="geometryCrop">
               <InterpolatingParam id="4915" interp="linr"  time="-9999999/1" value="0" leadInLength="0/1"  />
               <InterpolatingParam id="4916" interp="linr"  time="-9999999/1" value="0" leadInLength="0/1"  />
               <InterpolatingParam id="4917" interp="linr"  time="-9999999/1" value="0" leadInLength="0/1"  />
               <InterpolatingParam id="4918" interp="linr"  time="-9999999/1" value="0" leadInLength="0/1"  />
              </VectorParam>
              <InterpolatingParam id="4919" interp="linr"  time="-9999999/1" value="1" leadInLength="0/1"  name="opacity"/>
              <InterpolatingParam id="4920" interp="linr"  time="0/1" value="0" leadInLength="0/1"  name="cursorOpacity"/>
              <InterpolatingParam id="4921" interp="linr"  time="0/1" value="0" leadInLength="0/1"  name="cursorScale"/>
             </Parameters>
             <Attributes>
              <Attribute id="4922" value="" name="ident"/>
             </Attributes>
             <ExtraData>
              <Entry key="ZoomPanBin">
               <ZoomPanBin id="4923"  >
                <ZoomPanKeyframes>
                 <ZoomPanKeyframe id="4924" timeRangeEnd="-9999999/1" timeRangeDuration="0/1" interpolaterName="linr"  />
                </ZoomPanKeyframes>
               </ZoomPanBin>
              </Entry>
              <Entry key="CursorEffectBin">
               <CursorEffectBin id="4925"  >
                <CursorEffectKeyframes>
                </CursorEffectKeyframes>
               </CursorEffectBin>
              </Entry>
             </ExtraData>
            </ScreenVMFile>
            <MetaData>
             <entry key="AutoAppliedSmartFocus" val="False"/>
             <entry key="WinSubProjectDisplayName" val=""/>
            </MetaData>
           </UnifiedMedia>
           <UnifiedMedia id="4926"  >
            <AMFile id="4927" start="826" duration="172" scalar="1/1" mediaStart="3805/1" mediaDuration="172/1" trackNumber="1" src="10" channelNumber="0,1" >
             <Parameters>
              <InterpolatingParam id="4928" interp="linr"  time="0/1" value="1" leadInLength="0/1"  name="volume"/>
              <Parameter id="4929"  name="captions"/>
             </Parameters>
             <Attributes>
              <Attribute id="4930" value="" name="ident"/>
              <Attribute id="4931" value="44100" name="sampleRate"/>
              <Attribute id="4932" value="16" name="bitDepth"/>
              <Attribute id="4933" value="1" name="gain"/>
              <Attribute id="4934" value="0" name="mixToMono"/>
             </Attributes>
            </AMFile>
            <ScreenVMFile id="4935" start="826" duration="172" scalar="1/1" mediaStart="3805/1" mediaDuration="172/1" trackNumber="0" src="10" >
             <Transformer>
              <VectorParam id="4936"  name="translation">
               <InterpolatingParam id="4937" interp="linr"  time="-9999999/1" value="0" leadInLength="0/1"  />
               <InterpolatingParam id="4938" interp="linr"  time="-9999999/1" value="0" leadInLength="0/1"  />
               <InterpolatingParam id="4939" interp="linr"  time="-9999999/1" value="0" leadInLength="0/1"  />
              </VectorParam>
              <VectorParam id="4940"  name="rotation">
               <InterpolatingParam id="4941" interp="linr"  time="-9999999/1" value="0" leadInLength="0/1"  />
               <InterpolatingParam id="4942" interp="linr"  time="-9999999/1" value="0" leadInLength="0/1"  />
               <InterpolatingParam id="4943" interp="linr"  time="-9999999/1" value="0" leadInLength="0/1"  />
              </VectorParam>
              <VectorParam id="4944"  name="shear">
               <InterpolatingParam id="4945" interp="linr"  time="-9999999/1" value="0" leadInLength="0/1"  />
               <InterpolatingParam id="4946" interp="linr"  time="-9999999/1" value="0" leadInLength="0/1"  />
               <InterpolatingParam id="4947" interp="linr"  time="-9999999/1" value="0" leadInLength="0/1"  />
              </VectorParam>
              <VectorParam id="4948"  name="scale">
               <InterpolatingParam id="4949" interp="linr"  time="-9999999/1" value="1" leadInLength="0/1"  />
               <InterpolatingParam id="4950" interp="linr"  time="-9999999/1" value="1" leadInLength="0/1"  />
               <InterpolatingParam id="4951" interp="linr"  time="-9999999/1" value="1" leadInLength="0/1"  />
              </VectorParam>
              <VectorParam id="4952"  name="anchor">
               <InterpolatingParam id="4953" interp="linr"  time="0/1" value="0" leadInLength="0/1"  />
               <InterpolatingParam id="4954" interp="linr"  time="0/1" value="0" leadInLength="0/1"  />
               <InterpolatingParam id="4955" interp="linr"  time="0/1" value="0" leadInLength="0/1"  />
              </VectorParam>
             </Transformer>
             <Parameters>
              <VectorParam id="4956"  name="sourceCrop">
               <InterpolatingParam id="4957" interp="linr"  time="0/1" value="0" leadInLength="0/1"  />
               <InterpolatingParam id="4958" interp="linr"  time="0/1" value="0" leadInLength="0/1"  />
               <InterpolatingParam id="4959" interp="linr"  time="0/1" value="0" leadInLength="0/1"  />
               <InterpolatingParam id="4960" interp="linr"  time="0/1" value="0" leadInLength="0/1"  />
              </VectorParam>
              <VectorParam id="4961"  name="geometryCrop">
               <InterpolatingParam id="4962" interp="linr"  time="-9999999/1" value="0" leadInLength="0/1"  />
               <InterpolatingParam id="4963" interp="linr"  time="-9999999/1" value="0" leadInLength="0/1"  />
               <InterpolatingParam id="4964" interp="linr"  time="-9999999/1" value="0" leadInLength="0/1"  />
               <InterpolatingParam id="4965" interp="linr"  time="-9999999/1" value="0" leadInLength="0/1"  />
              </VectorParam>
              <InterpolatingParam id="4966" interp="linr"  time="-9999999/1" value="1" leadInLength="0/1"  name="opacity"/>
              <InterpolatingParam id="4967" interp="linr"  time="0/1" value="0" leadInLength="0/1"  name="cursorOpacity"/>
              <InterpolatingParam id="4968" interp="linr"  time="0/1" value="0" leadInLength="0/1"  name="cursorScale"/>
             </Parameters>
             <Attributes>
              <Attribute id="4969" value="" name="ident"/>
             </Attributes>
             <ExtraData>
              <Entry key="ZoomPanBin">
               <ZoomPanBin id="4970"  >
                <ZoomPanKeyframes>
                 <ZoomPanKeyframe id="4971" timeRangeEnd="-9999999/1" timeRangeDuration="0/1" interpolaterName="linr"  />
                </ZoomPanKeyframes>
               </ZoomPanBin>
              </Entry>
              <Entry key="CursorEffectBin">
               <CursorEffectBin id="4972"  >
                <CursorEffectKeyframes>
                </CursorEffectKeyframes>
               </CursorEffectBin>
              </Entry>
             </ExtraData>
            </ScreenVMFile>
            <MetaData>
             <entry key="AutoAppliedSmartFocus" val="False"/>
             <entry key="WinSubProjectDisplayName" val=""/>
            </MetaData>
           </UnifiedMedia>
           <UnifiedMedia id="4973"  >
            <AMFile id="4974" start="998" duration="21" scalar="1/1" mediaStart="4305/1" mediaDuration="21/1" trackNumber="1" src="10" channelNumber="0,1" >
             <Parameters>
              <InterpolatingParam id="4975" interp="linr"  time="0/1" value="1" leadInLength="0/1"  name="volume"/>
              <Parameter id="4976"  name="captions"/>
             </Parameters>
             <Attributes>
              <Attribute id="4977" value="" name="ident"/>
              <Attribute id="4978" value="44100" name="sampleRate"/>
              <Attribute id="4979" value="16" name="bitDepth"/>
              <Attribute id="4980" value="1" name="gain"/>
              <Attribute id="4981" value="0" name="mixToMono"/>
             </Attributes>
            </AMFile>
            <ScreenVMFile id="4982" start="998" duration="21" scalar="1/1" mediaStart="4305/1" mediaDuration="21/1" trackNumber="0" src="10" >
             <Transformer>
              <VectorParam id="4983"  name="translation">
               <InterpolatingParam id="4984" interp="linr"  time="-9999999/1" value="0" leadInLength="0/1"  />
               <InterpolatingParam id="4985" interp="linr"  time="-9999999/1" value="0" leadInLength="0/1"  />
               <InterpolatingParam id="4986" interp="linr"  time="-9999999/1" value="0" leadInLength="0/1"  />
              </VectorParam>
              <VectorParam id="4987"  name="rotation">
               <InterpolatingParam id="4988" interp="linr"  time="-9999999/1" value="0" leadInLength="0/1"  />
               <InterpolatingParam id="4989" interp="linr"  time="-9999999/1" value="0" leadInLength="0/1"  />
               <InterpolatingParam id="4990" interp="linr"  time="-9999999/1" value="0" leadInLength="0/1"  />
              </VectorParam>
              <VectorParam id="4991"  name="shear">
               <InterpolatingParam id="4992" interp="linr"  time="-9999999/1" value="0" leadInLength="0/1"  />
               <InterpolatingParam id="4993" interp="linr"  time="-9999999/1" value="0" leadInLength="0/1"  />
               <InterpolatingParam id="4994" interp="linr"  time="-9999999/1" value="0" leadInLength="0/1"  />
              </VectorParam>
              <VectorParam id="4995"  name="scale">
               <InterpolatingParam id="4996" interp="linr"  time="-9999999/1" value="1" leadInLength="0/1"  />
               <InterpolatingParam id="4997" interp="linr"  time="-9999999/1" value="1" leadInLength="0/1"  />
               <InterpolatingParam id="4998" interp="linr"  time="-9999999/1" value="1" leadInLength="0/1"  />
              </VectorParam>
              <VectorParam id="4999"  name="anchor">
               <InterpolatingParam id="5000" interp="linr"  time="0/1" value="0" leadInLength="0/1"  />
               <InterpolatingParam id="5001" interp="linr"  time="0/1" value="0" leadInLength="0/1"  />
               <InterpolatingParam id="5002" interp="linr"  time="0/1" value="0" leadInLength="0/1"  />
              </VectorParam>
             </Transformer>
             <Parameters>
              <VectorParam id="5003"  name="sourceCrop">
               <InterpolatingParam id="5004" interp="linr"  time="0/1" value="0" leadInLength="0/1"  />
               <InterpolatingParam id="5005" interp="linr"  time="0/1" value="0" leadInLength="0/1"  />
               <InterpolatingParam id="5006" interp="linr"  time="0/1" value="0" leadInLength="0/1"  />
               <InterpolatingParam id="5007" interp="linr"  time="0/1" value="0" leadInLength="0/1"  />
              </VectorParam>
              <VectorParam id="5008"  name="geometryCrop">
               <InterpolatingParam id="5009" interp="linr"  time="-9999999/1" value="0" leadInLength="0/1"  />
               <InterpolatingParam id="5010" interp="linr"  time="-9999999/1" value="0" leadInLength="0/1"  />
               <InterpolatingParam id="5011" interp="linr"  time="-9999999/1" value="0" leadInLength="0/1"  />
               <InterpolatingParam id="5012" interp="linr"  time="-9999999/1" value="0" leadInLength="0/1"  />
              </VectorParam>
              <InterpolatingParam id="5013" interp="linr"  time="-9999999/1" value="1" leadInLength="0/1"  name="opacity"/>
              <InterpolatingParam id="5014" interp="linr"  time="0/1" value="0" leadInLength="0/1"  name="cursorOpacity"/>
              <InterpolatingParam id="5015" interp="linr"  time="0/1" value="0" leadInLength="0/1"  name="cursorScale"/>
             </Parameters>
             <Attributes>
              <Attribute id="5016" value="" name="ident"/>
             </Attributes>
             <ExtraData>
              <Entry key="ZoomPanBin">
               <ZoomPanBin id="5017"  >
                <ZoomPanKeyframes>
                 <ZoomPanKeyframe id="5018" timeRangeEnd="-9999999/1" timeRangeDuration="0/1" interpolaterName="linr"  />
                </ZoomPanKeyframes>
               </ZoomPanBin>
              </Entry>
              <Entry key="CursorEffectBin">
               <CursorEffectBin id="5019"  >
                <CursorEffectKeyframes>
                </CursorEffectKeyframes>
               </CursorEffectBin>
              </Entry>
             </ExtraData>
            </ScreenVMFile>
            <MetaData>
             <entry key="AutoAppliedSmartFocus" val="False"/>
             <entry key="WinSubProjectDisplayName" val=""/>
            </MetaData>
           </UnifiedMedia>
           <UnifiedMedia id="5020"  >
            <AMFile id="5021" start="1019" duration="3" scalar="1/1" mediaStart="4787/1" mediaDuration="3/1" trackNumber="1" src="10" channelNumber="0,1" >
             <Parameters>
              <InterpolatingParam id="5022" interp="linr"  time="0/1" value="1" leadInLength="0/1"  name="volume"/>
              <Parameter id="5023"  name="captions"/>
             </Parameters>
             <Attributes>
              <Attribute id="5024" value="" name="ident"/>
              <Attribute id="5025" value="44100" name="sampleRate"/>
              <Attribute id="5026" value="16" name="bitDepth"/>
              <Attribute id="5027" value="1" name="gain"/>
              <Attribute id="5028" value="0" name="mixToMono"/>
             </Attributes>
            </AMFile>
            <ScreenVMFile id="5029" start="1019" duration="3" scalar="1/1" mediaStart="4787/1" mediaDuration="3/1" trackNumber="0" src="10" >
             <Transformer>
              <VectorParam id="5030"  name="translation">
               <InterpolatingParam id="5031" interp="linr"  time="-9999999/1" value="0" leadInLength="0/1"  />
               <InterpolatingParam id="5032" interp="linr"  time="-9999999/1" value="0" leadInLength="0/1"  />
               <InterpolatingParam id="5033" interp="linr"  time="-9999999/1" value="0" leadInLength="0/1"  />
              </VectorParam>
              <VectorParam id="5034"  name="rotation">
               <InterpolatingParam id="5035" interp="linr"  time="-9999999/1" value="0" leadInLength="0/1"  />
               <InterpolatingParam id="5036" interp="linr"  time="-9999999/1" value="0" leadInLength="0/1"  />
               <InterpolatingParam id="5037" interp="linr"  time="-9999999/1" value="0" leadInLength="0/1"  />
              </VectorParam>
              <VectorParam id="5038"  name="shear">
               <InterpolatingParam id="5039" interp="linr"  time="-9999999/1" value="0" leadInLength="0/1"  />
               <InterpolatingParam id="5040" interp="linr"  time="-9999999/1" value="0" leadInLength="0/1"  />
               <InterpolatingParam id="5041" interp="linr"  time="-9999999/1" value="0" leadInLength="0/1"  />
              </VectorParam>
              <VectorParam id="5042"  name="scale">
               <InterpolatingParam id="5043" interp="linr"  time="-9999999/1" value="1" leadInLength="0/1"  />
               <InterpolatingParam id="5044" interp="linr"  time="-9999999/1" value="1" leadInLength="0/1"  />
               <InterpolatingParam id="5045" interp="linr"  time="-9999999/1" value="1" leadInLength="0/1"  />
              </VectorParam>
              <VectorParam id="5046"  name="anchor">
               <InterpolatingParam id="5047" interp="linr"  time="0/1" value="0" leadInLength="0/1"  />
               <InterpolatingParam id="5048" interp="linr"  time="0/1" value="0" leadInLength="0/1"  />
               <InterpolatingParam id="5049" interp="linr"  time="0/1" value="0" leadInLength="0/1"  />
              </VectorParam>
             </Transformer>
             <Parameters>
              <VectorParam id="5050"  name="sourceCrop">
               <InterpolatingParam id="5051" interp="linr"  time="0/1" value="0" leadInLength="0/1"  />
               <InterpolatingParam id="5052" interp="linr"  time="0/1" value="0" leadInLength="0/1"  />
               <InterpolatingParam id="5053" interp="linr"  time="0/1" value="0" leadInLength="0/1"  />
               <InterpolatingParam id="5054" interp="linr"  time="0/1" value="0" leadInLength="0/1"  />
              </VectorParam>
              <VectorParam id="5055"  name="geometryCrop">
               <InterpolatingParam id="5056" interp="linr"  time="-9999999/1" value="0" leadInLength="0/1"  />
               <InterpolatingParam id="5057" interp="linr"  time="-9999999/1" value="0" leadInLength="0/1"  />
               <InterpolatingParam id="5058" interp="linr"  time="-9999999/1" value="0" leadInLength="0/1"  />
               <InterpolatingParam id="5059" interp="linr"  time="-9999999/1" value="0" leadInLength="0/1"  />
              </VectorParam>
              <InterpolatingParam id="5060" interp="linr"  time="-9999999/1" value="1" leadInLength="0/1"  name="opacity"/>
              <InterpolatingParam id="5061" interp="linr"  time="0/1" value="0" leadInLength="0/1"  name="cursorOpacity"/>
              <InterpolatingParam id="5062" interp="linr"  time="0/1" value="0" leadInLength="0/1"  name="cursorScale"/>
             </Parameters>
             <Attributes>
              <Attribute id="5063" value="" name="ident"/>
             </Attributes>
             <ExtraData>
              <Entry key="ZoomPanBin">
               <ZoomPanBin id="5064"  >
                <ZoomPanKeyframes>
                 <ZoomPanKeyframe id="5065" timeRangeEnd="-9999999/1" timeRangeDuration="0/1" interpolaterName="linr"  />
                </ZoomPanKeyframes>
               </ZoomPanBin>
              </Entry>
              <Entry key="CursorEffectBin">
               <CursorEffectBin id="5066"  >
                <CursorEffectKeyframes>
                </CursorEffectKeyframes>
               </CursorEffectBin>
              </Entry>
             </ExtraData>
            </ScreenVMFile>
            <MetaData>
             <entry key="AutoAppliedSmartFocus" val="False"/>
             <entry key="WinSubProjectDisplayName" val=""/>
            </MetaData>
           </UnifiedMedia>
           <UnifiedMedia id="5067"  >
            <AMFile id="5068" start="1022" duration="348" scalar="1/1" mediaStart="4913/1" mediaDuration="348/1" trackNumber="1" src="10" channelNumber="0,1" >
             <Parameters>
              <InterpolatingParam id="5069" interp="linr"  time="0/1" value="1" leadInLength="0/1"  name="volume"/>
              <Parameter id="5070"  name="captions"/>
             </Parameters>
             <Attributes>
              <Attribute id="5071" value="" name="ident"/>
              <Attribute id="5072" value="44100" name="sampleRate"/>
              <Attribute id="5073" value="16" name="bitDepth"/>
              <Attribute id="5074" value="1" name="gain"/>
              <Attribute id="5075" value="0" name="mixToMono"/>
             </Attributes>
            </AMFile>
            <ScreenVMFile id="5076" start="1022" duration="348" scalar="1/1" mediaStart="4913/1" mediaDuration="348/1" trackNumber="0" src="10" >
             <Transformer>
              <VectorParam id="5077"  name="translation">
               <InterpolatingParam id="5078" interp="linr"  time="-9999999/1" value="0" leadInLength="0/1"  />
               <InterpolatingParam id="5079" interp="linr"  time="-9999999/1" value="0" leadInLength="0/1"  />
               <InterpolatingParam id="5080" interp="linr"  time="-9999999/1" value="0" leadInLength="0/1"  />
              </VectorParam>
              <VectorParam id="5081"  name="rotation">
               <InterpolatingParam id="5082" interp="linr"  time="-9999999/1" value="0" leadInLength="0/1"  />
               <InterpolatingParam id="5083" interp="linr"  time="-9999999/1" value="0" leadInLength="0/1"  />
               <InterpolatingParam id="5084" interp="linr"  time="-9999999/1" value="0" leadInLength="0/1"  />
              </VectorParam>
              <VectorParam id="5085"  name="shear">
               <InterpolatingParam id="5086" interp="linr"  time="-9999999/1" value="0" leadInLength="0/1"  />
               <InterpolatingParam id="5087" interp="linr"  time="-9999999/1" value="0" leadInLength="0/1"  />
               <InterpolatingParam id="5088" interp="linr"  time="-9999999/1" value="0" leadInLength="0/1"  />
              </VectorParam>
              <VectorParam id="5089"  name="scale">
               <InterpolatingParam id="5090" interp="linr"  time="-9999999/1" value="1" leadInLength="0/1"  />
               <InterpolatingParam id="5091" interp="linr"  time="-9999999/1" value="1" leadInLength="0/1"  />
               <InterpolatingParam id="5092" interp="linr"  time="-9999999/1" value="1" leadInLength="0/1"  />
              </VectorParam>
              <VectorParam id="5093"  name="anchor">
               <InterpolatingParam id="5094" interp="linr"  time="0/1" value="0" leadInLength="0/1"  />
               <InterpolatingParam id="5095" interp="linr"  time="0/1" value="0" leadInLength="0/1"  />
               <InterpolatingParam id="5096" interp="linr"  time="0/1" value="0" leadInLength="0/1"  />
              </VectorParam>
             </Transformer>
             <Parameters>
              <VectorParam id="5097"  name="sourceCrop">
               <InterpolatingParam id="5098" interp="linr"  time="0/1" value="0" leadInLength="0/1"  />
               <InterpolatingParam id="5099" interp="linr"  time="0/1" value="0" leadInLength="0/1"  />
               <InterpolatingParam id="5100" interp="linr"  time="0/1" value="0" leadInLength="0/1"  />
               <InterpolatingParam id="5101" interp="linr"  time="0/1" value="0" leadInLength="0/1"  />
              </VectorParam>
              <VectorParam id="5102"  name="geometryCrop">
               <InterpolatingParam id="5103" interp="linr"  time="-9999999/1" value="0" leadInLength="0/1"  />
               <InterpolatingParam id="5104" interp="linr"  time="-9999999/1" value="0" leadInLength="0/1"  />
               <InterpolatingParam id="5105" interp="linr"  time="-9999999/1" value="0" leadInLength="0/1"  />
               <InterpolatingParam id="5106" interp="linr"  time="-9999999/1" value="0" leadInLength="0/1"  />
              </VectorParam>
              <InterpolatingParam id="5107" interp="linr"  time="-9999999/1" value="1" leadInLength="0/1"  name="opacity"/>
              <InterpolatingParam id="5108" interp="linr"  time="0/1" value="0" leadInLength="0/1"  name="cursorOpacity"/>
              <InterpolatingParam id="5109" interp="linr"  time="0/1" value="0" leadInLength="0/1"  name="cursorScale"/>
             </Parameters>
             <Attributes>
              <Attribute id="5110" value="" name="ident"/>
             </Attributes>
             <ExtraData>
              <Entry key="ZoomPanBin">
               <ZoomPanBin id="5111"  >
                <ZoomPanKeyframes>
                 <ZoomPanKeyframe id="5112" timeRangeEnd="-9999999/1" timeRangeDuration="0/1" interpolaterName="linr"  />
                </ZoomPanKeyframes>
               </ZoomPanBin>
              </Entry>
              <Entry key="CursorEffectBin">
               <CursorEffectBin id="5113"  >
                <CursorEffectKeyframes>
                </CursorEffectKeyframes>
               </CursorEffectBin>
              </Entry>
             </ExtraData>
            </ScreenVMFile>
            <MetaData>
             <entry key="AutoAppliedSmartFocus" val="False"/>
             <entry key="WinSubProjectDisplayName" val=""/>
            </MetaData>
           </UnifiedMedia>
          </Medias>
         </GenericTrack>
        </StitchedMedia>
        <UnifiedMedia id="5114"  >
         <AMFile id="5115" start="14508" duration="113" scalar="1/1" mediaStart="366/1" mediaDuration="113/1" trackNumber="1" src="12" channelNumber="0,1" >
          <Parameters>
           <InterpolatingParam id="5116" interp="linr"  time="0/1" value="1" leadInLength="0/1"  name="volume"/>
           <Parameter id="5117"  name="captions"/>
          </Parameters>
          <Attributes>
           <Attribute id="5118" value="" name="ident"/>
           <Attribute id="5119" value="44100" name="sampleRate"/>
           <Attribute id="5120" value="16" name="bitDepth"/>
           <Attribute id="5121" value="1" name="gain"/>
           <Attribute id="5122" value="0" name="mixToMono"/>
          </Attributes>
         </AMFile>
         <ScreenVMFile id="5123" start="14508" duration="113" scalar="1/1" mediaStart="366/1" mediaDuration="113/1" trackNumber="0" src="12" >
          <Transformer>
           <VectorParam id="5124"  name="translation">
            <InterpolatingParam id="5125" interp="linr"  time="-9999999/1" value="0" leadInLength="0/1"  />
            <InterpolatingParam id="5126" interp="linr"  time="-9999999/1" value="0" leadInLength="0/1"  />
            <InterpolatingParam id="5127" interp="linr"  time="-9999999/1" value="0" leadInLength="0/1"  />
           </VectorParam>
           <VectorParam id="5128"  name="rotation">
            <InterpolatingParam id="5129" interp="linr"  time="-9999999/1" value="0" leadInLength="0/1"  />
            <InterpolatingParam id="5130" interp="linr"  time="-9999999/1" value="0" leadInLength="0/1"  />
            <InterpolatingParam id="5131" interp="linr"  time="-9999999/1" value="0" leadInLength="0/1"  />
           </VectorParam>
           <VectorParam id="5132"  name="shear">
            <InterpolatingParam id="5133" interp="linr"  time="-9999999/1" value="0" leadInLength="0/1"  />
            <InterpolatingParam id="5134" interp="linr"  time="-9999999/1" value="0" leadInLength="0/1"  />
            <InterpolatingParam id="5135" interp="linr"  time="-9999999/1" value="0" leadInLength="0/1"  />
           </VectorParam>
           <VectorParam id="5136"  name="scale">
            <InterpolatingParam id="5137" interp="linr"  time="-9999999/1" value="0.70833333333333337" leadInLength="0/1"  />
            <InterpolatingParam id="5138" interp="linr"  time="-9999999/1" value="0.70833333333333337" leadInLength="0/1"  />
            <InterpolatingParam id="5139" interp="linr"  time="-9999999/1" value="1" leadInLength="0/1"  />
           </VectorParam>
           <VectorParam id="5140"  name="anchor">
            <InterpolatingParam id="5141" interp="linr"  time="0/1" value="0" leadInLength="0/1"  />
            <InterpolatingParam id="5142" interp="linr"  time="0/1" value="0" leadInLength="0/1"  />
            <InterpolatingParam id="5143" interp="linr"  time="0/1" value="0" leadInLength="0/1"  />
           </VectorParam>
          </Transformer>
          <Parameters>
           <VectorParam id="5144"  name="sourceCrop">
            <InterpolatingParam id="5145" interp="linr"  time="0/1" value="0" leadInLength="0/1"  />
            <InterpolatingParam id="5146" interp="linr"  time="0/1" value="0" leadInLength="0/1"  />
            <InterpolatingParam id="5147" interp="linr"  time="0/1" value="0" leadInLength="0/1"  />
            <InterpolatingParam id="5148" interp="linr"  time="0/1" value="0" leadInLength="0/1"  />
           </VectorParam>
           <VectorParam id="5149"  name="geometryCrop">
            <InterpolatingParam id="5150" interp="linr"  time="-9999999/1" value="0" leadInLength="0/1"  />
            <InterpolatingParam id="5151" interp="linr"  time="-9999999/1" value="0" leadInLength="0/1"  />
            <InterpolatingParam id="5152" interp="linr"  time="-9999999/1" value="0" leadInLength="0/1"  />
            <InterpolatingParam id="5153" interp="linr"  time="-9999999/1" value="0" leadInLength="0/1"  />
           </VectorParam>
           <InterpolatingParam id="5154" interp="linr"  time="-9999999/1" value="1" leadInLength="0/1"  name="opacity"/>
           <InterpolatingParam id="5155" interp="linr"  time="0/1" value="1" leadInLength="0/1"  name="cursorOpacity"/>
           <InterpolatingParam id="5156" interp="linr"  time="0/1" value="1" leadInLength="0/1"  name="cursorScale"/>
          </Parameters>
          <Effects>
           <GenericEffect id="5157" name = "CursorBaseEffectName" >
            <Parameters>
            <InterpolatingParam id="5158" interp="linr"  time="-9999999/1" value="1" leadInLength="0/1"   name="cursorSize"/>
            <InterpolatingParam id="5159" interp="linr"  time="-9999999/1" value="0" leadInLength="0/1"   name="highlightBlurRadius"/>
            <InterpolatingParam id="5160" interp="linr"  time="-9999999/1" value="0" leadInLength="0/1"   name="highlightColorBlue"/>
            <InterpolatingParam id="5161" interp="linr"  time="-9999999/1" value="255" leadInLength="0/1"   name="highlightColorGreen"/>
            <InterpolatingParam id="5162" interp="linr"  time="-9999999/1" value="255" leadInLength="0/1"   name="highlightColorRed"/>
            <InterpolatingParam id="5163" interp="linr"  time="-9999999/1" value="5" leadInLength="0/1"   name="highlightFeatherSize"/>
            <InterpolatingParam id="5164" interp="linr"  time="-9999999/1" value="2" leadInLength="0/1"   name="highlightMagnification"/>
            <InterpolatingParam id="5165" interp="linr"  time="-9999999/1" value="1" leadInLength="0/1"   name="highlightOpacity"/>
            <InterpolatingParam id="5166" interp="linr"  time="-9999999/1" value="45" leadInLength="0/1"   name="highlightSize"/>
            <Parameter id="5167"   name="highlightType">
             <Keyframes>
             <Keyframe id="5168"  time="-9999999/1" value="0" leadInLength="0/1"  />
             </Keyframes>
            </Parameter>
            <InterpolatingParam id="5169" interp="linr"  time="-9999999/1" value="0" leadInLength="0/1"   name="leftClickColorBlue"/>
            <InterpolatingParam id="5170" interp="linr"  time="-9999999/1" value="0" leadInLength="0/1"   name="leftClickColorGreen"/>
            <InterpolatingParam id="5171" interp="linr"  time="-9999999/1" value="255" leadInLength="0/1"   name="leftClickColorRed"/>
            <InterpolatingParam id="5172" interp="linr"  time="-9999999/1" value="0.80000000000000004" leadInLength="0/1"   name="leftClickDuration"/>
            <InterpolatingParam id="5173" interp="linr"  time="-9999999/1" value="20" leadInLength="0/1"   name="leftClickSize"/>
            <Parameter id="5174"   name="leftClickSoundFilename">
             <Keyframes>
             <Keyframe id="5175"  time="-9999999/1" value="" leadInLength="0/1"  />
             </Keyframes>
            </Parameter>
            <InterpolatingParam id="5176" interp="linr"  time="-9999999/1" value="1" leadInLength="0/1"   name="leftClickSoundVolume"/>
            <Parameter id="5177"   name="leftClickType">
             <Keyframes>
             <Keyframe id="5178"  time="-9999999/1" value="0" leadInLength="0/1"  />
             </Keyframes>
            </Parameter>
            <InterpolatingParam id="5179" interp="linr"  time="-9999999/1" value="1" leadInLength="0/1"   name="opacity"/>
            <InterpolatingParam id="5180" interp="linr"  time="-9999999/1" value="255" leadInLength="0/1"   name="rightClickColorBlue"/>
            <InterpolatingParam id="5181" interp="linr"  time="-9999999/1" value="0" leadInLength="0/1"   name="rightClickColorGreen"/>
            <InterpolatingParam id="5182" interp="linr"  time="-9999999/1" value="0" leadInLength="0/1"   name="rightClickColorRed"/>
            <InterpolatingParam id="5183" interp="linr"  time="-9999999/1" value="0.80000000000000004" leadInLength="0/1"   name="rightClickDuration"/>
            <InterpolatingParam id="5184" interp="linr"  time="-9999999/1" value="20" leadInLength="0/1"   name="rightClickSize"/>
            <Parameter id="5185"   name="rightClickSoundFilename">
             <Keyframes>
             <Keyframe id="5186"  time="-9999999/1" value="" leadInLength="0/1"  />
             </Keyframes>
            </Parameter>
            <InterpolatingParam id="5187" interp="linr"  time="-9999999/1" value="1" leadInLength="0/1"   name="rightClickSoundVolume"/>
            <Parameter id="5188"   name="rightClickType">
             <Keyframes>
             <Keyframe id="5189"  time="-9999999/1" value="0" leadInLength="0/1"  />
             </Keyframes>
            </Parameter>
            </Parameters>
            <MetaData>
             <entry key="effectIndex" val="0"/>
            </MetaData>
           </GenericEffect>
          </Effects>
          <Attributes>
           <Attribute id="5190" value="" name="ident"/>
          </Attributes>
          <ExtraData>
           <Entry key="ZoomPanBin">
            <ZoomPanBin id="5191"  >
             <ZoomPanKeyframes>
              <ZoomPanKeyframe id="5192" timeRangeEnd="-9999999/1" timeRangeDuration="0/1" interpolaterName="linr"  />
             </ZoomPanKeyframes>
            </ZoomPanBin>
           </Entry>
           <Entry key="CursorEffectBin">
            <CursorEffectBin id="5193"  >
             <CursorEffectKeyframes>
              <CursorEffectKeyframe id="5194" timeRangeEnd="-9999999/1" timeRangeDuration="0/1" interpolaterName=""  />
             </CursorEffectKeyframes>
            </CursorEffectBin>
           </Entry>
          </ExtraData>
         </ScreenVMFile>
         <MetaData>
          <entry key="AutoAppliedSmartFocus" val="False"/>
          <entry key="WinSubProjectDisplayName" val=""/>
         </MetaData>
        </UnifiedMedia>
       </Medias>
      </GenericTrack>
      <GenericTrack id="5195"  >
       <Attributes>
        <Attribute id="5196" value="" name="ident"/>
        <Attribute id="5197" value="0" name="audioMuted"/>
        <Attribute id="5198" value="0" name="videoHidden"/>
       </Attributes>
       <MetaData>
        <entry key="IsLocked" val="False"/>
        <entry key="WinTrackHeight" val="62"/>
       </MetaData>
       <Medias>
        <IMFile id="5199" start="4004" duration="216" scalar="1/1" mediaStart="0/1" mediaDuration="1/1" trackNumber="0" src="6" trimStartSum="159/1" >
         <Transformer>
          <VectorParam id="5200"  name="translation">
           <InterpolatingParam id="5201" interp="linr"  time="-9999999/1" value="-3.3306690738754506e-012" leadInLength="0/1"  />
           <InterpolatingParam id="5202" interp="linr"  time="-9999999/1" value="-4.0728309613768943e-011" leadInLength="0/1"  />
           <InterpolatingParam id="5203" interp="linr"  time="-9999999/1" value="0" leadInLength="0/1"  />
          </VectorParam>
          <VectorParam id="5204"  name="rotation">
           <InterpolatingParam id="5205" interp="linr"  time="-9999999/1" value="0" leadInLength="0/1"  />
           <InterpolatingParam id="5206" interp="linr"  time="-9999999/1" value="0" leadInLength="0/1"  />
           <InterpolatingParam id="5207" interp="linr"  time="-9999999/1" value="0" leadInLength="0/1"  />
          </VectorParam>
          <VectorParam id="5208"  name="shear">
           <InterpolatingParam id="5209" interp="linr"  time="-9999999/1" value="0" leadInLength="0/1"  />
           <InterpolatingParam id="5210" interp="linr"  time="-9999999/1" value="0" leadInLength="0/1"  />
           <InterpolatingParam id="5211" interp="linr"  time="-9999999/1" value="0" leadInLength="0/1"  />
          </VectorParam>
          <VectorParam id="5212"  name="scale">
           <InterpolatingParam id="5213" interp="linr"  time="-9999999/1" value="1" leadInLength="0/1"  />
           <InterpolatingParam id="5214" interp="linr"  time="-9999999/1" value="1" leadInLength="0/1"  />
           <InterpolatingParam id="5215" interp="linr"  time="-9999999/1" value="1" leadInLength="0/1"  />
          </VectorParam>
          <VectorParam id="5216"  name="anchor">
           <InterpolatingParam id="5217" interp="linr"  time="0/1" value="0" leadInLength="0/1"  />
           <InterpolatingParam id="5218" interp="linr"  time="0/1" value="0" leadInLength="0/1"  />
           <InterpolatingParam id="5219" interp="linr"  time="0/1" value="0" leadInLength="0/1"  />
          </VectorParam>
         </Transformer>
         <Parameters>
          <VectorParam id="5220"  name="sourceCrop">
           <InterpolatingParam id="5221" interp="linr"  time="0/1" value="0" leadInLength="0/1"  />
           <InterpolatingParam id="5222" interp="linr"  time="0/1" value="0" leadInLength="0/1"  />
           <InterpolatingParam id="5223" interp="linr"  time="0/1" value="0" leadInLength="0/1"  />
           <InterpolatingParam id="5224" interp="linr"  time="0/1" value="0" leadInLength="0/1"  />
          </VectorParam>
          <VectorParam id="5225"  name="geometryCrop">
           <InterpolatingParam id="5226" interp="linr"  time="-9999999/1" value="0" leadInLength="0/1"  />
           <InterpolatingParam id="5227" interp="linr"  time="-9999999/1" value="0" leadInLength="0/1"  />
           <InterpolatingParam id="5228" interp="linr"  time="-9999999/1" value="0" leadInLength="0/1"  />
           <InterpolatingParam id="5229" interp="linr"  time="-9999999/1" value="0" leadInLength="0/1"  />
          </VectorParam>
          <InterpolatingParam id="5230" interp="linr"  time="-9999999/1" value="1" leadInLength="0/1"  name="opacity"/>
         </Parameters>
         <Attributes>
          <Attribute id="5231" value="" name="ident"/>
         </Attributes>
         <MetaData>
          <entry key="WinSubProjectDisplayName" val=""/>
         </MetaData>
         <ExtraData>
          <Entry key="ZoomPanBin">
           <ZoomPanBin id="5232"  >
            <ZoomPanKeyframes>
             <ZoomPanKeyframe id="5233" timeRangeEnd="-9999999/1" timeRangeDuration="0/1" interpolaterName="linr"  />
            </ZoomPanKeyframes>
           </ZoomPanBin>
          </Entry>
         </ExtraData>
        </IMFile>
        <IMFile id="5234" start="7966" duration="223" scalar="1/1" mediaStart="0/1" mediaDuration="1/1" trackNumber="0" src="8" trimStartSum="-8/1" >
         <Transformer>
          <VectorParam id="5235"  name="translation">
           <InterpolatingParam id="5236" interp="linr"  time="-9999999/1" value="-344.5000000000154" leadInLength="0/1"  />
           <InterpolatingParam id="5237" interp="linr"  time="-9999999/1" value="-35.166666666666586" leadInLength="0/1"  />
           <InterpolatingParam id="5238" interp="linr"  time="-9999999/1" value="0" leadInLength="0/1"  />
          </VectorParam>
          <VectorParam id="5239"  name="rotation">
           <InterpolatingParam id="5240" interp="linr"  time="-9999999/1" value="0" leadInLength="0/1"  />
           <InterpolatingParam id="5241" interp="linr"  time="-9999999/1" value="0" leadInLength="0/1"  />
           <InterpolatingParam id="5242" interp="linr"  time="-9999999/1" value="0" leadInLength="0/1"  />
          </VectorParam>
          <VectorParam id="5243"  name="shear">
           <InterpolatingParam id="5244" interp="linr"  time="-9999999/1" value="0" leadInLength="0/1"  />
           <InterpolatingParam id="5245" interp="linr"  time="-9999999/1" value="0" leadInLength="0/1"  />
           <InterpolatingParam id="5246" interp="linr"  time="-9999999/1" value="0" leadInLength="0/1"  />
          </VectorParam>
          <VectorParam id="5247"  name="scale">
           <InterpolatingParam id="5248" interp="linr"  time="-9999999/1" value="1" leadInLength="0/1"  />
           <InterpolatingParam id="5249" interp="linr"  time="-9999999/1" value="1" leadInLength="0/1"  />
           <InterpolatingParam id="5250" interp="linr"  time="-9999999/1" value="1" leadInLength="0/1"  />
          </VectorParam>
          <VectorParam id="5251"  name="anchor">
           <InterpolatingParam id="5252" interp="linr"  time="0/1" value="0" leadInLength="0/1"  />
           <InterpolatingParam id="5253" interp="linr"  time="0/1" value="0" leadInLength="0/1"  />
           <InterpolatingParam id="5254" interp="linr"  time="0/1" value="0" leadInLength="0/1"  />
          </VectorParam>
         </Transformer>
         <Parameters>
          <VectorParam id="5255"  name="sourceCrop">
           <InterpolatingParam id="5256" interp="linr"  time="0/1" value="0" leadInLength="0/1"  />
           <InterpolatingParam id="5257" interp="linr"  time="0/1" value="0" leadInLength="0/1"  />
           <InterpolatingParam id="5258" interp="linr"  time="0/1" value="0" leadInLength="0/1"  />
           <InterpolatingParam id="5259" interp="linr"  time="0/1" value="0" leadInLength="0/1"  />
          </VectorParam>
          <VectorParam id="5260"  name="geometryCrop">
           <InterpolatingParam id="5261" interp="linr"  time="-9999999/1" value="0" leadInLength="0/1"  />
           <InterpolatingParam id="5262" interp="linr"  time="-9999999/1" value="0" leadInLength="0/1"  />
           <InterpolatingParam id="5263" interp="linr"  time="-9999999/1" value="0" leadInLength="0/1"  />
           <InterpolatingParam id="5264" interp="linr"  time="-9999999/1" value="0" leadInLength="0/1"  />
          </VectorParam>
          <InterpolatingParam id="5265" interp="linr"  time="-9999999/1" value="1" leadInLength="0/1"  name="opacity"/>
         </Parameters>
         <Attributes>
          <Attribute id="5266" value="" name="ident"/>
         </Attributes>
         <MetaData>
          <entry key="WinSubProjectDisplayName" val=""/>
         </MetaData>
         <ExtraData>
          <Entry key="ZoomPanBin">
           <ZoomPanBin id="5267"  >
            <ZoomPanKeyframes>
             <ZoomPanKeyframe id="5268" timeRangeEnd="-9999999/1" timeRangeDuration="0/1" interpolaterName="linr"  />
            </ZoomPanKeyframes>
           </ZoomPanBin>
          </Entry>
         </ExtraData>
        </IMFile>
       </Medias>
      </GenericTrack>
      <GenericTrack id="5269"  >
       <Attributes>
        <Attribute id="5270" value="" name="ident"/>
        <Attribute id="5271" value="0" name="audioMuted"/>
        <Attribute id="5272" value="0" name="videoHidden"/>
       </Attributes>
       <MetaData>
        <entry key="IsLocked" val="False"/>
        <entry key="WinTrackHeight" val="62"/>
       </MetaData>
       <Medias>
        <StitchedMedia id="5273" start="0" duration="7440" scalar="1/1" mediaStart="0/1" mediaDuration="7440/1" minMediaStart="0/1" >
         <Transformer>
          <VectorParam id="5274"  name="translation">
           <InterpolatingParam id="5275" interp="linr"  time="0/1" value="0" leadInLength="0/1"  />
           <InterpolatingParam id="5276" interp="linr"  time="0/1" value="0" leadInLength="0/1"  />
           <InterpolatingParam id="5277" interp="linr"  time="0/1" value="0" leadInLength="0/1"  />
          </VectorParam>
          <VectorParam id="5278"  name="rotation">
           <InterpolatingParam id="5279" interp="linr"  time="0/1" value="0" leadInLength="0/1"  />
           <InterpolatingParam id="5280" interp="linr"  time="0/1" value="0" leadInLength="0/1"  />
           <InterpolatingParam id="5281" interp="linr"  time="0/1" value="0" leadInLength="0/1"  />
          </VectorParam>
          <VectorParam id="5282"  name="shear">
           <InterpolatingParam id="5283" interp="linr"  time="0/1" value="0" leadInLength="0/1"  />
           <InterpolatingParam id="5284" interp="linr"  time="0/1" value="0" leadInLength="0/1"  />
           <InterpolatingParam id="5285" interp="linr"  time="0/1" value="0" leadInLength="0/1"  />
          </VectorParam>
          <VectorParam id="5286"  name="scale">
           <InterpolatingParam id="5287" interp="linr"  time="0/1" value="1" leadInLength="0/1"  />
           <InterpolatingParam id="5288" interp="linr"  time="0/1" value="1" leadInLength="0/1"  />
           <InterpolatingParam id="5289" interp="linr"  time="0/1" value="1" leadInLength="0/1"  />
          </VectorParam>
          <VectorParam id="5290"  name="anchor">
           <InterpolatingParam id="5291" interp="linr"  time="0/1" value="0" leadInLength="0/1"  />
           <InterpolatingParam id="5292" interp="linr"  time="0/1" value="0" leadInLength="0/1"  />
           <InterpolatingParam id="5293" interp="linr"  time="0/1" value="0" leadInLength="0/1"  />
          </VectorParam>
         </Transformer>
         <Parameters>
          <InterpolatingParam id="5294" interp="linr"  time="0/1" value="1" leadInLength="0/1"  name="cursorOpacity"/>
          <InterpolatingParam id="5295" interp="linr"  time="0/1" value="1" leadInLength="0/1"  name="cursorScale"/>
          <InterpolatingParam id="5296" interp="linr"  time="0/1" value="0.049627791563275077" leadInLength="0/1"  name="volume"/>
          <Parameter id="5297"  name="captions"/>
         </Parameters>
         <Attributes>
          <Attribute id="5298" value="" name="ident"/>
          <Attribute id="5299" value="0" name="mixToMono"/>
         </Attributes>
         <MetaData>
          <entry key="WinSubProjectDisplayName" val=""/>
         </MetaData>
         <ExtraData>
          <Entry key="ZoomPanBin">
           <ZoomPanBin id="5300"  >
            <ZoomPanKeyframes>
            </ZoomPanKeyframes>
           </ZoomPanBin>
          </Entry>
          <Entry key="CursorEffectBin">
           <CursorEffectBin id="5301"  >
            <CursorEffectKeyframes>
            </CursorEffectKeyframes>
           </CursorEffectBin>
          </Entry>
         </ExtraData>
         <GenericTrack id="5302"  >
          <Attributes>
           <Attribute id="5303" value="" name="ident"/>
           <Attribute id="5304" value="0" name="audioMuted"/>
           <Attribute id="5305" value="0" name="videoHidden"/>
          </Attributes>
          <MetaData>
           <entry key="IsLocked" val="False"/>
           <entry key="WinTrackHeight" val="0"/>
          </MetaData>
          <Medias>
           <AMFile id="5306" start="0" duration="5217" scalar="1/1" mediaStart="0/1" mediaDuration="5217/1" trackNumber="0" src="11" channelNumber="0,1" >
            <Parameters>
             <InterpolatingParam id="5307" interp="linr"  time="0/1" value="1" leadInLength="0/1"  name="volume"/>
             <Parameter id="5308"  name="captions"/>
            </Parameters>
            <Attributes>
             <Attribute id="5309" value="" name="ident"/>
             <Attribute id="5310" value="44100" name="sampleRate"/>
             <Attribute id="5311" value="0" name="bitDepth"/>
             <Attribute id="5312" value="1" name="gain"/>
             <Attribute id="5313" value="0" name="mixToMono"/>
            </Attributes>
            <MetaData>
             <entry key="WinSubProjectDisplayName" val=""/>
            </MetaData>
           </AMFile>
           <AMFile id="5314" start="5217" duration="2503" scalar="1/1" mediaStart="5228/1" mediaDuration="2503/1" trackNumber="0" src="11" channelNumber="0,1" >
            <Parameters>
             <InterpolatingParam id="5315" interp="linr"  time="0/1" value="1" leadInLength="0/1"  name="volume"/>
             <Parameter id="5316"  name="captions"/>
            </Parameters>
            <Attributes>
             <Attribute id="5317" value="" name="ident"/>
             <Attribute id="5318" value="44100" name="sampleRate"/>
             <Attribute id="5319" value="0" name="bitDepth"/>
             <Attribute id="5320" value="1" name="gain"/>
             <Attribute id="5321" value="0" name="mixToMono"/>
            </Attributes>
            <MetaData>
             <entry key="WinSubProjectDisplayName" val=""/>
            </MetaData>
           </AMFile>
          </Medias>
         </GenericTrack>
        </StitchedMedia>
        <AMFile id="5322" start="7440" duration="7183" scalar="1/1" mediaStart="0/1" mediaDuration="7183/1" trackNumber="0" src="11" channelNumber="0,1" >
         <Parameters>
          <InterpolatingParam id="5323" interp="linr"  time="0/1" value="0.049526303236970173" leadInLength="0/1"  name="volume"/>
          <Parameter id="5324"  name="captions"/>
         </Parameters>
         <Attributes>
          <Attribute id="5325" value="" name="ident"/>
          <Attribute id="5326" value="44100" name="sampleRate"/>
          <Attribute id="5327" value="0" name="bitDepth"/>
          <Attribute id="5328" value="1" name="gain"/>
          <Attribute id="5329" value="0" name="mixToMono"/>
         </Attributes>
         <MetaData>
          <entry key="WinSubProjectDisplayName" val=""/>
         </MetaData>
        </AMFile>
       </Medias>
      </GenericTrack>
      <GenericTrack id="5330"  >
       <Attributes>
        <Attribute id="5331" value="" name="ident"/>
        <Attribute id="5332" value="0" name="audioMuted"/>
        <Attribute id="5333" value="0" name="videoHidden"/>
       </Attributes>
       <MetaData>
        <entry key="IsLocked" val="False"/>
        <entry key="WinTrackHeight" val="62"/>
       </MetaData>
       <Medias>
        <Callout id="5334" start="3919" duration="210" scalar="1/1" mediaStart="0/1" mediaDuration="210/1" >
         <Transformer>
          <VectorParam id="5335"  name="translation">
           <InterpolatingParam id="5336" interp="linr"  time="-9999999/1" value="-390.1666666661306" leadInLength="0/1"  />
           <InterpolatingParam id="5337" interp="linr"  time="-9999999/1" value="111.66666666665867" leadInLength="0/1"  />
           <InterpolatingParam id="5338" interp="linr"  time="-9999999/1" value="0" leadInLength="0/1"  />
          </VectorParam>
          <VectorParam id="5339"  name="rotation">
           <InterpolatingParam id="5340" interp="linr"  time="-9999999/1" value="0" leadInLength="0/1"  />
           <InterpolatingParam id="5341" interp="linr"  time="-9999999/1" value="0" leadInLength="0/1"  />
           <InterpolatingParam id="5342" interp="linr"  time="-9999999/1" value="0" leadInLength="0/1"  />
          </VectorParam>
          <VectorParam id="5343"  name="shear">
           <InterpolatingParam id="5344" interp="linr"  time="-9999999/1" value="0" leadInLength="0/1"  />
           <InterpolatingParam id="5345" interp="linr"  time="-9999999/1" value="0" leadInLength="0/1"  />
           <InterpolatingParam id="5346" interp="linr"  time="-9999999/1" value="0" leadInLength="0/1"  />
          </VectorParam>
          <VectorParam id="5347"  name="scale">
           <InterpolatingParam id="5348" interp="linr"  time="-9999999/1" value="1.2107843137271184" leadInLength="0/1"  />
           <InterpolatingParam id="5349" interp="linr"  time="-9999999/1" value="0.68281939178818996" leadInLength="0/1"  />
           <InterpolatingParam id="5350" interp="linr"  time="-9999999/1" value="1" leadInLength="0/1"  />
          </VectorParam>
          <VectorParam id="5351"  name="anchor">
           <InterpolatingParam id="5352" interp="linr"  time="0/1" value="0" leadInLength="0/1"  />
           <InterpolatingParam id="5353" interp="linr"  time="0/1" value="0" leadInLength="0/1"  />
           <InterpolatingParam id="5354" interp="linr"  time="0/1" value="0" leadInLength="0/1"  />
          </VectorParam>
         </Transformer>
         <Parameters>
          <VectorParam id="5355"  name="sourceCrop">
           <InterpolatingParam id="5356" interp="linr"  time="0/1" value="0" leadInLength="0/1"  />
           <InterpolatingParam id="5357" interp="linr"  time="0/1" value="0" leadInLength="0/1"  />
           <InterpolatingParam id="5358" interp="linr"  time="0/1" value="0" leadInLength="0/1"  />
           <InterpolatingParam id="5359" interp="linr"  time="0/1" value="0" leadInLength="0/1"  />
          </VectorParam>
          <VectorParam id="5360"  name="geometryCrop">
           <InterpolatingParam id="5361" interp="linr"  time="-9999999/1" value="0" leadInLength="0/1"  />
           <InterpolatingParam id="5362" interp="linr"  time="-9999999/1" value="0" leadInLength="0/1"  />
           <InterpolatingParam id="5363" interp="linr"  time="-9999999/1" value="0" leadInLength="0/1"  />
           <InterpolatingParam id="5364" interp="linr"  time="-9999999/1" value="0" leadInLength="0/1"  />
          </VectorParam>
          <InterpolatingParam id="5365" interp="linr"  time="-9999999/1" value="1" leadInLength="0/1"  name="opacity"/>
         </Parameters>
         <Effects>
          <GenericEffect id="5366" name = "DropShadow" >
           <Parameters>
           <InterpolatingParam id="5367" interp="linr"  time="0/1" value="315" leadInLength="0/1"   name="angle"/>
           <InterpolatingParam id="5368" interp="linr"  time="0/1" value="2" leadInLength="0/1"   name="blur"/>
           <Parameter id="5369"   name="enabled">
            <Keyframes>
            <Keyframe id="5370"  time="0/1" value="1" leadInLength="0/1"  />
            </Keyframes>
           </Parameter>
           <InterpolatingParam id="5371" interp="linr"  time="0/1" value="4" leadInLength="0/1"   name="offset"/>
           <InterpolatingParam id="5372" interp="linr"  time="0/1" value="0.75" leadInLength="0/1"   name="opacity"/>
           </Parameters>
          </GenericEffect>
         </Effects>
         <Attributes>
          <Attribute id="5373"  name="vectorNode">
           <VectorNode id="5374" kind="TypeWinXML"  >
            <DoubleParameters>
             <InterpolatingParam id="5375" interp="linr"  time="0/1" value="-1" leadInLength="0/1"  name="CutoutPercentage"/>
             <InterpolatingParam id="5376" interp="linr"  time="0/1" value="30" leadInLength="0/1"  name="RoundedRectRadius"/>
             <InterpolatingParam id="5377" interp="linr"  time="0/1" value="3" leadInLength="0/1"  name="Style"/>
             <InterpolatingParam id="5378" interp="linr"  time="0/1" value="215" leadInLength="0/1"  name="borderColorBlue"/>
             <InterpolatingParam id="5379" interp="linr"  time="0/1" value="215" leadInLength="0/1"  name="borderColorGreen"/>
             <InterpolatingParam id="5380" interp="linr"  time="0/1" value="215" leadInLength="0/1"  name="borderColorRed"/>
             <InterpolatingParam id="5381" interp="linr"  time="0/1" value="1" leadInLength="0/1"  name="borderState"/>
             <InterpolatingParam id="5382" interp="linr"  time="0/1" value="5" leadInLength="0/1"  name="borderWidth"/>
             <InterpolatingParam id="5383" interp="linr"  time="0/1" value="0" leadInLength="0/1"  name="dimensionTime"/>
             <InterpolatingParam id="5384" interp="linr"  time="0/1" value="243" leadInLength="0/1"  name="fillColorBlue"/>
             <InterpolatingParam id="5385" interp="linr"  time="0/1" value="238" leadInLength="0/1"  name="fillColorGreen"/>
             <InterpolatingParam id="5386" interp="linr"  time="0/1" value="219" leadInLength="0/1"  name="fillColorRed"/>
             <InterpolatingParam id="5387" interp="linr"  time="0/1" value="1" leadInLength="0/1"  name="fillState"/>
             <InterpolatingParam id="5388" interp="linr"  time="0/1" value="1" leadInLength="0/1"  name="flipOnXAxis"/>
             <InterpolatingParam id="5389" interp="linr"  time="0/1" value="1" leadInLength="0/1"  name="flipOnYAxis"/>
             <InterpolatingParam id="5390" interp="linr"  time="0/1" value="252.22222222222223" leadInLength="0/1"  name="height"/>
             <InterpolatingParam id="5391" interp="linr"  time="0/1" value="0" leadInLength="0/1"  name="textDropShadow"/>
             <InterpolatingParam id="5392" interp="linr"  time="0/1" value="0" leadInLength="0/1"  name="textIgnoresOpacity"/>
             <InterpolatingParam id="5393" interp="linr"  time="0/1" value="0.86784140969162993" leadInLength="0/1"  name="textRectHeight"/>
             <InterpolatingParam id="5394" interp="linr"  time="0/1" value="0.90196078431372551" leadInLength="0/1"  name="textRectWidth"/>
             <InterpolatingParam id="5395" interp="linr"  time="0/1" value="0.049019607843137254" leadInLength="0/1"  name="textRectX"/>
             <InterpolatingParam id="5396" interp="linr"  time="0/1" value="0.066079295154185022" leadInLength="0/1"  name="textRectY"/>
             <InterpolatingParam id="5397" interp="linr"  time="0/1" value="0" leadInLength="0/1"  name="textVerticalAlign"/>
             <InterpolatingParam id="5398" interp="linr"  time="0/1" value="340" leadInLength="0/1"  name="width"/>
            </DoubleParameters>
            <StringParameters>
             <Parameter id="5399"  name="VectorPath">
              <Keyframes>
              <Keyframe id="5400"  time="0/1" value="M10,0h286c5.521,0,10,4.477,10,10v207c0,5.521-4.479,10-10,10H10c-5.523,0-10-4.479-10-10V10&#xa;&#x9;C0,4.477,4.477,0,10,0z" leadInLength="0/1"  />
              </Keyframes>
             </Parameter>
             <Parameter id="5401"  name="filename">
              <Keyframes>
              <Keyframe id="5402"  time="0/1" value="D:\Program Files (x86)\TechSmith\Camtasia Studio 8\Media\Studio\Callouts\roundedrectangle.xml" leadInLength="0/1"  />
              </Keyframes>
             </Parameter>
             <Parameter id="5403"  name="name">
              <Keyframes>
              <Keyframe id="5404"  time="0/1" value="Filled Rounded Rectangle" leadInLength="0/1"  />
              </Keyframes>
             </Parameter>
             <Parameter id="5405"  name="text">
              <Keyframes>
              <Keyframe id="5406"  time="0/1" value="{\rtf1\ansi\ansicpg1252\deff0\deflang1033{\fonttbl{\f0\fnil\fcharset134 Arial;}{\f1\fswiss\fprq2\fcharset0 Arial;}}&#xD;&#xa;{\colortbl ;\red16\green144\blue255;}&#xD;&#xa;\viewkind4\uc1\pard\qc\cf1\f0\fs120\&apos;bb\&apos;e6\&apos;d6\&apos;c6\&apos;d0\&apos;c4\&apos;d0\&apos;ce\f1\fs96\par&#xD;&#xa;}&#xD;&#xa;" leadInLength="0/1"  />
              </Keyframes>
             </Parameter>
             <Parameter id="5407"  name="xmlContent">
              <Keyframes>
              <Keyframe id="5408"  time="0/1" value="﻿&lt;?xml version=&quot;1.0&quot;?&gt;&#xa;&#xa;&lt;Overlay version=&quot;1.0.1&quot;&gt;&#xa;&#xa;&lt;Overlay_Filename&gt;roundedrectangle.png&lt;/Overlay_Filename&gt;&#xa;&lt;Overlay_Name&gt;Filled Rounded Rectangle&lt;/Overlay_Name&gt;&#xa;&lt;Text_Top&gt;15&lt;/Text_Top&gt;&#xa;&lt;Text_Left&gt;15&lt;/Text_Left&gt;&#xa;&lt;Text_Bottom&gt;15&lt;/Text_Bottom&gt;&#xa;&lt;Text_Right&gt;15&lt;/Text_Right&gt;&#xa;&lt;Fill_Color&gt;1&lt;/Fill_Color&gt;&#xa;&lt;Border_Color&gt;1&lt;/Border_Color&gt;&#xa;&lt;Initial_Fill_Color&gt;0xffe05f00&lt;/Initial_Fill_Color&gt;&#xa;&lt;Initial_Border_Color&gt;0xffd7d7d7&lt;/Initial_Border_Color&gt;&#xa;&lt;VectorProps&gt;&#xa;&lt;figure&gt;&#xa;&lt;svg&gt;M10,0h286c5.521,0,10,4.477,10,10v207c0,5.521-4.479,10-10,10H10c-5.523,0-10-4.479-10-10V10&#xa;&#x9;C0,4.477,4.477,0,10,0z&lt;/svg&gt;&#xa;&lt;/figure&gt;&#xa;&lt;borderWidth&gt;5.00&lt;/borderWidth&gt;&#xa;&lt;seamY&gt;-1&lt;/seamY&gt;&#xa;&lt;roundedRectRadius&gt;30&lt;/roundedRectRadius&gt;&#xa;&lt;shapeWidth&gt;306&lt;/shapeWidth&gt;&#xa;&lt;shapeHeight&gt;227&lt;/shapeHeight&gt;&#xa;&lt;/VectorProps&gt;&#xa;&lt;Style&gt;5&lt;/Style&gt;&#xa;&lt;/Overlay&gt;" leadInLength="0/1"  />
              </Keyframes>
             </Parameter>
            </StringParameters>
           </VectorNode>
          </Attribute>
         </Attributes>
         <MetaData>
          <entry key="WinSubProjectDisplayName" val=""/>
         </MetaData>
         <LeftEdgeMods length="30/1" groupName="OpacityFade">
          <EdgeMod parameter="5365">
           <FadeInFunc id="5409"  />
          </EdgeMod>
         </LeftEdgeMods>
         <RightEdgeMods length="30/1" groupName="OpacityFade">
          <EdgeMod parameter="5365">
           <FadeOutFunc id="5410"  />
          </EdgeMod>
         </RightEdgeMods>
         <ExtraData>
          <Entry key="ZoomPanBin">
           <ZoomPanBin id="5411"  >
            <ZoomPanKeyframes>
             <ZoomPanKeyframe id="5412" timeRangeEnd="-9999999/1" timeRangeDuration="0/1" interpolaterName="linr"  />
            </ZoomPanKeyframes>
           </ZoomPanBin>
          </Entry>
         </ExtraData>
        </Callout>
        <Callout id="5413" start="6414" duration="210" scalar="1/1" mediaStart="0/1" mediaDuration="210/1" >
         <Transformer>
          <VectorParam id="5414"  name="translation">
           <InterpolatingParam id="5415" interp="linr"  time="-9999999/1" value="-11.666666666278616" leadInLength="0/1"  />
           <InterpolatingParam id="5416" interp="linr"  time="-9999999/1" value="164.99999999994279" leadInLength="0/1"  />
           <InterpolatingParam id="5417" interp="linr"  time="-9999999/1" value="0" leadInLength="0/1"  />
          </VectorParam>
          <VectorParam id="5418"  name="rotation">
           <InterpolatingParam id="5419" interp="linr"  time="-9999999/1" value="0" leadInLength="0/1"  />
           <InterpolatingParam id="5420" interp="linr"  time="-9999999/1" value="0" leadInLength="0/1"  />
           <InterpolatingParam id="5421" interp="linr"  time="-9999999/1" value="0" leadInLength="0/1"  />
          </VectorParam>
          <VectorParam id="5422"  name="shear">
           <InterpolatingParam id="5423" interp="linr"  time="-9999999/1" value="0" leadInLength="0/1"  />
           <InterpolatingParam id="5424" interp="linr"  time="-9999999/1" value="0" leadInLength="0/1"  />
           <InterpolatingParam id="5425" interp="linr"  time="-9999999/1" value="0" leadInLength="0/1"  />
          </VectorParam>
          <VectorParam id="5426"  name="scale">
           <InterpolatingParam id="5427" interp="linr"  time="-9999999/1" value="0.87254901961015052" leadInLength="0/1"  />
           <InterpolatingParam id="5428" interp="linr"  time="-9999999/1" value="0.57709252238464881" leadInLength="0/1"  />
           <InterpolatingParam id="5429" interp="linr"  time="-9999999/1" value="1" leadInLength="0/1"  />
          </VectorParam>
          <VectorParam id="5430"  name="anchor">
           <InterpolatingParam id="5431" interp="linr"  time="0/1" value="0" leadInLength="0/1"  />
           <InterpolatingParam id="5432" interp="linr"  time="0/1" value="0" leadInLength="0/1"  />
           <InterpolatingParam id="5433" interp="linr"  time="0/1" value="0" leadInLength="0/1"  />
          </VectorParam>
         </Transformer>
         <Parameters>
          <VectorParam id="5434"  name="sourceCrop">
           <InterpolatingParam id="5435" interp="linr"  time="0/1" value="0" leadInLength="0/1"  />
           <InterpolatingParam id="5436" interp="linr"  time="0/1" value="0" leadInLength="0/1"  />
           <InterpolatingParam id="5437" interp="linr"  time="0/1" value="0" leadInLength="0/1"  />
           <InterpolatingParam id="5438" interp="linr"  time="0/1" value="0" leadInLength="0/1"  />
          </VectorParam>
          <VectorParam id="5439"  name="geometryCrop">
           <InterpolatingParam id="5440" interp="linr"  time="-9999999/1" value="0" leadInLength="0/1"  />
           <InterpolatingParam id="5441" interp="linr"  time="-9999999/1" value="0" leadInLength="0/1"  />
           <InterpolatingParam id="5442" interp="linr"  time="-9999999/1" value="0" leadInLength="0/1"  />
           <InterpolatingParam id="5443" interp="linr"  time="-9999999/1" value="0" leadInLength="0/1"  />
          </VectorParam>
          <InterpolatingParam id="5444" interp="linr"  time="-9999999/1" value="1" leadInLength="0/1"  name="opacity"/>
         </Parameters>
         <Effects>
          <GenericEffect id="5445" name = "DropShadow" >
           <Parameters>
           <InterpolatingParam id="5446" interp="linr"  time="0/1" value="315" leadInLength="0/1"   name="angle"/>
           <InterpolatingParam id="5447" interp="linr"  time="0/1" value="2" leadInLength="0/1"   name="blur"/>
           <Parameter id="5448"   name="enabled">
            <Keyframes>
            <Keyframe id="5449"  time="0/1" value="1" leadInLength="0/1"  />
            </Keyframes>
           </Parameter>
           <InterpolatingParam id="5450" interp="linr"  time="0/1" value="4" leadInLength="0/1"   name="offset"/>
           <InterpolatingParam id="5451" interp="linr"  time="0/1" value="0.75" leadInLength="0/1"   name="opacity"/>
           </Parameters>
          </GenericEffect>
         </Effects>
         <Attributes>
          <Attribute id="5452"  name="vectorNode">
           <VectorNode id="5453" kind="TypeWinXML"  >
            <DoubleParameters>
             <InterpolatingParam id="5454" interp="linr"  time="0/1" value="-1" leadInLength="0/1"  name="CutoutPercentage"/>
             <InterpolatingParam id="5455" interp="linr"  time="0/1" value="30" leadInLength="0/1"  name="RoundedRectRadius"/>
             <InterpolatingParam id="5456" interp="linr"  time="0/1" value="3" leadInLength="0/1"  name="Style"/>
             <InterpolatingParam id="5457" interp="linr"  time="0/1" value="215" leadInLength="0/1"  name="borderColorBlue"/>
             <InterpolatingParam id="5458" interp="linr"  time="0/1" value="215" leadInLength="0/1"  name="borderColorGreen"/>
             <InterpolatingParam id="5459" interp="linr"  time="0/1" value="215" leadInLength="0/1"  name="borderColorRed"/>
             <InterpolatingParam id="5460" interp="linr"  time="0/1" value="1" leadInLength="0/1"  name="borderState"/>
             <InterpolatingParam id="5461" interp="linr"  time="0/1" value="5" leadInLength="0/1"  name="borderWidth"/>
             <InterpolatingParam id="5462" interp="linr"  time="0/1" value="0" leadInLength="0/1"  name="dimensionTime"/>
             <InterpolatingParam id="5463" interp="linr"  time="0/1" value="243" leadInLength="0/1"  name="fillColorBlue"/>
             <InterpolatingParam id="5464" interp="linr"  time="0/1" value="238" leadInLength="0/1"  name="fillColorGreen"/>
             <InterpolatingParam id="5465" interp="linr"  time="0/1" value="219" leadInLength="0/1"  name="fillColorRed"/>
             <InterpolatingParam id="5466" interp="linr"  time="0/1" value="1" leadInLength="0/1"  name="fillState"/>
             <InterpolatingParam id="5467" interp="linr"  time="0/1" value="1" leadInLength="0/1"  name="flipOnXAxis"/>
             <InterpolatingParam id="5468" interp="linr"  time="0/1" value="1" leadInLength="0/1"  name="flipOnYAxis"/>
             <InterpolatingParam id="5469" interp="linr"  time="0/1" value="252.22222222222223" leadInLength="0/1"  name="height"/>
             <InterpolatingParam id="5470" interp="linr"  time="0/1" value="0" leadInLength="0/1"  name="textDropShadow"/>
             <InterpolatingParam id="5471" interp="linr"  time="0/1" value="0" leadInLength="0/1"  name="textIgnoresOpacity"/>
             <InterpolatingParam id="5472" interp="linr"  time="0/1" value="0.86784140969162993" leadInLength="0/1"  name="textRectHeight"/>
             <InterpolatingParam id="5473" interp="linr"  time="0/1" value="0.90196078431372551" leadInLength="0/1"  name="textRectWidth"/>
             <InterpolatingParam id="5474" interp="linr"  time="0/1" value="0.049019607843137254" leadInLength="0/1"  name="textRectX"/>
             <InterpolatingParam id="5475" interp="linr"  time="0/1" value="0.066079295154185022" leadInLength="0/1"  name="textRectY"/>
             <InterpolatingParam id="5476" interp="linr"  time="0/1" value="0" leadInLength="0/1"  name="textVerticalAlign"/>
             <InterpolatingParam id="5477" interp="linr"  time="0/1" value="340" leadInLength="0/1"  name="width"/>
            </DoubleParameters>
            <StringParameters>
             <Parameter id="5478"  name="VectorPath">
              <Keyframes>
              <Keyframe id="5479"  time="0/1" value="M10,0h286c5.521,0,10,4.477,10,10v207c0,5.521-4.479,10-10,10H10c-5.523,0-10-4.479-10-10V10&#xa;&#x9;C0,4.477,4.477,0,10,0z" leadInLength="0/1"  />
              </Keyframes>
             </Parameter>
             <Parameter id="5480"  name="filename">
              <Keyframes>
              <Keyframe id="5481"  time="0/1" value="D:\Program Files (x86)\TechSmith\Camtasia Studio 8\Media\Studio\Callouts\roundedrectangle.xml" leadInLength="0/1"  />
              </Keyframes>
             </Parameter>
             <Parameter id="5482"  name="name">
              <Keyframes>
              <Keyframe id="5483"  time="0/1" value="Filled Rounded Rectangle" leadInLength="0/1"  />
              </Keyframes>
             </Parameter>
             <Parameter id="5484"  name="text">
              <Keyframes>
              <Keyframe id="5485"  time="0/1" value="{\rtf1\ansi\ansicpg1252\deff0\deflang1033{\fonttbl{\f0\fnil\fcharset134 Arial;}{\f1\fswiss\fprq2\fcharset0 Arial;}}&#xD;&#xa;{\colortbl ;\red16\green144\blue255;}&#xD;&#xa;\viewkind4\uc1\pard\qc\cf1\f0\fs120\&apos;b3\&apos;e9\&apos;bf\&apos;c7\f1\fs96\par&#xD;&#xa;}&#xD;&#xa;" leadInLength="0/1"  />
              </Keyframes>
             </Parameter>
             <Parameter id="5486"  name="xmlContent">
              <Keyframes>
              <Keyframe id="5487"  time="0/1" value="﻿&lt;?xml version=&quot;1.0&quot;?&gt;&#xa;&#xa;&lt;Overlay version=&quot;1.0.1&quot;&gt;&#xa;&#xa;&lt;Overlay_Filename&gt;roundedrectangle.png&lt;/Overlay_Filename&gt;&#xa;&lt;Overlay_Name&gt;Filled Rounded Rectangle&lt;/Overlay_Name&gt;&#xa;&lt;Text_Top&gt;15&lt;/Text_Top&gt;&#xa;&lt;Text_Left&gt;15&lt;/Text_Left&gt;&#xa;&lt;Text_Bottom&gt;15&lt;/Text_Bottom&gt;&#xa;&lt;Text_Right&gt;15&lt;/Text_Right&gt;&#xa;&lt;Fill_Color&gt;1&lt;/Fill_Color&gt;&#xa;&lt;Border_Color&gt;1&lt;/Border_Color&gt;&#xa;&lt;Initial_Fill_Color&gt;0xffe05f00&lt;/Initial_Fill_Color&gt;&#xa;&lt;Initial_Border_Color&gt;0xffd7d7d7&lt;/Initial_Border_Color&gt;&#xa;&lt;VectorProps&gt;&#xa;&lt;figure&gt;&#xa;&lt;svg&gt;M10,0h286c5.521,0,10,4.477,10,10v207c0,5.521-4.479,10-10,10H10c-5.523,0-10-4.479-10-10V10&#xa;&#x9;C0,4.477,4.477,0,10,0z&lt;/svg&gt;&#xa;&lt;/figure&gt;&#xa;&lt;borderWidth&gt;5.00&lt;/borderWidth&gt;&#xa;&lt;seamY&gt;-1&lt;/seamY&gt;&#xa;&lt;roundedRectRadius&gt;30&lt;/roundedRectRadius&gt;&#xa;&lt;shapeWidth&gt;306&lt;/shapeWidth&gt;&#xa;&lt;shapeHeight&gt;227&lt;/shapeHeight&gt;&#xa;&lt;/VectorProps&gt;&#xa;&lt;Style&gt;5&lt;/Style&gt;&#xa;&lt;/Overlay&gt;" leadInLength="0/1"  />
              </Keyframes>
             </Parameter>
            </StringParameters>
           </VectorNode>
          </Attribute>
         </Attributes>
         <MetaData>
          <entry key="WinSubProjectDisplayName" val=""/>
         </MetaData>
         <LeftEdgeMods length="30/1" groupName="OpacityFade">
          <EdgeMod parameter="5444">
           <FadeInFunc id="5488"  />
          </EdgeMod>
         </LeftEdgeMods>
         <RightEdgeMods length="30/1" groupName="OpacityFade">
          <EdgeMod parameter="5444">
           <FadeOutFunc id="5489"  />
          </EdgeMod>
         </RightEdgeMods>
         <ExtraData>
          <Entry key="ZoomPanBin">
           <ZoomPanBin id="5490"  >
            <ZoomPanKeyframes>
             <ZoomPanKeyframe id="5491" timeRangeEnd="-9999999/1" timeRangeDuration="0/1" interpolaterName="linr"  />
            </ZoomPanKeyframes>
           </ZoomPanBin>
          </Entry>
         </ExtraData>
        </Callout>
        <Callout id="5492" start="7966" duration="210" scalar="1/1" mediaStart="0/1" mediaDuration="210/1" >
         <Transformer>
          <VectorParam id="5493"  name="translation">
           <InterpolatingParam id="5494" interp="linr"  time="-9999999/1" value="-54.032549728408384" leadInLength="0/1"  />
           <InterpolatingParam id="5495" interp="linr"  time="-9999999/1" value="203.76130198915206" leadInLength="0/1"  />
           <InterpolatingParam id="5496" interp="linr"  time="-9999999/1" value="0" leadInLength="0/1"  />
          </VectorParam>
          <VectorParam id="5497"  name="rotation">
           <InterpolatingParam id="5498" interp="linr"  time="-9999999/1" value="0" leadInLength="0/1"  />
           <InterpolatingParam id="5499" interp="linr"  time="-9999999/1" value="0" leadInLength="0/1"  />
           <InterpolatingParam id="5500" interp="linr"  time="-9999999/1" value="0" leadInLength="0/1"  />
          </VectorParam>
          <VectorParam id="5501"  name="shear">
           <InterpolatingParam id="5502" interp="linr"  time="-9999999/1" value="0" leadInLength="0/1"  />
           <InterpolatingParam id="5503" interp="linr"  time="-9999999/1" value="0" leadInLength="0/1"  />
           <InterpolatingParam id="5504" interp="linr"  time="-9999999/1" value="0" leadInLength="0/1"  />
          </VectorParam>
          <VectorParam id="5505"  name="scale">
           <InterpolatingParam id="5506" interp="linr"  time="-9999999/1" value="1.264227209872502" leadInLength="0/1"  />
           <InterpolatingParam id="5507" interp="linr"  time="-9999999/1" value="0.68511364573536848" leadInLength="0/1"  />
           <InterpolatingParam id="5508" interp="linr"  time="-9999999/1" value="1" leadInLength="0/1"  />
          </VectorParam>
          <VectorParam id="5509"  name="anchor">
           <InterpolatingParam id="5510" interp="linr"  time="0/1" value="0" leadInLength="0/1"  />
           <InterpolatingParam id="5511" interp="linr"  time="0/1" value="0" leadInLength="0/1"  />
           <InterpolatingParam id="5512" interp="linr"  time="0/1" value="0" leadInLength="0/1"  />
          </VectorParam>
         </Transformer>
         <Parameters>
          <VectorParam id="5513"  name="sourceCrop">
           <InterpolatingParam id="5514" interp="linr"  time="0/1" value="0" leadInLength="0/1"  />
           <InterpolatingParam id="5515" interp="linr"  time="0/1" value="0" leadInLength="0/1"  />
           <InterpolatingParam id="5516" interp="linr"  time="0/1" value="0" leadInLength="0/1"  />
           <InterpolatingParam id="5517" interp="linr"  time="0/1" value="0" leadInLength="0/1"  />
          </VectorParam>
          <VectorParam id="5518"  name="geometryCrop">
           <InterpolatingParam id="5519" interp="linr"  time="-9999999/1" value="0" leadInLength="0/1"  />
           <InterpolatingParam id="5520" interp="linr"  time="-9999999/1" value="0" leadInLength="0/1"  />
           <InterpolatingParam id="5521" interp="linr"  time="-9999999/1" value="0" leadInLength="0/1"  />
           <InterpolatingParam id="5522" interp="linr"  time="-9999999/1" value="0" leadInLength="0/1"  />
          </VectorParam>
          <InterpolatingParam id="5523" interp="linr"  time="-9999999/1" value="1" leadInLength="0/1"  name="opacity"/>
         </Parameters>
         <Effects>
          <GenericEffect id="5524" name = "DropShadow" >
           <Parameters>
           <InterpolatingParam id="5525" interp="linr"  time="0/1" value="315" leadInLength="0/1"   name="angle"/>
           <InterpolatingParam id="5526" interp="linr"  time="0/1" value="2" leadInLength="0/1"   name="blur"/>
           <Parameter id="5527"   name="enabled">
            <Keyframes>
            <Keyframe id="5528"  time="0/1" value="1" leadInLength="0/1"  />
            </Keyframes>
           </Parameter>
           <InterpolatingParam id="5529" interp="linr"  time="0/1" value="4" leadInLength="0/1"   name="offset"/>
           <InterpolatingParam id="5530" interp="linr"  time="0/1" value="0.75" leadInLength="0/1"   name="opacity"/>
           </Parameters>
          </GenericEffect>
         </Effects>
         <Attributes>
          <Attribute id="5531"  name="vectorNode">
           <VectorNode id="5532" kind="TypeWinXML"  >
            <DoubleParameters>
             <InterpolatingParam id="5533" interp="linr"  time="0/1" value="-1" leadInLength="0/1"  name="CutoutPercentage"/>
             <InterpolatingParam id="5534" interp="linr"  time="0/1" value="30" leadInLength="0/1"  name="RoundedRectRadius"/>
             <InterpolatingParam id="5535" interp="linr"  time="0/1" value="3" leadInLength="0/1"  name="Style"/>
             <InterpolatingParam id="5536" interp="linr"  time="0/1" value="215" leadInLength="0/1"  name="borderColorBlue"/>
             <InterpolatingParam id="5537" interp="linr"  time="0/1" value="215" leadInLength="0/1"  name="borderColorGreen"/>
             <InterpolatingParam id="5538" interp="linr"  time="0/1" value="215" leadInLength="0/1"  name="borderColorRed"/>
             <InterpolatingParam id="5539" interp="linr"  time="0/1" value="1" leadInLength="0/1"  name="borderState"/>
             <InterpolatingParam id="5540" interp="linr"  time="0/1" value="5" leadInLength="0/1"  name="borderWidth"/>
             <InterpolatingParam id="5541" interp="linr"  time="0/1" value="0" leadInLength="0/1"  name="dimensionTime"/>
             <InterpolatingParam id="5542" interp="linr"  time="0/1" value="243" leadInLength="0/1"  name="fillColorBlue"/>
             <InterpolatingParam id="5543" interp="linr"  time="0/1" value="238" leadInLength="0/1"  name="fillColorGreen"/>
             <InterpolatingParam id="5544" interp="linr"  time="0/1" value="219" leadInLength="0/1"  name="fillColorRed"/>
             <InterpolatingParam id="5545" interp="linr"  time="0/1" value="1" leadInLength="0/1"  name="fillState"/>
             <InterpolatingParam id="5546" interp="linr"  time="0/1" value="1" leadInLength="0/1"  name="flipOnXAxis"/>
             <InterpolatingParam id="5547" interp="linr"  time="0/1" value="1" leadInLength="0/1"  name="flipOnYAxis"/>
             <InterpolatingParam id="5548" interp="linr"  time="0/1" value="252.22222222222223" leadInLength="0/1"  name="height"/>
             <InterpolatingParam id="5549" interp="linr"  time="0/1" value="0" leadInLength="0/1"  name="textDropShadow"/>
             <InterpolatingParam id="5550" interp="linr"  time="0/1" value="0" leadInLength="0/1"  name="textIgnoresOpacity"/>
             <InterpolatingParam id="5551" interp="linr"  time="0/1" value="0.86784140969162993" leadInLength="0/1"  name="textRectHeight"/>
             <InterpolatingParam id="5552" interp="linr"  time="0/1" value="0.90196078431372551" leadInLength="0/1"  name="textRectWidth"/>
             <InterpolatingParam id="5553" interp="linr"  time="0/1" value="0.049019607843137254" leadInLength="0/1"  name="textRectX"/>
             <InterpolatingParam id="5554" interp="linr"  time="0/1" value="0.066079295154185022" leadInLength="0/1"  name="textRectY"/>
             <InterpolatingParam id="5555" interp="linr"  time="0/1" value="0" leadInLength="0/1"  name="textVerticalAlign"/>
             <InterpolatingParam id="5556" interp="linr"  time="0/1" value="340" leadInLength="0/1"  name="width"/>
            </DoubleParameters>
            <StringParameters>
             <Parameter id="5557"  name="VectorPath">
              <Keyframes>
              <Keyframe id="5558"  time="0/1" value="M10,0h286c5.521,0,10,4.477,10,10v207c0,5.521-4.479,10-10,10H10c-5.523,0-10-4.479-10-10V10&#xa;&#x9;C0,4.477,4.477,0,10,0z" leadInLength="0/1"  />
              </Keyframes>
             </Parameter>
             <Parameter id="5559"  name="filename">
              <Keyframes>
              <Keyframe id="5560"  time="0/1" value="D:\Program Files (x86)\TechSmith\Camtasia Studio 8\Media\Studio\Callouts\roundedrectangle.xml" leadInLength="0/1"  />
              </Keyframes>
             </Parameter>
             <Parameter id="5561"  name="name">
              <Keyframes>
              <Keyframe id="5562"  time="0/1" value="Filled Rounded Rectangle" leadInLength="0/1"  />
              </Keyframes>
             </Parameter>
             <Parameter id="5563"  name="text">
              <Keyframes>
              <Keyframe id="5564"  time="0/1" value="{\rtf1\ansi\ansicpg1252\deff0\deflang1033{\fonttbl{\f0\fnil\fcharset134 Arial;}{\f1\fswiss\fprq2\fcharset0 Arial;}}&#xD;&#xa;{\colortbl ;\red16\green144\blue255;}&#xD;&#xa;\viewkind4\uc1\pard\qc\cf1\f0\fs120\&apos;bb\&apos;e6\&apos;d6\&apos;c6\&apos;b5\&apos;d7\&apos;d7\&apos;f9\f1\fs96\par&#xD;&#xa;}&#xD;&#xa;" leadInLength="0/1"  />
              </Keyframes>
             </Parameter>
             <Parameter id="5565"  name="xmlContent">
              <Keyframes>
              <Keyframe id="5566"  time="0/1" value="﻿&lt;?xml version=&quot;1.0&quot;?&gt;&#xa;&#xa;&lt;Overlay version=&quot;1.0.1&quot;&gt;&#xa;&#xa;&lt;Overlay_Filename&gt;roundedrectangle.png&lt;/Overlay_Filename&gt;&#xa;&lt;Overlay_Name&gt;Filled Rounded Rectangle&lt;/Overlay_Name&gt;&#xa;&lt;Text_Top&gt;15&lt;/Text_Top&gt;&#xa;&lt;Text_Left&gt;15&lt;/Text_Left&gt;&#xa;&lt;Text_Bottom&gt;15&lt;/Text_Bottom&gt;&#xa;&lt;Text_Right&gt;15&lt;/Text_Right&gt;&#xa;&lt;Fill_Color&gt;1&lt;/Fill_Color&gt;&#xa;&lt;Border_Color&gt;1&lt;/Border_Color&gt;&#xa;&lt;Initial_Fill_Color&gt;0xffe05f00&lt;/Initial_Fill_Color&gt;&#xa;&lt;Initial_Border_Color&gt;0xffd7d7d7&lt;/Initial_Border_Color&gt;&#xa;&lt;VectorProps&gt;&#xa;&lt;figure&gt;&#xa;&lt;svg&gt;M10,0h286c5.521,0,10,4.477,10,10v207c0,5.521-4.479,10-10,10H10c-5.523,0-10-4.479-10-10V10&#xa;&#x9;C0,4.477,4.477,0,10,0z&lt;/svg&gt;&#xa;&lt;/figure&gt;&#xa;&lt;borderWidth&gt;5.00&lt;/borderWidth&gt;&#xa;&lt;seamY&gt;-1&lt;/seamY&gt;&#xa;&lt;roundedRectRadius&gt;30&lt;/roundedRectRadius&gt;&#xa;&lt;shapeWidth&gt;306&lt;/shapeWidth&gt;&#xa;&lt;shapeHeight&gt;227&lt;/shapeHeight&gt;&#xa;&lt;/VectorProps&gt;&#xa;&lt;Style&gt;5&lt;/Style&gt;&#xa;&lt;/Overlay&gt;" leadInLength="0/1"  />
              </Keyframes>
             </Parameter>
            </StringParameters>
           </VectorNode>
          </Attribute>
         </Attributes>
         <MetaData>
          <entry key="WinSubProjectDisplayName" val=""/>
         </MetaData>
         <LeftEdgeMods length="30/1" groupName="OpacityFade">
          <EdgeMod parameter="5523">
           <FadeInFunc id="5567"  />
          </EdgeMod>
         </LeftEdgeMods>
         <RightEdgeMods length="30/1" groupName="OpacityFade">
          <EdgeMod parameter="5523">
           <FadeOutFunc id="5568"  />
          </EdgeMod>
         </RightEdgeMods>
         <ExtraData>
          <Entry key="ZoomPanBin">
           <ZoomPanBin id="5569"  >
            <ZoomPanKeyframes>
             <ZoomPanKeyframe id="5570" timeRangeEnd="-9999999/1" timeRangeDuration="0/1" interpolaterName="linr"  />
            </ZoomPanKeyframes>
           </ZoomPanBin>
          </Entry>
         </ExtraData>
        </Callout>
        <Callout id="5571" start="11374" duration="183" scalar="1/1" mediaStart="0/1" mediaDuration="183/1" >
         <Transformer>
          <VectorParam id="5572"  name="translation">
           <InterpolatingParam id="5573" interp="linr"  time="-9999999/1" value="-348.23529411744272" leadInLength="0/1"  />
           <InterpolatingParam id="5574" interp="linr"  time="-9999999/1" value="164.70588235292536" leadInLength="0/1"  />
           <InterpolatingParam id="5575" interp="linr"  time="-9999999/1" value="0" leadInLength="0/1"  />
          </VectorParam>
          <VectorParam id="5576"  name="rotation">
           <InterpolatingParam id="5577" interp="linr"  time="-9999999/1" value="0" leadInLength="0/1"  />
           <InterpolatingParam id="5578" interp="linr"  time="-9999999/1" value="0" leadInLength="0/1"  />
           <InterpolatingParam id="5579" interp="linr"  time="-9999999/1" value="0" leadInLength="0/1"  />
          </VectorParam>
          <VectorParam id="5580"  name="shear">
           <InterpolatingParam id="5581" interp="linr"  time="-9999999/1" value="0" leadInLength="0/1"  />
           <InterpolatingParam id="5582" interp="linr"  time="-9999999/1" value="0" leadInLength="0/1"  />
           <InterpolatingParam id="5583" interp="linr"  time="-9999999/1" value="0" leadInLength="0/1"  />
          </VectorParam>
          <VectorParam id="5584"  name="scale">
           <InterpolatingParam id="5585" interp="linr"  time="-9999999/1" value="1.2283737024226482" leadInLength="0/1"  />
           <InterpolatingParam id="5586" interp="linr"  time="-9999999/1" value="0.60818866044412023" leadInLength="0/1"  />
           <InterpolatingParam id="5587" interp="linr"  time="-9999999/1" value="1" leadInLength="0/1"  />
          </VectorParam>
          <VectorParam id="5588"  name="anchor">
           <InterpolatingParam id="5589" interp="linr"  time="0/1" value="0" leadInLength="0/1"  />
           <InterpolatingParam id="5590" interp="linr"  time="0/1" value="0" leadInLength="0/1"  />
           <InterpolatingParam id="5591" interp="linr"  time="0/1" value="0" leadInLength="0/1"  />
          </VectorParam>
         </Transformer>
         <Parameters>
          <VectorParam id="5592"  name="sourceCrop">
           <InterpolatingParam id="5593" interp="linr"  time="0/1" value="0" leadInLength="0/1"  />
           <InterpolatingParam id="5594" interp="linr"  time="0/1" value="0" leadInLength="0/1"  />
           <InterpolatingParam id="5595" interp="linr"  time="0/1" value="0" leadInLength="0/1"  />
           <InterpolatingParam id="5596" interp="linr"  time="0/1" value="0" leadInLength="0/1"  />
          </VectorParam>
          <VectorParam id="5597"  name="geometryCrop">
           <InterpolatingParam id="5598" interp="linr"  time="-9999999/1" value="0" leadInLength="0/1"  />
           <InterpolatingParam id="5599" interp="linr"  time="-9999999/1" value="0" leadInLength="0/1"  />
           <InterpolatingParam id="5600" interp="linr"  time="-9999999/1" value="0" leadInLength="0/1"  />
           <InterpolatingParam id="5601" interp="linr"  time="-9999999/1" value="0" leadInLength="0/1"  />
          </VectorParam>
          <InterpolatingParam id="5602" interp="linr"  time="-9999999/1" value="1" leadInLength="0/1"  name="opacity"/>
         </Parameters>
         <Effects>
          <GenericEffect id="5603" name = "DropShadow" >
           <Parameters>
           <InterpolatingParam id="5604" interp="linr"  time="0/1" value="315" leadInLength="0/1"   name="angle"/>
           <InterpolatingParam id="5605" interp="linr"  time="0/1" value="2" leadInLength="0/1"   name="blur"/>
           <Parameter id="5606"   name="enabled">
            <Keyframes>
            <Keyframe id="5607"  time="0/1" value="1" leadInLength="0/1"  />
            </Keyframes>
           </Parameter>
           <InterpolatingParam id="5608" interp="linr"  time="0/1" value="4" leadInLength="0/1"   name="offset"/>
           <InterpolatingParam id="5609" interp="linr"  time="0/1" value="0.75" leadInLength="0/1"   name="opacity"/>
           </Parameters>
          </GenericEffect>
         </Effects>
         <Attributes>
          <Attribute id="5610"  name="vectorNode">
           <VectorNode id="5611" kind="TypeWinXML"  >
            <DoubleParameters>
             <InterpolatingParam id="5612" interp="linr"  time="0/1" value="-1" leadInLength="0/1"  name="CutoutPercentage"/>
             <InterpolatingParam id="5613" interp="linr"  time="0/1" value="30" leadInLength="0/1"  name="RoundedRectRadius"/>
             <InterpolatingParam id="5614" interp="linr"  time="0/1" value="3" leadInLength="0/1"  name="Style"/>
             <InterpolatingParam id="5615" interp="linr"  time="0/1" value="215" leadInLength="0/1"  name="borderColorBlue"/>
             <InterpolatingParam id="5616" interp="linr"  time="0/1" value="215" leadInLength="0/1"  name="borderColorGreen"/>
             <InterpolatingParam id="5617" interp="linr"  time="0/1" value="215" leadInLength="0/1"  name="borderColorRed"/>
             <InterpolatingParam id="5618" interp="linr"  time="0/1" value="1" leadInLength="0/1"  name="borderState"/>
             <InterpolatingParam id="5619" interp="linr"  time="0/1" value="5" leadInLength="0/1"  name="borderWidth"/>
             <InterpolatingParam id="5620" interp="linr"  time="0/1" value="0" leadInLength="0/1"  name="dimensionTime"/>
             <InterpolatingParam id="5621" interp="linr"  time="0/1" value="243" leadInLength="0/1"  name="fillColorBlue"/>
             <InterpolatingParam id="5622" interp="linr"  time="0/1" value="238" leadInLength="0/1"  name="fillColorGreen"/>
             <InterpolatingParam id="5623" interp="linr"  time="0/1" value="219" leadInLength="0/1"  name="fillColorRed"/>
             <InterpolatingParam id="5624" interp="linr"  time="0/1" value="1" leadInLength="0/1"  name="fillState"/>
             <InterpolatingParam id="5625" interp="linr"  time="0/1" value="1" leadInLength="0/1"  name="flipOnXAxis"/>
             <InterpolatingParam id="5626" interp="linr"  time="0/1" value="1" leadInLength="0/1"  name="flipOnYAxis"/>
             <InterpolatingParam id="5627" interp="linr"  time="0/1" value="252.22222222222223" leadInLength="0/1"  name="height"/>
             <InterpolatingParam id="5628" interp="linr"  time="0/1" value="0" leadInLength="0/1"  name="textDropShadow"/>
             <InterpolatingParam id="5629" interp="linr"  time="0/1" value="0" leadInLength="0/1"  name="textIgnoresOpacity"/>
             <InterpolatingParam id="5630" interp="linr"  time="0/1" value="0.86784140969162993" leadInLength="0/1"  name="textRectHeight"/>
             <InterpolatingParam id="5631" interp="linr"  time="0/1" value="0.90196078431372551" leadInLength="0/1"  name="textRectWidth"/>
             <InterpolatingParam id="5632" interp="linr"  time="0/1" value="0.049019607843137254" leadInLength="0/1"  name="textRectX"/>
             <InterpolatingParam id="5633" interp="linr"  time="0/1" value="0.066079295154185022" leadInLength="0/1"  name="textRectY"/>
             <InterpolatingParam id="5634" interp="linr"  time="0/1" value="0" leadInLength="0/1"  name="textVerticalAlign"/>
             <InterpolatingParam id="5635" interp="linr"  time="0/1" value="340" leadInLength="0/1"  name="width"/>
            </DoubleParameters>
            <StringParameters>
             <Parameter id="5636"  name="VectorPath">
              <Keyframes>
              <Keyframe id="5637"  time="0/1" value="M10,0h286c5.521,0,10,4.477,10,10v207c0,5.521-4.479,10-10,10H10c-5.523,0-10-4.479-10-10V10&#xa;&#x9;C0,4.477,4.477,0,10,0z" leadInLength="0/1"  />
              </Keyframes>
             </Parameter>
             <Parameter id="5638"  name="filename">
              <Keyframes>
              <Keyframe id="5639"  time="0/1" value="D:\Program Files (x86)\TechSmith\Camtasia Studio 8\Media\Studio\Callouts\roundedrectangle.xml" leadInLength="0/1"  />
              </Keyframes>
             </Parameter>
             <Parameter id="5640"  name="name">
              <Keyframes>
              <Keyframe id="5641"  time="0/1" value="Filled Rounded Rectangle" leadInLength="0/1"  />
              </Keyframes>
             </Parameter>
             <Parameter id="5642"  name="text">
              <Keyframes>
              <Keyframe id="5643"  time="0/1" value="{\rtf1\ansi\ansicpg1252\deff0\deflang1033{\fonttbl{\f0\fnil\fcharset134 Arial;}{\f1\fswiss\fprq2\fcharset0 Arial;}}&#xD;&#xa;{\colortbl ;\red16\green144\blue255;}&#xD;&#xa;\viewkind4\uc1\pard\qc\cf1\f0\fs120\&apos;bb\&apos;e6\&apos;d6\&apos;c6\&apos;ce\&apos;c4\&apos;d7\&apos;d6\f1\fs96\par&#xD;&#xa;}&#xD;&#xa;" leadInLength="0/1"  />
              </Keyframes>
             </Parameter>
             <Parameter id="5644"  name="xmlContent">
              <Keyframes>
              <Keyframe id="5645"  time="0/1" value="﻿&lt;?xml version=&quot;1.0&quot;?&gt;&#xa;&#xa;&lt;Overlay version=&quot;1.0.1&quot;&gt;&#xa;&#xa;&lt;Overlay_Filename&gt;roundedrectangle.png&lt;/Overlay_Filename&gt;&#xa;&lt;Overlay_Name&gt;Filled Rounded Rectangle&lt;/Overlay_Name&gt;&#xa;&lt;Text_Top&gt;15&lt;/Text_Top&gt;&#xa;&lt;Text_Left&gt;15&lt;/Text_Left&gt;&#xa;&lt;Text_Bottom&gt;15&lt;/Text_Bottom&gt;&#xa;&lt;Text_Right&gt;15&lt;/Text_Right&gt;&#xa;&lt;Fill_Color&gt;1&lt;/Fill_Color&gt;&#xa;&lt;Border_Color&gt;1&lt;/Border_Color&gt;&#xa;&lt;Initial_Fill_Color&gt;0xffe05f00&lt;/Initial_Fill_Color&gt;&#xa;&lt;Initial_Border_Color&gt;0xffd7d7d7&lt;/Initial_Border_Color&gt;&#xa;&lt;VectorProps&gt;&#xa;&lt;figure&gt;&#xa;&lt;svg&gt;M10,0h286c5.521,0,10,4.477,10,10v207c0,5.521-4.479,10-10,10H10c-5.523,0-10-4.479-10-10V10&#xa;&#x9;C0,4.477,4.477,0,10,0z&lt;/svg&gt;&#xa;&lt;/figure&gt;&#xa;&lt;borderWidth&gt;5.00&lt;/borderWidth&gt;&#xa;&lt;seamY&gt;-1&lt;/seamY&gt;&#xa;&lt;roundedRectRadius&gt;30&lt;/roundedRectRadius&gt;&#xa;&lt;shapeWidth&gt;306&lt;/shapeWidth&gt;&#xa;&lt;shapeHeight&gt;227&lt;/shapeHeight&gt;&#xa;&lt;/VectorProps&gt;&#xa;&lt;Style&gt;5&lt;/Style&gt;&#xa;&lt;/Overlay&gt;" leadInLength="0/1"  />
              </Keyframes>
             </Parameter>
            </StringParameters>
           </VectorNode>
          </Attribute>
         </Attributes>
         <MetaData>
          <entry key="WinSubProjectDisplayName" val=""/>
         </MetaData>
         <LeftEdgeMods length="30/1" groupName="OpacityFade">
          <EdgeMod parameter="5602">
           <FadeInFunc id="5567"  />
          </EdgeMod>
         </LeftEdgeMods>
         <RightEdgeMods length="30/1" groupName="OpacityFade">
          <EdgeMod parameter="5602">
           <FadeOutFunc id="5646"  />
          </EdgeMod>
         </RightEdgeMods>
         <ExtraData>
          <Entry key="ZoomPanBin">
           <ZoomPanBin id="5647"  >
            <ZoomPanKeyframes>
             <ZoomPanKeyframe id="5648" timeRangeEnd="-9999999/1" timeRangeDuration="0/1" interpolaterName="linr"  />
            </ZoomPanKeyframes>
           </ZoomPanBin>
          </Entry>
         </ExtraData>
        </Callout>
       </Medias>
      </GenericTrack>
      <GenericTrack id="5649"  >
       <Attributes>
        <Attribute id="5650" value="" name="ident"/>
        <Attribute id="5651" value="0" name="audioMuted"/>
        <Attribute id="5652" value="0" name="videoHidden"/>
       </Attributes>
       <MetaData>
        <entry key="IsLocked" val="False"/>
        <entry key="WinTrackHeight" val="62"/>
       </MetaData>
       <Medias>
        <Caption id="5653" start="3949" duration="3187" scalar="1/1" mediaStart="0/1" mediaDuration="3187/1" maxMediaDuration="9.22337e+018"  allowTrimOut="1"  >
         <Parameters>
          <Parameter id="5654"  name="captionData">
           <Keyframes>
           <Keyframe id="5655"  time="-9999999/1" value="{21,首先，绘制心形,0}" leadInLength="0/1"  />
           <Keyframe id="5656"  time="59/1" value="{60,心形是由竖立的六面体和两个圆柱体组合而成,0}" leadInLength="0/1"  />
           <Keyframe id="5657"  time="194/1" value="{60,                                                            ,0}" leadInLength="0/1"  />
           <Keyframe id="5658"  time="271/1" value="{54,选择基本实体中的六面体放置于网格中心,0}" leadInLength="0/1"  />
           <Keyframe id="5659"  time="430/1" value="{36,设置长为20，宽为15，高为20,0}" leadInLength="0/1"  />
           <Keyframe id="5660"  time="600/1" value="{1, ,0}" leadInLength="0/1"  />
           <Keyframe id="5661"  time="659/1" value="{18,切换至前视图,0}" leadInLength="0/1"  />
           <Keyframe id="5662"  time="785/1" value="{51,六面体旋转需要使用基本编辑中的移动,0}" leadInLength="0/1"  />
           <Keyframe id="5663"  time="947/1" value="{42,移动分为点到点移动与动态移动,0}" leadInLength="0/1"  />
           <Keyframe id="5664"  time="1067/1" value="{36,点到点移动是位置上的移动,0}" leadInLength="0/1"  />
           <Keyframe id="5665"  time="1135/1" value="{41,动态移动是物体在x,y,z上的移动,0}" leadInLength="0/1"  />
           <Keyframe id="5666"  time="1243/1" value="{20,六面体旋转45度,0}" leadInLength="0/1"  />
           <Keyframe id="5667"  time="1399/1" value="{12,点击确定,0}" leadInLength="0/1"  />
           <Keyframe id="5668"  time="1483/1" value="{57,在六面体的左上角与右上角放置两个圆柱体,0}" leadInLength="0/1"  />
           <Keyframe id="5669"  time="1603/1" value="{50,选择圆柱体  对齐平面为六面体的正面,0}" leadInLength="0/1"  />
           <Keyframe id="5670"  time="1723/1" value="{36,将圆柱体放为左上角的中点,0}" leadInLength="0/1"  />
           <Keyframe id="5671"  time="1963/1" value="{25,半径为10，宽度为15,0}" leadInLength="0/1"  />
           <Keyframe id="5672"  time="2154/1" value="{28,选择加运算 点击确定,0}" leadInLength="0/1"  />
           <Keyframe id="5673"  time="2274/1" value="{27,右边也是同样的操作,0}" leadInLength="0/1"  />
           <Keyframe id="5674"  time="2346/1" value="{33,心形的造型已经基本完成,0}" leadInLength="0/1"  />
           <Keyframe id="5675"  time="2466/1" value="{69,但是我们的心形是空心的，这时候要对心形进行抽壳,0}" leadInLength="0/1"  />
           <Keyframe id="5676"  time="2675/1" value="{51,负数代表方向，0.5代表抽壳完成的厚度,0}" leadInLength="0/1"  />
           <Keyframe id="5677"  time="2843/1" value="{51,接下来在心形的上方为它打一个投放口,0}" leadInLength="0/1"  />
           <Keyframe id="5678"  time="3028/1" value="{40,选择六面体 对齐面为心形正面,0}" leadInLength="0/1"  />
           </Keyframes>
          </Parameter>
          <Parameter id="5679"  name="toc"/>
          <Parameter id="5680"  name="quiz"/>
         </Parameters>
         <Attributes>
         </Attributes>
         <MetaData>
          <entry key="WinSubProjectDisplayName" val=""/>
         </MetaData>
        </Caption>
       </Medias>
      </GenericTrack>
      <GenericTrack id="5681"  >
       <Attributes>
        <Attribute id="5682" value="" name="ident"/>
        <Attribute id="5683" value="0" name="audioMuted"/>
        <Attribute id="5684" value="0" name="videoHidden"/>
       </Attributes>
       <MetaData>
        <entry key="IsLocked" val="False"/>
        <entry key="WinTrackHeight" val="62"/>
       </MetaData>
       <Medias>
       </Medias>
      </GenericTrack>
     </Tracks>
    </GenericMixer>
   <CaptionAttributes id="5685"  >
    <Attribute id="5686" value="1" name="captionsEnabled"/>
    <Attribute id="5687" value="Arial" name="captionsFontName"/>
    <Attribute id="5688" value="16" name="captionsFontSize"/>
    <Attribute id="5689" value="(219,238,243,255)" name="captionsBackgroundColor"/>
    <Attribute id="5690" value="(127,127,127,255)" name="captionsForegroundColor"/>
    <Attribute id="5691" value="en" name="lang"/>
    <Attribute id="5692" value="2" name="captionsAlignment"/>
    <Attribute id="5693" value="0" name="captionsDefaultFontSize"/>
    <Attribute id="5694" value="0.5" name="captionsOpacity"/>
    <Attribute id="5695" value="0" name="captionsBackgroundEnabled"/>
    <Attribute id="5696" value="1" name="captionsBackgroundOnlyAroundText"/>
   </CaptionAttributes>
   <Parameters>
    <VectorParam id="5697"  name="eyePosition">
     <InterpolatingParam id="5698" interp="linr"  time="0/1" value="0" leadInLength="0/1"  />
     <InterpolatingParam id="5699" interp="linr"  time="0/1" value="0" leadInLength="0/1"  />
     <InterpolatingParam id="5700" interp="linr"  time="0/1" value="3000" leadInLength="0/1"  />
    </VectorParam>
    <VectorParam id="5701"  name="eyeLookAtPosition">
     <InterpolatingParam id="5702" interp="linr"  time="0/1" value="0" leadInLength="0/1"  />
     <InterpolatingParam id="5703" interp="linr"  time="0/1" value="0" leadInLength="0/1"  />
     <InterpolatingParam id="5704" interp="linr"  time="0/1" value="0" leadInLength="0/1"  />
    </VectorParam>
    <VectorParam id="5705"  name="eyeUpVector">
     <InterpolatingParam id="5706" interp="linr"  time="0/1" value="0" leadInLength="0/1"  />
     <InterpolatingParam id="5707" interp="linr"  time="0/1" value="1" leadInLength="0/1"  />
     <InterpolatingParam id="5708" interp="linr"  time="0/1" value="0" leadInLength="0/1"  />
    </VectorParam>
    <InterpolatingParam id="5709" interp="linr"  time="0/1" value="0.23885785" leadInLength="0/1"  name="fov"/>
    <InterpolatingParam id="5710" interp="linr"  time="0/1" value="1.5" leadInLength="0/1"  name="nearClipDistance"/>
    <InterpolatingParam id="5711" interp="linr"  time="0/1" value="6000" leadInLength="0/1"  name="farClipDistance"/>
   </Parameters>
  </Timeline>
 </Project>
</GoProject>
</CSMLData>

</Project_Data>
